<?xml version="1.0" standalone="no"?><!DOCTYPE svg PUBLIC "-//W3C//DTD SVG 1.1//EN" "http://www.w3.org/Graphics/SVG/1.1/DTD/svg11.dtd"><svg t="1700136474091" class="icon" viewBox="0 0 1024 1024" version="1.1" xmlns="http://www.w3.org/2000/svg" p-id="6168" xmlns:xlink="http://www.w3.org/1999/xlink" width="64" height="64"><path d="M1013.55102 512v27.167347c-4.179592 68.963265-20.897959 131.657143-48.065306 190.171429-81.502041 167.183673-252.865306 284.212245-451.395918 284.212244-277.942857 0-501.55102-225.697959-501.55102-501.55102 0-277.942857 223.608163-501.55102 501.55102-501.55102 275.853061 0 499.461224 223.608163 499.461224 501.55102z" fill="#FF7058" p-id="6169"></path><path d="M512 512m-397.061224 0a397.061224 397.061224 0 1 0 794.122448 0 397.061224 397.061224 0 1 0-794.122448 0Z" fill="#FFFFFF" p-id="6170"></path><path d="M512 512m-294.661224 0a294.661224 294.661224 0 1 0 589.322448 0 294.661224 294.661224 0 1 0-589.322448 0Z" fill="#FF7058" p-id="6171"></path><path d="M512 512m-190.171429 0a190.171429 190.171429 0 1 0 380.342858 0 190.171429 190.171429 0 1 0-380.342858 0Z" fill="#FFFFFF" p-id="6172"></path><path d="M512 512m-85.681633 0a85.681633 85.681633 0 1 0 171.363266 0 85.681633 85.681633 0 1 0-171.363266 0Z" fill="#FF7058" p-id="6173"></path><path d="M1013.55102 539.167347c-4.179592 68.963265-20.897959 131.657143-48.065306 190.171429l-73.142857-18.808164-20.897959-71.053061-365.714286-98.220408c-18.808163-4.179592-29.257143-22.987755-22.987755-41.795919 4.179592-18.808163 22.987755-29.257143 41.795919-22.987755l363.624489 98.220409 54.334694-52.244898 71.053061 16.718367z" fill="#334A5E" p-id="6174"></path><path d="M812.930612 208.979592c-12.538776-12.538776-35.526531-12.538776-48.065306 0L491.102041 482.742857c-12.538776 12.538776-12.538776 35.526531 0 48.065306 12.538776 12.538776 35.526531 12.538776 48.065306 0l273.763265-273.763265c12.538776-12.538776 12.538776-35.526531 0-48.065306z" fill="#40596B" p-id="6175"></path><path d="M890.253061 131.657143l-123.297959 121.208163-27.167347-110.759184L863.085714 18.808163z" fill="#84DBFF" p-id="6176"></path><path d="M879.804082 280.032653l121.208163-121.208163-110.759184-27.167347-123.297959 121.208163z" fill="#54C0EB" p-id="6177"></path></svg>