<svg xmlns="http://www.w3.org/2000/svg" width="64" height="64" class="icon" viewBox="0 0 1024 1024"><path d="M896 480c-1.344 0-2.464.608-3.744.768-1.28-.16-2.432-.768-3.744-.768H544V132c0-.704-.352-1.312-.416-2.016.064-.672.416-1.28.416-1.984a32 32 0 0 0-32-32C282.624 96 96 282.624 96 512s186.624 416 416 416 416-186.624 416-416a32 32 0 0 0-32-32M512 864c-194.08 0-352-157.92-352-352 0-183.296 140.864-334.144 320-350.368V512a32 32 0 0 0 32 32h350.368C846.144 723.136 695.296 864 512 864m113.664-685.28a355.36 355.36 0 0 1 216.832 211.84 32 32 0 1 0 60.064-22.048 414.24 414.24 0 0 0-256.224-250.336 31.968 31.968 0 1 0-20.672 60.544"/></svg>