<svg xmlns="http://www.w3.org/2000/svg" width="64.938" height="64" class="icon" viewBox="0 0 1039 1024"><path d="M919.232 710.592A120.704 120.704 0 0 1 798.56 589.92v-5.024l-67.872-15.072c-15.072 45.248-45.248 85.472-82.944 110.592l57.824 98.048a147.584 147.584 0 0 1 35.2-5.024A120.704 120.704 0 0 1 861.44 894.112a120.704 120.704 0 0 1-120.672 120.672 120.704 120.704 0 0 1-120.672-120.672c0-40.224 20.096-75.424 47.776-95.52l-55.296-98.048a236.768 236.768 0 0 1-75.424 12.576c-57.824 0-108.096-25.152-145.792-62.848L260.64 755.84a116.8 116.8 0 0 1 15.072 57.824A120.704 120.704 0 0 1 155.04 934.336 120.704 120.704 0 0 1 34.368 813.664 120.704 120.704 0 0 1 155.04 692.992c30.176 0 60.32 12.576 80.448 32.672l133.216-103.072c-20.096-32.672-32.672-70.4-32.672-110.592 0-47.776 17.6-93.024 45.248-128.192l-155.84-155.84c-20.096 15.072-42.72 22.624-70.4 22.624A120.704 120.704 0 0 1 34.368 129.92 120.704 120.704 0 0 1 155.04 9.248 120.704 120.704 0 0 1 275.712 129.92c0 25.152-7.552 50.272-22.624 70.4l155.84 155.84a198.848 198.848 0 0 1 130.72-47.776c17.6 0 35.2 2.528 50.272 7.552l32.672-80.448a119.648 119.648 0 0 1-62.848-105.568A120.704 120.704 0 0 1 680.416 9.248 120.704 120.704 0 0 1 801.088 129.92a120.704 120.704 0 0 1-120.672 120.672c-7.552 0-15.072 0-22.624-2.528l-32.672 80.448C692.992 361.184 740.768 431.584 740.768 512v20.096l67.872 15.072a117.504 117.504 0 0 1 110.592-75.424 120.704 120.704 0 0 1 120.672 120.672c0 65.344-55.296 118.144-120.672 118.144zM660.32 896.608c0 45.248 35.2 80.448 80.448 80.448s80.448-35.2 80.448-80.448c0-45.248-35.2-80.448-80.448-80.448s-80.448 35.2-80.448 80.448M155.04 733.216c-45.248 0-80.448 35.2-80.448 80.448s35.2 80.448 80.448 80.448c45.248 0 80.448-35.2 80.448-80.448 0-42.72-35.2-80.448-80.448-80.448m0-683.744c-45.248 0-80.448 35.2-80.448 80.448s35.2 80.448 80.448 80.448c45.248 0 80.448-35.2 80.448-80.448s-35.2-80.448-80.448-80.448m522.88 160.864c45.248 0 80.448-35.2 80.448-80.448s-35.2-80.448-80.448-80.448c-45.248 0-80.448 35.2-80.448 80.448s35.2 80.448 80.448 80.448M537.152 353.632c-87.968 0-160.864 72.896-160.864 160.864S449.184 675.36 537.152 675.36s160.864-72.896 160.864-160.864c0-90.496-70.4-160.864-160.864-160.864M919.232 512c-45.248 0-80.448 35.2-80.448 80.448s35.2 80.448 80.448 80.448c45.248 0 80.448-35.2 80.448-80.448S964.48 512 919.232 512m-382.08-178.464c-98.048 0-178.464 80.448-178.464 178.464s80.448 178.464 178.464 178.464c98.048 0 178.464-80.448 178.464-178.464s-80.448-178.464-178.464-178.464m98.016 276.512H439.104v-5.024c0-30.176 57.824-62.848 72.896-65.344 0 0 0-5.024 2.528-7.552-2.528-5.024-12.576-15.072-15.072-30.176-2.528-2.528-5.024-5.024-7.552-10.048-5.024-5.024-5.024-12.576 0-20.096 0-7.552-2.528-30.176 10.048-45.248 7.552-7.552 20.096-12.576 35.2-12.576s27.648 5.024 35.2 12.576c12.576 15.072 10.048 37.696 10.048 45.248 5.024 5.024 5.024 15.072 2.528 22.624a34.464 34.464 0 0 1-7.552 10.048c-2.528 15.072-12.576 25.152-15.072 30.176 0 2.528 0 5.024 2.528 7.552 15.072 2.528 72.896 35.2 72.896 65.344v2.528z"/></svg>