<svg xmlns="http://www.w3.org/2000/svg" width="64" height="64" class="icon" viewBox="0 0 1024 1024"><path d="M959.36 524.8c.128-4.288.64-8.48.64-12.8 0-53.6-9.408-105.92-27.616-155.2a32 32 0 0 0-60.032 22.144c13.76 37.28 21.28 76.64 22.944 117.024H832a32 32 0 0 0 0 64h60.672C870.336 738.912 725.12 879.392 544 894.368V832a32 32 0 0 0-64 0v62.368C298.88 879.392 153.664 738.912 131.328 560H192a32 32 0 0 0 0-64h-63.2c8.032-193.92 159.424-350.528 351.2-366.368V192a32 32 0 0 0 64 0v-62.336c42.912 3.552 84.48 13.856 123.36 31.072a31.968 31.968 0 1 0 25.92-58.496A445.824 445.824 0 0 0 512 64C264.576 64 64 264.576 64 512c0 4.32.512 8.512.64 12.8-.096 1.12-.64 2.08-.64 3.2 0 1.888.768 3.552 1.088 5.344C76.288 770.784 271.776 960 512 960s435.712-189.216 446.912-426.656c.32-1.792 1.088-3.456 1.088-5.344 0-1.12-.544-2.08-.64-3.2"/><path d="M851.392 162.592 475.936 323.52A191.936 191.936 0 0 0 512 704a191.936 191.936 0 0 0 179.296-123.744L892.16 207.168c.288-.544.256-1.152.512-1.696.96-2.016 1.408-4.16 1.92-6.336.448-1.92.992-3.776 1.088-5.728.096-1.952-.288-3.808-.576-5.76-.32-2.24-.576-4.384-1.344-6.496-.192-.576-.128-1.184-.352-1.76-.544-1.312-1.6-2.176-2.304-3.36a29.664 29.664 0 0 0-3.744-5.408 28.864 28.864 0 0 0-5.056-4.192c-1.12-.8-1.888-1.92-3.136-2.592-.544-.288-1.152-.256-1.696-.512-2.016-.96-4.16-1.408-6.336-1.92-1.92-.448-3.776-.992-5.728-1.088-1.952-.096-3.808.288-5.76.576-2.24.32-4.384.576-6.496 1.344-.576.192-1.184.096-1.76.352m-253.056 178.08 194.048-83.168L691.616 444.64a192.32 192.32 0 0 0-93.28-103.968"/></svg>