<svg xmlns="http://www.w3.org/2000/svg" width="64" height="64" class="icon" viewBox="0 0 1024 1024"><path d="M612.6 83.9H948c6.2 0 11.3 5 11.3 11.3V139c0 6.2-5 11.3-11.3 11.3H612.6c-6.2 0-11.3-5-11.3-11.3V95.2c0-6.3 5-11.3 11.3-11.3m-11.3 252.5v-43.9c0-6.2 5-11.3 11.3-11.3H948c6.2 0 11.3 5 11.3 11.3v43.9c0 6.2-5 11.3-11.3 11.3H612.6c-6.3 0-11.3-5.1-11.3-11.3m0 197.4v-43.9c0-6.2 5-11.3 11.3-11.3H948c6.2 0 11.3 5 11.3 11.3v43.9c0 6.2-5 11.3-11.3 11.3H612.6c-6.3 0-11.3-5.1-11.3-11.3M64 731.2v-43.9c0-6.2 5-11.3 11.3-11.3H948c6.2 0 11.3 5 11.3 11.3v43.9c0 6.2-5 11.3-11.3 11.3H75.3c-6.3 0-11.3-5.1-11.3-11.3m0 197.4v-43.9c0-6.2 5-11.3 11.3-11.3H948c6.2 0 11.3 5 11.3 11.3v43.9c0 6.2-5 11.3-11.3 11.3H75.3c-6.3 0-11.3-5-11.3-11.3m.2-773.3V94.6c0-6.2 5-11.3 11.3-11.3h425c6.2 0 11.3 5 11.3 11.3v61.1c0 6.2-5 11.3-11.3 11.3l-425-.3c-6.3-.1-11.3-5.1-11.3-11.4"/><path d="M243.2 165h89.5v427.5c0 11.3-9.2 20.5-20.5 20.5h-48.6c-11.3 0-20.5-9.2-20.5-20.5V165z"/></svg>