<svg xmlns="http://www.w3.org/2000/svg" width="32" height="32" class="icon" viewBox="0 0 1024 1024"><path fill="#323333" d="M908.8 1005.44H115.2A101.76 101.76 0 0 1 14.08 903.68V110.72A101.76 101.76 0 0 1 115.2 8.96h296.96a32.64 32.64 0 0 1 32 32V262.4a32 32 0 0 1-32 32 32 32 0 0 1-32-32v-192H115.2a37.76 37.76 0 0 0-37.12 37.76v795.52a37.76 37.76 0 0 0 37.12 37.76h793.6a37.76 37.76 0 0 0 37.12-37.76V267.52a32 32 0 0 1 32-32 32 32 0 0 1 32 32v636.16a101.76 101.76 0 0 1-101.12 101.76"/><path fill="#323333" d="M977.92 299.52a32.64 32.64 0 0 1-32-32v-87.04a37.12 37.12 0 0 0-37.12-37.76H421.12a32 32 0 0 1-32-32 32 32 0 0 1 32-32H908.8a101.76 101.76 0 0 1 101.12 101.76v87.04a32 32 0 0 1-32 32"/><path fill="#323333" d="M977.92 299.52H64a32 32 0 0 1-32-32 32 32 0 0 1 32-32h913.92a32 32 0 0 1 32 32 32 32 0 0 1-32 32"/><path fill="#323333" d="M699.52 299.52a32 32 0 0 1-32-32v-156.8a32 32 0 0 1 64 0v156.8a32 32 0 0 1-32 32"/></svg>