<svg xmlns="http://www.w3.org/2000/svg" width="64" height="64" class="icon" viewBox="0 0 1024 1024"><path d="M960 591.424V368.96c0-.288.16-.512.16-.768s-.16-.512-.16-.768V192a32 32 0 0 0-32-32H96a32 32 0 0 0-32 32v175.424c0 .288-.16.512-.16.768s.16.48.16.768v222.464c0 .288-.16.512-.16.768s.16.48.16.768V864a32 32 0 0 0 32 32h832a32 32 0 0 0 32-32V592.96c0-.288.16-.512.16-.768s-.16-.512-.16-.768m-560-31.232v-160h208v160zm208 64V832H400V624.192zm-480-224h208v160H128zm544 0h224v160H672zM896 224v112.192H128V224zM128 624.192h208V832H128zM672 832V624.192h224V832z"/></svg>