<svg xmlns="http://www.w3.org/2000/svg" width="832" height="821"><path fill="#a3b1bf" fill-opacity=".396" fill-rule="evenodd" d="m425.24 254.07-.04-.01-5.94-.05h-.02l-.58-.12-.47-.32-.32-.46-.13-.59.11-.59.32-.47.47-.33.58-.12 6.06.06.59.13.46.34.31.48.1.59-.13.57-.33.46-.46.31zm-17.98.49-.55-.1-.46-.29-.33-.43-.16-.55.07-.6.28-.5.45-.35.57-.17 6.05-.4.58.1.49.3.34.45.15.58-.09.6-.3.48-.45.34-.59.15-5.92.39zm29.95.29h-.16l-5.92-.51-.58-.16-.45-.35-.28-.49-.09-.59.17-.58.35-.45.49-.29.59-.08 6.03.51.58.18.43.37.27.5.06.6-.16.54-.33.42-.46.28zm-41.86 1.17-.52-.1-.44-.26-.33-.39-.18-.51.02-.6.24-.52.42-.39.56-.21 5.99-.85.6.05.51.26.37.43.19.57-.04.59-.26.51-.43.38-.57.19-5.89.83zm53.73.52-.27-.02-5.86-.95-.57-.2-.42-.38-.25-.52-.04-.59.21-.57.38-.42.51-.25.6-.04 5.98.97.56.22.4.4.23.52.02.6-.19.5-.33.39-.44.25zm-65.48 1.84-.5-.09-.42-.23-.34-.36-.2-.47-.02-.6.2-.54.38-.42.55-.25 5.91-1.3h.6l.52.22.41.4.23.55v.6l-.22.53-.4.4-.55.24-5.8 1.28zm77.19.76-.38-.05-5.77-1.4-.55-.24-.39-.41-.21-.54.01-.6.24-.54.41-.39.53-.21h.61l5.88 1.42.54.27.38.43.19.54-.04.6-.21.46-.33.35zm-88.74 2.49-.87-.28-.56-.76-.06-.6.16-.55.35-.45.52-.29 5.8-1.75.6-.05.54.18.43.37.28.53.04.6-.18.54-.37.44-.53.28-5.69 1.71zm100.22.98-.49-.08-5.65-1.83-.53-.28-.36-.45-.17-.54.06-.6.28-.53.45-.36.54-.17.6.06 5.76 1.87.52.3.34.46.15.55-.08.59-.56.74zm-111.51 3.15-.82-.25-.57-.68-.11-.59.11-.56.32-.47.5-.34 5.66-2.19.59-.09.55.13.47.34.31.51.09.59-.14.56-.33.46-.51.31-5.55 2.16zm122.67 1.19-.59-.12-5.48-2.25-.51-.33-.32-.47-.13-.55.1-.6.33-.5.47-.32.55-.13.59.1 5.59 2.3.49.34.31.48.1.56-.12.59-.57.66zm-133.61 3.8-.77-.22-.57-.61-.16-.58.08-.57.27-.49.48-.37 5.47-2.63.58-.13.56.09.49.3.35.49.14.58-.1.56-.29.49-.49.35-5.37 2.58zm144.4 1.37-.69-.17-5.3-2.66-.48-.36-.29-.5-.08-.56.14-.58.37-.48.49-.29.56-.08.58.14 5.4 2.72.47.38.27.5.06.57-.17.57-.57.6zm-154.92 4.42-.72-.18-.57-.54-.2-.57.03-.57.24-.51.45-.41 5.25-3.03.57-.18.57.05.51.26.39.46.18.57-.06.57-.25.51-.46.39-5.16 2.97zm165.3 1.56-.8-.23-5.08-3.06-.45-.4-.25-.51-.04-.57.19-.57.4-.45.51-.25.57-.04.57.19 5.18 3.12.43.42.23.52.02.57-.21.56-.56.52zm-175.34 5.02-.68-.15-.55-.48-.24-.55-.01-.57.2-.53.41-.44 5-3.42.56-.22.57.01.53.22.42.43.22.56-.01.57-.22.52-.42.42-4.92 3.36zm185.24 1.73-.9-.29-4.83-3.44-.42-.43-.21-.53v-.57l.23-.55.43-.42.53-.21h.58l.55.23 4.93 3.51.4.44.19.54-.02.57-.26.55-.54.45zm-194.76 5.59-.62-.13-.53-.41-.29-.53-.05-.57.16-.54.37-.47 4.73-3.78.54-.27.57-.03.54.18.46.39.26.54.04.57-.18.54-.4.45-4.64 3.72-.46.26zm-8.93 8.02-.57-.12-.51-.34-.32-.51-.1-.56.12-.56.34-.49 4.43-4.13.52-.3.56-.08.56.14.48.35.3.52.08.57-.14.55-.36.48-4.34 4.05-.5.32zm-8.3 8.65-.51-.09-.48-.28-.36-.49-.14-.55.07-.56.3-.52 4.11-4.45.49-.34.56-.12.56.09.51.32.34.5.12.56-.09.56-.32.51-4.03 4.36-.52.38zm-7.61 9.26-.91-.31-.39-.45-.19-.54.03-.57.27-.54 3.75-4.74.47-.38.54-.16.57.05.53.28.38.47.16.55-.05.56-.28.53-3.69 4.66-.54.44zm-6.89 9.8-.82-.24-.43-.42-.22-.53-.01-.57.22-.55 3.38-5.02.44-.41.53-.2.57.01.55.24.42.44.2.53-.01.57-.24.55-3.32 4.92-.56.51zm-6.13 10.29-.72-.18-.46-.39-.26-.51-.06-.57.18-.57 2.99-5.25.41-.44.52-.25.57-.03.56.2.44.4.25.52.03.57-.2.57-2.94 5.15-.56.58zm-5.33 10.72-.62-.14-.48-.35-.3-.48-.1-.56.13-.59 2.59-5.46.37-.47.49-.29.57-.07.58.15.47.37.28.5.08.57-.16.58-2.53 5.35-.57.65zm-13.72 58h-.06l-.59-.15-.45-.34-.3-.48-.1-.59.37-6.05.17-.58.36-.44.5-.28.59-.07.57.16.45.36.28.5.07.59-.36 5.93-.14.57-.32.45-.47.3zm315.81 3.1-.58-.12-.47-.31-.32-.46-.13-.58-.25-5.93.09-.6.29-.49.45-.35.58-.15.6.08.49.29.34.45.16.58.25 6.05-.11.59-.3.48-.47.33-.58.14zm-315.88 8.89-.57-.11-.47-.31-.32-.46-.13-.57-.09-5.22v-.83l.13-.59.32-.47.47-.32.58-.12h.01l.59.12.47.32.32.48.11.59v.82l.08 5.12-.1.59-.3.49-.46.33-.59.14zm315.71 3.1h-.08l-.58-.15-.45-.34-.3-.49-.09-.59.2-5.94.12-.59.32-.46.47-.32.59-.11h.02l.58.13.47.32.31.48.12.59-.2 6.05-.14.56-.33.45-.46.3zm-1.07 11.95-.19-.01-.57-.2-.43-.37-.25-.51-.05-.6.64-5.91.17-.57.36-.44.5-.28.6-.07.58.17.44.36.27.5.07.6-.65 6.02-.17.53-.33.41-.45.27zm-1.97 11.83-.3-.03-.55-.24-.4-.41-.22-.52v-.6l1.09-5.84.21-.56.4-.42.52-.24.59-.02.57.22.41.39.24.52.02.6-1.11 5.95-.19.49-.34.37-.43.25zm-2.87 11.64-.41-.05-.53-.28-.37-.44-.18-.54.05-.6 1.53-5.74.26-.54.42-.38.53-.2.61.02.54.26.38.42.2.54-.02.6-1.56 5.85-.55.79zm-3.75 11.4-.52-.1-.51-.32-.33-.46-.13-.55.09-.6 1.96-5.6.3-.52.45-.35.55-.16.6.07.52.3.35.45.15.55-.07.6-2 5.71-.56.72zm-292.9 8.28-.81-.23-.57-.67-2.33-5.6-.1-.59.12-.56.33-.47.5-.32.59-.11.56.13.47.32.32.5 2.29 5.5.13.59-.11.56-.3.48-.49.35zm288.31 2.76-.63-.14-.48-.35-.3-.49-.09-.56.14-.59 2.38-5.42.33-.5.48-.31.56-.12.59.12.5.33.31.48.11.56-.11.59-2.43 5.53-.57.64zm-283.07 8.06-.76-.21-.57-.59-2.75-5.4-.15-.59.09-.56.28-.49.48-.37.58-.15.57.08.49.29.36.48 2.7 5.3.17.58-.06.56-.27.51-.46.38zm277.65 2.61-.73-.19-.46-.39-.26-.51-.05-.57.19-.57 2.78-5.23.38-.48.5-.27.56-.07.58.16.47.37.28.5.07.57-.16.57-2.84 5.34-.57.57zm-6.23 10.23-.82-.25-.43-.42-.22-.53v-.57l.22-.56 3.18-5.01.41-.44.52-.23.57-.03.56.2.44.41.24.52.03.57-.21.56-3.24 5.11-.55.5zm-6.98 9.74-.47-.08-.45-.23-.39-.46-.18-.54.04-.57.26-.54 3.55-4.76.44-.41.54-.19.57.01.55.25.41.44.19.53-.01.57-.25.55-3.61 4.85-.55.43zm-7.7 9.19-.53-.1-.48-.29-.35-.48-.14-.56.08-.56.31-.52 3.9-4.48.47-.37.55-.16.56.06.53.29.38.47.15.55-.06.56-.28.53-3.98 4.56-.51.38zm-8.37 8.58-.58-.11-.51-.36-.32-.5-.09-.57.12-.55.34-.5 4.23-4.17.5-.34.56-.11.56.1.5.32.34.5.11.56-.1.56-.32.51-4.31 4.25-.49.31zm-210.9 6.07-.51-.08-.46-.27-4.55-4-.35-.49-.13-.55.08-.56.31-.52.49-.35.55-.14.56.09.52.31 4.46 3.92.37.47.15.55-.06.57-.29.52-.53.4zm201.89 1.86-.62-.13-.54-.42-.28-.53-.05-.57.16-.54.38-.47 4.54-3.85.52-.29.56-.08.56.15.48.36.29.52.08.57-.15.55-.36.48-4.62 3.91-.46.26zm-192.46 5.54-.88-.29-4.83-3.64-.39-.46-.17-.54.03-.57.27-.53.46-.39.54-.18.57.04.54.27 4.74 3.57.41.45.19.53-.02.57-.25.55-.55.46zm182.88 1.69-.67-.16-.56-.48-.23-.55-.01-.57.2-.53.42-.44 4.81-3.49.54-.26.57-.03.54.19.45.4.26.54.03.57-.19.54-.39.45-4.91 3.55zm-172.92 4.97-.79-.22-5.09-3.27-.42-.43-.22-.52v-.57l.23-.56.43-.42.52-.22h.57l.56.23 4.99 3.2.44.41.24.52.02.57-.21.56-.56.54zm162.82 1.52-.73-.19-.56-.54-.2-.57.04-.57.24-.52.45-.4 5.06-3.12.56-.21.57.01.53.22.41.43.22.56-.01.57-.23.53-.43.42-5.16 3.18zm-152.4 4.36-.68-.17-5.32-2.86-.46-.4-.25-.51-.05-.57.19-.57.39-.45.51-.26.57-.04.57.18 5.22 2.82.47.37.27.5.07.57-.16.58-.57.6zm141.83 1.35-.78-.22-.57-.62-.15-.58.08-.57.28-.49.48-.37 5.29-2.72.57-.18.57.06.5.26.39.46.17.58-.05.57-.27.5-.46.39-5.39 2.77zm-130.99 3.72-.58-.12-5.52-2.45-.48-.36-.29-.49-.09-.56.14-.59.36-.48.49-.29.56-.09.58.14 5.42 2.41.49.34.31.48.11.56-.12.58-.56.68zm120 1.16-.82-.25-.57-.69-.11-.59.13-.56.32-.47.5-.33 5.48-2.32.59-.13.56.1.48.31.35.48.13.59-.1.56-.3.49-.49.34-5.59 2.36zm-108.79 3.08-.48-.08-5.7-2.03-.51-.32-.33-.47-.13-.56.09-.59.32-.5.47-.33.56-.13.59.09 5.59 1.99.52.3.35.46.15.55-.07.59-.56.75zm97.46.95-.88-.28-.55-.77-.06-.6.16-.54.36-.45.52-.29 5.65-1.89.6-.08.55.14.46.34.31.51.08.6-.14.55-.34.46-.51.31-5.76 1.92zm-85.95 2.42-.37-.05-5.84-1.59-.53-.28-.37-.44-.17-.54.05-.6.28-.53.44-.36.54-.18.6.05 5.73 1.56.54.26.38.43.2.53-.03.6-.21.47-.33.35zm74.37.72-.49-.08-.43-.24-.33-.36-.21-.48-.01-.6.2-.53.39-.42.55-.25 5.76-1.44.6-.04.54.18.43.38.27.53.04.6-.19.54-.37.43-.54.27-5.87 1.48zm-62.64 1.76-.25-.02-5.95-1.14-.55-.24-.4-.41-.21-.53v-.6l.24-.55.41-.4.53-.21h.6l5.83 1.12.56.22.42.39.23.52.02.6-.19.51-.33.39-.44.26zm50.86.49-.52-.09-.45-.26-.33-.4-.18-.52.03-.6.25-.52.42-.38.56-.21 5.86-1 .59.01.53.22.4.41.23.55-.01.6-.22.53-.41.4-.55.23-5.97 1.02zm-38.97 1.09-.14-.01-6.02-.68-.56-.2-.43-.38-.26-.51-.04-.6.2-.56.38-.43.51-.25.6-.04 5.9.67.57.17.44.36.28.5.06.6-.16.55-.33.42-.45.29zm27.06.26-.56-.11-.46-.29-.33-.43-.15-.56.08-.59.28-.5.45-.35.58-.16 5.91-.56.59.05.51.27.37.43.19.57-.05.6-.27.51-.43.37-.57.18-6.03.57zm-15.09.42h-.03l-6.05-.23-.58-.15-.45-.35-.29-.49-.09-.59.16-.58.34-.45.49-.29.59-.09 5.94.22.59.13.46.33.31.48.11.59-.12.58-.33.46-.47.31zm3.1.03-.59-.12-.47-.32-.32-.47-.12-.59.12-.59.32-.47.47-.32.59-.12 5.94-.11.59.1.48.3.34.46.15.58-.1.6-.3.48-.46.34-.59.14zm-3.23-429.98-.59-.12-.47-.31-.32-.47-.12-.58.11-.59.31-.48.47-.32.59-.13 6.03-.01.59.13.47.32.31.48.11.59-.12.58-.32.47-.47.32-.59.11h-.01l-5.97.01zm17.98.37h-.08l-5.96-.25-.59-.14-.46-.34-.3-.48-.1-.59.13-.59.34-.47.48-.31.59-.08 6.03.25.58.16.46.34.29.49.09.59-.14.57-.33.44-.46.3zm11.96.9h-.14l-5.95-.52-.57-.16-.45-.35-.28-.5-.08-.6.17-.57.35-.45.5-.28.59-.08 6.01.52.57.18.44.36.27.5.07.6-.16.54-.33.43-.46.28zm11.92 1.43-.22-.01-5.91-.78-.57-.19-.43-.37-.26-.51-.05-.6.19-.57.37-.43.51-.26.59-.05 5.98.79.57.2.42.38.25.51.04.6-.18.52-.33.41-.44.26zm11.83 1.95-.28-.02-5.87-1.04-.56-.21-.42-.4-.23-.51-.03-.6.22-.57.39-.41.51-.24.61-.02 5.94 1.05.55.22.41.4.23.53.01.6-.19.5-.34.38-.44.25zm11.74 2.47-.34-.03-5.83-1.3-.55-.24-.39-.41-.22-.53.01-.6.23-.55.41-.4.53-.21h.6l5.89 1.31.55.25.38.42.21.54-.02.6-.2.47-.33.36-.43.24zm11.62 2.99-.41-.05-5.76-1.55-.54-.27-.38-.42-.19-.54.03-.6.27-.54.42-.38.54-.19.6.03 5.82 1.57.54.28.37.43.18.54-.05.6-.54.8zm11.47 3.51-.47-.08-5.68-1.8-.53-.29-.36-.44-.17-.55.06-.6.29-.52.44-.36.54-.17.6.06 5.75 1.82.52.3.35.45.16.55-.07.6-.56.75zm-171.06.16-.86-.28-.56-.75-.07-.59.15-.55.35-.46.52-.3 5.77-1.84.6-.06.54.17.45.36.28.52.06.6-.16.55-.36.44-.53.29-5.7 1.82zm182.37 3.85-.54-.1-5.6-2.05-.51-.31-.34-.46-.14-.56.08-.59.31-.51.46-.34.55-.15.6.09 5.66 2.08.51.32.33.47.13.55-.1.59-.56.72zm-193.7.2-.84-.26-.56-.71-.1-.59.13-.55.33-.47.5-.32 5.68-2.1.59-.09.56.14.46.34.31.52.08.59-.14.55-.34.46-.51.31-5.62 2.08zm204.79 4.3-.59-.12-5.48-2.3-.5-.33-.32-.47-.12-.56.11-.59.33-.5.48-.32.55-.11.59.1 5.55 2.32.49.35.31.48.1.56-.12.59-.56.66zm-215.93.24-.81-.23-.57-.67-.12-.59.1-.56.31-.48.49-.34 5.57-2.35.59-.11.56.11.48.32.33.5.11.59-.12.56-.31.47-.5.34-5.52 2.32zm226.81 4.74-.66-.15-5.38-2.54-.48-.35-.3-.49-.09-.56.13-.58.36-.49.48-.3.57-.09.58.14 5.44 2.56.48.37.28.49.09.56-.15.59-.57.62zm-237.74.3-.78-.22-.56-.63-.16-.58.08-.56.29-.5.47-.36 5.47-2.59.58-.14.57.09.48.3.36.48.14.58-.1.57-.29.49-.49.35-5.4 2.56zm248.38 5.16-.71-.18-5.27-2.78-.46-.37-.28-.5-.07-.57.16-.57.38-.47.5-.28.57-.07.57.16 5.33 2.81.46.39.26.5.06.57-.18.57-.56.59zm-259.06.35-.75-.2-.57-.58-.18-.58.06-.56.26-.51.46-.39 5.34-2.83.58-.16.57.07.5.27.37.47.17.57-.07.57-.27.5-.47.38-5.28 2.8zm269.46 5.57-.77-.21-5.14-3-.45-.4-.25-.51-.05-.57.19-.57.4-.45.51-.25.57-.05.57.19 5.19 3.04.45.4.24.52.03.57-.2.57-.56.54zm-279.89.41-.72-.19-.56-.54-.2-.57.03-.57.24-.51.44-.41 5.21-3.06.57-.19.56.04.52.25.39.45.19.57-.04.57-.25.51-.45.4-5.15 3.03zm290.02 5.97-.82-.24-5.01-3.23-.43-.42-.23-.52-.02-.57.21-.56.42-.44.52-.23.57-.01.56.21 5.06 3.26.43.43.22.52v.57l-.22.56-.56.5zm-300.16.46-.7-.17-.55-.5-.23-.56.01-.57.21-.53.42-.42 5.07-3.29.56-.21.57.01.52.23.42.43.21.56-.01.57-.23.53-.43.41-5.01 3.26zm310.01 6.36-.88-.28-4.86-3.45-.41-.43-.21-.53.01-.57.23-.56.44-.41.53-.21.57.01.55.23 4.91 3.49.41.44.19.54-.01.57-.25.54-.55.47zm-319.86.51-.67-.16-.55-.46-.25-.55-.02-.57.2-.53.4-.45 4.91-3.5.56-.24.57-.01.53.21.43.41.24.55.01.57-.21.53-.41.44-4.86 3.47zm329.4 6.74-.48-.08-.45-.24-4.7-3.66-.4-.45-.18-.54.03-.57.26-.54.45-.4.54-.18.57.03.54.26 4.76 3.7.38.46.18.54-.05.57-.27.54-.54.42zm-338.94.55-.64-.14-.53-.42-.28-.54-.04-.57.16-.54.39-.46 4.75-3.72.54-.26.57-.04.54.19.46.39.26.54.03.57-.18.54-.39.45-4.71 3.68-.45.25zm348.16 7.12-.51-.09-.47-.28-4.54-3.86-.38-.47-.16-.55.06-.57.28-.52.47-.38.55-.16.56.06.53.28 4.6 3.91.36.47.15.55-.07.57-.3.52-.52.39zm-357.37.58-.6-.12-.53-.39-.29-.52-.07-.57.14-.55.37-.48 4.58-3.92.53-.29.57-.05.54.15.47.38.29.53.06.56-.16.55-.37.47-4.54 3.88-.47.28zm366.25 7.48-.54-.1-.5-.31-4.36-4.06-.36-.48-.13-.56.08-.56.3-.52.49-.35.55-.14.57.08.51.31 4.42 4.1.35.49.12.56-.1.56-.31.51-.51.35zm-375.1.62-.58-.12-.51-.35-.32-.5-.09-.57.12-.55.34-.5 4.41-4.11.51-.31.57-.09.55.14.49.35.31.51.08.57-.13.55-.36.49-4.36 4.07-.49.32zm383.61 7.83-.57-.12-.51-.34-4.18-4.25-.34-.5-.11-.56.11-.56.33-.5.5-.34.56-.11.56.11.5.33 4.23 4.29.33.51.09.56-.11.56-.34.49-.5.32zm-392.1.64-.55-.1-.49-.31-.34-.5-.12-.55.1-.57.32-.5 4.22-4.31.5-.33.56-.11.56.11.5.33.33.5.11.56-.11.56-.33.5-4.18 4.26-.51.35zm400.25 8.17-.61-.12-.52-.39-4-4.42-.31-.52-.09-.56.13-.56.35-.48.52-.31.56-.09.56.13.48.35 4.05 4.48.3.52.07.56-.14.56-.36.47-.48.29zm-408.36.67-.51-.09-.48-.28-.36-.48-.15-.55.08-.57.29-.52 4.03-4.49.49-.35.55-.13.57.08.51.31.35.49.13.55-.08.57-.31.51-3.98 4.44-.52.38zm416.1 8.5-.63-.14-.53-.42-3.81-4.6-.29-.53-.06-.57.16-.55.37-.47.53-.28.56-.07.55.16.47.37 3.85 4.65.28.53.05.57-.17.55-.38.46-.46.25zm-423.81.68-.48-.08-.46-.25-.38-.46-.17-.55.05-.57.27-.53 3.83-4.66.47-.37.55-.16.56.06.53.29.38.47.15.55-.06.56-.28.53-3.79 4.61-.53.42zm431.16 8.82-.66-.16-.55-.45-3.6-4.77-.26-.54-.04-.57.18-.54.39-.45.54-.27.57-.03.54.18.45.39 3.64 4.81.26.55.02.57-.19.54-.4.44zm-438.46.68-.88-.29-.41-.44-.19-.54.02-.57.26-.55 3.61-4.81.45-.4.54-.18.57.04.54.26.4.45.18.55-.04.56-.26.54-3.58 4.77-.54.46zm445.37 9.13-.69-.17-.55-.49-3.39-4.92-.24-.55-.01-.57.2-.53.41-.44.55-.24.57-.01.54.2.43.41 3.43 4.97.23.56-.01.57-.21.53-.42.43zm-452.24.69-.83-.26-.42-.42-.22-.53v-.57l.23-.56 3.4-4.97.43-.41.53-.2h.58l.54.24.42.44.2.53-.01.57-.24.55-3.36 4.92-.56.5zm-6.43 10.1-.78-.22-.44-.41-.23-.51-.03-.57.2-.57 3.18-5.11.42-.43.52-.23.57-.02.56.22.43.41.23.53.01.57-.21.56-3.15 5.06-.56.53zm-5.97 10.37-.72-.18-.46-.39-.26-.51-.06-.57.18-.57 2.95-5.25.39-.45.52-.25.57-.04.57.19.45.4.25.51.04.57-.19.57-2.92 5.19-.56.58zm-5.52 10.62-.66-.16-.47-.36-.29-.5-.07-.56.15-.58 2.71-5.37.38-.47.5-.27.57-.07.57.17.47.37.27.51.07.56-.17.58-2.68 5.31-.57.62zm-5.03 10.85-.6-.13-.49-.35-.31-.48-.1-.56.12-.59 2.48-5.48.35-.48.49-.29.57-.09.58.13.48.36.29.49.1.56-.14.59-2.45 5.42-.56.66zm-4.56 11.07-.54-.1-.5-.32-.33-.47-.13-.56.1-.59 2.24-5.6.33-.5.48-.32.55-.11.59.11.5.33.32.48.11.56-.11.59-2.21 5.54-.56.7zm511.63 10.8-.86-.28-.56-.74-1.98-5.65-.09-.6.14-.55.33-.46.52-.32.59-.08.55.14.46.33.32.51 2 5.72.07.59-.15.55-.34.46-.52.3zm-515.7.49-.47-.08-.52-.3-.35-.46-.15-.54.07-.6 1.98-5.7.32-.51.46-.34.55-.14.59.09.52.31.33.46.14.55-.08.6-1.97 5.63-.55.75zm519.29 10.98-.89-.29-.55-.8-1.72-5.71-.06-.6.16-.54.36-.45.52-.29.6-.06.55.16.44.36.29.53 1.74 5.77.05.6-.18.54-.36.44-.54.28zm3.07 11.6-.49-.09-.43-.23-.33-.36-.21-.47-1.46-5.79-.04-.6.19-.54.38-.43.54-.26.6-.04.53.19.43.38.27.53 1.48 5.85.02.6-.2.54-.38.42-.55.25zm-531.5 12.2-.29-.03-.55-.23-.4-.4-.23-.52v-.6l1.2-5.91.25-.55.41-.4.53-.21.6.01.55.24.39.41.21.53v.6l-1.2 5.85-.19.49-.33.38-.44.25zm539.03 47.19-.58-.12-.47-.31-.32-.47-.13-.58-.16-5.96.1-.6.3-.48.46-.34.58-.14.6.1.49.3.33.46.14.58.16 6.03-.1.59-.32.48-.46.33-.59.13zm-.05 11.99h-.05l-.58-.14-.46-.33-.31-.48-.1-.59.09-5.96.12-.59.32-.46.47-.31.6-.13.58.12.48.32.31.48.12.58-.1 6.03-.13.58-.32.46-.47.31zm-.58 11.98h-.11l-.58-.16-.45-.35-.28-.5-.08-.59.35-5.96.15-.58.33-.45.48-.3.61-.09.59.14.45.35.3.49.09.59-.36 6.02-.15.55-.32.44-.46.3zm-1.11 11.95-.17-.01-.57-.19-.43-.37-.27-.5-.05-.6.62-5.94.17-.57.36-.44.51-.28.59-.06.57.17.44.36.28.5.06.6-.62 6-.17.53-.32.42-.46.28zm-1.63 11.88-.23-.01-.57-.22-.41-.39-.24-.51-.03-.6.88-5.9.2-.57.38-.42.51-.25.6-.05.56.2.43.38.25.51.04.6-.89 5.97-.18.51-.33.4-.44.26zM687.12 467l-.3-.03-.55-.24-.4-.41-.22-.53v-.6l1.14-5.85.22-.56.4-.41.52-.23.6-.01.56.22.41.4.23.53.01.59-1.15 5.93-.19.49-.34.37-.43.25zm-2.67 11.69-.37-.04-.54-.26-.38-.43-.2-.53.03-.6 1.4-5.8.24-.55.42-.39.53-.21.6.02.55.24.39.42.2.53-.01.6-1.41 5.87-.21.47-.33.35zm-3.19 11.57-.43-.07-.53-.28-.36-.44-.17-.55.05-.59 1.65-5.74.27-.53.44-.37.54-.18.6.03.53.28.37.43.18.54-.04.6-1.67 5.8-.55.78zm-3.7 11.41-.5-.09-.51-.3-.34-.46-.15-.55.08-.6 1.9-5.65.3-.52.45-.35.55-.16.59.07.53.29.35.45.15.55-.06.6-1.93 5.71-.56.74zm-4.21 11.23-.55-.1-.51-.33-.32-.47-.12-.56.11-.59 2.15-5.57.32-.51.46-.33.56-.13.59.09.51.32.33.47.14.55-.1.59-2.18 5.63-.56.7zm-4.68 11-.62-.13-.48-.35-.3-.49-.1-.56.13-.58 2.39-5.45.34-.49.48-.31.56-.11.59.12.5.34.31.48.1.56-.12.59-2.41 5.5-.57.65zm-5.17 10.79-.67-.16-.47-.37-.28-.5-.07-.57.16-.58 2.63-5.33.36-.48.49-.29.57-.08.58.14.48.37.28.49.09.56-.15.58-2.66 5.4-.56.61zm-5.64 10.56-.73-.2-.45-.39-.26-.51-.05-.57.19-.57 2.86-5.22.38-.46.51-.27.57-.06.57.18.46.38.27.5.06.57-.17.58-2.9 5.27-.56.57zm-473.98.66-.74-.19-.57-.57-2.92-5.29-.17-.57.05-.57.27-.51.46-.38.57-.17.57.06.51.26.38.46 2.89 5.23.19.57-.05.57-.25.51-.45.4zm467.88 9.63-.79-.22-.43-.41-.23-.53-.03-.57.21-.56 3.09-5.09.41-.44.51-.25.57-.03.57.2.44.4.25.52.03.57-.2.56-3.12 5.15-.56.52zm-461.73.69-.71-.18-.56-.52-3.15-5.16-.2-.56.03-.57.25-.52.44-.4.57-.2.56.03.52.24.4.45 3.12 5.1.21.56-.02.57-.23.52-.43.41zm455.18 9.34-.84-.26-.42-.43-.21-.53v-.57l.24-.56 3.31-4.95.42-.42.53-.22.57-.01.56.22.42.42.22.52.01.58-.22.55-3.35 5.01-.55.49zm-448.58.7-.68-.17-.55-.48-3.38-5.01-.22-.55.01-.57.22-.53.42-.42.56-.23.57.01.53.22.42.42 3.34 4.96.23.55.01.57-.21.53-.42.43zm441.6 9.03-.9-.3-.4-.45-.19-.54.03-.57.26-.54 3.53-4.8.44-.41.53-.2.57.02.55.24.41.45.2.53-.02.57-.25.55-3.56 4.85-.55.45zm-434.56.7-.65-.15-.55-.44-3.59-4.86-.25-.54-.01-.57.19-.54.41-.44.54-.25.57-.02.54.2.44.41 3.55 4.8.26.54.03.57-.18.54-.4.45zm427.15 8.72-.5-.08-.46-.26-.37-.47-.17-.54.06-.57.28-.53 3.74-4.65.45-.39.55-.17.57.04.53.27.39.46.17.54-.04.57-.27.54-3.78 4.69-.53.41zm-419.7.69-.62-.13-.53-.41-3.8-4.69-.28-.54-.04-.57.17-.54.39-.46.54-.27.56-.04.55.17.46.39 3.76 4.63.28.53.05.57-.16.55-.37.47-.46.26zm411.88 8.4-.53-.1-.48-.29-.35-.48-.14-.55.08-.57.3-.51 3.94-4.48.47-.37.55-.15.57.07.52.29.37.47.15.56-.06.56-.3.53-3.98 4.52-.52.38zm-404.02.67-.6-.12-.52-.37-3.99-4.52-.3-.52-.07-.57.15-.55.37-.47.52-.3.57-.07.55.15.47.37 3.96 4.47.31.51.07.57-.13.55-.36.49-.48.29zm395.81 8.07-.56-.11-.5-.32-.33-.5-.11-.56.1-.56.33-.5 4.13-4.3.49-.35.55-.13.57.09.51.32.34.49.13.56-.09.56-.32.51-4.17 4.35-.51.34zm-387.57.65-.56-.11-.51-.34-4.19-4.33-.32-.51-.09-.57.13-.55.34-.49.51-.32.56-.09.56.12.49.35 4.15 4.28.33.51.1.56-.11.56-.33.49-.5.33zm378.97 7.72-.58-.12-.51-.35-.32-.52-.08-.56.12-.56.35-.48 4.32-4.12.5-.33.57-.1.55.12.5.33.33.51.1.56-.12.56-.34.5-4.36 4.16-.49.3zm-370.35.62-.54-.1-.48-.3-4.38-4.15-.34-.49-.12-.56.1-.56.33-.51.49-.34.56-.11.56.1.51.32 4.33 4.1.35.49.13.56-.09.56-.31.51-.52.36zm361.4 7.37-.61-.13-.53-.39-.29-.53-.06-.56.15-.55.37-.48 4.49-3.92.52-.3.57-.08.55.14.48.36.3.52.08.56-.14.55-.36.48-4.54 3.97-.47.28zm-352.43.59-.51-.09-.46-.27-4.56-3.95-.36-.48-.14-.55.08-.57.3-.52.48-.36.55-.14.57.08.51.3 4.51 3.9.37.48.15.54-.06.57-.29.53-.53.4zm343.14 7.01-.64-.15-.55-.43-.26-.54-.04-.57.17-.54.39-.46 4.67-3.72.53-.28.57-.05.55.16.46.38.28.53.05.57-.16.55-.38.46-4.72 3.77-.45.24zm-333.84.54-.47-.08-.44-.24-4.72-3.74-.39-.46-.16-.55.05-.57.28-.53.46-.38.54-.17.57.05.54.28 4.67 3.71.39.45.17.54-.03.57-.27.54-.54.43zm324.21 6.64-.67-.16-.55-.47-.24-.55-.02-.57.2-.54.41-.44 4.83-3.51.54-.26.57-.03.54.19.45.4.25.54.03.57-.19.54-.4.45-4.88 3.56zm-314.58.49-.86-.27-4.88-3.54-.4-.44-.19-.54.02-.57.25-.54.45-.4.54-.19.57.02.54.25 4.83 3.5.41.44.2.53-.01.57-.24.55-.55.47zm304.65 6.26-.7-.17-.56-.52-.22-.55.01-.58.23-.52.42-.42 4.98-3.3.55-.24h.57l.54.21.43.42.23.56v.57l-.21.53-.42.43-5.03 3.34zm-294.72.45-.81-.24-5.03-3.32-.42-.43-.21-.52v-.57l.23-.56.42-.42.53-.21h.58l.55.23 4.97 3.28.43.41.23.53.01.57-.22.56-.56.51zm284.5 5.86-.73-.19-.57-.55-.19-.57.03-.57.25-.52.45-.4 5.12-3.08.56-.2.57.02.52.23.41.44.21.56-.03.57-.23.52-.44.41-5.18 3.12zm-274.29.39-.76-.2-5.17-3.09-.43-.41-.24-.52-.03-.57.21-.56.41-.44.52-.24.57-.02.56.2 5.11 3.06.45.4.25.51.04.57-.2.57-.56.55zm263.79 5.46-.76-.21-.57-.59-.17-.57.07-.57.26-.5.47-.39 5.25-2.85.57-.18.57.05.51.26.39.45.18.57-.05.57-.25.51-.46.39-5.31 2.89zm-253.33.34-.69-.17-5.3-2.86-.45-.39-.26-.51-.05-.56.18-.58.39-.45.51-.26.57-.05.57.18 5.23 2.82.47.38.27.51.06.56-.17.58-.56.6zm242.58 5.04-.79-.22-.57-.63-.14-.59.09-.56.29-.49.48-.36 5.37-2.62.58-.16.57.08.5.28.37.47.15.58-.07.57-.28.49-.47.37-5.44 2.65zm-231.87.29-.63-.14-5.42-2.62-.47-.37-.28-.5-.08-.56.16-.58.37-.48.5-.28.56-.07.58.15 5.35 2.59.49.36.29.49.08.57-.14.58-.57.64zm220.88 4.62-.81-.24-.57-.68-.12-.59.11-.56.32-.48.49-.33 5.49-2.38.59-.13.56.1.48.3.35.49.13.58-.1.56-.3.49-.49.35-5.55 2.4zm-11.19 4.41-.85-.26-.56-.72-.09-.6.13-.55.34-.46.51-.32 5.59-2.13.59-.1.56.12.47.32.33.51.1.59-.12.55-.33.47-.5.33-5.65 2.16zm-11.39 3.91-.87-.28-.56-.77-.06-.59.16-.55.35-.45.52-.29 5.69-1.88.59-.08.56.15.45.34.3.52.08.6-.15.55-.34.45-.52.31-5.75 1.9zm-164.86.15-.45-.07-5.74-1.88-.51-.31-.35-.45-.15-.55.08-.6.3-.52.46-.34.55-.15.59.08 5.67 1.86.53.29.35.45.16.55-.06.59-.56.77zm153.35 3.24-.9-.31-.34-.34-.21-.46-.04-.6.19-.54.37-.43.54-.27 5.74-1.62.6-.05.54.17.44.36.28.53.05.6-.17.55-.36.44-.53.28-5.81 1.64zm-141.84.13-.39-.05-5.8-1.63-.54-.28-.36-.44-.17-.55.05-.59.28-.53.44-.37.54-.17.6.05 5.74 1.61.54.27.37.43.19.54-.04.6-.21.46-.33.34zm130.19 2.74-.5-.09-.43-.23-.33-.37-.2-.48-.01-.6.21-.53.39-.42.55-.24 5.8-1.37.61-.02.53.19.42.39.26.54.02.6-.19.53-.38.43-.55.25-5.87 1.38zm-118.53.11-.33-.04-5.87-1.37-.55-.25-.38-.42-.2-.54.03-.6.25-.54.42-.38.54-.2.6.02 5.81 1.35.55.25.39.41.21.53-.01.6-.2.49-.33.36-.43.24zm106.77 2.24-.52-.09-.44-.25-.33-.39-.19-.51.02-.59.23-.53.41-.39.56-.22 5.86-1.11h.6l.52.22.41.4.23.56v.6l-.22.52-.4.41-.55.23-5.93 1.12zm-95.01.09-.26-.02-5.92-1.11-.56-.23-.4-.41-.22-.52-.01-.6.24-.56.41-.4.52-.22h.6l5.86 1.09.56.22.41.4.23.52.02.6-.19.5-.33.39-.44.26zm83.15 1.74-.53-.09-.45-.28-.33-.4-.17-.53.04-.6.25-.51.43-.38.57-.19 5.9-.85.6.03.52.24.39.42.2.57-.02.59-.25.52-.42.39-.56.21-5.97.85zm-71.28.07-.2-.01-5.97-.85-.57-.21-.41-.38-.25-.52-.03-.6.21-.56.39-.42.51-.25.6-.02 5.91.83.57.19.42.38.26.51.04.6-.17.53-.33.41-.45.27zm59.36 1.24-.56-.11-.45-.28-.33-.43-.16-.55.07-.6.28-.5.44-.36.58-.17 5.93-.58.6.05.51.27.37.44.18.57-.06.6-.26.5-.44.37-.57.18-6 .59zm-47.44.04h-.13l-6-.58-.57-.19-.44-.36-.27-.51-.05-.6.18-.57.37-.44.5-.26.6-.06 5.94.58.57.17.45.35.28.5.07.6-.16.55-.33.43-.45.28zm35.46.74-.56-.11-.47-.31-.32-.45-.14-.56.09-.6.3-.48.46-.34.58-.15 5.96-.32.58.08.5.29.35.45.16.58-.08.59-.29.49-.45.35-.58.16-6.02.33zm-23.49.02h-.06l-6.02-.32-.58-.15-.45-.35-.29-.49-.08-.6.15-.58.36-.45.49-.29.59-.08 5.96.31.58.15.46.34.3.48.09.59-.14.57-.32.46-.46.3zm11.5.24-5.54-.05-.59-.14-.46-.32-.31-.48-.11-.59.13-.58.32-.47.47-.31.58-.11h.03l11.45-.02.61.12.47.31.32.46.13.58-.11.59-.3.48-.47.33-.59.13zM415.9 3.03l-.58-.12-.47-.32-.32-.46-.13-.58.11-.59.32-.48.47-.33.58-.12 4.8-.03h1.22l.59.12.47.32.32.48.12.59-.12.58-.32.47-.47.32-.59.12h-1.22l-4.76.03zm17.98.18h-.04l-5.97-.15-.58-.13-.47-.32-.31-.48-.11-.59.13-.58.32-.47.47-.31.58-.12h.02l6.01.15.59.14.46.33.3.48.1.6-.13.57-.32.46-.47.3zm-29.97.13-.58-.12-.46-.3-.33-.45-.13-.57.09-.6.3-.48.46-.34.59-.14 6.01-.2h.04l.58.11.47.31.32.46.13.58-.1.59-.31.48-.46.33-.59.14-5.97.2zm41.96.42h-.09l-5.97-.32-.58-.15-.46-.34-.3-.48-.09-.6.15-.58.34-.45.48-.3.6-.1 6.01.33.58.15.45.35.29.49.09.59-.15.56-.32.45-.47.29zM391.93 4l-.56-.11-.46-.3-.33-.43-.15-.56.08-.6.29-.49.45-.35.57-.16 6.01-.37.6.1.49.29.34.44.15.58-.08.6-.3.48-.45.35-.58.15-5.97.37zm65.91.66h-.14l-5.96-.49-.57-.17-.45-.35-.29-.5-.07-.59.16-.58.36-.45.49-.28.6-.08 6 .5.57.17.45.36.27.5.07.6-.16.54-.33.43-.45.29zM379.97 5l-.55-.1-.45-.28-.33-.43-.16-.54.06-.6.27-.5.44-.36.57-.18 6-.55.6.08.5.27.35.44.17.58-.07.59-.28.5-.44.36-.58.17-5.95.54zm89.8.91-.18-.01-5.94-.66-.57-.18-.44-.37-.27-.5-.06-.6.19-.57.37-.44.5-.26.59-.07 5.99.67.57.19.43.38.26.5.05.6-.17.53-.33.42-.45.27zm-101.72.44-.54-.09-.45-.28-.33-.41-.17-.52.05-.6.25-.51.43-.38.57-.19 5.98-.73.6.05.5.27.37.43.19.57-.06.6-.26.51-.43.37-.58.18-5.93.72zm113.61 1.16-.22-.01-5.92-.84-.57-.2-.42-.38-.26-.51-.04-.6.2-.57.39-.42.51-.26.59-.04 5.96.85.56.21.42.38.25.52.03.6-.18.51-.33.4-.44.27zm-125.49.55-.52-.1-.44-.26-.34-.39-.18-.52.03-.6.24-.51.42-.39.56-.21 5.95-.9.6.03.51.25.39.42.2.57-.03.6-.25.51-.42.39-.57.2-5.91.89zm137.33 1.4-.27-.02-5.89-1.01-.56-.22-.42-.39-.23-.52-.03-.6.22-.56.39-.42.52-.23.6-.02 5.93 1.02.56.22.41.4.23.52.01.6-.19.5-.33.39-.44.25zm-149.15.65-.51-.09-.44-.25-.33-.38-.19-.5.01-.6.23-.53.4-.4.56-.22L350 6.06l.61.02.51.23.4.41.21.56-.01.6-.24.52-.41.4-.56.22-5.88 1.06zm160.92 1.65-.31-.03-5.86-1.19-.55-.23-.4-.41-.23-.52v-.6l.23-.55.41-.41.52-.22.6-.01 5.9 1.2.55.24.4.41.21.53v.6l-.2.48-.33.38-.43.24zm-172.67.75-.5-.09-.44-.24-.33-.36-.2-.49-.01-.6.21-.53.4-.41.54-.24 5.9-1.25h.59l.53.22.41.39.24.56v.6l-.22.52-.4.41-.55.24-5.85 1.23zm184.38 1.89-.36-.04L510.8 13l-.54-.25-.4-.41-.2-.53.01-.6.25-.55.41-.39.53-.21.6.01 5.87 1.37.54.26.38.42.2.53-.02.6-.2.47-.33.36-.43.24zm-196.06.86-.92-.32-.33-.35-.21-.47-.02-.6.19-.54.38-.42.54-.26 5.86-1.42.6-.02.53.2.42.39.25.55.02.6-.21.53-.38.42-.55.25-5.81 1.41zm207.68 2.13-.4-.06-5.78-1.53-.54-.26-.37-.43-.2-.53.03-.6.27-.54.43-.38.54-.19.59.03 5.82 1.54.54.27.37.43.18.54-.04.6-.21.46-.33.34zm-219.28.95-.89-.3-.55-.79-.04-.6.18-.54.36-.44.54-.27 5.8-1.59.6-.04.54.18.43.38.27.54.04.6-.19.54-.37.43-.54.26-5.77 1.59zm230.8 2.37-.44-.06-5.72-1.7-.54-.28-.36-.44-.18-.54.05-.6.28-.53.44-.37.54-.17.6.05 5.77 1.71.53.29.36.44.16.54-.05.6-.56.78zm-242.29 1.06-.88-.28-.55-.77-.07-.59.17-.55.35-.45.53-.29 5.75-1.76.6-.06.54.18.45.36.28.53.05.6-.17.54-.36.44-.53.28-5.71 1.75zm253.72 2.61-.48-.08-5.68-1.87-.52-.29-.36-.45-.16-.55.07-.59.29-.53.45-.35.55-.16.6.07 5.72 1.88.51.3.35.46.15.55-.07.59-.56.75zm-265.16 1.18-.86-.27-.56-.74-.08-.59.15-.55.34-.46.52-.31 5.72-1.94.6-.07.55.15.45.35.3.52.07.6-.16.55-.34.45-.53.3-5.68 1.93zm276.47 2.83-.52-.1-5.63-2.03-.51-.31-.34-.46-.14-.55.08-.6.31-.51.46-.34.55-.14.6.08 5.66 2.05.51.32.33.46.14.56-.1.59-.56.72zm-287.78 1.29-.84-.26-.57-.71-.09-.59.13-.56.33-.46.5-.32 5.66-2.11.6-.09.55.14.46.33.32.51.09.6-.14.55-.34.46-.51.32-5.62 2.09zm298.96 3.04-.56-.1-5.56-2.21-.5-.32-.33-.47-.12-.56.1-.59.32-.5.47-.33.56-.13.59.11 5.6 2.21.5.34.32.47.11.56-.11.59-.56.69zm-310.15 1.41-.82-.24-.56-.68-.12-.59.11-.56.32-.48.49-.33 5.6-2.28.59-.11.56.13.47.32.33.5.11.59-.13.56-.32.47-.5.33-5.55 2.26zm321.16 3.24-.6-.13-5.47-2.35-.49-.34-.31-.48-.11-.56.11-.59.34-.49.48-.31.56-.11.59.12 5.51 2.37.49.34.3.49.1.56-.12.58-.57.67zm-332.2 1.54-.8-.23-.57-.65-.13-.59.1-.56.29-.49.49-.35 5.53-2.44.58-.12.57.11.48.3.34.49.12.59-.1.56-.31.48-.49.35-5.49 2.42zm343.07 3.43-.64-.15-5.4-2.51-.48-.35-.3-.49-.09-.56.13-.59.36-.48.48-.3.57-.1.58.14 5.44 2.54.48.36.29.49.09.56-.15.58-.57.64zm-353.97 1.68-.78-.22-.57-.63-.14-.58.08-.56.28-.5.48-.36 5.45-2.6.58-.15.56.09.49.3.36.48.14.58-.09.56-.29.49-.48.36-5.41 2.58zm364.7 3.61-.68-.17-5.32-2.67-.48-.37-.28-.49-.08-.57.15-.58.37-.47.5-.29.56-.07.58.15 5.37 2.69.47.38.27.5.07.56-.16.58-.57.61zm-375.43 1.81-.76-.21-.57-.6-.17-.58.07-.56.27-.5.46-.38 5.37-2.76.58-.16.56.07.5.28.37.47.16.58-.07.56-.28.5-.47.38-5.33 2.74zm386 3.79-.72-.18-5.25-2.84-.46-.38-.27-.5-.06-.57.17-.57.38-.47.51-.27.57-.06.57.17 5.28 2.86.46.38.26.51.06.57-.18.57-.57.58zm-396.57 1.94-.74-.2-.57-.56-.18-.58.05-.56.25-.51.46-.4 5.28-2.91.57-.18.57.06.51.26.38.46.18.57-.06.57-.26.51-.46.38-5.25 2.9zm406.98 3.97-.76-.21-5.17-2.98-.45-.39-.25-.51-.05-.57.19-.57.39-.46.52-.25.57-.04.57.18 5.2 3.01.44.4.25.51.03.57-.19.57-.56.55zm-417.37 2.07-.72-.18-.57-.55-.2-.56.03-.57.24-.52.45-.4 5.19-3.07.57-.2.57.04.51.25.4.45.19.57-.04.57-.24.51-.45.4-5.16 3.05zm427.59 4.15-.79-.23-5.08-3.13-.44-.41-.23-.52-.03-.57.2-.57.41-.44.52-.23.57-.03.56.2 5.11 3.16.44.41.23.52.02.57-.21.57-.56.52zm-437.8 2.19-.7-.17-.56-.52-.22-.56.02-.57.22-.52.43-.42 5.1-3.22.56-.21.57.02.52.24.42.43.2.57-.02.57-.23.52-.44.41-5.06 3.2zm-10.01 6.64-.69-.16-.55-.49-.23-.56-.01-.57.21-.53.42-.43 5-3.36.56-.23h.57l.53.22.42.43.23.55-.01.57-.22.53-.42.43-4.97 3.34zm-9.81 6.93-.67-.16-.55-.46-.25-.55-.02-.57.2-.53.4-.45 4.9-3.51.55-.24.57-.01.54.2.43.41.24.55.02.57-.21.53-.41.44-4.86 3.49zm-9.61 7.2-.64-.14-.55-.44-.26-.54-.04-.57.18-.54.39-.45 4.8-3.65.54-.26.57-.03.54.19.45.39.25.55.03.57-.18.54-.4.44-4.76 3.63zm-9.38 7.49-.63-.14-.53-.41-.29-.53-.05-.57.16-.54.38-.47 4.69-3.79.53-.27.57-.05.54.17.46.39.28.53.04.57-.17.54-.38.47-4.65 3.76-.46.26zm-9.17 7.75-.6-.13-.53-.38-.29-.52-.07-.57.14-.55.37-.48 4.57-3.92.52-.29.57-.06.55.15.47.37.29.53.06.57-.15.55-.38.47-4.53 3.89-.47.28zm551.79 13.33-.54-.1-.49-.32-4.35-4.11-.34-.48-.13-.56.09-.56.31-.52.49-.34.56-.13.56.09.51.31 4.37 4.14.34.49.12.56-.09.56-.32.51-.51.34zm8.53 8.43-.56-.11-.5-.34-4.23-4.23-.33-.5-.11-.56.1-.56.33-.5.5-.34.56-.11.56.11.5.33 4.25 4.26.33.5.11.56-.12.56-.33.5-.5.32zm8.29 8.68-.59-.12-.51-.36-4.1-4.35-.32-.51-.09-.57.12-.55.34-.5.51-.31.56-.1.56.12.49.34 4.13 4.39.31.51.09.57-.13.55-.35.49-.49.3zm8.03 8.92-.61-.13-.52-.39-3.97-4.47-.3-.51-.08-.57.13-.55.36-.49.52-.3.56-.08.56.14.48.35 4 4.51.29.52.07.57-.14.55-.37.48-.47.28zm7.77 9.15-.63-.14-.53-.41-3.84-4.59-.29-.52-.06-.57.15-.55.37-.47.53-.29.57-.06.55.15.47.37 3.86 4.62.29.53.05.57-.16.55-.38.46-.46.26zm7.49 9.37-.64-.14-.54-.44-3.7-4.7-.28-.53-.04-.57.17-.54.38-.47.54-.27.57-.05.54.17.46.39 3.73 4.73.26.54.04.57-.18.54-.39.46-.44.23zm7.23 9.59-.67-.15-.54-.46-3.57-4.81-.26-.54-.03-.57.19-.54.4-.45.54-.25.57-.03.54.18.45.4 3.59 4.84.25.54.02.57-.19.54-.41.45zm6.94 9.81-.69-.17-.55-.49-3.42-4.9-.24-.55-.01-.57.2-.54.41-.43.55-.25.57-.01.53.2.44.41 3.45 4.95.23.55v.57l-.21.53-.41.43zm6.65 10-.7-.17-.56-.52-3.28-5.01-.23-.55.01-.57.22-.53.42-.43.56-.22h.57l.52.22.43.42 3.3 5.05.22.56-.01.57-.23.52-.43.42zm6.36 10.2-.72-.19-.57-.54-3.13-5.1-.21-.56.03-.57.23-.52.43-.42.57-.21.56.02.53.24.41.43 3.15 5.14.2.57-.03.57-.24.51-.44.41zm6.06 10.38-.75-.2-.56-.56-2.98-5.2-.19-.57.03-.57.25-.51.45-.4.57-.19.57.03.51.25.4.45 3 5.23.19.57-.05.57-.26.51-.45.4zm5.75 10.56-.77-.21-.56-.59-2.83-5.28-.18-.58.06-.57.26-.5.46-.39.57-.18.57.06.51.26.38.46 2.85 5.32.17.58-.06.56-.27.51-.47.38zm5.43 10.73-.78-.22-.57-.63-2.66-5.36-.16-.58.07-.57.28-.49.47-.38.57-.16.57.08.5.27.37.47 2.69 5.41.15.58-.08.56-.28.5-.48.36zm5.12 10.88-.8-.23-.56-.65-2.52-5.44-.14-.59.09-.56.29-.49.48-.36.59-.14.56.09.49.29.36.48 2.53 5.48.13.59-.09.56-.3.49-.49.35zm4.8 11.04-.82-.25-.57-.68-2.34-5.51-.13-.59.11-.56.3-.48.49-.35.59-.12.56.1.48.31.35.49 2.36 5.56.12.59-.11.56-.32.47-.49.34zm4.47 11.17-.84-.25-.56-.71-2.19-5.59-.1-.59.12-.55.32-.48.5-.33.59-.1.56.12.47.32.33.5 2.2 5.63.1.59-.13.55-.33.47-.51.32zm-765.49 3.44-.53-.1-.5-.31-.34-.47-.13-.55.09-.59 2.15-5.63.32-.51.47-.32.56-.13.59.11.5.32.33.47.12.56-.1.59-2.13 5.58-.56.72zm769.63 7.87-.86-.27-.56-.73-2.02-5.65-.09-.6.14-.55.33-.46.52-.32.59-.09.55.14.46.33.32.52 2.03 5.69.09.59-.15.55-.34.46-.52.31zm-773.65 3.44-.49-.08-.51-.31-.35-.45-.15-.55.07-.6 1.98-5.68.31-.52.46-.34.56-.14.59.08.51.31.34.46.14.56-.08.59-1.96 5.65-.56.74zm777.45 7.99-.88-.28-.55-.77-1.85-5.7-.07-.6.15-.55.35-.45.52-.3.59-.07.55.15.46.35.29.52 1.87 5.75.06.6-.16.54-.35.45-.53.29zm-781.14 3.42-.44-.06-.52-.29-.36-.44-.17-.55.06-.6 1.8-5.74.3-.52.45-.35.55-.16.59.06.53.3.35.45.16.54-.07.6-1.79 5.7-.56.78zm784.59 8.1-.89-.3-.55-.79-1.67-5.74-.06-.6.17-.54.36-.44.53-.29.6-.05.54.17.45.36.28.53 1.69 5.78.04.6-.17.54-.37.44-.53.27zm-787.93 3.42-.4-.05-.54-.27-.37-.43-.18-.54.04-.6 1.63-5.8.28-.53.44-.36.54-.18.6.05.54.28.36.44.18.54-.05.6-1.63 5.75-.21.46-.33.34zm791.04 8.17-.91-.31-.34-.36-.2-.46-1.51-5.79-.03-.6.18-.54.38-.43.53-.27.6-.03.54.19.43.37.27.53 1.52 5.83.02.6-.19.54-.38.42-.54.26zM23.23 315.1l-.36-.04-.54-.26-.38-.42-.2-.53.02-.6 1.47-5.84.26-.54.43-.38.53-.19.6.03.54.26.38.43.19.54-.03.6-1.45 5.8-.21.47-.33.35zm796.81 8.22-.5-.08-.43-.24-.33-.37-.2-.48-1.33-5.83-.02-.6.2-.53.39-.42.54-.25.6-.02.53.2.42.39.26.54 1.34 5.87.01.6-.21.53-.39.42-.55.24zM20.57 326.8l-.31-.03-.55-.24-.4-.41-.21-.53v-.6l1.29-5.88.25-.55.42-.39.53-.21.6.02.55.25.39.41.2.53-.01.6-1.28 5.84-.2.49-.33.37-.44.24zm801.89 8.28-.51-.09-.44-.26-.33-.38-.19-.49-1.16-5.87v-.6l.21-.53.4-.4.55-.24h.6l.53.21.41.4.23.56 1.17 5.91v.59l-.23.53-.4.4-.56.23zm-804.2 3.49-.27-.02-.56-.23-.41-.39-.23-.53-.01-.6 1.12-5.91.23-.56.4-.4.53-.22h.6l.55.23.41.4.22.53v.6l-1.11 5.87-.18.5-.34.39-.44.25zm806.27 8.32-.52-.09-.45-.26-.33-.4-.18-.51-.99-5.89.02-.6.23-.52.41-.4.56-.22.6.02.52.23.4.41.22.56.99 5.94-.02.6-.25.51-.41.39-.56.22zm-808.24 3.52-.22-.02-.57-.2-.42-.39-.24-.52-.03-.6.94-5.94.21-.56.39-.42.52-.23.61-.03.56.22.41.39.24.52.02.6-.94 5.9-.17.52-.34.4-.44.26zm809.96 8.36-.54-.1-.45-.27-.33-.41-.17-.53-.81-5.92.03-.6.25-.51.42-.39.57-.2.59.03.52.25.38.42.21.57.82 5.96-.05.6-.25.51-.43.38-.57.19zM14.67 362.3l-.18-.01-.57-.19-.43-.38-.26-.51-.05-.59.77-5.98.2-.56.38-.43.51-.25.6-.04.57.2.42.38.25.51.04.6-.76 5.93-.17.53-.33.41-.45.28zm812.95 8.39-.55-.11-.45-.28-.33-.42-.16-.54-.64-5.95.05-.59.27-.51.43-.37.57-.19.59.05.51.27.37.43.19.57.64 5.99-.06.59-.27.51-.43.36-.58.18zM13.4 374.23l-.13-.01-.58-.17-.44-.36-.28-.5-.06-.6.59-5.99.18-.58.37-.43.51-.27.59-.06.57.19.44.36.27.51.05.59-.58 5.95-.16.55-.33.43-.46.28zm815.24 8.41-.55-.11-.46-.29-.33-.44-.15-.55-.47-5.96.07-.6.28-.5.44-.36.58-.16.6.06.5.28.35.44.17.58.47 6-.08.6-.28.49-.45.36-.58.16zm-816.15 3.55h-.1l-.58-.16-.45-.35-.29-.49-.08-.59.42-6.01.16-.58.36-.46.5-.28.59-.06.57.16.45.36.28.49.08.6-.42 5.96-.14.56-.33.44-.46.3zm816.83 8.43-.57-.11-.47-.31-.32-.45-.14-.57-.29-5.97.08-.59.3-.49.45-.35.58-.15.59.1.49.29.35.44.15.58.3 6.02-.1.59-.3.48-.45.34-.59.15zm-817.41 3.55h-.05l-.58-.14-.46-.33-.31-.48-.1-.6.25-6.01.14-.58.34-.45.48-.3.61-.1.58.15.45.34.3.49.09.59-.24 5.97-.13.58-.33.45-.46.31zm817.74 8.44-.58-.12-.48-.31-.32-.47-.12-.58-.12-5.98.1-.59.31-.48.46-.33.59-.14h.04l.58.12.46.31.33.46.13.57.12 6.02-.11.59-.32.48-.47.32-.58.13zm-817.96 3.55h-.01l-.59-.13-.47-.32-.32-.47-.11-.59.07-6.02.13-.58.32-.46.47-.31.58-.12h.03l.58.13.47.33.31.48.11.59-.07 5.97-.12.59-.32.47-.48.32zm817.94 8.45h-.02l-.59-.13-.47-.33-.31-.47-.11-.59.05-5.98.12-.59.32-.47.47-.32.59-.12.59.12.47.32.32.47.12.59-.05 6.02-.13.58-.32.47-.47.31zM11.8 422.15l-.57-.11-.47-.31-.32-.46-.13-.58-.11-6.02.12-.59.31-.48.47-.32.59-.13h.01l.59.12.47.32.32.47.12.58.11 5.98-.11.59-.31.48-.46.33-.59.13zm817.47 8.44h-.07l-.58-.14-.46-.34-.3-.49-.09-.59.22-5.98.15-.58.34-.47.49-.31.57-.09.58.14.46.33.31.48.1.59-.22 6.02-.14.57-.33.45-.46.3zm-817 3.55-.56-.11-.47-.3-.32-.45-.15-.56-.27-6.01.09-.6.3-.48.46-.34.59-.14.6.11.48.29.34.46.13.58.28 5.97-.09.59-.29.49-.46.35-.58.15zm816.29 8.43h-.11l-.58-.17-.45-.35-.28-.5-.08-.59.4-5.97.15-.57.35-.46.49-.29.6-.08.58.15.45.35.29.49.08.59-.4 6.01-.15.55-.32.44-.46.29zm-815.48 3.54-.55-.1-.46-.29-.33-.44-.15-.55-.45-6 .08-.59.29-.5.45-.35.57-.16.59.07.5.29.35.46.16.58.45 5.96-.07.59-.28.5-.44.36-.58.17zm814.42 8.41-.16-.01-.57-.18-.44-.36-.26-.51-.06-.59.57-5.95.17-.58.35-.44.5-.28.6-.07.58.18.44.36.28.49.06.6-.57 5.99-.16.54-.33.43-.45.28zm-813.25 3.53-.55-.1-.45-.28-.33-.41-.16-.54-.63-5.99.06-.6.27-.5.44-.36.58-.18.59.06.5.28.37.44.18.57.62 5.95-.06.59-.26.51-.43.37-.58.18zm811.84 8.39-.2-.02-.56-.19-.43-.38-.25-.51-.05-.6.75-5.93.19-.57.36-.44.51-.26.61-.05.57.19.43.37.26.51.05.6-.75 5.97-.17.53-.33.41-.45.27zm-810.33 3.52-.53-.1-.45-.27-.33-.4-.18-.52-.8-5.97.04-.6.26-.51.43-.38.57-.19.6.05.51.26.37.42.2.57.79 5.92-.03.6-.25.52-.43.38-.56.2zm808.58 8.34-.25-.02-.56-.21-.41-.39-.24-.52-.02-.6.91-5.9.21-.57.39-.42.51-.25.6-.03.56.21.42.38.25.51.03.6-.92 5.96-.19.51-.33.39-.44.26zm-806.72 3.51-.52-.09-.44-.26-.34-.39-.18-.51-.98-5.94.03-.6.24-.51.42-.39.56-.21.6.02.52.25.39.41.21.57.97 5.89-.02.6-.24.52-.41.4-.56.22zm804.61 8.31-.28-.03-.56-.23-.4-.4-.23-.53v-.6l1.09-5.88.22-.55.4-.41.52-.23.6-.02.56.22.41.4.23.52.01.6-1.1 5.92-.19.5-.33.38-.44.25zM19.82 493.6l-.5-.09-.44-.24-.33-.38-.2-.49-1.15-5.91.01-.6.23-.52.41-.41.55-.22.6.01.52.23.41.4.22.56 1.14 5.86v.6l-.22.53-.4.41-.55.23zm799.96 8.26-.33-.04-.55-.24-.39-.42-.21-.53.02-.6 1.26-5.84.24-.55.41-.4.52-.21h.6l.56.24.39.41.22.52v.6l-1.28 5.89-.2.48-.33.37-.43.23zm-797.4 3.47-.5-.09-.43-.23-.33-.37-.2-.47-1.33-5.88-.01-.6.22-.53.39-.41.55-.24.6-.01.53.21.41.39.24.55 1.32 5.83.02.6-.21.54-.39.42-.54.25zm794.6 8.2-.37-.05-.54-.26-.38-.43-.19-.53.03-.6 1.44-5.81.25-.54.42-.38.54-.2.6.02.54.25.38.42.2.53-.02.6-1.44 5.85-.21.46-.33.36zm-791.7 3.44-.91-.31-.33-.35-.21-.46-1.5-5.83-.03-.6.2-.54.38-.42.54-.26.6-.03.54.2.42.38.26.54 1.49 5.79.03.6-.19.54-.37.43-.54.27zm788.56 8.14-.41-.06-.53-.28-.37-.44-.18-.54.05-.6 1.61-5.75.27-.54.43-.37.54-.19.6.04.53.27.38.43.18.54-.04.6-1.62 5.8-.55.79zm-785.32 3.41-.89-.29-.55-.79-1.67-5.78-.04-.6.18-.54.37-.44.53-.27.6-.04.54.18.44.36.27.54 1.66 5.74.05.6-.17.54-.36.44-.54.29zm781.84 8.07-.46-.07-.52-.3-.35-.44-.16-.55.06-.6 1.78-5.7.28-.53.45-.36.54-.17.6.05.53.29.36.44.17.55-.06.6-1.79 5.75-.56.76zm-778.25 3.4-.87-.27-.56-.76-1.84-5.76-.06-.59.16-.55.36-.44.52-.29.6-.07.54.17.45.35.29.53 1.83 5.71.07.6-.15.55-.35.45-.52.3zm774.43 7.97-.5-.08-.51-.31-.34-.46-.15-.55.09-.6 1.94-5.65.3-.52.46-.34.54-.16.6.08.52.3.35.45.15.55-.07.6-1.96 5.69-.56.74zm-770.5 3.42-.84-.27-.57-.72-2.01-5.7-.08-.6.15-.55.34-.45.51-.31.6-.08.55.15.46.34.3.52 2 5.66.09.59-.14.55-.33.46-.52.32zm766.35 7.84-.54-.1-.51-.33-.32-.46-.13-.56.1-.59 2.11-5.59.31-.51.47-.33.55-.14.59.09.51.32.34.46.13.55-.09.6-2.12 5.63-.57.7zm-762.08 3.41-.82-.25-.57-.69-2.18-5.64-.1-.59.13-.55.33-.47.51-.32.59-.1.55.13.47.33.32.51 2.17 5.59.11.59-.13.56-.32.47-.5.33zm4.61 11.13-.81-.24-.57-.67-2.35-5.56-.12-.59.12-.56.31-.48.5-.33.59-.12.56.12.48.31.33.5 2.33 5.52.13.59-.11.56-.31.48-.49.34zm4.92 10.97-.79-.22-.57-.64-2.51-5.49-.13-.59.1-.56.3-.49.48-.35.59-.13.56.1.49.3.35.49 2.49 5.45.14.58-.09.57-.29.49-.49.35zm5.25 10.83-.77-.22-.57-.61-2.68-5.41-.14-.58.08-.57.28-.49.48-.36.58-.15.57.08.49.28.36.48 2.66 5.37.15.58-.07.57-.28.5-.47.37zm5.56 10.66-.75-.2-.57-.59-2.83-5.33-.17-.57.07-.57.27-.5.46-.38.58-.17.57.07.5.27.38.46 2.81 5.3.17.57-.05.57-.27.5-.46.39zm5.87 10.49-.73-.19-.57-.56-2.98-5.24-.19-.57.05-.57.26-.51.45-.39.58-.18.56.04.51.26.39.45 2.97 5.21.19.57-.04.57-.25.51-.45.4zm6.18 10.31-.72-.18-.56-.53-3.14-5.15-.2-.57.04-.57.24-.52.44-.4.57-.2.56.03.52.24.41.45 3.11 5.11.21.56-.02.57-.24.52-.43.41zm6.47 10.12-.69-.17-.56-.5-3.29-5.06-.21-.56.01-.57.23-.52.43-.42.56-.22.57.02.52.22.42.44 3.26 5.01.23.56-.01.57-.22.53-.42.42zm6.77 9.92-.68-.16-.55-.47-3.43-4.96-.23-.55v-.57l.21-.53.41-.43.56-.24h.57l.53.21.43.42 3.41 4.92.24.55.01.57-.21.53-.41.44zm664.91 6.38-.89-.29-.4-.45-.19-.53.02-.57.25-.55 3.49-4.84.44-.41.54-.2.57.02.54.24.41.44.2.53-.01.57-.24.55-3.52 4.88-.55.45zm-657.86 3.34-.65-.15-.55-.45-3.58-4.85-.24-.54-.02-.58.19-.53.41-.44.54-.25.57-.02.54.19.44.41 3.55 4.82.26.54.03.57-.19.54-.4.45zM743.63 663l-.47-.08-.45-.24-.39-.45-.18-.55.04-.56.27-.54 3.63-4.74.45-.4.54-.18.57.03.54.26.4.45.18.54-.03.57-.26.54-3.65 4.77-.54.43zm-643.3 3.29-.64-.14-.54-.42-3.71-4.75-.27-.54-.03-.57.17-.54.4-.45.54-.27.57-.03.54.18.45.39 3.69 4.71.27.53.04.57-.17.55-.38.46-.45.24zm635.8 6.06-.49-.09-.46-.25-.38-.47-.16-.55.05-.57.29-.53 3.77-4.63.46-.38.54-.17.57.05.53.27.39.46.17.55-.05.57-.27.53-3.8 4.66-.53.41zm-628.2 3.23-.62-.13-.53-.4-3.85-4.63-.28-.54-.05-.56.17-.55.37-.47.54-.28.56-.05.55.17.46.37 3.83 4.6.29.53.06.57-.16.55-.37.47-.47.26zm620.43 5.9-.51-.09-.47-.28-.37-.48-.14-.55.07-.57.3-.52 3.9-4.52.47-.37.55-.15.57.06.53.29.37.47.15.55-.06.57-.3.52-3.93 4.56-.52.38zm-612.56 3.16-.6-.12-.52-.38-3.98-4.52-.29-.52-.07-.57.14-.55.37-.47.52-.3.57-.07.55.15.47.36 3.96 4.49.3.52.08.56-.14.56-.36.48-.48.29zm604.53 5.74-.54-.1-.48-.3-.35-.49-.13-.56.09-.56.31-.51 4.04-4.41.48-.36.55-.13.57.08.51.3.36.49.14.55-.08.56-.31.52-4.06 4.44-.52.36zm-596.4 3.08-.57-.11-.51-.35-4.12-4.4-.31-.52-.08-.56.13-.56.35-.48.51-.31.57-.09.55.13.49.35 4.08 4.37.32.51.09.56-.12.56-.34.49-.49.31zm588.11 5.58-.56-.1-.5-.33-.33-.5-.11-.55.1-.57.33-.5 4.16-4.28.49-.35.56-.12.57.1.5.32.34.49.12.56-.09.56-.32.51-4.2 4.32-.5.33zm-579.72 3.01-.56-.11-.5-.33-4.24-4.28-.32-.5-.11-.56.12-.56.34-.5.5-.32.56-.1.56.11.5.34 4.2 4.24.34.5.11.56-.11.56-.33.5-.5.34zm571.17 5.41-.57-.11-.51-.35-.32-.51-.1-.56.12-.56.35-.49 4.28-4.16.51-.33.56-.1.56.11.49.33.33.51.11.56-.12.56-.33.49-4.32 4.2-.49.31zm-562.55 2.92-.53-.1-.49-.31-4.36-4.15-.34-.49-.12-.56.1-.56.32-.51.5-.34.56-.12.56.1.5.32 4.33 4.12.35.49.12.56-.09.56-.31.51-.51.36zm553.77 5.25-.6-.12-.52-.37-.3-.52-.08-.56.14-.56.35-.48 4.41-4.04.51-.31.57-.09.55.13.49.35.31.51.09.57-.13.55-.35.49-4.44 4.07-.48.29zm-544.9 2.82-.52-.09-.48-.29-4.47-4.01-.36-.49-.13-.55.08-.57.31-.51.48-.36.56-.13.56.08.52.31 4.44 3.99.36.48.15.55-.08.57-.3.52-.52.38zm535.87 5.1-.61-.13-.53-.4-.29-.53-.06-.56.15-.55.37-.47 4.52-3.91.53-.3.56-.07.55.14.48.36.3.53.07.56-.14.55-.37.48-4.55 3.94-.47.27zm-526.78 2.71-.49-.08-.47-.26-4.59-3.89-.37-.48-.15-.55.07-.56.29-.53.47-.36.55-.16.57.07.52.29 4.56 3.86.38.47.16.55-.06.56-.28.53-.54.41zm517.53 4.94-.63-.14-.54-.43-.27-.53-.05-.57.17-.54.38-.46 4.64-3.78.53-.28.57-.06.55.16.46.38.28.53.06.57-.16.54-.38.47-4.67 3.81-.45.25zm-508.21 2.6-.48-.08-.45-.24-4.7-3.75-.38-.46-.17-.55.05-.57.28-.53.46-.38.54-.17.57.05.54.28 4.66 3.72.39.46.18.54-.04.57-.27.54-.54.43zm498.74 4.77-.65-.15-.55-.45-.26-.54-.03-.57.19-.54.39-.45 4.75-3.64.54-.26.57-.04.54.18.46.39.26.53.04.57-.17.55-.4.45-4.78 3.67zm-489.21 2.5-.89-.3-4.81-3.61-.4-.45-.18-.54.03-.57.26-.54.45-.4.55-.18.57.03.54.27 4.77 3.58.4.45.19.53-.02.57-.26.55-.54.45zm479.52 4.6-.67-.16-.55-.47-.25-.55-.01-.57.2-.54.41-.43 4.85-3.51.55-.25.57-.02.54.19.44.41.25.54.02.57-.19.54-.4.44-4.89 3.53zm-469.79 2.38-.85-.27-4.92-3.47-.4-.44-.2-.53.01-.57.25-.55.44-.41.54-.2.57.02.54.24 4.88 3.45.41.43.21.53-.01.57-.24.55-.55.48zm459.9 4.43-.69-.17-.56-.5-.23-.55.01-.57.21-.53.43-.43 4.95-3.36.55-.23.57-.01.53.21.44.42.23.55.01.57-.21.53-.42.43-4.99 3.39zm-449.97 2.26-.82-.24-5-3.33-.43-.42-.21-.53v-.57l.23-.56.43-.42.53-.21h.57l.55.23 4.97 3.29.43.42.22.53.01.57-.22.56-.56.51zM637.29 759l-.72-.18-.56-.52-.21-.57.02-.57.23-.52.44-.41 5.05-3.21.56-.22.57.01.52.22.42.43.22.56-.01.57-.22.53-.43.42-5.09 3.23zm-429.76 2.14-.78-.22-5.1-3.18-.43-.41-.23-.52-.02-.57.21-.57.42-.43.52-.23.57-.01.56.21 5.07 3.15.44.41.23.52.03.57-.21.56-.56.53zm419.48 4.08-.74-.19-.56-.55-.19-.57.03-.57.25-.51.45-.4 5.14-3.06.57-.2.57.02.51.24.41.44.2.57-.02.57-.24.52-.44.4-5.19 3.09zm-409.18 2.01-.74-.19-5.19-3.03-.45-.4-.24-.51-.04-.57.2-.57.4-.45.52-.24.57-.03.56.19 5.16 3 .45.4.25.51.04.57-.19.57-.56.56zm398.71 3.91-.75-.2-.57-.58-.17-.57.05-.57.26-.51.46-.38 5.23-2.91.58-.19.56.05.52.25.39.45.19.57-.05.57-.25.51-.46.4-5.27 2.93zm-388.24 1.88-.7-.17-5.28-2.87-.45-.39-.26-.51-.05-.57.18-.57.39-.46.5-.25.57-.05.57.17 5.24 2.85.46.38.27.51.06.56-.17.58-.57.59zm377.61 3.73-.77-.21-.57-.61-.16-.58.07-.56.28-.5.47-.37 5.32-2.76.57-.17.57.06.5.27.38.47.17.57-.06.57-.27.5-.47.38-5.35 2.78zm-366.97 1.75-.67-.15-5.36-2.72-.46-.37-.28-.5-.06-.57.16-.58.37-.46.51-.28.56-.06.58.16 5.31 2.69.48.37.28.49.08.57-.16.58-.57.62zm356.17 3.55-.79-.23-.57-.63-.14-.58.08-.57.3-.49.48-.36 5.4-2.6.58-.15.56.08.5.28.36.48.16.58-.08.57-.29.49-.47.37-5.44 2.62zm-345.39 1.62-.63-.14-5.43-2.55-.47-.37-.29-.49-.09-.56.15-.58.36-.48.49-.29.57-.09.58.15 5.39 2.53.48.36.3.49.09.56-.13.58-.57.65zm334.43 3.36-.81-.24-.56-.66-.13-.59.11-.56.3-.48.49-.35 5.48-2.44.58-.13.57.09.48.3.35.49.14.58-.1.57-.3.48-.48.35-5.52 2.46zm-323.5 1.48-.59-.12-5.5-2.39-.49-.35-.3-.48-.1-.57.13-.58.35-.49.48-.3.56-.1.59.13 5.46 2.37.49.34.31.47.11.56-.12.59-.57.68zm312.4 3.17-.82-.25-.57-.69-.11-.6.12-.55.32-.48.5-.33 5.55-2.27.59-.12.56.11.48.31.33.5.12.59-.11.56-.31.48-.5.33-5.59 2.3zm-301.31 1.35-.55-.1-5.59-2.24-.5-.33-.32-.47-.11-.56.11-.59.33-.5.47-.32.56-.12.59.12 5.55 2.22.51.32.32.47.13.56-.11.59-.56.7zM561.81 796l-.84-.26-.56-.73-.09-.59.13-.55.34-.47.51-.31 5.61-2.11.59-.1.56.13.47.32.32.51.1.59-.13.56-.33.47-.5.32-5.66 2.13zm-278.84 1.24-.5-.09-5.66-2.07-.51-.32-.33-.46-.13-.56.09-.59.32-.51.47-.33.55-.13.59.09 5.62 2.06.51.31.34.46.14.55-.09.59-.55.73zm267.48 2.75-.86-.28-.56-.75-.08-.6.16-.54.35-.46.51-.3 5.68-1.94.6-.08.55.14.46.34.3.52.09.59-.15.55-.34.46-.51.31-5.72 1.96zm-256.12 1.12-.46-.07-5.72-1.9-.51-.31-.35-.45-.15-.55.08-.6.3-.52.46-.34.55-.15.59.08 5.67 1.88.53.3.35.45.15.55-.06.59-.56.76zm244.64 2.53-.89-.29-.55-.78-.05-.6.17-.54.36-.45.53-.28 5.73-1.78.6-.06.55.16.44.35.29.53.07.6-.16.54-.36.45-.52.29-5.78 1.79zm-233.17 1-.42-.06-5.77-1.73-.53-.29-.36-.44-.16-.55.06-.59.28-.53.45-.36.54-.16.6.06 5.72 1.71.54.28.36.44.18.55-.05.59-.56.79zm221.63 2.29-.9-.3-.33-.35-.22-.46-.03-.6.18-.54.37-.43.54-.27 5.76-1.6.6-.04.54.17.44.37.28.53.04.6-.18.54-.36.44-.54.28-5.8 1.61zm-210.07.91-.38-.05-5.81-1.56-.54-.27-.37-.44-.18-.54.04-.6.27-.53.44-.37.54-.18.6.04 5.77 1.55.54.26.38.43.19.54-.04.6-.21.46-.33.35zm198.44 2.04-.49-.08-.43-.24-.33-.36-.21-.47-.02-.6.2-.53.39-.42.54-.26 5.81-1.43.6-.02.54.19.42.38.26.54.03.6-.19.54-.38.42-.54.26-5.85 1.44zm-186.78.81-.34-.04-5.86-1.39-.54-.25-.39-.43-.19-.53.02-.6.26-.54.42-.39.53-.19.6.02 5.82 1.38.55.24.39.42.2.53-.01.6-.2.48-.34.37-.43.23zm175.07 1.8-.5-.09-.44-.24-.33-.38-.2-.49v-.6l.22-.53.4-.4.55-.24 5.84-1.26.6-.01.53.21.42.39.24.55.01.6-.21.53-.39.42-.55.24-5.88 1.27zm-163.34.7-.29-.03-5.9-1.21-.55-.24-.4-.41-.21-.53.01-.6.23-.55.42-.4.52-.21.61.01 5.85 1.2.55.23.4.41.23.52v.6l-.19.5-.33.37-.44.25zm151.56 1.56-.52-.09-.44-.26-.33-.39-.19-.5.02-.6.23-.52.41-.4.56-.22 5.88-1.08.59.01.53.22.4.41.23.55-.01.6-.22.53-.4.4-.56.23-5.92 1.09zm-139.76.6-.25-.02-5.93-1.04-.55-.22-.41-.4-.23-.52-.01-.6.22-.56.4-.41.52-.23.6-.01 5.89 1.03.56.22.41.39.24.52.02.6-.18.51-.33.39-.45.26zm127.91 1.31-.53-.09-.44-.27-.33-.4-.18-.52.03-.6.25-.51.42-.39.57-.2 5.9-.91.61.02.51.24.39.42.21.56-.02.6-.24.52-.42.39-.56.21-5.95.92zm-116.05.5-.2-.01-5.96-.87-.57-.21-.41-.38-.25-.52-.03-.6.21-.56.38-.42.52-.25.6-.02 5.92.85.56.2.43.39.25.51.04.6-.18.52-.33.41-.45.26zm104.16 1.07-.54-.1-.46-.28-.33-.42-.16-.53.05-.6.26-.5.43-.38.57-.18 5.94-.74.6.04.51.26.37.43.2.56-.04.6-.26.51-.43.38-.56.19-5.98.75zm-92.25.39-.16-.01-5.98-.69-.57-.19-.43-.37-.26-.51-.05-.6.19-.56.38-.43.51-.26.59-.05 5.94.68.57.18.44.37.26.5.06.6-.16.54-.33.42-.46.28zm80.31.82-.55-.1-.46-.29-.33-.43-.15-.55.07-.59.27-.5.45-.36.57-.17 5.95-.57.6.06.5.27.37.44.18.58-.06.59-.27.5-.44.37-.57.18-6 .57zm-68.36.29h-.12l-6-.52-.58-.17-.44-.36-.27-.5-.07-.6.18-.57.36-.45.5-.27.6-.06 5.95.51.58.16.45.36.28.49.07.6-.15.55-.33.44-.46.29zm56.39.58-.56-.11-.46-.3-.33-.44-.14-.57.08-.59.3-.49.45-.35.58-.15 5.96-.39.59.08.5.29.35.44.17.58-.08.6-.28.49-.45.35-.58.17-6.01.39zm-44.42.19h-.07l-6.02-.34-.58-.16-.45-.35-.29-.49-.08-.6.16-.58.34-.44.5-.29.59-.09 5.97.34.59.15.45.34.3.49.09.59-.14.57-.33.45-.46.3zm32.44.33-.58-.12-.47-.31-.32-.45-.13-.58.1-.59.31-.48.46-.34.59-.13 5.97-.22.58.09.49.3.35.46.14.59-.09.59-.3.49-.46.34-.58.14-6.02.22zm-20.46.08h-.03l-6.01-.16-.58-.14-.46-.34-.31-.48-.1-.59.14-.59.34-.46.49-.3.58-.1 5.97.16.58.13.47.33.31.48.11.59-.13.58-.32.46-.47.32zm8.46.09-2.48-.01-.58-.12-.47-.32-.32-.48-.12-.59.12-.58.33-.47.47-.32.58-.12h.01l8.44-.03h.02l.58.11.48.32.32.46.12.59-.11.58-.31.48-.47.33-.59.13z"/><path fill="#a3b1bf" fill-rule="evenodd" d="m51.68 646-2 .27-1.78.76-1.52 1.17-1.17 1.52-.75 1.77-.28 2.01.28 2.01.75 1.77 1.17 1.52 1.52 1.17 1.78.76 2 .27 2.01-.27 1.78-.76 1.51-1.17 1.18-1.52.75-1.77.27-2.01-.27-2.01-.75-1.77-1.18-1.52-1.51-1.17-1.78-.76zm0 18-1.91-.18-1.76-.48-1.62-.78-1.48-1.04-1.25-1.25-1.04-1.47-.78-1.63-.48-1.76-.18-1.91.18-1.91.48-1.76.78-1.63 1.04-1.47 1.25-1.25 1.48-1.04 1.62-.78 1.76-.48 1.91-.18 1.92.18 1.75.48 1.63.78 1.47 1.04 1.25 1.25 1.05 1.47.78 1.63.47 1.76.18 1.91-.18 1.91-.47 1.76-.78 1.63-1.05 1.47-1.25 1.25-1.47 1.04-1.63.78-1.75.48zm233.5-110.5-2.83.26-2.59.71-2.4 1.15-2.18 1.54-1.84 1.84-1.54 2.18-1.15 2.4-.7 2.59-.27 2.83.27 2.83.7 2.59 1.15 2.4 1.54 2.18 1.84 1.84 2.18 1.54 2.4 1.15 2.59.71 2.83.26 2.83-.26 2.6-.71 2.4-1.15 2.17-1.54 1.85-1.84 1.54-2.18 1.14-2.4.71-2.59.26-2.83-.26-2.83-.71-2.59-1.14-2.4-1.54-2.18-1.85-1.84-2.17-1.54-2.4-1.15-2.6-.71zm0 3 2.28.21 2.09.57 1.94.93 1.75 1.24 1.49 1.49 1.24 1.76.93 1.93.57 2.09.21 2.28-.21 2.28-.57 2.09-.93 1.93-1.24 1.76-1.49 1.49-1.75 1.24-1.94.93-2.09.57-2.28.21-2.28-.21-2.08-.57-1.94-.93-1.76-1.24-1.48-1.49-1.25-1.76-.92-1.93-.57-2.09-.22-2.28.22-2.28.57-2.09.92-1.93 1.25-1.76 1.48-1.49 1.76-1.24 1.94-.93 2.08-.57z"/><path fill="#a0c8ff" fill-opacity=".151" d="m285.18 556.5-2.28.21-2.08.57-1.94.93-1.76 1.24-1.48 1.49-1.25 1.76-.92 1.93-.57 2.09-.22 2.28.22 2.28.57 2.09.92 1.93 1.25 1.76 1.48 1.49 1.76 1.24 1.94.93 2.08.57 2.28.21 2.28-.21 2.09-.57 1.94-.93 1.75-1.24 1.49-1.49 1.24-1.76.93-1.93.57-2.09.21-2.28-.21-2.28-.57-2.09-.93-1.93-1.24-1.76-1.49-1.49-1.75-1.24-1.94-.93-2.09-.57z"/><path fill="#a3b1bf" fill-rule="evenodd" d="m531.68 243.5-2.41.33-2.13.9-1.82 1.41-1.41 1.82-.9 2.13-.33 2.41.33 2.41.9 2.13 1.41 1.82 1.82 1.41 2.13.9 2.41.33 2.41-.33 2.14-.9 1.82-1.41 1.4-1.82.91-2.13.32-2.41-.32-2.41-.91-2.13-1.4-1.82-1.82-1.41-2.14-.9zm0 3 1.63.23 1.4.58 1.21.95.95 1.22.58 1.39.23 1.63-.23 1.63-.58 1.39-.95 1.22-1.21.95-1.4.58-1.63.23-1.62-.23-1.4-.58-1.22-.95-.94-1.22-.59-1.39-.23-1.63.23-1.63.59-1.39.94-1.22 1.22-.95 1.4-.58z"/><path fill="#f3f8ff" fill-rule="evenodd" d="m531.68 246.5 1.63.23 1.4.58 1.21.95.95 1.22.58 1.39.23 1.63-.23 1.63-.58 1.39-.95 1.22-1.21.95-1.4.58-1.63.23-1.62-.23-1.4-.58-1.22-.95-.94-1.22-.59-1.39-.23-1.63.23-1.63.59-1.39.94-1.22 1.22-.95 1.4-.58zm-210 424 1.36-.19 1.17-.49 1.01-.78.78-1.02.49-1.16.19-1.36-.19-1.36-.48-1.16-.79-1.02-1.01-.78-1.17-.49-1.36-.19-1.35.19-1.17.49-1.01.78-.79 1.02-.48 1.16-.2 1.36.2 1.36.48 1.16.79 1.02 1.01.78 1.17.49z"/><path fill="#a3b1bf" fill-rule="evenodd" d="m105.68 579.5.98.2.79.53.53.79.2.98v10l-.2.98-.53.79-.79.53-.98.2-.98-.2-.78-.53-.54-.79-.2-.98v-10l.2-.98.54-.79.78-.53zM95.18 569l.98.2.79.53.53.79.2.98-.2.98-.53.79-.79.53-.98.2h-10l-.98-.2-.78-.53-.54-.79-.2-.98.2-.98.54-.79.78-.53.98-.2zm31 0 .98.2.79.53.53.79.2.98-.2.98-.53.79-.79.53-.98.2h-10l-.98-.2-.78-.53-.54-.79-.2-.98.2-.98.54-.79.78-.53.98-.2zm-20.5-20.5.98.2.79.53.53.79.2.98v10l-.2.98-.53.79-.79.53-.98.2-.98-.2-.78-.53-.54-.79-.2-.98v-10l.2-.98.54-.79.78-.53zm674-66 .98.2.79.53.53.79.2.98v10l-.2.98-.53.79-.79.53-.98.2-.98-.2-.78-.53-.54-.79-.2-.98v-10l.2-.98.54-.79.78-.53zm-10.5-10.5.98.2.79.53.53.79.2.98-.2.98-.53.79-.79.53-.98.2h-10l-.98-.2-.78-.53-.54-.79-.2-.98.2-.98.54-.79.78-.53.98-.2zm31 0 .98.2.79.53.53.79.2.98-.2.98-.53.79-.79.53-.98.2h-10l-.98-.2-.78-.53-.54-.79-.2-.98.2-.98.54-.79.78-.53.98-.2zm-20.5-20.5.98.2.79.53.53.79.2.98v10l-.2.98-.53.79-.79.53-.98.2-.98-.2-.78-.53-.54-.79-.2-.98v-10l.2-.98.54-.79.78-.53zm-280-163h-154l-2.9.21-2.71.55-2.56.89-2.42 1.22-2.95 2.09-2.5 2.5-2.09 2.95-1.22 2.42-.88 2.55-.56 2.72-.21 2.9v196l.21 2.9.56 2.72.88 2.55 1.22 2.42 2.09 2.95 2.5 2.5 2.95 2.09 2.42 1.22 2.56.89 2.71.55 2.9.21h154l2.91-.21 2.71-.55 2.56-.89 2.41-1.22 2.95-2.09 2.5-2.5 2.09-2.95 1.22-2.42.89-2.55.55-2.72.21-2.9v-196l-.21-2.9-.55-2.72-.89-2.55-1.22-2.42-2.09-2.95-2.5-2.5-2.95-2.09-2.41-1.22-2.56-.89-2.71-.55zm0 3 3.28.31 3.01.82 2.79 1.33 2.53 1.79 2.14 2.15 1.79 2.52 1.34 2.79.82 3.01.3 3.28v196l-.3 3.28-.82 3.01-1.34 2.79-1.79 2.52-2.14 2.15-2.53 1.79-2.79 1.33-3.01.82-3.28.31h-154l-3.28-.31-3.01-.82-2.78-1.33-2.53-1.79-2.15-2.15-1.79-2.52-1.33-2.79-.82-3.01-.31-3.28v-196l.31-3.28.82-3.01 1.33-2.79 1.79-2.52 2.15-2.15 2.53-1.79 2.78-1.33 3.01-.82 3.28-.31z"/><path fill="#acc0dc" fill-opacity=".196" d="M324.68 359.07v99.86h-55.59l-3.03.28-2.78.76-2.57 1.23-2.33 1.65-1.98 1.99-1.65 2.33-1.22 2.58-.76 2.78-.28 3.04.28 3.04.76 2.78 1.22 2.58 1.65 2.34 1.98 1.98 2.33 1.65 2.57 1.23 2.78.76 3.03.28h20.47l3.03.29 2.77.76 2.58 1.23 2.33 1.65 1.97 1.98 1.65 2.34 1.23 2.58.76 2.78.28 3.04-.28 3.04-.76 2.78-1.23 2.58-1.65 2.33-1.97 1.98-2.33 1.66-2.58 1.23-2.77.76-3.03.28H91.68l-3.03-.28-2.77-.76-2.58-1.23-2.33-1.66-1.97-1.98-1.65-2.33-1.23-2.58-.76-2.78-.28-3.04.28-3.04.76-2.78 1.23-2.58 1.65-2.34 1.97-1.98 2.33-1.65 2.58-1.23 2.77-.76 3.03-.29h104.2l2.53-.19 2.39-.55 2.39 1.69 2.68 1.27 2.87.79 3.09.28 3.13-.29 2.87-.79 2.67-1.27 2.41-1.71 2.05-2.05 1.71-2.41 1.28-2.66.79-2.87.29-3.12V457.3h9.14l2.64-.25 2.42-.66 2.25-1.08 2.04-1.44 1.73-1.73 1.44-2.03 1.08-2.25.67-2.42.24-2.63-.24-2.64-.67-2.41-1.08-2.25-1.44-2.03-1.73-1.73-2.04-1.44-2.25-1.08-2.42-.66-2.64-.25h-9.14v-2.68h57.05l3.03-.28 2.78-.76 2.57-1.23 2.33-1.65 1.98-1.98 1.65-2.34 1.22-2.58.76-2.78.28-3.04-.28-3.04-.76-2.78-1.22-2.58-1.65-2.34-1.98-1.98-2.33-1.65-2.57-1.23-2.78-.76-3.03-.28h-19.94l-3.03-.29-2.78-.75-2.57-1.23-2.33-1.66-1.98-1.98-1.65-2.34-1.22-2.57-.76-2.79-.28-3.04.28-3.03.76-2.79 1.22-2.58 1.65-2.33 1.98-1.98 2.33-1.66 2.57-1.23 2.78-.76 3.03-.28zm336.97-66.57 3.03.28 2.77.76 2.58 1.23 2.33 1.66 1.97 1.98 1.65 2.33 1.23 2.58.76 2.78.28 3.04-.28 3.04-.76 2.79-1.23 2.57-1.65 2.34-1.97 1.98-2.33 1.65-2.58 1.23-2.77.76-3.03.29h-25.59l-2.59-2.12-2.8-1.78-3.03-1.44-3.19-1.07-3.33-.65-3.52-.23-3.52.23-3.34.65-3.18 1.06-3.04 1.45-2.8 1.78-2.59 2.12h-11.71l-3.03.28-2.77.76-2.58 1.23-2.32 1.65-1.98 1.98-1.65 2.34-1.23 2.58-.76 2.78-.28 3.04.28 3.04.76 2.78 1.23 2.58 1.65 2.33 1.98 1.99 2.32 1.65 2.58 1.23 2.77.76 3.03.28h3.16l1.38 10.15 1.89 11.38 2.34 11.76h-75.51v-32.04l2.58-.63 2.37-1.01 2.2-1.41 1.94-1.74 1.66-2.03 1.38-2.34 1.01-2.52.63-2.71.23-2.93-.23-2.93-.63-2.71-1.01-2.52-1.38-2.34-1.66-2.03-1.94-1.74-2.2-1.41-2.37-1.01-2.58-.63V309.5l-.29-3.47-.8-3.21-1.29-3.01-1.75-2.77-2.1-2.43-2.49-2.11Zm34.43 66.57 3.03.28 2.78.76 2.57 1.23 2.33 1.66 1.98 1.98 1.65 2.33 1.22 2.58.76 2.79.28 3.04-.28 3.03-.76 2.79-1.22 2.57-1.65 2.34-1.98 1.98-2.33 1.66-2.57 1.23-2.78.75-3.03.29h-57.07l2.33-11.76 1.9-11.38 1.37-10.15Z"/><path fill="#a0c8ff" fill-opacity=".151" d="M499.68 307.5h-154l-.78.16-.63.43-.43.63-.16.78v196l.16.78.43.63.63.43.78.16h42.08v-11h-.19l-.04 7.71-.95 1.54-.99.74-1.14.28-1.11-.09-1.05-.34-.81-.39-.77-.51-1.71-1.68-4.29-4.7-2.63-3.21-2.99-4-2.09-2.05-1.72-2.34-1.32-2.58-.88-2.8-1.9-3.92-1.62-4.09-1.36-4.3-.96-4.38-.48-4.47v-4.57l.37-3.39.75-3.41 1.15-3.46 1.58-3.52 2.07-3.7v-23.29l.21-2.65.58-2.49.95-2.36 1.28-2.2 1.55-1.98 1.86-1.79 2.08-1.52 2.28-1.24 2.51-.96-1.45-4.26-1.44-4.7-1.48-1.14-2.13-1.98-2.06-2.39-1.97-3.09-1.02-2.27-.72-2.55-.38-2.87.12-2.99.52-2.55.87-2.19 1.21-2.03 1.37-1.71 1.53-1.43 2.52-1.75 2.31-1.13 1.46-4.43 1.16-2.83 1.65-3.38 1.97-3.43 2.54-3.69 2.71-3.31 3.46-3.49 2.54-2.16 2.9-2.09 3.3-2.02 3.44-1.75 3.87-1.54 4.34-1.33 4.42-.94 4.95-.61 5.52-.24 5.56.24 4.97.61 4.44.94 4.35 1.33 3.88 1.55 3.45 1.74 3.3 2.02 2.9 2.1 2.54 2.16 3.45 3.48 2.71 3.31 2.47 3.62 1.93 3.36 1.62 3.32 1.16 2.81 1.46 4.45 2.16.91 2.32 1.57 1.39 1.31 1.27 1.68 1.16 2.09.83 2.24.54 2.73.21 3.33-.25 3.09-.58 2.65-.87 2.28-1.18 2.14-1.3 1.81-1.42 1.5-2.35 1.9-2.15 1.25-.59 4.03-.56 2.57-.86 3.16 3.03 1.76 2.56 2.17 2.14 2.61 1.28 2.19.91 2.32.57 2.47.22 2.66v23.29l2.08 3.7 1.57 3.52 1.15 3.46.76 3.41.37 3.39v4.57l-.48 4.47-.96 4.38-1.36 4.3-1.63 4.09-1.89 3.92-.88 2.8-1.32 2.58-1.72 2.34-2.09 2.05-2.99 4-2.64 3.21-4.29 4.7-1.7 1.68-.81.51-.84.39-1.1.34-1.15.09-1.17-.28-1.02-.74-.96-1.54v3.29h42.07l.79-.16.63-.43.42-.63.16-.78v-196l-.16-.78-.42-.63-.63-.43z"/><path fill="#a3b1bf" fill-rule="evenodd" d="m617.71 448.5-3.16.22-2.97.61-2.82.98-2.68 1.35-2.43 1.64-2.21 1.95-1.96 2.22-1.64 2.43-1.34 2.67-.99 2.83-.61 2.97-.22 3.16.22 3.16.61 2.97.99 2.82 1.34 2.68 1.64 2.43 1.96 2.22 2.21 1.95 2.43 1.64 2.68 1.35 2.82.98 2.97.61 3.16.22 3.16-.22 2.98-.61 2.82-.98 2.67-1.35 2.43-1.64 2.22-1.95 1.95-2.22 1.64-2.43 1.35-2.68.98-2.82.61-2.97.22-3.16-.22-3.16-.61-2.97-.98-2.83-1.35-2.67-1.64-2.43-1.95-2.22-2.22-1.95-2.43-1.64-2.67-1.35-2.82-.98-2.98-.61zm0 3 3.66.34 3.35.91 3.1 1.48 2.81 2 2.39 2.38 1.99 2.81 1.48 3.1.91 3.35.34 3.66-.34 3.65-.91 3.36-1.48 3.1-1.99 2.81-2.39 2.38-2.81 1.99-3.1 1.48-3.35.92-3.66.34-3.65-.34-3.35-.92-3.11-1.48-2.81-1.99-2.38-2.38-1.99-2.81-1.48-3.1-.92-3.35-.34-3.66.34-3.66.92-3.35 1.48-3.1 1.99-2.81 2.38-2.38 2.81-2 3.11-1.48 3.35-.91z"/><path fill="#a0c8ff" fill-opacity=".151" d="m617.71 451.5 3.66.34 3.35.91 3.1 1.48 2.81 2 2.39 2.38 1.99 2.81 1.48 3.1.91 3.35.34 3.66-.34 3.65-.91 3.36-1.48 3.1-1.99 2.81-2.39 2.38-2.81 1.99-3.1 1.48-3.35.92-3.66.34-3.65-.34-3.35-.92-3.11-1.48-2.81-1.99-2.38-2.38-1.99-2.81-1.48-3.1-.92-3.35-.34-3.66.34-3.66.92-3.35 1.48-3.1 1.99-2.81 2.38-2.38 2.81-2 3.11-1.48 3.35-.91z"/><path fill="#a3b1bf" fill-rule="evenodd" d="m144.68 428.5 50-55v55zm67.15-109-.39.02-.71-.02-2.95.3-2.85.89-1.79.92-1.65 1.18-1.53 1.46-.26.28-1.17 1.28-2.45 2.71h-40.25l-2.29.31-2.04.86-1.74 1.35-1.35 1.74-.86 2.03-.32 2.29.32 2.29.86 2.04 1.35 1.73 1.74 1.35 2.04.86 2.29.32h18.28l2.29.31 2.04.86 1.74 1.35 1.35 1.74.87 2.03.31 2.29-.31 2.29-.87 2.04-1.35 1.74-1.74 1.34-2.04.86-2.29.32h-9.18l-.02.02-.48-.02h-40.85l-2.3.31-2.03.86-1.74 1.35-1.35 1.74-.87 2.03-.31 2.29.31 2.29.87 2.04 1.35 1.74 1.74 1.34 2.03.87 2.3.31h25.78l-47.94 52.85-1.59 2.12-1.13 2.23-.71 2.39-.3 2.48.12 2.44.54 2.43.95 2.3 1.35 2.12 1.79 1.95 1.81 1.39 1.93 1.06 2.06.74 2.11.42 1.53.26 1.58.09h81.17v21.03l.29 3.12.79 2.87 1.28 2.66 1.71 2.41 2.05 2.05 2.42 1.71 2.66 1.27 2.87.79 3.13.29 3.13-.29 2.87-.79 2.67-1.27 2.41-1.71 2.05-2.05 1.72-2.41 1.27-2.66.79-2.87.29-3.12V457.3h9.14l2.64-.25 2.42-.66 2.25-1.08 2.04-1.44 1.73-1.73 1.44-2.03 1.08-2.25.67-2.42.24-2.63-.24-2.63-.67-2.42-1.08-2.25-1.44-2.03-1.73-1.73-2.04-1.44-2.25-1.08-2.42-.66-2.64-.25h-9.14v-91.65l-.29-3.12-.79-2.87-1.27-2.66-1.72-2.41-2.05-2.05-2.41-1.71-2.67-1.27-2.87-.79zm-73.93 112h59.78v-65.76l-5.22 5.74-50 55zm73.97-109 2.58.25 2.37.65 2.19 1.05 1.99 1.41 1.69 1.69 1.41 1.98 1.05 2.2.64 2.36.24 2.58v94.65h12.14l2.1.2 1.92.52 1.79.85 1.61 1.14 1.37 1.37 1.15 1.62.85 1.78.53 1.92.19 2.09-.19 2.09-.53 1.92-.85 1.78-1.15 1.61-1.37 1.37-1.61 1.15-1.79.85-1.92.52-2.1.2h-12.14v24.03l-.24 2.58-.65 2.37-1.05 2.2-1.41 1.99-1.69 1.68-2 1.41-2.2 1.05-2.37.65-2.59.24-2.59-.24-2.37-.65-2.2-1.05-1.99-1.41-1.7-1.68-1.41-1.99-1.05-2.2-.65-2.37-.24-2.58V454.3h-84.17l-2.46-.28-.14-.03-.14-.02-2.31-.53-2.07-.94-1.89-1.38-1.53-1.68-1.14-1.91-.75-2.1-.33-2.26.11-2.28.53-2.16.95-2.02 1.35-1.82 47.94-52.85 4.55-5.01h-32.55l-1.52-.22-1.3-.54-1.14-.88-.88-1.13-.54-1.3-.22-1.52.22-1.51.54-1.3.88-1.14 1.14-.87 1.3-.55 1.52-.21h40.97l.22.02 1.38.04.06-.06h7.9l2.11-.2 1.94-.53 1.8-.86 1.63-1.15 1.38-1.38 1.15-1.63.86-1.79.53-1.94.2-2.11-.2-2.11-.53-1.94-.86-1.79-1.15-1.63-1.38-1.38-1.63-1.15-1.8-.86-1.94-.53-2.11-.19h-18.28l-1.52-.22-1.3-.54-1.14-.88-.88-1.13-.54-1.3-.22-1.52.22-1.51.54-1.3.88-1.14 1.14-.88 1.3-.54 1.52-.21h41.58l.9-.99 2.45-2.7.04-.05.05-.06.97-1.07.05-.05.05-.06.26-.28 1.79-1.6 2.07-1.17 2.27-.74 2.42-.25.57.02h.19z"/><path fill="#a0c8ff" fill-opacity=".151" d="m216.68 332.5 2.41.33 2.14.9 1.82 1.41 1.4 1.82.91 2.13.32 2.41v81l-.32 2.41-.91 2.13-1.4 1.82-1.82 1.41-2.14.9-2.41.33-2.41-.33-2.13-.9-1.82-1.41-1.41-1.82-.9-2.13-.33-2.41v-81l.33-2.41.9-2.13 1.41-1.82 1.82-1.41 2.13-.9z"/><path fill="#a3b1bf" fill-rule="evenodd" d="m298.68 124.5-2.55.24-2.34.64-2.17 1.03-1.97 1.39-1.66 1.67-1.4 1.96-1.03 2.17-.64 2.34-.24 2.56.24 2.56.64 2.34 1.03 2.17 1.4 1.96 1.66 1.67 1.97 1.39 2.17 1.03 2.34.64 2.55.24 2.56-.24 2.34-.64 2.17-1.03 1.96-1.39 1.67-1.67 1.39-1.96 1.04-2.17.64-2.34.23-2.56-.23-2.56-.64-2.34-1.04-2.17-1.39-1.96-1.67-1.67-1.96-1.39-2.17-1.03-2.34-.64zm0 3 2.01.19 1.84.5 1.7.81 1.54 1.1 1.31 1.31 1.1 1.54.81 1.71.51 1.84.18 2-.18 2-.51 1.84-.81 1.71-1.1 1.54-1.31 1.31-1.54 1.1-1.7.81-1.84.5-2.01.19-2-.19-1.84-.5-1.7-.81-1.55-1.1-1.31-1.31-1.09-1.54-.82-1.71-.5-1.84-.19-2 .19-2 .5-1.84.82-1.71 1.09-1.54 1.31-1.31 1.55-1.1 1.7-.81 1.84-.5z"/><path fill="#a0c8ff" fill-opacity=".151" d="m298.68 149.5-2-.19-1.84-.5-1.7-.81-1.55-1.1-1.31-1.31-1.09-1.54-.82-1.71-.5-1.84-.19-2 .19-2 .5-1.84.82-1.71 1.09-1.54 1.31-1.31 1.55-1.1 1.7-.81 1.84-.5 2-.19 2.01.19 1.84.5 1.7.81 1.54 1.1 1.31 1.31 1.1 1.54.81 1.71.51 1.84.18 2-.18 2-.51 1.84-.81 1.71-1.1 1.54-1.31 1.31-1.54 1.1-1.7.81-1.84.5z"/><path fill="#a3b1bf" fill-rule="evenodd" d="m647.68 157.5 1.36-.19 1.17-.49 1.01-.78.78-1.02.49-1.16.19-1.36-.19-1.36-.49-1.16-.78-1.02-1.01-.78-1.17-.49-1.36-.19-1.35.19-1.17.49-1.01.78-.79 1.02-.48 1.16-.2 1.36.2 1.36.48 1.16.79 1.02 1.01.78 1.17.49zm87 225 1.36-.19 1.17-.49 1.01-.78.78-1.02.49-1.16.19-1.36-.19-1.36-.49-1.16-.78-1.02-1.01-.78-1.17-.49-1.36-.19-1.35.19-1.17.49-1.01.78-.79 1.02-.48 1.16-.2 1.36.2 1.36.48 1.16.79 1.02 1.01.78 1.17.49zm-77-346-1.35.19-1.17.49-1.01.78-.79 1.02-.48 1.16-.2 1.36.2 1.36.48 1.16.79 1.02 1.01.78 1.17.49 1.35.19 1.36-.19 1.17-.49 1.01-.78.78-1.02.49-1.16.19-1.36-.19-1.36-.49-1.16-.78-1.02-1.01-.78-1.17-.49zm0 3 .79.16.63.43.42.63.16.78-.16.78-.42.63-.63.43-.79.16-.78-.16-.63-.43-.43-.63-.16-.78.16-.78.43-.63.63-.43zm119.5 532-3.98.24-3.76.67-3.57 1.08-3.41 1.49-3.13 1.81-2.85 2.15-2.58 2.47-2.2 2.71-1.86 2.96-1.46 3.18-1.01 3.34-.58 3.55-4.18-.48-4.43-.17-4.64.19-4.33.51-4.07.83-3.98 1.17-3.53 1.4-3.14 1.61-2.92 1.95-2.37 2.06-1.88 2.19-1.47 2.45-.86 2.51-.31 2.63.31 2.63.86 2.51 1.47 2.45 1.88 2.19 2.37 2.06 2.92 1.95 3.14 1.61 3.53 1.4 3.98 1.17 4.07.82 4.33.52 4.64.19 4.93-.21 4.59-.58 4.27-.93 4.16-1.32 3.66-1.56 3.18-1.79 1.18 1.13 1.61 1.11 2.1 1.07 3.44 1.25 4.26 1 4.54.61 5.08.22 5.78-.29 5.05-.78 3.25-.82 2.7-.96 2.23-1.06 2.04-1.36 1.35-1.36.81-1.37h.29l3.88-.23 3.52-.63 3.2-.98 3.04-1.4 2.49-1.61 2.01-1.84 1.59-2.15.93-2.25.34-2.41-.34-2.41-.93-2.25-1.59-2.15-2.01-1.84-2.49-1.61-3.04-1.4-3.2-.98-3.52-.63-3.88-.23-1.02.02.02-1.02-.29-3.84-.8-3.62-1.3-3.44-1.77-3.23-2.18-2.96-2.59-2.71-2.92-2.36-3.22-2-3.55-1.64-3.73-1.2-3.95-.73zm0 3 3.78.24 3.56.66 3.36 1.07 3.2 1.47 2.91 1.78 2.63 2.11 2.34 2.42 1.96 2.64 1.6 2.89 1.18 3.07.72 3.23.26 3.42-.01.9-.13 3.22 3.22-.11.92-.01 3.27.19 2.99.49 2.75.78 2.62 1.1 2.15 1.27 1.72 1.42 1.4 1.69.81 1.74.29 1.82-.29 1.82-.81 1.74-1.39 1.69-1.73 1.42-2.14 1.27-2.63 1.1-2.74.78-2.98.49-3.26.19h-.29l-2.07-.02-.75 1.92-.48.78-.97.89-1.67 1.05-2.86 1.22-4.14 1.15-4.58.72-5.72.29-4.93-.22-4.21-.57-3.89-.93-2.96-1.06-2.51-1.33-1.43-1.23-1.7-1.98-2.19 1.41-3.07 1.7-3.47 1.46-3.93 1.2-4.02.85-4.23.52-4.46.18-4.15-.16-3.9-.45-3.69-.71-3.62-1-3.22-1.2-2.87-1.38-2.7-1.66-2.18-1.75-1.73-1.84-1.36-2.08-.8-2.1-.28-2.17.28-2.17.8-2.1 1.36-2.08 1.73-1.84 2.18-1.75 2.7-1.66 2.87-1.38 3.22-1.19 3.62-1.01 3.69-.71 3.9-.45 4.15-.16 4.14.16 4.01.46 3.16.48.29-3.18.52-3.17.92-2.99 1.33-2.84 1.69-2.65 2.01-2.42 2.34-2.21 2.59-1.92 2.82-1.62 3.07-1.33 3.21-.96 3.36-.6z"/><path fill="#a0c8ff" fill-opacity=".151" d="m777.18 574.5-3.54.21-3.36.6-3.21.96-3.07 1.33-2.82 1.62-2.59 1.92-2.34 2.21-2.01 2.42-1.69 2.65-1.33 2.84-.92 2.99-.52 3.17-.29 3.18-3.16-.49-4.01-.45-4.14-.16-4.15.16-3.9.45-3.69.71-3.62 1.01-3.22 1.19-2.87 1.38-2.7 1.66-2.18 1.75-1.73 1.84-1.36 2.08-.8 2.1-.28 2.17.28 2.17.8 2.1 1.36 2.08 1.73 1.84 2.18 1.75 2.7 1.66 2.87 1.38 3.22 1.19 3.62 1.01 3.69.71 3.9.45 4.15.16 4.46-.18 4.23-.52 4.02-.85 3.93-1.2 3.47-1.46 3.07-1.7 2.19-1.41 1.7 1.98 1.43 1.23 2.51 1.33 2.96 1.06 3.89.93 4.21.57 4.93.22 5.72-.29 4.58-.72 4.14-1.15 2.86-1.22 1.67-1.05.97-.89.48-.78.75-1.92 2.33.02 3.27-.19 2.99-.49 2.75-.78 2.62-1.1 2.15-1.27 1.72-1.42 1.4-1.69.81-1.74.29-1.82-.29-1.82-.81-1.74-1.4-1.69-1.72-1.42-2.15-1.27-2.62-1.1-2.75-.78-2.99-.49-3.27-.19-.92.01-3.22.11.13-3.22.01-.9-.26-3.42-.72-3.23-1.18-3.07-1.6-2.89-1.96-2.64-2.34-2.42-2.63-2.11-2.91-1.78-3.2-1.47-3.36-1.07-3.56-.66zm0 3 3.37.21 3.17.58 2.99.94 2.86 1.3 2.59 1.57 2.34 1.85 2.09 2.13 1.74 2.33 1.42 2.53 1.06 2.71.64 2.84.23 3.01-.01.79-.12 3.21-.12 3.22 3.21-.1 3.22-.11.82-.01 4.14.33 3.51.84 3.13 1.34 2.21 1.5 1.17 1.24.63 1.15.21 1.1-.21 1.1-.63 1.15-1.17 1.24-2.21 1.5-3.13 1.34-3.5.84-4.13.33-2.33-.02-2.06-.01-.75 1.92-.72 1.84-.73.65-1.93 1.03-2.4.88-3.56.89-3.97.58-5.07.24-4.65-.21-3.83-.52-3.51-.81-2.54-.87-2.12-1.06-1-.82-1.7-1.98-1.7-1.98-2.19 1.4-2.2 1.41-2.82 1.57-3.22 1.34-3.65 1.11-3.74.77-3.95.48-4.18.17-5.27-.28-4.68-.71-4.17-1.09-4.04-1.55-3.2-1.71-2.5-1.83-1.68-1.68-1.1-1.59-.63-1.54-.23-1.52.21-1.52.63-1.55 1.12-1.62 1.39-1.43 1.82-1.43 2.31-1.42 2.76-1.31 3.07-1.12 3.41-.91 5.25-.88 5.53-.31 3.91.15 3.78.43 3.16.49 3.16.48.29-3.18.29-3.18.47-2.81.81-2.63 1.16-2.48 1.53-2.35 2.45-2.8 2.89-2.4 3.37-2 3.63-1.47 3.9-.91z"/><path fill="#a3b1bf" fill-rule="evenodd" d="m383.68 137.5-5.11.26-4.79.7-4.5 1.12-4.36 1.58-3.91 1.89-3.49 2.21-3.19 2.61-2.63 2.8-2.11 3.02-1.26 2.45-.9 2.53-.55 2.61-.2 2.72.08 1.68-3.58-.18-3.66.19-3.43.53-3.22.85-3.12 1.19-2.8 1.43-2.51 1.67-2.27 1.96-1.89 2.11-1.51 2.28-1.15 2.48-.69 2.58-.25 2.73.25 2.73.69 2.58 1.15 2.48 1.51 2.28 1.89 2.11 2.27 1.96 2.51 1.67 2.8 1.43 3.12 1.19 3.23.85 3.42.53 3.66.19 3.77-.2 3.52-.56 3.31-.9 3.18-1.26 2.85-1.5 2.53-1.76 1.05 2.82 1.46 2.59 1.89 2.4 2.22 2.1 2.53 1.79 2.88 1.48 3.05 1.08 3.26.67 3.5.25 3.68-.27 3.4-.73 3.17-1.19 2.96-1.62 2.59-1.94 2.23-2.28 1.86-2.59 1.36-2.8.9-3.04 3.1.34 3.25.12 5-.29 4.52-.76 4.11-1.2 3.92-1.71 3.2-1.98 2.57-2.23 1.62-1.98 1.13-2.03.68-2.1.25-2.22-.29-2.42-.82-2.29-1.39-2.23-1.77-1.97-2.23-1.83-2.74-1.69-2.93-1.36-3.28-1.13-3.67-.87.12-2.21-.2-2.72-.55-2.61-.89-2.53-1.26-2.45-2.12-3.02-2.62-2.8-3.19-2.61-3.5-2.21-3.9-1.89-4.36-1.58-4.51-1.12-4.79-.7zm0 3 4.69.23 4.4.62 4.13 1 4.02 1.4 3.59 1.68 3.2 1.96 2.95 2.32 2.41 2.48 1.94 2.67 1.47 2.92.89 3.03.31 3.19-.1 1.87-.32 2.78 2.75.51 3.26.77 2.88.96 2.54 1.14 2.41 1.41 1.92 1.51 1.52 1.58 1.2 1.8.7 1.81.24 1.86-.23 1.77-.6 1.69-1.02 1.65-1.48 1.64-2.3 1.83-2.85 1.63-3.51 1.42-3.66 1-3.98.63-4.37.24-2.99-.11-2.92-.32-2.82-.41-.56 2.79-.79 2.64-1.19 2.41-1.62 2.21-1.95 1.94-2.25 1.65-2.57 1.37-2.75.99-2.93.61-3.16.23-3-.2-2.81-.56-2.64-.91-2.5-1.25-2.2-1.51-1.95-1.79-1.65-2.05-1.28-2.25-.92-2.47-1.21-4.34-3.54 2.79-2.35 1.62-2.61 1.36-2.91 1.11-3.01.79-3.14.49-3.28.17-4.32-.29-3.93-.79-3.6-1.24-3.37-1.74-2.79-2.04-2.27-2.33-1.4-2-.98-2.08-.61-2.18-.23-2.31.23-2.31.6-2.18.99-2.08 1.4-2 2.27-2.33 2.79-2.04 3.37-1.74 3.6-1.24 3.93-.79 4.32-.29 3.27.16 3.61.37-.31-3.61-.07-1.42.32-3.19.89-3.03 1.47-2.92 1.94-2.67 2.41-2.48 2.94-2.32 3.21-1.96 3.59-1.68 4.01-1.4 4.13-1 4.4-.62z"/><path fill="#a0c8ff" fill-opacity=".151" d="m383.68 140.5-4.69.23-4.4.62-4.13 1-4.01 1.4-3.59 1.68-3.21 1.96-2.94 2.32-2.41 2.48-1.94 2.67-1.47 2.92-.89 3.03-.32 3.19.07 1.42.31 3.61-3.61-.37-3.27-.16-4.32.29-3.93.79-3.6 1.24-3.37 1.74-2.79 2.04-2.27 2.33-1.4 2-.98 2.08-.61 2.18-.23 2.31.23 2.31.6 2.18.99 2.08 1.4 2 2.27 2.33 2.79 2.04 3.37 1.74 3.6 1.24 3.93.79 4.32.29 3.28-.17 3.14-.49 3.01-.79 2.91-1.11 2.61-1.36 2.35-1.61 3.54-2.8 1.21 4.34.92 2.47 1.28 2.25 1.65 2.05 1.95 1.79 2.2 1.51 2.5 1.25 2.64.91 2.81.56 3 .2 3.16-.23 2.93-.61 2.75-.99 2.58-1.37 2.24-1.65 1.95-1.94 1.62-2.21 1.19-2.41.79-2.64.56-2.79 2.82.41 2.92.32 2.99.11 4.37-.24 3.98-.63 3.66-1 3.51-1.42 2.85-1.63 2.3-1.83 1.48-1.64 1.02-1.65.6-1.69.23-1.77-.24-1.86-.7-1.81-1.2-1.8-1.52-1.59-1.92-1.5-2.41-1.41-2.54-1.14-2.88-.96-3.26-.77-2.75-.51.32-2.78.1-1.87-.31-3.19-.89-3.03-1.47-2.92-1.94-2.67-2.41-2.48-2.95-2.32-3.2-1.96-3.59-1.68-4.02-1.4-4.13-1-4.4-.62zm0 3 4.24.19 4.03.55 3.84.9 3.73 1.27 3.4 1.57 3.09 1.88 2.66 2.1 2.13 2.18 1.64 2.27 1.25 2.49.74 2.52.25 2.58-.08 1.53-.32 2.78-.33 2.78 2.76.51 2.75.51 3.94.99 3.35 1.33 2.95 1.71 2.1 1.8 1.07 1.39.6 1.34.21 1.33-.29 1.58-.88 1.62-1.6 1.73-1.91 1.42-2.45 1.32-3.08 1.21-3.18.85-3.58.55-4.03.22-2.78-.1-2.69-.3-2.82-.41-2.82-.42-.56 2.79-.56 2.8-.66 2.18-1 2-1.37 1.83-1.64 1.61-1.91 1.37-2.18 1.13-2.33.82-2.49.51-2.69.19-2.56-.17-2.38-.46-2.25-.76-2.12-1.04-1.87-1.26-1.64-1.48-1.39-1.71-1.08-1.86-.77-2.05-1.21-4.34-1.21-4.35-3.54 2.8-3.54 2.79-2.07 1.42-2.33 1.21-2.59.98-2.69.7-2.81.43-2.95.15-3.71-.25-3.41-.65-3.13-1.04-2.96-1.46-2.45-1.68-1.99-1.92-1.58-2.22-.93-2.32-.34-2.46.34-2.46.93-2.32 1.58-2.22 1.99-1.92 2.45-1.68 2.96-1.46 3.13-1.04 3.41-.65 3.71-.25 2.97.15 3.61.37 3.61.37-.32-3.62-.32-3.62-.05-1.15.26-2.58.73-2.52 1.25-2.49 1.65-2.27 2.12-2.18 2.67-2.1 3.09-1.88 3.39-1.57 3.73-1.27 3.84-.9 4.03-.55z"/><path fill="#a3b1bf" fill-rule="evenodd" d="m670.34 246.5-3.7.22-3.37.64-3.15 1.09-2.69 1.49-1.61 5.99-9.27 39.04 5.38-1.32 4.95-.75 4.58-.24 4.47.25 4.15.75 3.87 1.21 3.63 1.68 3.43 2.17 3.24 2.67 3.67 3.01 3.95 2.46 4.28 1.93 4.63 1.4 5.05.87 5.51.3 5.43-.26 5.91-.81 11-43.67-5.05 1.04-4.58.59-4.14.19-4.71-.28-4.18-.81-3.71-1.28-3.31-1.75-2.96-2.21-2.64-2.72-2.57-2.73-2.77-2.38-3-2.06-3.19-1.76-3.25-1.43-3.33-1.1-3.41-.81-3.31-.47zm0 3 3.97.26 4.5.87 3 .91 3.02 1.24 3.06 1.6 2.88 1.9 2.73 2.3 2.6 2.73 2.52 2.65 2.77 2.22 3.03 1.84 3.33 1.45 3.66 1.06 4.03.67 4.47.24 4.6-.22 5.09-.69-9.35 37.12-4.62.53-4.29.18-5.08-.27-4.61-.76-4.2-1.24-4-1.78-3.71-2.28-3.45-2.83-3.54-2.92-3.74-2.36-3.96-1.84-4.22-1.32-4.51-.82-4.86-.28-5.21.29-5.66.92 4.09-17.43 2.75-11.5 1.67-6.79.86-3.25 2.14-1.02 2.54-.76 2.71-.46z"/><path fill="#a0c8ff" fill-opacity=".151" d="m670.34 249.5-2.99.16-2.71.46-2.54.76-2.14 1.02-.86 3.25-1.67 6.79-2.75 11.51-4.09 17.42 5.66-.92 5.21-.29 4.86.28 4.51.82 4.22 1.32 3.96 1.84 3.74 2.36 3.54 2.92 3.45 2.83 3.71 2.28 4 1.78 4.2 1.24 4.61.76 5.09.27 4.28-.18 4.62-.53 9.35-37.12-5.09.69-4.6.22-4.47-.24-4.03-.67-3.66-1.06-3.33-1.45-3.03-1.84-2.77-2.22-2.52-2.65-2.6-2.73-2.74-2.3-2.87-1.9-3.06-1.6-3.02-1.24-3-.91-4.5-.87zm0 3 3.62.23 4.1.79 4.1 1.36 4.17 2.05 2.62 1.73 2.48 2.09 2.36 2.49 2.8 2.93 3.06 2.47 3.34 2.02 3.65 1.61 4 1.17 4.41.74 4.86.26 5.7-.32-7.77 30.83-3.36.31-3.13.1-4.69-.25-4.25-.69-3.86-1.13-3.67-1.62-3.39-2.09-3.15-2.58-3.84-3.16-4.06-2.56-4.29-1.99-4.56-1.44-4.88-.88-5.25-.31-3.37.12-3.55.36 4.04-17.12 2.54-10.55 1.39-5.51 2.23-.78 2.59-.49z"/><path fill="#a3b1bf" fill-rule="evenodd" d="m658.32 242.44-21.48 86.14.12 1.16.41.95.62.82.68.63 1.21.79 22.32-89.52.03-.8-.26-.72-.51-.56-.72-.35-.8-.03-.71.26-.57.51z"/><path fill="#a3b1bf" fill-rule="evenodd" d="m617.6 318.5-3.83.28-3.6.76-3.43 1.24-3.23 1.7-2.95 2.07-2.69 2.46-2.36 2.79-1.99 3.06-1.64 3.38-1.19 3.55-.74 3.75-.27 3.98.12 3.32.42 4.99 1.52 11.97 2.33 14.01 1.43 7.29 1.56 7.16 2.55 10.14 2.27 7.62 2.43 6.77 2.11 4.76 2.28 4.05 1.92 2.56 2.05 1.96 1.7 1.05 1.74.57 1.49.14 1.63-.18 1.6-.56 1.61-.98 1.65-1.48 1.85-2.29 1.98-3.23 2.12-4.4 2.56-6.64 2.7-8.7 2.83-11.15 1.56-7.16 1.43-7.29 2.33-14.01 1.52-11.97.42-5 .12-3.32-.27-3.98-.73-3.75-1.2-3.55-1.63-3.38-1.99-3.06-2.36-2.79-2.7-2.46-2.95-2.07-3.23-1.7-3.42-1.24-3.61-.76zm0 3 3.42.25 3.22.68 3.06 1.11 2.89 1.52 2.63 1.85 2.4 2.21 2.1 2.49 1.78 2.75 1.46 3.03 1.06 3.18.65 3.37.24 3.58-.14 3.54-.52 5.72-.76 6.31-1.11 7.65-1.33 7.94-1.62 8.48-1.83 8.48-2.03 8.18-2.28 7.89-2.34 6.76-1.81 4.33-1.75 3.44-1.69 2.67-1.54 1.86-1.45 1.2-1.37.67-1.34.24-1.35-.24-1.37-.67-1.44-1.2-1.55-1.86-1.69-2.68-1.75-3.43-1.8-4.33-2.35-6.77-2.28-7.89-2.02-8.18-1.84-8.48-1.61-8.48-1.33-7.95-1.11-7.65-.77-6.3-.51-5.71-.15-3.54.24-3.57.66-3.36 1.06-3.19 1.46-3.03 1.77-2.75 2.11-2.49 2.4-2.21 2.63-1.86 2.88-1.51 3.06-1.12 3.23-.68z"/><path fill="#a0c8ff" fill-opacity=".151" d="m617.6 432.88-.93-.11-1.09-.4-1.07-.66-1.19-1.08-1.43-1.69-1.08-1.71-.76-1.73-.39-1.81.1-1.9.61-2.03 2.67-6.53 2.55-7.36 2.42-8.25 2.26-9.22 2.42-12.17 2.12-13.69 1.78-15.32.49-2.1.99-1.81 1.4-1.49 1.73-1.09 1.97-.61 2.16-.08 2.1.49 1.8.99 1.49 1.4 1.08 1.73.62 1.96.09 2.17-.94 9.88-1.27 9.8-1.54 9.68-1.72 9.14-1.95 8.85-1.97 7.86-2.15 7.42-2 5.98-2.17 5.35-1.8 3.5-1.85 2.93-1.21 1.43-1.34 1.18-1.48.82zm35.08-310.38 3.19-.23 2.97-.6 2.8-.97 2.65-1.34 2.47-1.67 2.19-1.93 1.92-2.18 1.67-2.47 1.34-2.65.97-2.8.6-2.98.23-3.18-.23-3.18-.6-2.98-.97-2.8-1.34-2.65-1.67-2.47-1.92-2.18-2.19-1.93-2.47-1.67-2.65-1.34-2.8-.97-2.97-.6-3.19-.23-3.18.23-2.98.6-2.8.97-2.65 1.34-2.46 1.67-2.19 1.93-1.92 2.18-1.68 2.47-1.33 2.65-.97 2.8-.61 2.98-.23 3.18.23 3.18.61 2.98.97 2.8 1.33 2.65 1.68 2.47 1.92 2.18 2.19 1.93 2.46 1.67 2.65 1.34 2.8.97 2.98.6z"/><path fill="#a3b1bf" fill-rule="evenodd" d="m642.18 93.5-1.49.21-1.28.54-1.12.86-.86 1.12-.54 1.28-.21 1.49.21 1.49.54 1.28.86 1.12 1.12.86 1.28.54 1.49.21 1.5-.21 1.28-.54 1.11-.86.87-1.12.53-1.28.21-1.49-.21-1.49-.53-1.28-.87-1.12-1.11-.86-1.28-.54zm0 3 .98.2.79.53.53.79.2.98-.2.98-.53.79-.79.53-.98.2-.98-.2-.78-.53-.54-.79-.2-.98.2-.98.54-.79.78-.53z"/><path fill="#a3b1bf" fill-rule="evenodd" d="m683.13 93.66-.87-3.44-1.22-3.24-1.56-3.06-1.89-2.87-2.18-2.62-2.45-2.37 5.41-1.5 4.42-.83 3.56-.29 2.76.17 1.96.53 1.38.8.94 1.06.45 1.33v1.6l-.52 1.97-1.23 2.47-2.03 2.94-2.93 3.41zm-2.45 5.84-.26 3.84-.74 3.62-1.2 3.43-1.64 3.25-1.99 2.96-2.38 2.69-2.69 2.37-2.96 2-3.25 1.64-3.43 1.2-3.62.73-3.84.27-3.77-.25-3.59-.74-3.43-1.18-3.2-1.59 5.18-2.02 5.53-2.46 5.54-2.75 5.74-3.15 5.61-3.4 5.16-3.43 4.89-3.56 4.34-3.48zm-56 0 .27-3.84.74-3.62 1.2-3.43 1.63-3.25 2-2.96 2.37-2.69 2.7-2.37 2.96-2 3.24-1.64 3.44-1.2 3.61-.73 3.84-.27 3.58.24 3.36.63 3.19 1.02 3.03 1.4 2.86 1.76 2.57 2.03 2.32 2.32 2.07 2.62 1.74 2.84 1.38 3.01 1.02 3.21.66 3.43-4.5 3.62-5.2 3.79-5.51 3.66-6.07 3.68-6.21 3.42-5.92 2.94-5.89 2.6-5.38 2.09-3.17-2.81-2.68-3.21-2.22-3.65-1.29-2.92-.94-3.07-.58-3.23zm71.3-25-1.12-1.35-1.62-1.06-2.26-.75-2.4-.35-2.93-.05-3.54.31-5.39.99-6.39 1.78-2.59-1.62-2.74-1.35-2.91-1.09-3.01-.8-3.13-.49-3.27-.17-4.25.3-4.01.81-3.8 1.33-3.6 1.81-3.28 2.21-2.98 2.62-2.62 2.98-2.21 3.28-1.81 3.59-1.33 3.8-.81 4.01-.3 4.26.21 3.52.56 3.35.9 3.18 1.23 3.05 2.15 3.84 2.6 3.44 3.08 3.06-5.42 1.5-4.41.83-3.57.29-2.75-.17-1.97-.53-1.38-.8-.93-1.06-.45-1.32-.01-1.58.51-1.95 1.2-2.44 1.98-2.9 2.87-3.37 3.93-3.89-.5-3.26-4.64 4.59-3.49 4.13-2 2.88-1.38 2.53-.88 2.22-.46 2.31.11 1.91.61 1.64 1.13 1.36 1.62 1.06 2.26.75 2.4.35 2.93.05 3.54-.31 5.39-.99 6.39-1.78 2.59 1.61 2.74 1.35 2.91 1.1 3.01.79 3.13.49 3.26.17 4.26-.3 4.01-.81 3.8-1.33 3.6-1.81 3.27-2.21 2.98-2.62 2.63-2.98 2.21-3.27 1.81-3.6 1.32-3.8.82-4.01.29-4.26-.11-2.53 4.74-4.64 3.56-4.18 2.04-2.91 1.41-2.56.9-2.26.48-2.33-.1-1.94z"/><path fill="#a0c8ff" fill-opacity=".151" d="m90.76 156.14-27.58 27.58 43.84 43.84 27.58-27.57zm0 4.25 39.59 39.6-23.33 23.33-39.6-39.6z"/><path fill="#a3b1bf" fill-rule="evenodd" d="m107.02 227.56-10.1-10.1 1.34-2.31.93-2.39.55-2.52.17-2.57-.23-2.54-.61-2.53-.99-2.4-1.37-2.25-1.8-2.12-1.77-1.54-1.88-1.25-2-.96-3.16-.94-3.25-.31-2.51.18-2.46.57-2.36.93-2.24 1.31-10.1-10.1 27.58-27.57 10.1 10.1-1.34 2.3-.94 2.4-.55 2.52-.16 2.57.22 2.54.61 2.53.99 2.4 1.38 2.25 1.79 2.12 1.78 1.54 1.88 1.25 1.99.96 3.17.94 3.24.31 2.51-.19 2.46-.56 2.36-.93 2.25-1.31 10.1 10.1zM94.76 215.3l-19.32-19.32 2.31-1.18 2.45-.72 2.65-.25 2.77.27 2.61.79 2.4 1.29 2.16 1.77 1.44 1.69 1.11 1.8.82 1.92.52 2.02.21 2.03-.08 2.06-.38 2.02-.68 1.94zm-29.23-47.76 8.48-8.49 4.8 4.8-8.49 8.48zm-11.64 7.39-21.22-21.21-1.47-1.94-.87-2.14-.29-2.29.29-2.28.87-2.15 1.47-1.93 14.85-14.85 1.38-1.13 1.54-.82 1.67-.51 1.78-.18 1.77.18 1.67.51 1.54.82 1.38 1.13 21.21 21.21zm49.13-6.52 19.32 19.32-2.31 1.18-2.46.72-2.65.25-2.77-.27-2.6-.79-2.41-1.29-2.15-1.78-1.44-1.68-1.12-1.8-.81-1.92-.52-2.02-.22-2.03.08-2.06.38-2.02.68-1.94zm44.33 40.14-13.47-3.61 3.54-3.54.45-.67.14-.74-.14-.75-.45-.67-10.6-10.61-.34-.33 12.1-12.09-2.12-2.12-12.1 12.09-19.09-19.09 12.1-12.1-2.12-2.12-12.1 12.1-.37-.38-10.61-10.6-.67-.45-.74-.14-.75.14-.67.45-8.41 8.41-4.8-4.8 8.16-8.16.44-.67.15-.75-.15-.74-.44-.67-21.92-21.92-1.89-1.55-2.08-1.09-2.23-.66-2.28-.22-2.29.22-2.23.66-2.07 1.09-1.9 1.55-5.26 5.26-7.55-7.55.82-1.66.41-1.71.03-1.79-.37-1.75-.76-1.61-1.18-1.51-1.72-1.31-1.9-.78-2.03-.26-2.03.26-1.91.78-1.72 1.31-1.31 1.72-.77 1.9-.26 2.03.26 2.03.77 1.91 1.31 1.72 1.4 1.11 1.5.75 1.62.4 1.67.07 1.62-.28 1.59-.63 7.68 7.68-6.76 6.76-1.4 1.69-1.03 1.81-.69 1.94-.35 2.03v2.02l.35 2.04.69 1.94 1.03 1.81 1.4 1.69 21.92 21.92.67.44.75.15.74-.15.67-.44 8.1-8.1 4.8 4.8-7.85 7.85-.44.67-.15.74.15.75.44.67 10.98 10.98-12.65 12.65 2.12 2.12 12.65-12.65 19.09 19.09-11.94 11.95 2.12 2.12 11.94-11.95.34.34 10.6 10.6.67.44.75.15.75-.15.66-.44 3.69-3.69 3.83 14.28-.82 1.47-.23 1.6.35 1.58.96 1.41.98.74 1.05.43 1.15.14 1.14-.14 1.05-.43.99-.74.74-.99.43-1.05.15-1.15-.15-1.14-.43-1.05-.74-.99-1.26-.88-1.41-.39-4.33-16.15 14.86-14.86 15.52 4.16.41 1.31.85 1.18.98.74 1.05.43 1.15.14 1.14-.14 1.05-.43.99-.74.74-.99.43-1.05.15-1.15-.15-1.14-.43-1.05-.74-.99-.96-.72-1.02-.43-1.11-.16-1.64.28z"/><path fill="#a0c8ff" fill-opacity=".151" d="m53.89 123.5-1.78.18-1.67.51-1.54.82-1.38 1.13-14.85 14.85-1.13 1.38-.82 1.54-.51 1.67-.17 1.77.17 1.78.51 1.67.82 1.54 1.13 1.38 21.22 21.21 27.57-27.58-21.21-21.21-1.38-1.13-1.54-.82-1.67-.51zm0 3 1.58.22 1.39.57 1.27.97 19.09 19.09-23.33 23.34-19.1-19.09-.96-1.27-.58-1.4-.21-1.58.21-1.57.58-1.4.96-1.27 14.85-14.85 1.27-.97 1.4-.57z"/><path fill="#a3b1bf" fill-rule="evenodd" d="m118.7 92.97-.75.14-.67.44-29.69 29.7-.45.67-.14.75.14.74.45.67 77.07 77.07.67.45.74.14.75-.14.67-.45 29.7-29.69.44-.67.14-.75-.14-.74-.44-.67-77.08-77.08-.66-.44zm0 3.41 75.66 75.66-28.29 28.29-75.66-75.66z"/><path fill="#a0c8ff" fill-opacity=".151" d="m118.7 96.38-28.29 28.29 75.66 75.66 28.29-28.29zm0 4.24 71.42 71.42-24.05 24.04-71.41-71.41z"/><path fill="#a3b1bf" fill-opacity=".404" fill-rule="evenodd" d="m114.62 151.29 29.7-29.7.5-.33.56-.11.56.11.5.33.33.5.11.56-.11.56-.33.5-29.7 29.7-.5.33-.56.11-.56-.11-.5-.33-.33-.5-.11-.56.11-.56zm24 23 29.7-29.7.5-.33.56-.11.56.11.5.33.33.5.11.56-.11.56-.33.5-29.7 29.7-.5.33-.56.11-.56-.11-.5-.33-.33-.5-.11-.56.11-.56z"/><path fill="#a3b1bf" fill-opacity=".219" fill-rule="evenodd" d="m103.14 109.32.5-.33.56-.11.56.11.5.33 75.66 75.66.33.5.11.56-.11.56-.33.5-.5.33-.56.11-.56-.11-.5-.33-75.66-75.66-.33-.5-.11-.56.11-.56z"/><path fill="#a3b1bf" fill-rule="evenodd" d="m31.7 179.97-.75.14-.67.44-29.69 29.7-.45.67-.14.75.14.74.45.67 77.07 77.07.67.45.74.14.75-.14.67-.45 29.7-29.69.44-.67.14-.75-.14-.74-.44-.67-77.08-77.08-.66-.44zm0 3.41 75.66 75.66-28.29 28.29-75.66-75.66z"/><path fill="#a0c8ff" fill-opacity=".151" d="M31.7 183.38 3.41 211.67l75.66 75.66 28.29-28.29zm0 4.24 71.42 71.42-24.05 24.04-71.41-71.41z"/><path fill="#a3b1bf" fill-opacity=".404" fill-rule="evenodd" d="m27.62 237.29 29.7-29.7.5-.33.56-.11.56.11.5.33.33.5.11.56-.11.56-.33.5-29.7 29.7-.5.33-.56.11-.56-.11-.5-.33-.33-.5-.11-.56.11-.56zm24 24 29.7-29.7.5-.33.56-.11.56.11.5.33.33.5.11.56-.11.56-.33.5-29.7 29.7-.5.33-.56.11-.56-.11-.5-.33-.33-.5-.11-.56.11-.56z"/><path fill="#a3b1bf" fill-opacity=".219" fill-rule="evenodd" d="m16.14 196.32.5-.33.56-.11.56.11.5.33 75.66 75.66.33.5.11.56-.11.56-.33.5-.5.33-.56.11-.56-.11-.5-.33-75.66-75.66-.33-.5-.11-.56.11-.56z"/><path fill="#a3b1bf" fill-rule="evenodd" d="M479.68 415.58v19.07l3 4.05v-23.12l-.2-2.59-.55-2.43-.9-2.31-1.22-2.17-1.49-1.96-1.78-1.77-1.99-1.53-2.19-1.26-2.41-1-.2 3.13 2.8 1.42 2.37 1.82 1.98 2.23 1.51 2.57.92 2.78zm-114 19v-19l.21-2.35.55-2.19.9-2.07 1.21-1.92 1.47-1.71 1.75-1.51 1.95-1.26 2.14-.97 2.34-.7-.09-3.04-2.88.77-2.62 1.13-2.41 1.49-2.16 1.82-1.81 2.07-1.5 2.33-1.11 2.53-.69 2.69-.25 2.89v22.99z"/><path fill="#a0c8ff" fill-opacity=".151" d="M476.68 415.58v15.51l3 3.8v-19.31l-.35-3.07-.92-2.78-1.51-2.57-1.98-2.23-2.37-1.82-2.8-1.42-1.15 2.76 2.28 1.14 1.93 1.46 1.61 1.78 1.23 2.06.75 2.23zm-108 14.71v-14.71l.17-1.92.47-1.8.76-1.69 1.62-2.26 2.13-1.89 2.53-1.4 2.89-.87-.08-3.03-2.51.6-2.28.91-2.1 1.23-1.89 1.53-1.59 1.74-1.32 1.97-.98 2.15-.6 2.28-.22 2.45v18.27z"/><path fill="#a3b1bf" fill-rule="evenodd" d="m386.26 503.89-.44.71-.36.34-.54.27-.9.04-.95-.24-1.41-.73-3.05-3.11-2.62-2.95-3.41-4.22-3.39-4.7-3.47-5.59-2.09-3.95-1.83-4.16-1.58-4.39-1.18-4.5-.66-4.59-.15-4.7.28-3.48.7-3.51 1.13-3.55 1.59-3.61 3.44-5.92 3.62-5.24 3.78-4.63 4.19-4.26 4.32-3.62 4.48-3.02-1.26-2.76-3.89 2.56-3.58 2.77-3.28 2.99-4.5 4.84-3.85 4.96-3.38 5.13-2.74 4.81-1.74 3.9-1.25 4-.77 4.14-.3 4.28.19 4.48.63 4.32 1.09 4.47 1.59 4.65 2.12 4.84 2.69 5.05 3.7 5.81 3.52 4.78 3.53 4.27 2.61 2.87 2.8 2.81.13.1 1.45.85h7.99v-48.9h-3zm99.83-62.01-.01-.02-2.59-4.56-3.17-4.85-3.58-4.73-4.17-4.64-3.03-2.9-3.3-2.71-3.59-2.54-1.36 2.72 4.14 3.02 4.01 3.54 3.88 4.1 3.52 4.42 3.38 4.97 3.21 5.57 1.59 3.6 1.13 3.55.7 3.5.28 3.49-.15 4.7-.67 4.58-1.17 4.5-1.58 4.4-1.83 4.16-2.09 3.94-3.47 5.6-3.38 4.7-3.42 4.22-2.62 2.95-3.05 3.12-1.41.73-.95.24-.89-.04-.55-.28-.36-.35-.44-.73v-45.78l-.12-.59-.32-.47-.47-.32-.59-.12-.59.12-.47.32-.32.47-.12.59v49.2l.01.11v.12h7.99l1.45-.85.12-.1 2.8-2.81 2.62-2.87 3.52-4.27 3.53-4.78 3.69-5.81 2.7-5.05 2.12-4.84 1.58-4.65 1.1-4.47.63-4.32.19-4.48-.3-4.28-.77-4.14-1.25-4zm-64.41 54.62h1l.79.16.63.43.42.63.16.78v9h-5v-9l.16-.78.43-.63.63-.43zm16-49h-29l-1.35.19-1.17.49-1.01.78-.79 1.02-.48 1.16-.2 1.36v36l.2 1.36.48 1.16.79 1.02 1.01.78 1.17.49 1.35.19h29l1.36-.19 1.17-.49 1.01-.78.78-1.02.49-1.16.19-1.36v-36l-.19-1.36-.49-1.16-.78-1.02-1.01-.78-1.17-.49zm0 3 .79.16.63.43.42.63.16.78v36l-.16.78-.42.63-.63.43-.79.16h-29l-.78-.16-.63-.43-.43-.63-.16-.78v-36l.16-.78.43-.63.63-.43.78-.16z"/><path fill="#a0c8ff" fill-opacity=".151" d="M437.65 450.5h-28.97l-.78.16-.63.43-.43.63-.16.78v36l.16.78.43.63.63.43.78.16h29l.79-.16.63-.43.42-.63.16-.78v-36l-.16-.78-.44-.63-.64-.43zm-27.97 37h27v-34h-27z"/><path fill="#a3b1bf" fill-rule="evenodd" d="m419.18 459.5-1.37.28-1.1.75-.75 1.1-.28 1.37.28 1.37.75 1.11 1.1.74 1.37.28 1.38-.28 1.1-.74.74-1.11.28-1.37-.28-1.37-.74-1.1-1.1-.75zm0 3 .36.15.14.35-.14.35-.36.15-.35-.15-.15-.35.15-.35zm0 10-1.37.28-1.1.75-.75 1.1-.28 1.37.28 1.37.75 1.11 1.1.74 1.37.28 1.38-.28 1.1-.74.74-1.11.28-1.37-.28-1.37-.74-1.1-1.1-.75zm0 3 .36.15.14.35-.14.35-.36.15-.35-.15-.15-.35.15-.35zm4.49-41.63h.1l2.87-.27 2.92-.78 3.01-1.34 3.14-1.96 3.3-2.69 3.48-3.51-3.07.33-5.24.7-5.54.7-3.97.31-2.4-.1-1.79-.23-3.51-.73-4.71-.75-3.14-.25-4.64-.14 3.61 3.6 3.41 2.73 3.22 1.99 3.08 1.35 2.97.78zm23.05-10.89-1.4 1.66-3.91 4.06-3.74 3.1-3.6 2.28-3.49 1.56-3.41.91-3.38.32h-.12l-3.01-.24-3.04-.7-3.1-1.2-3.19-1.75-3.32-2.36-3.45-3.06-3.6-3.86-.94-1.12 7.8 1.51 8.08.94 8.36.33 6.77-.22 7.47-.78z"/><path fill="#a0c8ff" fill-opacity=".151" d="M423.67 433.87h.1l2.87-.27 2.92-.78 3.01-1.34 3.14-1.96 3.3-2.69 3.48-3.51-3.21.33-5.55.7-5.85.7-4.11.31-2.38-.1-1.67-.23-3.21-.73-4.39-.75-3.03-.25-4.61-.14 3.61 3.6 3.41 2.73 3.22 1.99 3.08 1.35 2.97.78zm.34-110.75 5.15.22 4.63.54 4.17.84 3.74 1.11 4.91 1.98 4.24 2.26 3.65 2.53 3.39 2.89 2.87 2.94 2.4 2.97 3.08 4.66 2.17 4.14 1.67 3.98.94 2.79.7 2.7 1.48.35 1.41.56 1.82 1.12 1.12.96 1.07 1.31 1.03 1.73.73 1.85.5 2.39.2 3.06-.24 2.8-.52 2.33-.77 1.93-1.59 2.58-1.73 1.85-1.88 1.46-1.5.87-1.73.73-.02.01-.17 2.32-.36 2.49-.82 3.8-1.21 4.11-1.98 5.08-4.1 1.66 2.37-5.33 1.5-4.37 1.03-4.09.48-2.77.26-2.88v-2.27l2.16-.63 1.26-.55 1.2-.7 1.53-1.18 1.63-1.85 1.18-2.13.74-2.45.28-2.85-.29-3.33-.69-2.29-1.08-1.89-1.14-1.2-1.28-.87-1.01-.45-1.17-.28-2.23-.23-.41-2.2-.7-2.61-.91-2.65-1.6-3.75-2.06-3.88-2.9-4.34-3.36-3.93-3.65-3.37-3.95-2.85-4.29-2.35-4.66-1.86-5.08-1.37-5.54-.85-6.07-.3-6.02.3-5.51.85-5.06 1.36-4.65 1.86-4.28 2.35-3.96 2.85-3.66 3.38-3.37 3.94-2.92 4.34-2.08 3.89-1.62 3.74-.92 2.65-.71 2.63-.37 1.85-1.83.47-1.61.59-1.23.65-1.47 1.03-1.32 1.32-1.16 1.79-.54 1.34-.32 1.62-.08 1.93.45 2.71.92 2.35 1.29 2.11 1.4 1.7 2.63 2.4 1.21.86 1.03.62.32 1.15 1.78 5.87 1.81 5.18 1.92 4.88 1.74 4.02-3.9-1.4-3.18-8.12-1.55-4.57-1.51-5.05-1.4-.99-1.36-1.11-1.76-1.73-1.65-2.04-1.54-2.54-.8-1.84-.55-2.05-.29-2.26.11-2.62.47-2.16.76-1.79 1.63-2.37 1.83-1.71 1.98-1.32 1.56-.77 1.63-.59.72-2.7.95-2.79 1.69-3.98 2.19-4.14 3.11-4.66 2.4-2.97 2.88-2.94 3.39-2.89 3.65-2.53 4.23-2.26 4.89-1.98 3.74-1.11 4.15-.84 4.6-.54z"/><path fill="#a3b1bf" fill-rule="evenodd" d="M430.88 342.5h-13.4l-3.65.29-3.45.82-3.3 1.34-3.09 1.79-2.83 2.22-2.6 2.65-2.26 2.96-1.92 3.27-1.58 3.62-1.15 3.79-.71 4-.26 4.25.26 4.25.71 4 1.15 3.79 1.58 3.62 1.92 3.27 2.26 2.96 2.6 2.65 2.83 2.22 3.09 1.79 3.3 1.34 3.45.82 3.65.29h13.4l3.66-.29 3.45-.82 3.3-1.34 3.08-1.79 2.84-2.22 2.6-2.65 2.26-2.96 1.92-3.27 1.58-3.62 1.15-3.79.71-4 .25-4.25-.25-4.25-.71-4-1.15-3.79-1.58-3.62-1.92-3.27-2.26-2.96-2.6-2.65-2.84-2.22-3.08-1.79-3.3-1.34-3.45-.82zm0 3 3.25.26 3.08.74 2.93 1.2 2.74 1.62 2.51 2 2.31 2.39 2 2.67 1.71 2.96 1.4 3.27 1.02 3.42.62 3.62.23 3.85-.23 3.85-.62 3.62-1.02 3.42-1.4 3.27-1.71 2.96-2 2.67-2.31 2.39-2.51 2-2.74 1.62-2.93 1.2-3.08.74-3.25.26h-13.4l-3.25-.26-3.07-.74-2.93-1.2-2.74-1.62-2.51-2-2.32-2.39-2-2.67-1.7-2.96-1.4-3.27-1.02-3.42-.63-3.62-.23-3.85.23-3.85.63-3.62 1.02-3.42 1.4-3.27 1.7-2.96 2-2.67 2.32-2.39 2.51-2 2.74-1.62 2.93-1.2 3.07-.74 3.25-.26z"/><path fill="#a0c8ff" fill-opacity=".151" d="m430.88 345.5 3.25.26 3.08.74 2.93 1.2 2.74 1.62 2.51 2 2.31 2.39 2 2.67 1.71 2.96 1.4 3.27 1.02 3.42.62 3.62.23 3.85-.23 3.85-.62 3.62-1.02 3.42-1.4 3.27-1.71 2.96-2 2.67-2.31 2.39-2.51 2-2.74 1.62-2.93 1.2-3.08.74-3.25.26h-13.4l-3.25-.26-3.07-.74-2.93-1.2-2.74-1.62-2.51-2-2.32-2.39-2-2.67-1.7-2.96-1.4-3.27-1.02-3.42-.63-3.62-.23-3.85.23-3.85.63-3.62 1.02-3.42 1.4-3.27 1.7-2.96 2-2.67 2.32-2.39 2.51-2 2.74-1.62 2.93-1.2 3.07-.74 3.25-.26z"/><path fill="#a3b1bf" fill-rule="evenodd" d="m400.68 371-.4-.06-.53-.27-.37-.43-.18-.54.04-.6 1.5-4.48 1.71-3.67 1.91-2.96 2.09-2.36 2.27-1.83 2.47-1.37 2.71-.91 2.99-.47 3.35.02 3.76.55.55.24.39.41.22.53-.01.6-.24.55-.41.4-.53.21-.6-.01-3.32-.49h-2.93l-2.62.44-2.35.85-2.14 1.26-1.85 1.6-1.72 2.05-1.59 2.58-1.45 3.17-1.27 3.89-.55.8z"/><path fill="#a0c8ff" fill-opacity=".151" d="M386.02 462.17v41.27l-.47 1.21-.67.47-.99-.07-1.61-.91-2.6-2.39-4.04-4.76-6.02-8.26-1.07-2.12-.49-2.17.05-2.28.64-2.47 1.32-2.72 2.17-3.05 3.22-3.45 4.5-3.89zm73.25 0v41.27l.46 1.21.67.47 1-.07 1.6-.91 2.6-2.39 4.04-4.76 6.03-8.26 1.06-2.12.49-2.17-.05-2.28-.63-2.47-1.33-2.72-2.17-3.05-3.21-3.45-4.51-3.89z"/><path fill="#a3b1bf" fill-rule="evenodd" d="m383.21 460-3.76-.25-3.47-.73-3.22-1.18-3.02-1.65-2.83-2.13-2.68-2.67-2.51-3.26-2.36-3.93-.17-.58.06-.56.27-.51.46-.38.58-.17.56.07.51.27.38.46 2.42 4 2.58 3.21 2.73 2.53 2.91 1.92 3.21 1.4 3.49.85 3.85.3 4.27-.32.6.03.51.25.39.43.2.56-.04.6-.25.51-.42.39-.57.2-2.39.26z"/><path fill="#a3b1bf" fill-rule="evenodd" d="m369.01 463.98-3.61-.18-3.35-.56-3.12-.9-2.92-1.24-.47-.37-.28-.49-.07-.57.15-.58.37-.47.5-.28.57-.07.58.15 3.14 1.29 3.43.85 3.76.4 4.14-.09 4.58-.62 5.08-1.23 5.65-1.92.59-.1.56.13.47.32.32.51.1.59-.13.56-.32.47-.51.32-5.45 1.87-4.98 1.26-4.57.72z"/><path fill="#a3b1bf" fill-rule="evenodd" d="m361.68 475-.51-.09-.44-.25-.33-.39-.19-.5.01-.6.23-.52.41-.4.55-.23 4.89-1.17 4.56-1.66 4.28-2.15 4.03-2.64 3.8-3.16 3.58-3.72.47-.37.55-.14.57.06.52.29.37.48.15.55-.07.57-.29.52-3.82 3.97-4.06 3.38-4.31 2.82-4.57 2.29-4.89 1.78-5.22 1.26zm100.96-15.12-2.26-.08-2.37-.26-.57-.2-.42-.38-.25-.52-.04-.6.2-.56.39-.42.51-.25.6-.04 4.23.31 3.81-.29 3.46-.84 3.17-1.39 2.88-1.91 2.71-2.5 2.55-3.19 2.4-3.96.38-.46.5-.27.57-.06.57.16.47.38.27.51.06.56-.17.58-2.34 3.9-2.49 3.24-2.65 2.65-2.81 2.11-2.99 1.64-3.2 1.17-3.44.72z"/><path fill="#a3b1bf" fill-rule="evenodd" d="m476.56 463.8-4.14-.23-4.5-.71-4.9-1.24-5.36-1.84-.51-.32-.32-.47-.13-.56.1-.59.32-.51.47-.32.55-.13.6.1 5.55 1.89 5 1.2 4.5.62 4.07.08 3.69-.39 3.37-.84 3.09-1.26.58-.16.57.08.49.28.38.47.15.58-.07.56-.28.5-.48.37-2.87 1.22-3.07.89-3.3.54z"/><path fill="#a3b1bf" fill-rule="evenodd" d="m483.73 475.32-.29-.03-5.12-1.28-4.79-1.82-4.5-2.36-4.24-2.9-4.01-3.48-3.78-4.12-.28-.53-.06-.56.17-.55.37-.47.53-.28.57-.05.55.16.47.38 3.53 3.84 3.75 3.26 3.96 2.72 4.2 2.2 4.47 1.7 4.77 1.2.56.22.4.41.23.52.01.6-.19.5-.34.38-.43.25z"/><path fill="#a0c8ff" fill-opacity=".151" d="m379.93 404.5 3.55 1.39 3.87 1.31 5.92 1.73 6.56 1.58 8.15 1.47 5.62.72 6.1.47 6.6.19 6.59-.18 6.87-.65 7.19-1.13 7.07-1.64 7.21-2.3 7.37-3.01-8.27 14.74-3.84 1.36-4.18 1.23-6.46 1.48-4.59.82-5.35.66-6.2.49-6.18.15-6.77-.27-7.41-.73-7.31-1.22-7.74-1.9-8.22-2.63z"/><path fill="#a3b1bf" fill-rule="evenodd" d="m471.1 387.55-.13 1.93-.87 5.24-.9 3.46-1.46 4.31-6.46 2.87-6.37 2.24-6.32 1.67-6.42 1.21-6.23.78-6.06.35h-6.07l-5.73-.27-5.4-.53-7.89-1.2-6.73-1.41-6.25-1.64-4.71-1.47-6.21-2.28-2.6-6.89-2.61-8.37-1.4-.98-1.36-1.11-1.76-1.73-1.65-2.04-1.54-2.54-.8-1.84-.55-2.05-.29-2.27.11-2.61.47-2.16.76-1.79 1.63-2.37 1.83-1.71 1.98-1.32 1.56-.77 1.63-.59.72-2.7.95-2.79 1.69-3.98 2.19-4.14 3.11-4.66 2.4-2.97 2.88-2.94 3.39-2.89 3.65-2.53 4.23-2.26 4.89-1.98 3.74-1.11 4.15-.84 4.6-.54 5.12-.22 5.15.22 4.63.54 4.17.84 3.74 1.11 4.91 1.98 4.24 2.26 3.65 2.53 3.39 2.89 2.87 2.94 2.4 2.97 3.08 4.66 2.17 4.14 1.67 3.98.94 2.79.7 2.7 1.48.35 1.41.56 1.82 1.12 1.12.96 1.07 1.31 1.03 1.73.73 1.85.5 2.39.2 3.05-.25 2.88-.54 2.37-.81 1.95-1.65 2.61-1.77 1.85-1.93 1.44-1.48.83zm-11.85 30.36-2.45.95-2.71.89-4.27 1.19-4.78 1.07-6.14 1.01-6.57.68-7.73.27-5.27-.12-5.69-.43-6.15-.77-6.07-1.11-6.44-1.56-6.83-2.07-1.65-2.98-3.99-8.27 4.09 1.42 6.16 1.85 6.81 1.68 8.37 1.56 5.78.77 6.22.5 6.7.2 6.22-.16 6.44-.59 6.67-1.02 6.58-1.48 6.66-2.07 6.76-2.68-1.75 3.48-2.22 3.75zm14.95-60.75-1.46-4.45-1.16-2.81-1.62-3.32-1.93-3.36-2.47-3.62-2.71-3.31-3.45-3.48-2.54-2.16-2.9-2.1-3.3-2.02-3.45-1.74-3.88-1.55-4.35-1.33-4.44-.94-4.97-.62-5.56-.23-5.52.23-4.95.61-4.42.95-4.34 1.33-3.87 1.54-3.44 1.75-3.3 2.02-2.9 2.09-2.54 2.16-3.46 3.49-2.71 3.31-2.54 3.69-1.97 3.43-1.65 3.38-1.16 2.83-1.46 4.43-2.31 1.13-2.52 1.75-1.53 1.43-1.37 1.71-1.21 2.03-.87 2.19-.52 2.55-.12 2.99.38 2.87.72 2.55 1.02 2.27 1.97 3.09 2.06 2.39 2.13 1.98 1.48 1.14 2.74 8.53 2.67 6.95 2.76 6.26 2.07 4.18 2.25 4.11.57.95 1.05.35 7.47 2.24 7.46 1.74 7.46 1.24 7.49.74 7.52.25 7.88-.27 6.7-.68 6.27-1.02 4.92-1.09 4.4-1.22 2.87-.94 2.83-1.1.73-.32.47-.64 3.08-4.56 2.45-4.2 1.89-3.88 2.3-5.82 1.36-4.65.88-4.28.35-2.66 2.15-1.25 2.35-1.9 1.42-1.5 1.3-1.81 1.18-2.14.87-2.28.58-2.65.25-3.09-.21-3.33-.54-2.73-.83-2.24-1.16-2.09-1.27-1.67-1.39-1.32-2.32-1.57z"/></svg>