<svg xmlns="http://www.w3.org/2000/svg" width="831" height="821"><path fill="#a3b1bf" fill-opacity=".396" fill-rule="evenodd" d="M424.6 254.06h-.04l-5.94-.05h-.02l-.58-.12-.47-.32-.33-.46-.12-.59.11-.59.32-.47.47-.33.58-.12 6.06.06.59.13.46.33.3.49.11.59-.13.57-.33.46-.46.31zm-17.98.5-.55-.1-.46-.29-.33-.43-.16-.55.07-.6.28-.5.45-.35.57-.17 6.05-.4.58.09.49.3.34.46.15.58-.09.6-.3.48-.46.34-.58.15-5.92.39zm29.95.29h-.16l-5.92-.51-.58-.16-.45-.35-.29-.49-.08-.59.16-.58.35-.45.5-.29.59-.08 6.03.51.57.18.44.37.27.5.06.6-.16.54-.33.42-.46.28zm-41.86 1.17-.52-.1-.44-.26-.33-.39-.18-.51.02-.6.24-.52.41-.39.57-.21 5.99-.85.6.05.51.26.37.43.19.57-.04.59-.26.51-.44.38-.57.19-5.88.83zm53.73.53-.27-.03-5.86-.95-.57-.2-.42-.38-.25-.51-.04-.6.21-.57.38-.42.51-.25.6-.04 5.98.97.55.22.41.4.23.52.02.6-.19.51-.33.38-.44.25zm-65.49 1.83-.49-.09-.43-.23-.33-.36-.2-.47-.02-.6.2-.54.38-.42.55-.25 5.91-1.3h.6l.52.22.41.4.23.55v.6l-.22.53-.4.4-.55.24-5.8 1.28zm77.2.76-.38-.05-5.77-1.4-.55-.24-.39-.41-.21-.54.01-.6.24-.54.41-.39.53-.21h.6l5.89 1.42.54.27.38.43.19.54-.04.6-.21.46-.33.35zm-88.74 2.49-.87-.28-.56-.76-.06-.6.15-.55.36-.44.52-.3 5.8-1.75.59-.05.54.18.44.37.28.54.04.59-.18.55-.37.43-.53.28-5.69 1.71zm100.22.98-.49-.08-5.65-1.83-.53-.28-.36-.45-.17-.54.06-.6.28-.53.44-.36.55-.17.6.06 5.76 1.86.52.31.34.46.15.55-.08.59-.56.74zm-111.51 3.15-.83-.25-.56-.68-.11-.59.11-.56.32-.47.5-.34 5.66-2.19.59-.09.55.13.47.34.31.51.09.59-.14.56-.33.46-.51.31-5.55 2.16zm122.67 1.19-.59-.12-5.48-2.25-.51-.33-.32-.47-.13-.55.1-.6.33-.5.47-.32.55-.13.59.1 5.59 2.3.49.34.31.48.1.56-.12.59-.57.66zm-133.61 3.79-.77-.21-.57-.61-.16-.58.07-.57.28-.49.47-.38 5.48-2.62.58-.13.56.09.49.3.35.49.14.58-.1.56-.29.49-.49.35-5.37 2.57zm144.4 1.38-.7-.17-5.29-2.66-.48-.36-.29-.5-.08-.56.14-.58.37-.48.49-.29.56-.08.58.14 5.4 2.72.47.38.27.5.06.57-.17.57-.57.6zm-154.92 4.42-.72-.18-.57-.54-.2-.57.03-.57.24-.52.44-.4 5.26-3.03.57-.18.57.05.51.26.39.46.18.57-.06.57-.26.51-.45.39-5.16 2.97zm-10.04 6.58-.68-.15-.55-.48-.24-.55-.01-.57.2-.53.41-.44 5-3.42.56-.22.57.01.53.22.42.43.22.56-.01.57-.22.52-.43.42-4.91 3.36zm-9.52 7.32-.62-.13-.53-.41-.29-.53-.05-.57.16-.54.37-.47 4.73-3.79.54-.26.57-.03.54.18.46.39.26.54.04.57-.18.54-.4.45-4.64 3.72-.46.26zm204.12 1.9-.51-.09-.47-.28-4.57-3.79-.38-.46-.17-.55.04-.57.27-.53.47-.39.54-.17.57.05.53.27 4.66 3.87.37.47.14.56-.06.56-.3.53-.52.39zm-213.05 6.11-.57-.11-.51-.34-.32-.51-.1-.56.12-.56.34-.49 4.43-4.13.51-.3.57-.08.55.13.49.36.3.52.08.56-.14.56-.36.48-4.35 4.05-.49.32zm-8.3 8.66-.52-.09-.47-.28-.36-.49-.14-.55.07-.56.3-.52 4.11-4.45.49-.34.56-.12.56.09.51.32.34.5.12.56-.1.56-.32.51-4.02 4.36-.53.38zm-7.61 9.26-.91-.31-.4-.45-.18-.54.03-.57.26-.54 3.76-4.74.47-.38.54-.16.57.05.53.28.38.47.16.55-.05.56-.28.53-3.69 4.66-.54.44zm-6.89 9.8-.82-.24-.43-.42-.22-.53-.01-.57.22-.56 3.38-5.01.44-.41.53-.2.57.01.55.24.41.43.21.54-.01.57-.25.55-3.32 4.92-.55.51zm-6.13 10.29-.72-.18-.46-.39-.26-.51-.06-.57.18-.57 2.99-5.25.41-.45.51-.24.57-.03.57.2.44.4.25.52.03.57-.2.56-2.94 5.16-.56.58zm-5.33 10.71-.62-.13-.48-.35-.3-.48-.1-.57.13-.58 2.59-5.46.37-.47.49-.29.57-.07.58.15.47.37.28.5.08.56-.16.58-2.53 5.36-.57.65zm-4.5 11.11-.51-.09-.51-.31-.34-.47-.14-.55.09-.59 2.17-5.66.33-.5.47-.32.56-.11.59.11.5.33.32.47.12.56-.11.59-2.13 5.55-.56.72zm-9.22 46.9h-.07l-.58-.15-.46-.34-.3-.48-.09-.6.37-6.04.17-.57.36-.45.5-.28.58-.07.58.16.44.36.29.49.07.6-.36 5.93-.14.57-.33.45-.46.3zm315.81 3.1-.58-.12-.47-.31-.32-.46-.13-.58-.25-5.93.08-.6.29-.49.46-.35.58-.15.6.07.49.3.34.45.16.58.25 6.05-.11.59-.31.48-.46.33-.59.14zm-315.88 8.89-.57-.11-.47-.31-.32-.46-.14-.57-.08-5.22v-.83l.12-.59.32-.47.48-.32.58-.12h.01l.59.12.47.32.32.48.11.59v.82l.08 5.12-.1.59-.3.49-.46.33-.59.14zm315.71 3.1h-.08l-.58-.15-.46-.34-.29-.49-.09-.59.19-5.94.13-.59.32-.46.47-.32.58-.11h.03l.58.13.47.32.31.48.11.59-.19 6.05-.14.56-.33.45-.46.3zm-1.07 11.95-.19-.01-.57-.2-.43-.37-.25-.51-.05-.6.64-5.91.17-.57.36-.44.5-.28.6-.07.57.17.45.36.27.5.07.6-.65 6.02-.17.53-.33.41-.45.27zm-1.97 11.83-.3-.03-.56-.24-.39-.41-.22-.52v-.6l1.09-5.84.21-.56.4-.42.52-.24.59-.02.56.22.42.39.24.52.02.6-1.11 5.95-.2.49-.33.37-.43.25zm-2.87 11.64-.41-.05-.54-.28-.36-.44-.18-.54.05-.6 1.53-5.74.25-.54.43-.38.53-.2.61.02.54.26.38.42.2.54-.03.6-1.56 5.85-.55.79zm-3.75 11.4-.52-.1-.51-.31-.33-.47-.14-.55.1-.6 1.96-5.6.3-.52.45-.35.55-.16.59.07.53.3.34.45.16.55-.07.6-2 5.71-.56.72zm-292.91 8.28-.8-.23-.57-.67-2.33-5.6-.1-.59.12-.56.32-.47.51-.32.59-.11.55.13.47.32.33.5 2.29 5.5.12.59-.1.56-.3.48-.49.35zm288.32 2.76-.63-.14-.48-.35-.3-.49-.09-.56.14-.59 2.38-5.42.33-.5.48-.31.56-.12.59.12.49.33.32.48.11.56-.11.59-2.43 5.53-.57.64zm-283.07 8.06-.76-.21-.57-.59-2.75-5.41-.15-.58.08-.56.29-.5.48-.36.58-.15.56.08.5.29.36.48 2.7 5.3.17.58-.06.56-.27.51-.46.38zm277.64 2.61-.73-.19-.45-.39-.26-.51-.05-.57.18-.57 2.79-5.23.37-.47.5-.28.57-.07.58.16.47.37.27.5.08.57-.17.58-2.84 5.33-.56.57zm-6.22 10.23-.82-.25-.43-.42-.22-.53v-.57l.22-.56 3.18-5.01.41-.44.51-.23.57-.03.57.2.44.41.24.52.03.57-.21.56-3.24 5.11-.55.5zm-6.98 9.74-.47-.08-.45-.24-.39-.45-.18-.54.04-.57.26-.54 3.55-4.76.44-.41.54-.19.57.01.55.25.41.44.19.53-.01.57-.25.55-3.62 4.85-.54.43zm-7.7 9.19-.53-.1-.48-.29-.35-.49-.14-.55.08-.56.31-.52 3.9-4.48.47-.37.54-.16.57.06.53.29.37.47.16.54-.06.57-.28.53-3.98 4.56-.52.37zm-8.38 8.58-.57-.11-.51-.36-.32-.5-.09-.57.12-.55.34-.5 4.23-4.17.5-.34.56-.11.56.1.5.32.34.5.11.56-.1.56-.32.51-4.31 4.25-.49.31zm-210.9 6.07-.5-.08-.47-.27-4.54-4-.35-.49-.13-.55.08-.57.31-.51.48-.35.56-.14.56.09.52.3 4.45 3.93.38.47.15.55-.06.57-.29.52-.53.4zm201.9 1.86-.63-.13-.53-.42-.28-.53-.05-.57.16-.54.38-.47 4.54-3.85.52-.29.56-.08.56.15.47.36.3.52.07.57-.14.55-.36.48-4.62 3.91-.46.26zm-192.46 5.54-.88-.29-4.83-3.64-.39-.46-.18-.54.04-.57.27-.54.46-.38.54-.18.57.04.54.27 4.74 3.57.4.45.2.53-.02.57-.25.55-.55.46zm182.88 1.7-.68-.17-.55-.48-.24-.55v-.57l.2-.53.41-.44 4.82-3.49.54-.26.57-.03.54.19.45.4.26.54.03.57-.19.54-.4.45-4.9 3.56zm-172.93 4.96-.78-.22-5.09-3.27-.42-.43-.22-.52v-.57l.23-.56.42-.42.53-.22h.57l.56.23 4.99 3.2.44.41.23.52.03.57-.21.56-.56.54zm162.83 1.52-.73-.19-.57-.54-.19-.57.03-.57.25-.52.45-.4 5.06-3.12.56-.21.57.01.52.22.42.43.22.56-.01.57-.23.53-.43.42-5.16 3.18zm-152.4 4.36-.68-.17-5.32-2.86-.46-.4-.25-.51-.05-.57.19-.57.39-.45.51-.25.57-.05.57.18 5.22 2.82.47.37.27.5.07.57-.16.58-.57.6zm141.83 1.35-.78-.22-.57-.62-.15-.58.08-.57.28-.49.47-.37 5.3-2.72.57-.18.57.06.5.26.39.46.17.58-.06.57-.26.5-.46.39-5.39 2.77zm-130.99 3.72-.58-.12-5.52-2.45-.48-.36-.29-.49-.09-.56.14-.59.36-.48.48-.29.57-.09.58.14 5.41 2.41.5.34.31.48.11.56-.12.58-.56.68zm120 1.16-.83-.25-.56-.69-.11-.59.12-.56.32-.47.5-.33 5.49-2.32.59-.13.56.1.48.31.35.48.13.59-.1.56-.3.49-.49.34-5.59 2.36zm-108.8 3.08-.47-.08-5.71-2.03-.5-.32-.33-.47-.14-.56.1-.59.32-.5.47-.33.55-.13.59.09 5.6 1.99.52.3.35.46.15.55-.07.59-.56.75zm97.47.95-.88-.28-.55-.77-.06-.6.16-.54.36-.45.52-.29 5.65-1.89.6-.08.55.14.46.34.31.51.08.6-.14.55-.34.46-.51.31-5.76 1.92zm-85.95 2.42-.37-.05-5.85-1.59-.53-.28-.36-.44-.17-.54.05-.6.28-.53.44-.36.54-.18.6.05 5.73 1.56.54.26.38.43.2.53-.03.6-.21.47-.33.35zm74.37.72-.49-.08-.43-.24-.34-.36-.2-.48-.01-.6.2-.53.39-.42.55-.25 5.76-1.44.6-.04.54.18.43.38.27.53.04.6-.19.54-.37.43-.54.27-5.87 1.48zm-62.64 1.76-.26-.02-5.94-1.14-.55-.24-.4-.41-.21-.53v-.6l.24-.55.41-.4.53-.21h.6l5.83 1.12.56.22.41.39.24.52.02.6-.19.51-.33.39-.44.26zm50.86.49-.52-.09-.45-.26-.33-.4-.18-.52.03-.6.24-.52.42-.38.57-.21 5.85-1 .6.01.53.22.4.41.23.55-.01.6-.22.53-.41.4-.56.23-5.96 1.02zm-38.97 1.09-.14-.01-6.02-.68-.57-.2-.42-.38-.26-.51-.04-.59.2-.57.38-.43.51-.25.59-.04 5.91.67.57.17.44.36.28.5.06.6-.16.55-.33.42-.45.29zm27.05.26-.55-.11-.46-.29-.33-.43-.15-.56.08-.59.28-.5.45-.35.57-.16 5.92-.56.59.05.51.26.37.44.19.57-.05.6-.27.51-.43.37-.57.18-6.03.57zm-15.08.42h-.03l-6.05-.23-.58-.15-.45-.35-.29-.49-.09-.59.15-.58.35-.46.49-.29.59-.08 5.94.22.59.13.46.33.31.48.11.59-.13.58-.32.46-.47.31zm3.1.03-.59-.12-.47-.32-.32-.47-.12-.59.12-.59.32-.47.47-.32.59-.12 5.94-.11.58.09.49.3.34.47.15.58-.1.6-.3.48-.46.34-.59.14zM415.26 3.03l-.58-.12-.47-.32-.33-.46-.12-.58.11-.59.32-.48.46-.33.59-.12 4.8-.03h1.22l.59.12.47.32.32.48.12.59-.12.58-.32.47-.47.32-.59.12h-1.21l-4.77.03zm17.98.18h-.05l-5.96-.15-.59-.13-.46-.32-.31-.48-.11-.59.12-.58.32-.47.47-.31.59-.12h.02l6.01.15.58.14.47.33.3.48.1.6-.13.57-.33.46-.46.3zm-29.98.13-.57-.12-.46-.3-.33-.45-.13-.57.09-.6.3-.48.46-.34.58-.14 6.02-.2.59.1.48.31.34.46.13.59-.1.59-.31.48-.47.33-.58.14-5.97.2zm41.97.42h-.09l-5.97-.32-.59-.15-.45-.34-.3-.48-.09-.6.15-.58.34-.45.49-.3.59-.1 6.01.33.58.15.45.35.29.49.09.59-.15.56-.33.45-.46.29zM391.28 4l-.55-.11-.46-.3-.33-.43-.15-.56.08-.6.29-.49.44-.35.58-.16 6.01-.37.6.09.49.29.34.45.15.58-.09.6-.29.48-.45.35-.58.15-5.97.37zm65.91.67-.13-.01-5.96-.49-.58-.17-.44-.35-.29-.5-.07-.59.16-.58.36-.45.5-.28.58-.08 6.01.5.57.17.44.36.28.5.07.6-.16.55-.33.42-.46.29zM379.33 5l-.55-.1-.45-.28-.33-.43-.16-.54.06-.6.27-.5.44-.36.57-.18 6-.55.59.07.5.28.36.44.17.58-.07.59-.28.5-.44.36-.58.17-5.95.54zm89.8.92-.18-.02-5.94-.66-.58-.18-.43-.37-.27-.5-.06-.6.18-.57.37-.44.51-.26.59-.07 5.98.68.57.18.43.38.26.5.05.6-.16.54-.33.41-.46.27zm-101.72.44-.54-.1-.45-.28-.33-.41-.17-.52.04-.6.26-.51.43-.38.57-.19 5.98-.73.59.06.51.26.37.43.19.58-.06.59-.26.51-.44.37-.57.19-5.93.71zm113.61 1.15-.23-.01-5.92-.84-.56-.2-.43-.38-.25-.51-.04-.6.2-.57.38-.43.51-.25.6-.04 5.96.85.56.21.42.38.25.52.03.6-.18.51-.33.4-.45.27zm-125.49.55-.52-.1-.45-.26-.33-.39-.18-.52.03-.6.24-.51.42-.39.56-.21 5.95-.9.6.03.51.25.39.42.2.57-.04.6-.24.51-.43.39-.56.2-5.91.89zm137.33 1.4-.27-.02-5.89-1.02-.56-.21-.42-.39-.24-.52-.02-.6.21-.56.4-.42.52-.24.59-.02 5.94 1.03.56.22.4.4.24.52.01.6-.19.5-.33.39-.44.25zm-149.15.65-.51-.09-.44-.25-.33-.38-.19-.5.01-.6.22-.53.41-.4.55-.22 5.93-1.08.6.02.52.23.39.41.22.56-.01.6-.24.52-.41.4-.56.22-5.88 1.06zm160.92 1.65-.31-.03-5.86-1.19-.55-.23-.4-.41-.23-.52v-.6l.23-.55.4-.41.53-.22.6-.01 5.9 1.2.55.24.4.41.21.53v.6l-.2.48-.33.38-.44.24zm-172.68.75-.5-.09-.43-.24-.33-.36-.2-.49-.01-.6.21-.53.39-.41.55-.24 5.9-1.25h.59l.53.22.41.39.23.56v.6l-.21.52-.4.41-.56.24-5.84 1.23zm184.38 1.89-.35-.04-5.82-1.36-.55-.25-.39-.41-.21-.53.02-.6.24-.55.42-.39.53-.21.6.01 5.86 1.37.55.26.38.42.2.53-.02.6-.2.47-.34.36-.43.24zm-196.05.86-.92-.32-.33-.35-.21-.47-.03-.6.2-.54.38-.42.54-.26 5.85-1.42.61-.02.53.2.42.39.25.55.01.6-.2.53-.39.42-.54.25-5.81 1.41zm207.67 2.13-.39-.06-5.78-1.53-.54-.26-.38-.43-.19-.53.03-.6.26-.54.43-.38.54-.19.6.03 5.82 1.54.53.27.38.43.18.54-.04.6-.21.46-.33.34zm-219.27.95-.9-.3-.54-.79-.05-.6.18-.54.37-.44.54-.27 5.8-1.59.6-.04.54.19.43.37.27.54.03.6-.18.54-.38.43-.53.27-5.77 1.58zm230.8 2.37-.44-.06-5.73-1.7-.53-.28-.36-.44-.18-.54.05-.6.28-.53.44-.37.54-.17.6.05 5.77 1.71.53.29.35.44.17.54-.06.6-.55.78zm-242.3 1.06-.87-.28-.56-.77-.06-.59.16-.55.36-.45.52-.29 5.76-1.76.6-.06.54.18.44.36.29.53.05.6-.17.54-.36.44-.53.28-5.72 1.75zm253.72 2.61-.48-.08-5.67-1.87-.53-.29-.35-.45-.16-.55.07-.59.29-.53.45-.35.55-.16.6.07 5.71 1.88.52.3.35.46.15.55-.08.59-.55.75zm-265.15 1.18-.86-.27-.56-.74-.08-.59.15-.56.34-.45.51-.31 5.73-1.94.6-.07.55.15.45.35.29.52.08.6-.16.55-.35.45-.52.3-5.68 1.93zm276.46 2.83-.52-.1-5.62-2.03-.51-.31-.34-.46-.15-.55.09-.6.31-.51.46-.34.55-.14.59.08 5.67 2.05.5.32.34.46.13.55-.09.6-.56.72zm-287.78 1.29-.83-.26-.57-.71-.1-.59.14-.56.32-.46.51-.32 5.66-2.11.6-.09.55.14.46.33.32.51.08.6-.13.55-.34.46-.51.32-5.62 2.09zm298.97 3.04-.56-.11-5.56-2.2-.5-.32-.33-.47-.13-.56.1-.59.33-.5.47-.33.56-.13.58.11 5.6 2.21.5.34.32.47.12.56-.11.59-.56.69zm-310.15 1.41-.82-.24-.57-.68-.11-.59.11-.56.32-.48.49-.33 5.6-2.28.59-.11.56.13.47.32.33.5.1.59-.12.56-.32.47-.5.33-5.56 2.26zm321.16 3.24-.6-.13-5.47-2.35-.5-.34-.31-.48-.11-.56.12-.59.34-.49.48-.31.56-.12.59.12 5.5 2.38.49.34.31.48.1.57-.13.58-.56.66zm10.87 4.97-.64-.15-5.4-2.51-.49-.36-.29-.48-.1-.57.14-.58.35-.49.49-.29.56-.1.59.14 5.44 2.53.48.36.29.5.08.56-.14.58-.57.64zM220.01 55.17l-.74-.2-.57-.56-.18-.58.04-.56.26-.51.45-.4 5.29-2.91.57-.18.57.06.5.26.39.46.17.57-.05.57-.26.51-.46.38-5.25 2.9zm406.97 3.97-.76-.21-5.16-2.98-.45-.4-.26-.51-.04-.57.19-.57.39-.45.51-.25.57-.05.57.19 5.2 3.01.45.4.24.51.04.57-.19.57-.57.55zm-417.36 2.07-.73-.18-.56-.55-.2-.56.03-.57.24-.52.44-.4 5.2-3.07.56-.2.57.04.52.25.4.45.19.57-.04.57-.25.51-.45.4-5.15 3.05zm427.59 4.15-.8-.23-5.07-3.14-.44-.4-.24-.52-.03-.57.21-.57.41-.44.51-.24.57-.02.57.2 5.11 3.16.43.41.23.52.02.57-.21.56-.56.53zm-437.8 2.19-.7-.17-.56-.52-.22-.56.01-.57.23-.52.43-.42 5.1-3.22.56-.21.57.02.52.24.41.43.21.57-.02.57-.23.52-.44.41-5.06 3.2zm447.85 4.32-.83-.25-4.99-3.29-.42-.42-.23-.52-.01-.57.22-.56.42-.43.53-.22.57-.01.56.22 5.02 3.31.42.42.21.53v.57l-.22.56-.56.49zM189.4 74.19l-.69-.16-.55-.49-.24-.56v-.57l.21-.53.42-.43 5-3.36.55-.23h.57l.53.22.43.43.22.55v.57l-.22.53-.42.43-4.97 3.34zm467.71 4.49-.87-.28-4.88-3.43-.42-.43-.2-.53v-.57l.24-.55.43-.42.53-.21.57.01.55.23 4.93 3.46.4.43.2.54-.01.57-.24.55-.55.47zm-477.53 2.44-.66-.16-.55-.46-.25-.55-.02-.57.2-.53.4-.45 4.9-3.51.55-.24.57-.01.53.2.44.41.24.55.01.57-.2.54-.41.43-4.86 3.49zm487.19 4.65-.91-.3-4.78-3.57-.4-.45-.19-.53.02-.57.25-.55.44-.4.54-.19.57.02.55.25 4.82 3.6.39.45.19.54-.03.57-.26.54-.55.44zm-496.79 2.55-.65-.14-.54-.44-.26-.54-.04-.57.18-.54.39-.45 4.79-3.65.55-.26.57-.03.54.19.44.4.26.54.03.57-.19.54-.4.44-4.75 3.63zm506.23 4.83-.48-.09-.45-.25-4.68-3.71-.39-.45-.18-.54.04-.57.27-.54.45-.39.55-.18.56.04.54.27 4.72 3.74.38.46.17.54-.05.57-.28.54-.53.42zm-515.62 2.66-.62-.14-.54-.41-.28-.53-.05-.57.16-.54.38-.47 4.68-3.79.54-.27.57-.05.54.17.46.39.27.53.05.57-.17.54-.39.47-4.65 3.76-.45.26zm524.85 4.98-.5-.08-.47-.28-4.57-3.84-.38-.47-.16-.54.06-.57.28-.53.47-.38.55-.16.56.06.53.28 4.61 3.87.37.47.15.55-.06.57-.3.53-.52.39zm-534.01 2.77-.61-.13-.52-.38-.3-.52-.07-.57.15-.55.37-.48 4.56-3.92.53-.29.57-.06.55.15.47.37.29.53.06.57-.16.55-.37.47-4.53 3.89-.48.28zm543.02 5.15-.53-.09-.48-.3-4.46-3.97-.36-.48-.14-.55.07-.57.3-.52.48-.36.55-.15.56.07.53.3 4.49 4.01.35.48.14.56-.08.56-.31.52-.52.37zm-551.95 2.87-.59-.12-.51-.36-.31-.52-.09-.56.13-.56.35-.48 4.45-4.06.52-.3.57-.08.55.14.48.36.31.51.07.57-.13.55-.36.48-4.42 4.03-.49.3zm560.72 5.31-.55-.11-.49-.31-4.34-4.11-.35-.49-.13-.55.09-.56.32-.52.49-.35.55-.12.57.09.51.31 4.37 4.14.34.49.12.56-.1.56-.32.51-.51.34zm-569.41 2.96-.57-.11-.5-.34-.33-.51-.1-.56.11-.56.34-.49 4.33-4.18.51-.32.56-.1.56.12.49.35.32.51.09.56-.12.56-.34.49-4.3 4.15-.5.32zm577.94 5.47-.56-.11-.51-.34-4.22-4.23-.33-.5-.11-.56.1-.56.33-.5.5-.34.56-.11.56.11.5.33 4.25 4.26.33.5.1.56-.11.56-.34.5-.49.32zm-586.38 3.05-.55-.1-.49-.32-.34-.49-.12-.56.09-.56.33-.51 4.2-4.31.5-.33.56-.11.56.1.5.33.34.5.11.56-.11.56-.33.5-4.17 4.28-.51.35zM720.04 134l-.59-.12-.51-.36-4.1-4.36-.32-.5-.1-.57.13-.55.34-.5.51-.32.56-.09.56.12.49.34 4.13 4.39.31.51.08.56-.13.56-.34.49-.49.3zm-602.87 3.13-.52-.1-.48-.29-.36-.49-.13-.55.08-.57.3-.51 4.08-4.43.49-.35.56-.12.56.09.51.31.35.49.13.56-.09.56-.32.51-4.05 4.4-.51.37zm610.9 5.78-.61-.12-.52-.39-3.97-4.47-.31-.52-.07-.56.13-.56.36-.48.52-.3.56-.08.56.13.48.36 4 4.51.29.52.07.56-.14.56-.37.47-.47.28zm-618.83 3.21-.5-.09-.47-.27-.37-.47-.15-.55.06-.57.29-.53 3.95-4.54.48-.36.55-.14.57.07.52.3.36.48.14.55-.07.57-.3.52-3.92 4.51-.52.39zm626.59 5.94-.62-.13-.53-.41-3.84-4.59-.29-.53-.06-.56.15-.55.37-.47.53-.29.56-.06.55.15.48.37 3.86 4.62.28.53.06.57-.17.55-.37.46-.46.26zm7.5 9.38-.64-.15-.54-.43-3.7-4.7-.28-.53-.05-.57.17-.55.39-.46.53-.27.57-.05.55.17.46.39 3.73 4.73.26.54.04.57-.18.54-.39.45-.44.24zm7.23 9.59-.67-.15-.55-.46-3.56-4.81-.26-.54-.03-.57.19-.54.4-.45.54-.26.57-.02.54.18.45.4 3.59 4.84.25.54.02.57-.2.54-.4.44zm6.94 9.8-.69-.16-.55-.49-3.42-4.91-.25-.54-.01-.58.2-.53.41-.44.55-.24.57-.01.54.2.43.41 3.45 4.95.24.55v.57l-.21.53-.42.43zm6.65 10.01-.7-.18-.56-.51-3.28-5.01-.23-.55.01-.57.21-.53.43-.43.55-.22h.57l.53.22.43.42 3.3 5.05.22.56-.02.57-.22.52-.43.42zm6.36 10.2-.73-.19-.56-.54-3.13-5.1-.21-.57.02-.57.23-.52.44-.41.56-.21.57.02.52.23.42.44 3.15 5.14.2.57-.03.57-.24.51-.44.41zm6.05 10.38-.74-.2-.56-.57-2.98-5.19-.2-.57.04-.57.25-.51.45-.4.56-.2.57.04.52.25.4.45 3 5.23.18.57-.04.57-.26.51-.45.39zm-714.99 3.49-.72-.18-.46-.39-.26-.51-.05-.57.18-.57 2.94-5.24.39-.45.51-.25.57-.05.57.19.45.4.25.51.05.57-.19.57-2.91 5.2-.57.57zm720.74 7.07-.76-.21-.57-.6-2.82-5.28-.18-.57.06-.57.26-.5.46-.39.57-.18.57.06.51.26.38.46 2.85 5.32.17.57-.07.57-.27.5-.46.38zm-726.36 3.49-.68-.16-.47-.38-.27-.5-.07-.56.16-.58 2.78-5.32.38-.46.51-.27.56-.06.58.17.46.38.27.5.06.57-.17.58-2.76 5.28-.57.6zm731.8 7.23-.78-.22-.57-.62-2.67-5.36-.16-.58.08-.57.27-.5.47-.37.58-.16.57.07.5.28.37.47 2.69 5.41.15.58-.08.56-.29.49-.47.37zm-737.1 3.49-.65-.14-.47-.36-.29-.5-.09-.56.15-.58 2.62-5.4.37-.47.49-.29.57-.07.58.15.47.37.28.49.08.57-.15.58-2.61 5.36-.56.63zm742.22 7.4-.8-.23-.57-.65-2.51-5.45-.14-.58.09-.56.29-.49.48-.36.58-.14.57.09.49.29.36.48 2.53 5.48.13.58-.1.57-.3.48-.48.35zm4.8 11.04-.82-.25-.57-.68-2.35-5.51-.12-.59.1-.56.31-.48.49-.35.59-.12.56.1.48.31.34.49 2.37 5.56.12.59-.12.56-.31.47-.5.34zm4.47 11.17-.84-.25-.56-.71-2.19-5.59-.11-.59.13-.56.32-.47.5-.33.59-.11.56.13.47.32.33.5 2.2 5.62.1.6-.13.55-.33.47-.51.32zm4.14 11.31-.86-.27-.56-.74-2.02-5.64-.09-.6.14-.55.33-.46.51-.32.6-.09.55.14.46.33.32.51 2.03 5.7.08.59-.14.55-.34.46-.52.31zm3.8 11.43-.88-.28-.55-.77-1.85-5.71-.08-.59.16-.55.35-.45.52-.3.59-.07.55.15.45.35.3.52 1.87 5.75.06.6-.16.54-.36.45-.52.29zm3.45 11.52-.89-.3-.55-.79-1.67-5.74-.06-.6.17-.54.36-.45.53-.28.6-.05.54.17.44.36.29.53 1.69 5.78.04.59-.18.55-.36.43-.54.28zm-787.94 3.43-.39-.06-.54-.27-.37-.43-.18-.54.04-.6 1.63-5.8.28-.53.44-.36.54-.18.6.05.53.28.37.44.17.54-.05.6-1.62 5.75-.21.46-.33.34zm791.05 8.16-.92-.32-.33-.35-.2-.47-1.51-5.78-.04-.6.19-.54.37-.43.54-.27.6-.03.54.18.43.37.27.54 1.51 5.83.03.6-.19.53-.38.43-.54.26zM22.59 315.1l-.36-.04-.54-.26-.38-.42-.2-.53.02-.6 1.47-5.84.26-.54.42-.38.54-.19.6.03.54.26.38.43.19.54-.03.6-1.46 5.8-.2.47-.33.36zm796.81 8.22-.5-.08-.43-.24-.33-.37-.2-.49-1.34-5.82-.01-.6.2-.54.38-.42.55-.25.6-.02.53.21.42.38.25.55 1.35 5.87.01.6-.21.53-.4.41-.54.25zM19.93 326.8l-.31-.03-.55-.24-.4-.41-.22-.53.01-.6 1.29-5.88.25-.55.42-.39.53-.21.6.02.54.24.39.42.21.53-.01.6-1.28 5.84-.2.49-.33.37-.44.24zm801.89 8.27-.51-.09-.44-.25-.33-.38-.19-.5-1.17-5.86v-.6l.22-.53.4-.4.55-.24h.6l.53.22.41.39.23.56 1.17 5.9-.01.6-.22.53-.41.4-.55.23zm-804.2 3.5-.27-.02-.56-.23-.41-.39-.23-.53-.01-.6 1.12-5.91.23-.56.4-.4.53-.22h.6l.55.23.4.4.23.53v.6l-1.11 5.87-.19.5-.33.39-.44.25zm806.27 8.32-.53-.09-.44-.26-.33-.4-.18-.51-.99-5.89.01-.6.24-.53.41-.39.56-.22.6.01.52.24.39.41.22.56 1 5.93-.03.6-.24.52-.41.39-.56.21zm-808.24 3.52-.22-.02-.57-.2-.42-.39-.24-.52-.03-.6.94-5.94.21-.56.39-.42.52-.24.6-.02.56.22.42.39.24.52.02.6-.94 5.9-.18.52-.33.4-.44.26zm809.96 8.35-.54-.09-.45-.28-.33-.4-.17-.53-.81-5.92.03-.6.25-.52.42-.38.56-.2.61.03.51.25.38.42.21.57.82 5.96-.05.6-.25.51-.43.38-.57.19zM14.03 362.3l-.18-.01-.57-.19-.43-.38-.26-.51-.05-.59.77-5.98.2-.56.38-.43.51-.25.6-.04.57.2.42.38.25.51.04.6-.76 5.93-.17.53-.33.41-.45.28zm812.95 8.38-.55-.1-.45-.28-.33-.42-.16-.54-.64-5.95.05-.6.26-.5.44-.37.57-.19.59.05.51.26.37.44.19.57.64 5.98-.06.6-.27.5-.44.37-.57.18zm-814.22 3.55-.13-.01-.58-.17-.44-.36-.28-.5-.06-.6.59-5.99.18-.58.37-.43.5-.27.6-.06.57.19.44.36.27.51.05.59-.58 5.95-.16.55-.33.43-.46.28zM828 382.64l-.56-.11-.46-.29-.32-.44-.15-.56-.47-5.96.07-.59.28-.5.44-.36.58-.17.59.07.5.28.36.44.17.58.47 6-.08.6-.28.49-.45.35-.58.16zm-816.16 3.55h-.09l-.58-.16-.45-.35-.29-.49-.08-.59.41-6.01.17-.58.35-.45.5-.29.59-.06.58.16.45.36.28.49.08.6-.42 5.96-.15.56-.32.44-.46.3zm816.84 8.43-.57-.12-.47-.3-.32-.45-.14-.57-.29-5.97.08-.6.3-.49.45-.34.58-.15.6.1.48.29.35.44.15.58.3 6.01-.1.6-.3.48-.46.34-.58.15zm-817.41 3.55h-.05l-.58-.14-.46-.33-.31-.48-.1-.6.25-6.01.14-.59.33-.45.48-.3.62-.09.58.15.45.34.3.49.09.59-.24 5.97-.13.58-.33.45-.46.31zm817.74 8.44-.59-.12-.47-.31-.32-.47-.12-.58-.12-5.98.1-.59.31-.48.46-.33.59-.14.59.08.48.31.33.48.14.59.12 6.02-.12.59-.31.48-.47.32-.58.13zm-817.96 3.55h-.01l-.59-.13-.47-.32-.32-.47-.11-.59.07-6.02.13-.59.33-.47.48-.31.58-.1.59.13.47.33.31.48.11.59-.07 5.97-.13.59-.32.47-.47.32zm817.94 8.45h-.02l-.59-.13-.47-.33-.31-.48-.11-.59.05-5.97.12-.59.32-.47.47-.32.59-.12.59.12.47.32.32.47.12.59-.05 6.02-.13.58-.32.47-.47.31zm-817.83 3.54-.57-.11-.47-.31-.32-.46-.14-.58-.1-6.02.12-.59.31-.48.47-.32.59-.13.57.11.48.32.33.47.13.59.1 5.98-.1.59-.31.48-.46.33-.59.13zm817.47 8.44h-.07l-.58-.15-.46-.34-.3-.48-.09-.6.22-5.97.14-.57.32-.46.47-.31.57-.12.05.01.58.13.46.34.31.48.1.59-.22 6.02-.14.56-.33.46-.46.3zm-817 3.55-.57-.11-.46-.3-.33-.45-.14-.56-.27-6.01.09-.6.3-.48.46-.34.59-.14.59.1.48.3.34.46.14.58.28 5.97-.09.59-.29.49-.46.35-.58.15zm816.29 8.43-.11-.01-.58-.16-.45-.35-.28-.5-.08-.59.4-5.97.15-.58.34-.45.48-.29.61-.09.58.16.46.34.29.5.08.59-.4 6.01-.15.55-.32.44-.47.29zm-815.48 3.54-.55-.1-.46-.29-.33-.44-.15-.55-.45-6 .08-.59.28-.5.45-.35.58-.16.59.08.49.29.36.45.16.58.45 5.96-.07.59-.28.5-.45.36-.57.17zm814.42 8.41-.16-.01-.57-.18-.44-.37-.27-.5-.05-.6.57-5.94.17-.58.36-.44.49-.28.6-.07.58.17.44.36.28.5.06.6-.57 5.99-.16.54-.33.42-.46.29zM13.6 458.05l-.54-.1-.45-.28-.33-.41-.16-.54-.63-5.99.06-.6.27-.5.44-.36.58-.18.59.06.5.28.37.44.17.57.63 5.95-.06.59-.26.51-.44.37-.57.18zm811.85 8.38-.2-.01-.56-.2-.43-.38-.26-.51-.04-.59.75-5.94.19-.57.37-.43.5-.27.6-.04.57.19.44.37.26.51.05.6-.75 5.97-.17.53-.33.41-.45.26zm-810.34 3.53-.53-.1-.44-.27-.33-.4-.18-.52-.8-5.97.04-.6.26-.51.43-.38.57-.19.59.05.51.26.38.42.2.57.79 5.92-.03.6-.26.52-.42.38-.56.2zm808.59 8.34-.25-.02-.56-.21-.41-.39-.24-.52-.03-.6.92-5.91.21-.56.38-.42.52-.25.6-.03.56.2.42.39.25.51.03.6-.92 5.95-.19.51-.33.4-.44.26zm-806.73 3.51-.51-.09-.45-.26-.33-.39-.18-.51-.98-5.94.03-.6.24-.51.42-.39.56-.21.6.02.51.25.39.41.21.57.97 5.89-.01.6-.24.52-.41.4-.56.22zm804.62 8.3-.28-.02-.56-.23-.4-.41-.23-.52v-.6l1.09-5.88.22-.55.4-.41.52-.23.6-.02.56.22.41.4.23.52.01.6-1.1 5.92-.19.49-.33.39-.44.24zM19.18 493.6l-.5-.09-.44-.24-.33-.38-.2-.49-1.15-5.91.01-.6.23-.52.4-.41.56-.22.6.01.52.23.4.4.23.56 1.14 5.86v.6l-.22.53-.4.41-.55.23zm799.96 8.26-.33-.04-.55-.24-.39-.42-.21-.53.02-.6 1.26-5.84.24-.55.4-.4.53-.22.6.01.56.23.39.41.22.53v.6l-1.28 5.89-.2.48-.33.36-.43.24zm-797.4 3.47-.5-.09-.43-.23-.33-.37-.2-.47-1.33-5.88-.01-.6.22-.53.39-.41.55-.24.6-.01.53.21.41.39.24.55 1.32 5.83.02.6-.21.54-.39.42-.54.25zm794.6 8.2-.37-.05-.54-.26-.38-.43-.19-.54.03-.59 1.44-5.81.25-.54.42-.39.53-.2.6.03.55.25.38.42.2.53-.02.6-1.45 5.85-.2.46-.34.36zm-791.7 3.44-.91-.31-.33-.35-.21-.46-1.5-5.83-.03-.6.2-.54.38-.42.54-.26.6-.03.54.2.42.38.26.54 1.49 5.79.03.6-.19.54-.37.43-.54.27zm788.56 8.14-.41-.06-.54-.28-.36-.44-.18-.54.05-.6 1.61-5.76.27-.53.43-.37.54-.19.6.04.53.27.38.43.18.54-.04.6-1.62 5.8-.55.79zm-785.32 3.41-.89-.29-.55-.79-1.67-5.78-.04-.6.18-.54.36-.43.54-.28.6-.04.54.18.43.37.28.53 1.66 5.74.05.6-.17.54-.37.44-.53.29zm781.84 8.07-.46-.07-.52-.3-.36-.44-.16-.55.07-.6 1.78-5.71.28-.52.45-.36.54-.17.6.05.52.29.36.44.17.55-.05.59-1.79 5.76-.56.76zm-778.25 3.4-.87-.27-.56-.76-1.84-5.76-.07-.59.17-.55.35-.44.53-.29.6-.07.54.17.45.35.29.53 1.83 5.71.07.6-.15.55-.35.45-.52.3zm774.43 7.97-.5-.08-.51-.31-.34-.46-.15-.55.09-.6 1.94-5.65.3-.52.45-.34.55-.16.6.08.52.3.35.45.15.55-.08.6-1.95 5.69-.57.73zm-770.5 3.42-.85-.27-.56-.72-2.01-5.7-.08-.6.14-.55.35-.45.51-.31.6-.08.55.15.46.34.3.52 2 5.66.09.59-.14.55-.33.46-.52.32zm766.35 7.84-.54-.1-.51-.33-.33-.46-.12-.56.1-.59 2.11-5.59.31-.51.47-.34.55-.13.59.09.51.31.34.47.13.55-.09.6-2.12 5.63-.57.7zm-762.08 3.41-.83-.25-.56-.69-2.19-5.64-.09-.59.13-.55.33-.47.5-.32.6-.1.55.13.47.33.32.51 2.17 5.59.1.59-.12.56-.32.47-.5.33zm757.6 7.69-.58-.11-.5-.34-.31-.48-.11-.56.12-.59 2.26-5.5.33-.5.48-.32.56-.12.58.11.5.33.32.47.12.56-.11.59-2.28 5.54-.56.68zm-752.99 3.44-.82-.24-.56-.67-2.35-5.56-.12-.59.12-.56.31-.48.5-.33.59-.12.56.12.47.31.34.5 2.33 5.52.13.59-.11.56-.31.48-.49.34zm748.2 7.51-.62-.13-.49-.36-.3-.48-.09-.56.13-.59 2.43-5.44.35-.49.48-.3.56-.11.59.13.49.35.3.48.11.56-.13.59-2.45 5.47-.56.65zM49.2 584.73l-.79-.22-.57-.64-2.51-5.49-.13-.59.09-.56.3-.49.49-.35.59-.13.56.1.48.3.36.49 2.49 5.45.14.58-.09.57-.29.49-.49.35zm738.16 7.35-.66-.15-.47-.37-.28-.5-.08-.56.15-.58 2.59-5.37.36-.48.49-.29.56-.09.58.15.48.36.29.49.09.56-.14.59-2.61 5.4-.57.62zm-732.91 3.48-.78-.22-.56-.61-2.68-5.41-.15-.58.09-.57.28-.49.48-.36.58-.15.56.08.5.28.36.48 2.66 5.37.15.58-.07.57-.28.5-.47.37zm727.49 7.18-.7-.18-.47-.38-.27-.5-.06-.57.17-.57 2.75-5.29.37-.47.5-.28.56-.07.58.16.47.38.28.5.07.56-.16.58-2.77 5.33-.56.59zm-721.93 3.48-.76-.2-.56-.59-2.83-5.33-.17-.57.07-.57.27-.5.46-.38.58-.17.57.07.5.27.38.46 2.81 5.3.17.57-.05.57-.27.5-.46.39zm716.18 7.01-.74-.19-.45-.4-.25-.51-.05-.57.19-.57 2.9-5.2.38-.46.51-.26.57-.06.57.18.46.39.26.5.06.57-.18.58-2.92 5.24-.57.57zm-710.31 3.48-.73-.19-.57-.56-2.98-5.24-.19-.57.05-.57.26-.51.45-.39.57-.19.57.05.51.26.39.45 2.97 5.21.19.57-.04.56-.25.52-.45.4zm704.26 6.85-.77-.22-.44-.4-.24-.52-.03-.57.2-.57 3.05-5.12.4-.45.52-.24.57-.04.57.2.44.4.25.51.04.57-.2.57-3.07 5.16-.56.54zm-698.08 3.46-.72-.18-.56-.53-3.14-5.15-.2-.57.03-.57.25-.52.44-.4.57-.2.57.03.51.24.41.45 3.11 5.11.21.56-.02.57-.24.52-.43.41zm691.73 6.69-.81-.24-.43-.42-.22-.53-.01-.57.21-.56 3.21-5.03.41-.43.52-.23.57-.03.56.22.44.41.23.52.02.57-.21.56-3.23 5.07-.55.51zm-685.26 3.43-.69-.17-.56-.5-3.29-5.06-.21-.56.01-.57.23-.52.43-.42.56-.22.57.02.52.22.42.44 3.26 5.01.23.56-.01.57-.22.53-.42.42zm678.62 6.53-.85-.26-.42-.44-.21-.53.01-.57.23-.55 3.35-4.94.43-.42.52-.22h.58l.55.23.42.42.22.53v.57l-.22.56-3.38 4.97-.55.49zM85.3 647.06l-.68-.16-.55-.47-3.43-4.96-.23-.55-.01-.57.21-.53.42-.43.55-.24h.58l.53.21.43.42 3.4 4.92.24.55.01.57-.2.53-.41.44zm664.91 6.38-.89-.29-.4-.45-.19-.53.02-.57.25-.55 3.49-4.84.44-.41.54-.2.57.01.54.25.41.44.2.53-.01.57-.24.55-3.52 4.87-.55.46zm-657.86 3.34-.65-.15-.55-.45-3.58-4.85-.24-.54-.02-.58.19-.53.41-.44.54-.25.57-.02.54.19.44.41 3.55 4.82.26.54.03.57-.19.54-.4.45zM742.99 663l-.48-.08-.44-.24-.39-.45-.18-.55.04-.56.27-.54 3.63-4.74.45-.4.54-.18.57.03.54.26.4.45.18.54-.03.57-.26.54-3.66 4.77-.54.43zm-643.3 3.29-.64-.14-.54-.42-3.71-4.75-.27-.54-.03-.57.17-.54.4-.45.54-.27.57-.03.54.18.45.39 3.69 4.71.27.53.04.57-.17.55-.38.46-.45.24zm635.8 6.06-.49-.09-.46-.26-.38-.46-.16-.55.05-.57.29-.53 3.77-4.63.46-.38.54-.17.57.04.53.28.39.46.17.55-.05.56-.27.54-3.8 4.66-.53.41zm-628.2 3.23-.62-.13-.53-.4-3.85-4.64-.28-.53-.05-.57.16-.54.38-.47.53-.28.57-.05.55.16.46.38 3.83 4.6.28.53.06.57-.15.55-.37.47-.47.26zm620.43 5.9-.51-.09-.48-.29-.36-.47-.14-.56.07-.56.29-.52 3.91-4.52.47-.37.55-.15.57.06.52.29.37.47.16.55-.07.57-.29.52-3.93 4.56-.52.38zm-612.56 3.16-.6-.12-.52-.38-3.98-4.52-.29-.52-.07-.57.14-.55.37-.47.52-.3.57-.07.55.15.47.36 3.96 4.49.3.52.08.56-.14.56-.36.48-.48.29zm604.53 5.74-.54-.1-.48-.3-.35-.49-.13-.56.09-.56.31-.51 4.04-4.41.48-.36.55-.13.57.08.51.3.36.49.14.55-.08.56-.31.52-4.06 4.44-.52.36zm-596.4 3.08-.57-.11-.51-.35-4.12-4.4-.31-.52-.08-.56.13-.55.35-.49.51-.31.57-.09.55.13.49.36 4.08 4.36.32.51.09.56-.12.56-.34.49-.49.31zm588.11 5.58-.56-.1-.5-.33-.33-.5-.11-.56.1-.56.33-.5 4.16-4.29.49-.34.56-.12.56.1.51.32.34.49.12.56-.09.56-.32.51-4.2 4.32-.5.33zm-579.72 3.01-.56-.11-.5-.33-4.24-4.28-.33-.5-.1-.56.12-.56.34-.5.5-.32.56-.11.56.12.5.34 4.2 4.24.34.5.11.56-.11.56-.33.5-.5.34zm571.17 5.41-.57-.11-.51-.35-.32-.51-.1-.56.12-.56.35-.49 4.28-4.16.51-.33.56-.11.56.12.49.33.33.5.11.57-.12.55-.33.5-4.32 4.2-.49.31zm-562.55 2.92-.54-.1-.48-.31-4.36-4.15-.34-.49-.12-.56.1-.56.32-.51.49-.34.56-.12.56.1.51.32 4.33 4.12.35.49.12.56-.09.56-.31.51-.52.36zm553.77 5.25-.6-.12-.52-.37-.3-.52-.08-.56.14-.56.35-.48 4.41-4.04.51-.31.56-.09.56.13.49.35.31.51.09.57-.13.55-.35.49-4.44 4.07-.48.29zm-544.9 2.82-.52-.09-.48-.29-4.47-4.02-.36-.48-.13-.55.08-.57.31-.51.48-.36.56-.13.56.08.52.31 4.44 3.99.36.48.14.55-.07.56-.3.52-.52.38zm535.87 5.1-.61-.13-.53-.4-.29-.53-.06-.56.15-.55.37-.48 4.52-3.9.53-.3.56-.07.55.14.48.36.3.52.07.57-.14.55-.37.48-4.55 3.94-.47.27zm-526.78 2.71-.5-.08-.46-.27-4.59-3.88-.37-.48-.15-.55.07-.56.29-.53.47-.37.55-.15.57.07.52.29 4.56 3.86.38.47.16.54-.06.57-.29.53-.53.41zm517.53 4.93-.63-.14-.54-.42-.27-.53-.05-.57.17-.54.38-.47 4.64-3.77.53-.29.57-.05.54.16.47.38.28.53.06.57-.16.54-.38.47-4.67 3.8-.45.25zm-508.21 2.61-.48-.08-.45-.24-4.7-3.75-.38-.46-.17-.55.05-.56.28-.54.46-.38.54-.17.57.05.54.28 4.66 3.72.39.46.18.54-.04.57-.27.54-.54.43zm498.74 4.77-.66-.15-.54-.45-.26-.54-.03-.57.19-.54.39-.45 4.75-3.64.54-.26.57-.04.54.17.46.4.26.53.04.57-.18.54-.39.46-4.78 3.67zm-489.21 2.5-.89-.3-4.81-3.61-.4-.45-.18-.54.03-.57.26-.54.45-.4.55-.18.57.03.54.27 4.77 3.58.4.45.19.53-.02.57-.26.55-.54.45zm479.52 4.6-.67-.16-.55-.47-.25-.55-.01-.57.2-.54.41-.43 4.85-3.51.55-.25.57-.02.53.19.45.41.25.54.02.57-.19.54-.4.44-4.89 3.53zm-469.79 2.38-.86-.27-4.91-3.47-.4-.44-.2-.53.01-.57.25-.55.44-.41.53-.2.57.02.55.24 4.88 3.45.41.43.21.53-.01.57-.24.55-.55.48zm459.9 4.43-.7-.17-.55-.5-.23-.55v-.57l.22-.53.42-.43 4.96-3.36.55-.23.57-.01.53.21.43.42.24.55v.57l-.2.53-.42.43-4.99 3.39zm-449.97 2.26-.82-.24-5.01-3.33-.42-.42-.21-.53v-.57l.23-.56.43-.42.53-.21h.57l.55.23 4.97 3.29.43.42.22.53.01.57-.22.56-.56.51zM636.65 759l-.72-.18-.56-.52-.21-.57.02-.57.23-.52.44-.41 5.05-3.21.56-.22.57.01.52.22.42.43.22.56-.01.57-.22.53-.43.42-5.09 3.23zm-429.76 2.14-.78-.22-5.1-3.18-.43-.41-.23-.52-.02-.57.21-.57.42-.43.52-.23.57-.01.56.21 5.07 3.15.44.41.23.52.03.57-.21.56-.56.53zm419.47 4.08-.73-.19-.56-.55-.19-.57.03-.57.25-.51.45-.4 5.14-3.06.56-.21.57.03.52.24.41.44.2.57-.03.57-.23.51-.45.41-5.18 3.09zm-409.17 2.01-.74-.19-5.19-3.03-.45-.4-.24-.51-.04-.57.2-.57.4-.45.52-.24.57-.03.56.19 5.16 3 .45.4.25.51.04.57-.19.57-.56.56zm398.71 3.91-.75-.2-.57-.58-.17-.57.05-.57.26-.51.46-.38 5.23-2.91.57-.19.57.04.51.26.4.45.18.57-.04.57-.25.51-.46.4-5.27 2.93zm-388.24 1.88-.7-.17-5.28-2.87-.46-.39-.25-.51-.05-.57.18-.57.38-.46.51-.25.57-.05.57.17 5.24 2.85.46.38.27.51.06.56-.17.58-.57.59zm377.61 3.73-.77-.21-.57-.61-.16-.58.07-.56.27-.5.48-.37 5.31-2.76.58-.17.57.06.5.27.38.47.17.57-.06.57-.27.5-.47.38-5.35 2.78zM238.3 778.5l-.67-.15-5.36-2.72-.47-.37-.27-.5-.07-.57.17-.58.37-.46.5-.28.57-.06.58.16 5.31 2.69.48.37.28.49.07.57-.15.58-.57.62zm356.17 3.55-.79-.23-.57-.63-.14-.58.08-.57.29-.49.49-.36 5.4-2.6.58-.15.56.08.5.28.36.48.15.58-.07.56-.29.5-.47.37-5.44 2.61zm-345.39 1.62-.63-.14-5.43-2.55-.47-.37-.29-.49-.09-.56.15-.58.36-.48.49-.29.57-.09.58.15 5.39 2.53.48.36.3.49.09.56-.13.58-.57.65zm334.43 3.35-.81-.23-.56-.66-.13-.59.1-.56.31-.49.49-.34 5.48-2.44.58-.13.57.09.48.3.35.49.14.58-.1.56-.3.49-.48.35-5.52 2.46zm-323.5 1.49-.59-.12-5.5-2.39-.49-.35-.3-.49-.1-.56.13-.58.34-.49.49-.31.56-.1.59.13 5.46 2.37.49.34.31.48.11.56-.12.59-.57.68zm312.4 3.17-.83-.25-.56-.69-.11-.6.12-.55.32-.48.5-.33 5.55-2.27.59-.12.56.11.47.31.34.5.12.59-.11.56-.32.48-.49.33-5.59 2.3zm-301.31 1.35-.55-.1-5.59-2.24-.5-.33-.32-.47-.12-.56.12-.59.33-.5.47-.32.56-.12.59.12 5.55 2.22.51.32.32.47.12.56-.1.59-.56.7zM561.17 796l-.84-.26-.56-.73-.09-.59.13-.55.34-.47.51-.31 5.61-2.11.59-.1.56.13.47.32.32.51.1.59-.13.56-.33.47-.5.32-5.66 2.13zm-278.84 1.24-.5-.09-5.66-2.07-.51-.32-.33-.46-.13-.56.09-.59.32-.51.47-.33.55-.13.59.09 5.62 2.06.51.31.34.46.14.55-.09.59-.56.73zm267.48 2.74-.86-.27-.56-.75-.08-.6.16-.55.34-.45.52-.3 5.68-1.94.59-.08.56.14.45.34.31.52.08.59-.14.55-.34.46-.52.31-5.71 1.96zm-256.12 1.13-.47-.07-5.71-1.9-.52-.31-.34-.45-.15-.55.08-.6.3-.52.45-.34.55-.15.6.08 5.67 1.88.52.3.35.45.16.55-.07.59-.55.76zm244.64 2.52-.89-.28-.55-.78-.05-.6.17-.54.36-.45.53-.28 5.73-1.78.6-.06.54.16.45.35.29.53.07.59-.16.55-.36.45-.52.29-5.78 1.79zm-233.17 1.01-.43-.06-5.76-1.73-.53-.29-.36-.44-.16-.55.05-.59.29-.53.45-.36.54-.16.6.05 5.72 1.72.53.28.37.44.17.54-.05.6-.55.79zm221.63 2.29-.9-.31-.34-.34-.21-.46-.04-.6.19-.54.37-.43.54-.27 5.76-1.6.6-.04.54.17.44.37.27.53.05.6-.18.54-.36.44-.54.28-5.8 1.61zm-210.07.91-.38-.05-5.81-1.56-.54-.27-.37-.44-.18-.54.04-.6.27-.53.44-.37.54-.18.59.04 5.78 1.55.54.26.37.43.19.54-.03.6-.21.46-.33.35zm198.44 2.04-.49-.08-.43-.24-.33-.36-.21-.47-.02-.6.2-.53.39-.43.54-.25 5.81-1.43.6-.03.53.2.43.38.26.54.03.6-.19.53-.38.43-.54.26-5.85 1.44zm-186.78.81-.34-.04-5.86-1.39-.54-.25-.39-.43-.2-.53.03-.6.25-.54.43-.39.53-.19.6.02 5.82 1.38.54.24.39.42.21.53-.01.6-.21.48-.33.37-.43.23zm175.07 1.8-.51-.09-.43-.24-.33-.38-.2-.49v-.6l.22-.53.39-.4.56-.24 5.84-1.26.6-.01.53.21.41.39.25.55.01.6-.21.53-.39.42-.55.24-5.89 1.27zm-163.34.7-.29-.03-5.9-1.21-.55-.24-.4-.41-.21-.53v-.6l.25-.55.41-.4.53-.21.59.01 5.86 1.2.55.23.4.41.22.52.01.6-.19.5-.34.38-.43.24zm151.56 1.56-.52-.09-.44-.26-.33-.39-.19-.5.02-.6.23-.52.41-.4.56-.22 5.88-1.08.6.01.52.22.4.4.23.56-.01.6-.22.52-.4.41-.56.23-5.92 1.09zm-139.76.6-.25-.02-5.93-1.04-.56-.22-.4-.4-.23-.52-.01-.6.22-.56.4-.41.52-.23.6-.01 5.89 1.03.56.22.41.39.24.52.02.6-.18.51-.34.39-.44.26zm127.91 1.31-.53-.09-.44-.27-.34-.4-.17-.52.03-.6.25-.51.42-.39.57-.2 5.9-.91.61.02.51.24.39.42.21.56-.02.6-.24.52-.42.39-.56.21-5.95.92zm-116.05.5-.21-.01-5.95-.87-.57-.21-.42-.38-.24-.52-.03-.6.21-.56.38-.42.52-.25.6-.02 5.91.85.57.2.42.39.26.51.04.6-.18.52-.33.41-.45.26zm104.16 1.07-.54-.1-.46-.28-.33-.42-.16-.53.05-.6.26-.5.43-.38.57-.18 5.94-.74.59.04.51.26.38.43.2.56-.04.6-.26.51-.43.38-.56.2-5.98.74zm-92.25.39-.16-.01-5.98-.69-.57-.19-.43-.37-.26-.51-.05-.6.19-.57.38-.43.51-.25.59-.05 5.94.68.57.18.44.37.26.5.06.6-.16.54-.33.42-.46.28zm80.31.82-.55-.1-.46-.29-.33-.43-.15-.55.06-.59.28-.5.45-.36.57-.17 5.95-.57.6.07.5.27.37.43.18.58-.06.59-.27.5-.44.37-.57.18-6 .57zm-68.36.29h-.12l-6-.52-.58-.17-.44-.36-.27-.5-.07-.6.18-.57.36-.45.5-.27.6-.06 5.95.51.58.16.44.36.29.5.07.59-.15.55-.33.44-.46.29zm56.39.58-.56-.11-.46-.3-.33-.44-.14-.57.08-.59.29-.49.46-.35.58-.15 5.96-.39.59.08.5.28.35.45.17.58-.08.6-.29.49-.44.35-.58.17-6.01.39zm-44.42.19h-.08l-6.01-.34-.58-.16-.45-.35-.29-.49-.08-.6.15-.58.35-.45.48-.29.61-.08 5.97.34.58.15.46.34.29.49.1.59-.15.57-.32.45-.46.3zm32.44.33-.58-.12-.47-.31-.32-.45-.13-.58.1-.59.31-.48.46-.34.59-.13 5.97-.22.59.1.48.3.35.46.14.58-.09.59-.3.49-.46.34-.58.14-6.02.22zm-20.46.08h-.03l-6.01-.16-.58-.14-.46-.34-.31-.48-.1-.59.14-.59.33-.46.48-.3.6-.1 5.97.16.58.14.47.32.31.48.11.59-.13.58-.32.47-.47.31zm8.46.09-2.48-.01-.59-.12-.47-.32-.31-.48-.12-.59.12-.58.32-.47.48-.32.58-.12h.01l8.44-.03h.02l.58.11.47.32.32.46.13.59-.11.58-.31.48-.47.33-.59.13zm-3.24-680.98-.58-.12-.47-.31-.32-.47-.13-.58.12-.59.31-.48.47-.32.59-.13 6.03-.01.58.13.47.32.32.48.11.59-.12.59-.32.47-.48.32-.59.1-5.97.01zm17.99.37h-.08l-5.96-.25-.59-.14-.46-.34-.3-.48-.1-.59.13-.59.33-.47.48-.3.6-.09 6.03.25.58.16.45.34.3.49.09.59-.15.57-.32.44-.47.3zm-29.98.03-.56-.11-.47-.3-.32-.45-.14-.56.08-.59.3-.49.45-.35.58-.15 6.03-.27.58.1.48.31.34.46.15.58-.11.6-.3.48-.46.33-.58.14-5.96.27zm41.94.87h-.14l-5.95-.52-.58-.16-.44-.35-.29-.5-.07-.6.16-.57.36-.45.5-.29.59-.07 6.01.52.57.18.44.36.27.5.06.6-.16.54-.32.43-.46.28zm-53.9.05-.55-.1-.45-.28-.33-.43-.16-.54.06-.6.27-.5.44-.36.57-.18 6.01-.53.59.07.5.28.36.45.16.58-.07.6-.28.49-.45.36-.58.16-5.94.52zm65.81 1.38-.21-.01-5.91-.78-.57-.19-.44-.37-.26-.51-.04-.6.18-.57.38-.43.51-.26.59-.05 5.98.79.57.2.42.38.25.51.04.6-.18.52-.33.41-.45.26zm-77.72.07-.53-.1-.44-.26-.33-.41-.18-.52.03-.6.25-.51.42-.38.57-.21 5.98-.79.6.05.51.26.37.43.19.57-.05.6-.26.51-.43.37-.57.19-5.91.78zm89.56 1.88-.28-.02-5.87-1.04-.56-.21-.42-.4-.24-.51-.02-.6.21-.57.39-.41.52-.24.61-.02 5.94 1.05.55.22.41.4.22.53.01.6-.19.5-.33.38-.44.25zm-101.39.09-.51-.09-.44-.25-.33-.38-.19-.5.01-.6.22-.53.41-.4.55-.22 5.94-1.06.6.02.52.24.39.41.22.56-.02.6-.24.52-.42.39-.56.22-5.87 1.04zm113.13 2.38-.34-.03-5.83-1.3-.55-.24-.39-.41-.22-.53v-.6l.24-.55.41-.39.53-.22h.6l5.89 1.31.55.25.38.42.21.54-.02.6-.2.47-.34.36-.43.24zm-124.86.11-.5-.08-.43-.23-.33-.37-.2-.47-.02-.6.2-.53.39-.42.54-.26 5.89-1.32h.59l.53.21.42.4.24.55v.6l-.21.53-.4.41-.55.24-5.82 1.3zm136.48 2.88-.41-.05-5.76-1.55-.54-.27-.38-.42-.19-.54.03-.6.26-.54.43-.38.54-.19.6.03 5.82 1.57.54.27.36.44.18.54-.04.6-.55.8zm-148.1.14-.89-.3-.55-.79-.05-.6.18-.54.37-.44.53-.28 5.83-1.58.59-.03.54.19.43.38.26.54.04.6-.19.54-.38.43-.54.26-5.76 1.56zm159.57 3.37-.47-.08-5.69-1.8-.52-.29-.36-.44-.17-.55.06-.6.28-.52.45-.36.54-.17.6.06 5.75 1.82.52.3.35.45.15.55-.07.6-.55.75zm-171.06.16-.86-.28-.56-.75-.07-.59.15-.55.35-.45.52-.3 5.77-1.85.6-.06.54.17.45.36.28.52.06.6-.17.55-.35.44-.53.29-5.7 1.82zm182.37 3.85-.54-.1-5.6-2.05-.51-.31-.34-.46-.14-.56.08-.59.31-.51.46-.34.55-.15.6.09 5.66 2.08.51.32.32.47.14.55-.1.59-.56.72zm-193.7.2-.84-.26-.57-.71-.09-.59.13-.55.32-.47.51-.32 5.68-2.1.59-.09.55.14.46.34.31.52.09.59-.14.55-.34.46-.52.31-5.61 2.08zm204.79 4.3-.59-.12-5.48-2.3-.5-.33-.32-.47-.12-.56.11-.59.33-.5.47-.32.56-.11.59.1 5.55 2.32.49.35.31.48.1.56-.12.59-.57.66zm-215.93.24-.81-.23-.57-.67-.12-.59.1-.56.31-.48.49-.34 5.57-2.35.59-.11.56.11.48.32.33.5.11.59-.12.56-.31.47-.5.34-5.52 2.32zm-10.93 5.04-.78-.22-.56-.62-.16-.59.08-.56.29-.49.47-.37 5.47-2.59.58-.14.56.09.49.3.36.48.14.59-.1.56-.29.49-.49.35-5.4 2.57zm248.38 5.16-.71-.18-5.27-2.78-.47-.37-.27-.5-.07-.57.16-.57.38-.47.5-.28.56-.07.58.16 5.33 2.81.46.39.26.5.06.57-.18.57-.57.59zm-259.06.35-.75-.2-.57-.58-.18-.58.06-.56.26-.51.46-.39 5.34-2.83.58-.16.57.07.5.27.37.47.17.57-.07.57-.28.5-.46.38-5.28 2.8zm269.46 5.57-.77-.21-5.14-3-.45-.4-.25-.51-.05-.57.19-.57.39-.45.52-.25.56-.05.58.19 5.19 3.04.44.4.25.52.03.57-.2.57-.56.54zm-279.89.41-.72-.19-.56-.54-.2-.57.03-.57.24-.51.44-.41 5.21-3.06.56-.19.57.04.51.25.4.45.19.57-.04.57-.25.51-.45.4-5.15 3.03zm290.02 5.97-.82-.24-5.01-3.23-.43-.42-.23-.52-.02-.57.21-.56.42-.44.52-.22.57-.02.56.21 5.06 3.26.43.43.21.52.01.57-.22.56-.56.5zm-300.16.46-.7-.17-.55-.5-.23-.56v-.57l.22-.53.42-.42 5.07-3.29.56-.21.57.01.52.23.42.43.21.56-.01.57-.23.53-.44.41-5 3.26zm310.01 6.36-.88-.28-4.86-3.45-.42-.43-.2-.53v-.57l.24-.56.44-.41.53-.21.57.01.55.23 4.91 3.49.41.44.19.54-.02.57-.24.54-.55.47zm-319.87.51-.66-.16-.55-.46-.25-.55-.02-.57.19-.53.41-.45 4.91-3.5.55-.24.57-.01.53.2.44.42.24.55.01.57-.21.53-.41.44-4.86 3.47zm329.41 6.74-.48-.08-.45-.24-4.71-3.66-.39-.45-.18-.54.03-.57.26-.54.45-.4.54-.18.57.03.54.26 4.76 3.7.38.46.17.54-.04.57-.27.54-.54.42zm-338.94.55-.64-.14-.53-.42-.28-.54-.04-.57.16-.54.39-.46 4.75-3.72.54-.26.57-.03.54.18.46.39.26.54.03.57-.18.54-.39.45-4.71 3.68-.45.25zm-9.21 7.7-.6-.12-.53-.39-.29-.52-.08-.57.15-.55.36-.48 4.59-3.92.53-.28.56-.06.55.15.47.38.29.53.06.56-.16.55-.38.47-4.53 3.88-.47.28zm366.25 7.48-.55-.1-.49-.31-4.37-4.06-.35-.48-.14-.56.08-.56.31-.52.49-.35.55-.14.56.08.52.31 4.42 4.1.34.49.13.56-.1.56-.32.51-.51.35zm-375.1.62-.58-.11-.51-.35-.32-.51-.09-.56.12-.56.34-.5 4.41-4.11.51-.31.56-.09.56.14.49.35.3.52.09.56-.13.55-.36.49-4.36 4.07-.49.32zm383.61 7.83-.57-.12-.51-.34-4.19-4.25-.33-.5-.11-.56.11-.56.33-.5.5-.34.55-.11.56.11.51.33 4.23 4.29.32.51.1.56-.12.56-.33.49-.5.32zm-392.1.65-.55-.11-.49-.31-.34-.49-.12-.56.1-.56.32-.51 4.22-4.31.5-.33.56-.11.56.11.5.33.33.5.11.56-.11.56-.33.5-4.18 4.26-.51.35zm400.24 8.16-.6-.12-.52-.39-4-4.42-.31-.52-.09-.56.13-.56.35-.48.52-.31.56-.09.56.13.48.35 4.05 4.48.3.52.07.56-.14.56-.36.47-.48.29zm-408.35.67-.52-.09-.47-.28-.36-.48-.15-.55.08-.57.29-.52 4.03-4.49.49-.35.55-.13.57.08.51.31.35.49.13.55-.08.57-.31.51-3.98 4.44-.53.38zm416.1 8.5-.63-.14-.53-.42-3.81-4.6-.29-.53-.06-.57.16-.55.37-.47.52-.28.57-.07.55.16.47.37 3.85 4.65.28.53.04.57-.16.55-.38.46-.46.25zm-423.81.68-.49-.08-.45-.25-.38-.46-.17-.55.05-.57.27-.53 3.83-4.66.47-.37.55-.16.56.06.53.29.37.47.16.55-.06.56-.29.53-3.78 4.61-.54.42zm431.15 8.82-.66-.16-.54-.45-3.6-4.77-.27-.54-.03-.57.18-.54.39-.45.54-.27.57-.03.54.18.45.39 3.64 4.81.25.55.03.57-.19.54-.41.44zm-438.45.68-.88-.29-.41-.44-.19-.54.02-.57.25-.54 3.62-4.82.45-.4.54-.18.57.04.54.26.4.46.18.54-.04.57-.26.53-3.58 4.77-.54.46zm445.37 9.13-.69-.17-.55-.49-3.39-4.92-.24-.55-.01-.57.2-.53.41-.44.55-.24.57-.01.53.2.44.41 3.43 4.97.22.56v.57l-.21.53-.42.43zm-452.24.69-.83-.26-.42-.42-.22-.53v-.57l.23-.56 3.4-4.97.43-.41.53-.2.57.01.55.24.42.43.2.53-.01.57-.24.55-3.36 4.92-.56.5zm458.72 9.43-.72-.19-.56-.53-3.16-5.07-.22-.56.01-.57.23-.52.43-.42.56-.22.57.02.52.22.42.43 3.2 5.13.21.56-.03.57-.24.52-.44.41zm-465.15.67-.78-.22-.44-.41-.24-.51-.02-.57.2-.57 3.18-5.11.41-.43.53-.23.57-.02.56.22.43.42.23.52.01.57-.21.56-3.15 5.06-.56.54zm471.18 9.72-.74-.2-.57-.58-2.94-5.2-.19-.57.04-.56.24-.52.45-.4.57-.19.57.04.51.25.4.45 2.98 5.26.18.57-.06.57-.26.51-.45.38zm-477.16.65-.71-.18-.46-.39-.26-.51-.06-.57.18-.57 2.95-5.25.39-.45.52-.25.56-.04.58.19.45.4.24.51.05.57-.19.57-2.92 5.19-.57.58zm482.73 10.01-.78-.22-.57-.62-2.7-5.33-.17-.57.06-.57.27-.5.47-.38.58-.17.56.07.51.27.37.46 2.74 5.39.16.58-.08.57-.28.49-.48.37zm-488.24.61-.66-.15-.47-.37-.29-.5-.08-.56.16-.58 2.71-5.37.38-.47.5-.27.56-.07.58.17.47.38.27.5.07.56-.17.58-2.68 5.31-.57.62zm-5.03 10.85-.6-.13-.5-.35-.3-.48-.1-.56.12-.59 2.47-5.48.36-.48.49-.29.56-.09.59.13.48.36.29.49.09.56-.13.59-2.45 5.42-.57.66zm-4.56 11.07-.54-.1-.5-.32-.33-.47-.13-.56.1-.59 2.23-5.6.34-.5.47-.32.56-.11.59.11.5.33.32.48.11.56-.11.59-2.21 5.54-.56.7zm-4.07 11.29-.47-.08-.52-.3-.35-.46-.15-.54.07-.6 1.98-5.7.31-.51.47-.34.55-.14.59.09.51.31.34.46.14.55-.09.6-1.96 5.63-.55.75zm-9.14 34.78-.29-.03-.55-.23-.41-.4-.22-.52-.01-.6 1.21-5.91.24-.55.42-.4.53-.21.6.01.54.24.4.41.21.53-.01.6-1.19 5.85-.19.49-.33.38-.44.25zm.73 107.27-.5-.09-.44-.24-.33-.37-.2-.49-1.15-5.92.01-.6.22-.53.41-.4.56-.22.6.01.52.23.4.41.23.55 1.14 5.86v.6l-.21.53-.4.41-.55.23zm2.7 11.69-.92-.31-.33-.35-.21-.47-1.42-5.86-.01-.6.2-.53.39-.42.55-.25.6-.01.53.2.42.39.25.55 1.4 5.79.03.6-.19.54-.38.43-.54.26zm3.21 11.56-.89-.29-.55-.77-1.68-5.8-.04-.6.18-.54.37-.43.54-.28.59-.04.54.18.44.37.27.54 1.66 5.73.06.6-.17.54-.36.44-.53.29zm513.1 22.18-.56-.1-.5-.33-.32-.47-.12-.56.11-.59 2.15-5.57.32-.51.46-.33.56-.13.59.1.51.31.33.47.13.55-.09.6-2.18 5.62-.56.7zm-4.68 11-.62-.13-.49-.35-.29-.49-.1-.56.13-.58 2.39-5.45.34-.49.48-.31.56-.11.59.12.49.34.31.48.11.56-.12.58-2.41 5.51-.57.65zm-5.17 10.79-.67-.16-.47-.37-.28-.5-.07-.57.16-.58 2.62-5.33.37-.48.49-.29.56-.08.59.14.47.36.29.5.09.56-.15.58-2.66 5.4-.57.61zm-485.32.64-.77-.21-.56-.61-2.69-5.42-.15-.58.09-.57.28-.49.48-.36.58-.15.56.08.5.29.36.48 2.66 5.36.16.58-.07.56-.28.5-.47.37zm479.68 9.91-.73-.19-.46-.39-.25-.51-.05-.57.19-.57 2.86-5.22.38-.46.51-.27.56-.06.58.18.46.38.27.5.06.57-.18.58-2.89 5.27-.56.57zm-473.98.67-.75-.19-.56-.57-2.92-5.29-.17-.57.05-.57.27-.51.46-.38.57-.17.57.05.51.27.38.46 2.89 5.23.19.57-.05.57-.25.51-.46.4zm467.88 9.63-.79-.22-.43-.41-.24-.53-.02-.57.21-.56 3.09-5.09.4-.44.52-.24.57-.04.57.2.44.4.25.52.03.57-.2.56-3.12 5.15-.56.52zm-461.73.69-.71-.18-.56-.52-3.15-5.15-.2-.57.03-.57.24-.52.45-.4.56-.2.57.03.52.24.4.45 3.12 5.1.21.56-.02.57-.23.52-.43.41zm455.18 9.34-.84-.26-.42-.43-.21-.53v-.58l.24-.55 3.31-4.95.42-.43.53-.22.57-.01.55.23.43.42.22.52.01.57-.22.56-3.35 5.01-.55.48zm-448.58.7-.68-.17-.55-.48-3.38-5.01-.22-.56.01-.57.22-.52.42-.43.56-.22.57.01.52.22.43.42 3.34 4.96.23.55.01.57-.21.53-.42.43zm441.59 9.03-.9-.3-.39-.45-.19-.54.03-.57.26-.54 3.52-4.8.44-.41.54-.2.57.02.55.24.41.44.19.54-.01.57-.25.55-3.57 4.85-.54.45zm-434.55.7-.66-.15-.54-.44-3.59-4.86-.25-.54-.02-.57.2-.54.41-.44.54-.25.57-.02.54.2.44.41 3.55 4.8.26.54.03.57-.18.54-.4.45zm427.14 8.72-.49-.08-.46-.26-.38-.47-.16-.55.06-.56.28-.53 3.73-4.65.46-.39.55-.17.56.04.54.27.39.46.17.54-.04.57-.27.54-3.78 4.69-.53.41zm-419.69.69-.62-.13-.54-.41-3.79-4.69-.28-.54-.04-.57.17-.54.39-.46.54-.27.56-.04.55.17.46.39 3.76 4.63.28.53.05.57-.16.55-.37.47-.46.26zm411.88 8.4-.53-.1-.48-.29-.35-.48-.14-.55.08-.57.3-.51 3.94-4.48.47-.37.55-.15.57.07.52.29.37.47.15.56-.07.56-.29.53-3.98 4.52-.52.38zm-404.02.67-.6-.12-.52-.37-4-4.52-.29-.52-.07-.57.15-.55.37-.47.52-.3.56-.07.56.15.47.37 3.96 4.47.3.51.08.57-.13.55-.36.48-.48.3zm395.8 8.07-.55-.11-.5-.32-.33-.5-.12-.56.11-.56.32-.5 4.14-4.3.49-.35.55-.13.56.09.52.32.34.49.13.56-.09.56-.32.51-4.18 4.35-.5.34zm-387.56.65-.56-.11-.51-.34-4.19-4.33-.32-.51-.09-.57.12-.55.35-.49.51-.32.56-.09.56.12.49.35 4.15 4.28.33.51.1.56-.11.56-.33.49-.5.33zm378.97 7.72-.58-.12-.51-.36-.32-.51-.09-.56.13-.56.35-.49 4.32-4.11.5-.33.56-.1.56.12.5.33.32.51.1.56-.11.56-.34.49-4.36 4.17-.49.3zm-370.35.62-.54-.1-.48-.3-4.38-4.15-.34-.49-.12-.56.1-.56.33-.51.49-.34.56-.11.56.1.51.32 4.33 4.1.35.49.13.56-.09.56-.31.51-.52.36zm361.4 7.37-.61-.13-.53-.39-.29-.53-.06-.56.15-.55.37-.48 4.49-3.92.52-.31.57-.07.55.14.48.36.3.51.08.57-.14.55-.36.48-4.54 3.97-.47.28zm-352.43.59-.51-.09-.46-.27-4.56-3.95-.36-.48-.14-.55.08-.57.3-.52.48-.36.55-.14.56.07.52.31 4.51 3.9.37.48.15.54-.06.57-.29.53-.53.4zm343.14 7.01-.65-.15-.54-.43-.26-.54-.04-.57.17-.54.39-.46 4.67-3.72.53-.28.57-.05.54.16.47.38.28.53.05.57-.16.55-.38.46-4.72 3.77-.45.24zm-333.84.54-.47-.08-.45-.24-4.72-3.74-.38-.46-.16-.55.05-.57.28-.53.46-.38.54-.17.57.05.54.28 4.66 3.71.39.45.18.54-.04.57-.26.54-.54.43zm324.21 6.64-.67-.16-.55-.47-.24-.55-.02-.57.2-.54.41-.44 4.83-3.51.54-.26.57-.03.54.19.45.4.25.54.03.57-.19.54-.4.45-4.88 3.56zm-314.58.49-.86-.27-4.88-3.54-.41-.44-.19-.54.03-.57.25-.54.45-.41.54-.19.57.03.54.25 4.83 3.5.41.44.2.53-.01.57-.24.55-.56.47zm304.65 6.26-.7-.17-.56-.52-.22-.55.01-.58.22-.52.43-.42 4.98-3.3.55-.24h.57l.53.21.43.42.24.56v.57l-.21.53-.42.43-5.04 3.34zm-294.72.45-.81-.24-5.03-3.32-.42-.43-.21-.52-.01-.57.23-.56.43-.42.53-.21h.57l.56.23 4.97 3.28.43.41.22.53.02.57-.22.56-.56.51zm284.5 5.86-.74-.19-.56-.55-.19-.57.03-.57.25-.52.44-.4 5.13-3.08.56-.2.57.02.52.23.41.44.21.56-.03.57-.23.52-.44.41-5.18 3.12zm-274.29.39-.76-.2-5.17-3.09-.43-.41-.24-.52-.03-.57.21-.56.41-.44.52-.24.57-.02.56.2 5.11 3.06.45.4.25.51.04.57-.2.57-.56.55zm263.79 5.46-.76-.21-.57-.59-.17-.58.06-.56.27-.51.47-.38 5.25-2.85.57-.18.57.05.51.26.39.45.18.57-.05.57-.26.51-.45.39-5.31 2.89zm-253.33.34-.69-.17-5.3-2.86-.45-.39-.26-.51-.05-.56.18-.58.39-.45.51-.26.56-.05.58.18 5.23 2.82.47.38.27.51.06.56-.17.58-.57.6zm242.58 5.04-.79-.22-.57-.63-.14-.59.08-.56.29-.49.48-.36 5.38-2.62.58-.16.57.08.49.28.37.47.16.58-.07.57-.28.49-.48.37-5.43 2.65zm-231.87.29-.63-.14-5.42-2.62-.47-.37-.28-.5-.08-.56.16-.58.37-.48.5-.28.56-.07.58.15 5.35 2.59.48.36.3.49.08.57-.14.58-.57.64zm220.88 4.62-.81-.24-.57-.68-.12-.59.11-.56.31-.48.5-.34 5.49-2.37.59-.13.56.09.48.31.35.48.13.59-.1.56-.3.49-.49.35-5.55 2.4zm-209.95.23-.57-.12-5.53-2.37-.48-.35-.31-.49-.1-.56.13-.58.35-.49.48-.3.56-.11.59.13 5.46 2.35.5.34.31.48.11.56-.11.59-.57.68zm198.76 4.18-.85-.26-.56-.72-.09-.6.13-.55.34-.46.51-.32 5.59-2.13.59-.1.56.12.47.32.33.51.1.59-.13.55-.32.47-.5.33-5.66 2.16zm-187.61.19-.51-.1-5.64-2.13-.51-.33-.32-.47-.13-.56.11-.59.32-.5.47-.33.56-.12.59.1 5.58 2.12.51.31.33.46.14.56-.09.59-.56.72zm176.22 3.72-.87-.28-.56-.77-.06-.59.16-.55.35-.45.52-.29 5.69-1.88.6-.08.55.15.45.34.3.52.08.6-.15.55-.34.45-.52.31-5.75 1.9zm-164.86.15-.45-.07-5.74-1.88-.51-.31-.35-.45-.15-.55.08-.6.3-.52.46-.34.55-.15.59.08 5.67 1.86.53.29.35.45.16.55-.06.59-.56.77zm153.35 3.24-.91-.31-.33-.34-.21-.46-.04-.6.19-.54.37-.43.54-.27 5.74-1.62.59-.05.55.17.44.36.28.53.05.6-.17.55-.36.44-.53.28-5.81 1.64zm-141.84.13-.39-.05-5.81-1.63-.53-.28-.36-.44-.17-.55.05-.59.28-.53.44-.37.54-.17.6.05 5.74 1.61.54.27.37.43.19.54-.04.6-.21.46-.33.34zm130.19 2.74-.5-.09-.43-.23-.33-.37-.2-.48-.01-.6.2-.53.4-.42.54-.24 5.81-1.37.6-.02.54.19.42.39.26.54.02.6-.19.53-.39.43-.54.25-5.87 1.38zm-118.53.11-.33-.04-5.87-1.37-.55-.25-.38-.43-.2-.53.03-.6.25-.54.43-.38.53-.2.6.02 5.81 1.35.55.25.39.41.21.53-.01.6-.2.48-.33.37-.43.24zm106.77 2.24-.52-.09-.44-.25-.33-.39-.19-.51.02-.59.23-.53.41-.39.56-.22 5.86-1.11h.6l.52.23.41.4.23.55v.6l-.22.52-.4.41-.55.23-5.93 1.12zm-95.01.09-.26-.02-5.92-1.11-.56-.23-.4-.41-.22-.52-.01-.6.24-.56.4-.4.53-.22h.6l5.86 1.09.56.22.41.4.23.52.02.6-.19.5-.33.39-.44.26zm83.15 1.74-.53-.09-.45-.28-.33-.4-.18-.53.05-.6.25-.51.43-.38.57-.19 5.9-.85.6.03.51.25.39.41.21.57-.03.59-.24.52-.42.39-.56.21-5.97.85zm-71.29.07-.19-.01-5.97-.85-.57-.21-.42-.38-.24-.52-.03-.6.21-.56.38-.42.52-.24.6-.03 5.9.83.57.19.43.38.26.51.04.6-.17.53-.33.41-.45.27zm59.36 1.24-.55-.11-.46-.28-.32-.43-.16-.55.07-.6.28-.5.44-.36.58-.17 5.93-.58.6.06.51.26.36.44.19.57-.06.6-.26.5-.44.37-.57.18-6 .59zm-47.43.04h-.13l-6-.58-.57-.18-.44-.37-.27-.51-.05-.6.18-.57.37-.43.5-.27.6-.06 5.94.58.57.17.45.35.28.5.07.6-.16.55-.33.43-.46.29zm35.46.74-.57-.11-.46-.31-.33-.45-.13-.56.09-.6.3-.48.46-.34.58-.15 5.96-.32.58.08.5.29.35.45.16.58-.08.59-.29.49-.45.35-.58.16-6.02.33zm-23.49.02h-.06l-6.02-.32-.58-.15-.45-.35-.29-.49-.08-.6.15-.58.36-.45.49-.29.59-.08 5.96.31.58.15.46.34.3.48.09.59-.14.57-.32.46-.47.3zm11.5.24-5.54-.05-.59-.14-.47-.32-.31-.48-.1-.59.12-.58.33-.47.47-.31.58-.11h.03l11.45-.02.58.11.48.31.33.47.14.58-.11.59-.31.48-.46.33-.59.13z"/><path fill="#acc0dc" fill-opacity=".196" d="m703.9 371.34-.25 5.25-.73 5.12-1.22 5.04-1.71 4.96 2.26-.83 2.06-1.11 1.89-1.4 1.68-1.65 1.42-1.85 1.16-2.07.86-2.21.53-2.36.19-2.52-.32-3.24-.86-2.94-1.4-2.71-1.86-2.42-2.22-1.99-2.61-1.61.81 5.15zm-74.48-12.27-1.48 2.5-1.27 2.93-1.03 3.4-.05.22-.34 2.86-.78 2.63-1.23 2.43-1.61 2.2-1.92 1.86-2.25 1.56-2.47 1.16-2.66.71-2.9.26-2.93-.27-2.68-.73-2.5-1.19-2.26-1.6-1.92-1.91-1.6-2.25-1.2-2.49-.74-2.68-.28-2.92v-.24l.24-2.34.2-1.17 1.03-4.93h-8.01l-3.03-.28-2.77-.76-2.58-1.23-2.33-1.65-1.97-1.99-1.65-2.33-1.23-2.58-.76-2.78-.28-3.04.18-2.4.48-2.25.78-2.12 1.07-2 1.29-1.81 1.54-1.62-1.18.47-1.23.09-2.48-.42-2.07-.39-.93.03-.79.29-.76.72-.74 1.35-.69 2.25-1.05 3.68-1.04 2.33-1.29 1.83-1.32 1.13-1.51.77-1.67.55-2.15.76-1.03.64-1.12 1.08-1.02 1.41-1.2 2.25-1.88 3.68-1.64 2.61-1.74 2.23-1.53 1.59-3.02 2.47-2.36 1.9-1.12 1.11-1.18 1.42-1.1 1.73-.91 1.92-1.51 4.18-1.78 4.92-1.16 2.5-1.52 2.59-1.86 2.48-2.47 2.54-1.56 1.44h134.33l3.39-1.27 2.94-1.64 2.52-2.02.02-.02.02-.02 2.32-2.5 1.79-2.76 1.29-3.06.79-3.4.27-3.81-.33-3.7-.78-3.34-1.22-3.01-1.64-2.74zm31.59-66.57h-80.96l-1.37 3.24-.88 3.58-.42 3.87-.1 4.86.57 12.1.08 3.45-.18 2.41-.53 2.07-.76 1.32 2.26-1.51 2.5-1.14 2.68-.71 2.88-.25h33.24l4.85-2.55 5.06-1.99 5.31-1.46 5.59-.92 5.9-.37h.06l6.63.33 6.13.84 5.7 1.31 5.3 1.77 2.01-1.67 1.71-1.94 1.41-2.22 1.05-2.4.64-2.58.24-2.8-.28-3.04-.76-2.78-1.23-2.58-1.65-2.33-1.97-1.98-2.33-1.66-2.58-1.23-2.77-.76zM285.6 458.93h29.9l-2.77-5.69-2.18-5.71-1.62-5.75-7.39 3.37-5.16 2.72-4.39 2.74-2.72 2.12-2.1 2.13-1.02 1.54-.53 1.5zm84.42-166.43-2.79.23-2.6.67-2.44 1.06-2.21 1.43-.58.71-.26.89.09 1.17.58 1.83 1.09 2.15 2.81 4.14 2.63 3.25 1.17 1.31 36.22-13.03 75.58 27.19h38.5l2.55.22 2.37.59 2.23.98 2.06 1.3 1.83 1.6 1.63 1.89 1.34 2.11 1.05 2.31.74 2.53 2.08-5.13.68-5.52.14-4.34-.3-3.37-.62-2.58-.88-1.96-1-2.03-.69-2.1-.38-2.18-.05-2.21.26-2.11.6-2.03.97-1.97 1.77-2.24 1.48-1.28 2.01-1.18 2.65-1.06 2-.83 1.64-1.08 1.34-1.33zm130.21 68v31.86h6.1l6.32-10.41 6.17-11.18 6.02-12.02-2.2.95-2.33.58-2.5.22z"/><path fill="#acc0dc" fill-opacity=".196" d="M288.92 492.21h-20.47l-3.03-.28-2.78-.76-2.57-1.23-2.33-1.65-1.98-1.98-1.65-2.34-1.23-2.58-.75-2.78-.28-3.04.28-3.04.75-2.78 1.23-2.58 1.65-2.33 1.98-1.99 2.33-1.65 2.57-1.23 2.78-.76 3.03-.28h10.23l.8-2.16 1.55-2.33 2.47-2.54 3.66-2.82 5.08-3.08 6.91-3.44 9.14-3.81-.79-5.75-.27-5.81v-68.12H265.5l-3.03.28-2.78.76-2.57 1.23-2.33 1.66-1.98 1.98-1.65 2.33-1.23 2.58-.75 2.79-.28 3.03.28 3.04.75 2.79 1.23 2.57 1.65 2.34 1.98 1.98 2.33 1.65 2.57 1.24 2.78.75 3.03.29h19.94l3.03.28 2.78.76 2.57 1.23 2.33 1.65 1.97 1.98 1.66 2.34 1.22 2.58.76 2.78.28 3.04-.28 3.04-.76 2.78-1.22 2.58-1.66 2.34-1.97 1.98-2.33 1.65-2.57 1.23-2.78.76-3.03.28h-57.05v5.68h9.14l2.64.25 2.42.66 2.25 1.08 2.04 1.44 1.73 1.73 1.44 2.03 1.08 2.25.66 2.41.25 2.64-.25 2.63-.66 2.42-1.08 2.25-1.44 2.03-1.73 1.73-2.04 1.44-2.25 1.08-2.42.66-2.64.25h-9.14v21.03l-.29 3.12-.79 2.87-1.28 2.66-1.71 2.41-2.05 2.05-2.42 1.71-2.66 1.27-2.87.79-3.13.29-2.69-.22-2.52-.59-2.36-.96-2.19-1.3-1.95-1.57-1.72-1.86-2.52.21H91.04l-3.03.29-2.78.76-2.57 1.23-2.33 1.65-1.97 1.98-1.65 2.34-1.23 2.57-.76 2.79-.28 3.04.28 3.03.76 2.79 1.23 2.58 1.65 2.33 1.97 1.98 2.33 1.66 2.57 1.23 2.78.76 3.03.28h197.88l3.03-.28 2.77-.76 2.58-1.23 2.33-1.66 1.97-1.98 1.65-2.33 1.23-2.58.76-2.79.28-3.03-.28-3.04-.76-2.79-1.23-2.57-1.65-2.34-1.97-1.98-2.33-1.65-2.58-1.23-2.77-.76z"/><path fill="#a3b1bf" fill-rule="evenodd" d="m309.69 438.21 1.1 2.79-1.87.78 1.67 5.89 2.25 5.84 2.86 5.81 3.49 5.8 4.17 5.81 1.34 1.67 4.44.6-3.42-4.12-3.69-5.1-3.14-5.09-2.63-5.1-2.14-5.12-1.71-5.31-1.21-5.34-.72-5.38-.25-5.45v-92.05l19.06-6.86-2.01-2.47-20.05 7.22v94.16l.27 5.81.79 5.75zm59.36-124.23 34.68-12.48 93.5 33.64v70.56l3-4.21v-68.46l-96.5-34.72-34.7 12.48.07 1.74zm128.16 114.15-.39 5.99-.97 5.9-1.55 5.84-2.16 5.81-2.78 5.79-3.46 5.8-4.16 5.82-4.62 5.47-5.29 5.45-6.03 5.42-6.82 5.41-7.67 5.39-7.88 4.93-7.38 4.17-7.24 3.73-6.12 2.91-9.61 4.1-4.05 1.54-5.3 1.86-5.3-1.86-4.05-1.54-9.61-4.1-6.12-2.91-7.23-3.73-7.39-4.17-7.88-4.93-7.25-5.08-6.52-5.12-3.48-.54-2.17-.37 5.38 4.57 5.91 4.54 6.48 4.5 7.98 5 7.5 4.24 7.35 3.78 6.22 2.95 9.77 4.18 4.11 1.56 6.3 2.21 6.3-2.21 4.11-1.56 9.78-4.18 6.21-2.95 7.35-3.78 7.5-4.24 7.98-5 7.83-5.5 6.97-5.53 6.17-5.55 5.43-5.59 4.74-5.62 3.85-5.31 3.27-5.31 2.74-5.32 2.22-5.34 1.78-5.55 1.26-5.58.76-5.63.25-5.7v-3.15z"/><path fill="#a0c8ff" fill-opacity=".151" d="m457.61 463-7.34 4.34-8.57 4.44-5.96 2.72-6.46 2.63-7.01 2.51-7.1 2.19-7.61 1.93-8.13 1.68-8.2 1.26-8.7.87-9.25.45 6.03 3.37 5.49 2.84 9.67 4.52 6.69 2.78 2.57.97.02-.01 3.43-1.3 8.81-3.77 5.66-2.68 6.71-3.45 6.84-3.86 7.28-4.55 6.83-4.79 6.02-4.76 5.27-4.72 4.58-4.7 3.94-4.67 3.13-4.34 2.61-4.3-5.2 4.1-5.74 4.13z"/><path fill="#f3f8ff" fill-rule="evenodd" d="m403.43 396.86-25.49-25.36-13.71 13.64 25.5 25.36-25.5 25.36 13.71 13.64 25.49-25.36 25.5 25.36 13.7-13.64-25.49-25.36 25.49-25.36-13.7-13.64Z"/><path fill="#a0c8ff" fill-opacity=".151" d="m444.75 433.74 2.14 2.12-2.14 2.13-13.71 13.64-2.11 2.1-2.12-2.1-23.38-23.26-23.38 23.26-2.11 2.1-2.12-2.1-13.7-13.64-2.14-2.13 2.14-2.12 23.35-23.24-23.35-23.24-2.14-2.12 2.14-2.13 13.7-13.64 2.12-2.1 2.11 2.1 23.38 23.26 23.38-23.26 2.12-2.1 2.11 2.1 13.71 13.64 2.14 2.13-2.14 2.12-23.36 23.24zM403.73 318.5l-77.5 27.88v80.81l.24 4.57.71 4.55 1.18 4.53 1.68 4.54 2.2 4.57 2.75 4.61 3.35 4.68 3.43 4.1 3.93 4.13 4.46 4.16 5.03 4.19 10.08.34 9.76-.2 9.48-.75 9.2-1.27 8.96-1.78 8.73-2.29 8.63-2.86 8.4-3.37 8.18-3.89 7.99-4.44 7.8-4.98 7.62-5.56 7.18-5.91 7.07-6.51 6.96-7.14v-78.83z"/><path fill="#a3b1bf" fill-rule="evenodd" d="m442.64 435.86-13.71 13.64-25.5-25.36-25.49 25.36-13.71-13.64 25.5-25.36-25.5-25.36 13.71-13.64 25.49 25.36 25.5-25.36 13.71 13.64-25.5 25.36ZM105.04 579.5l.98.2.79.53.53.79.2.98v10l-.2.98-.53.79-.79.53-.98.2-.98-.2-.79-.53-.53-.79-.2-.98v-10l.2-.98.53-.79.79-.53zM94.54 569l.98.2.79.53.53.79.2.98-.2.98-.53.79-.79.53-.98.2h-10l-.98-.2-.79-.53-.53-.79-.2-.98.2-.98.53-.79.79-.53.98-.2zm31 0 .98.2.79.53.53.79.2.98-.2.98-.53.79-.79.53-.98.2h-10l-.98-.2-.79-.53-.53-.79-.2-.98.2-.98.53-.79.79-.53.98-.2zm-20.5-20.5.98.2.79.53.53.79.2.98v10l-.2.98-.53.79-.79.53-.98.2-.98-.2-.79-.53-.53-.79-.2-.98v-10l.2-.98.53-.79.79-.53zm216-361 .98.2.79.53.53.79.2.98v10l-.2.98-.53.79-.79.53-.98.2-.98-.2-.79-.53-.53-.79-.2-.98v-10l.2-.98.53-.79.79-.53zm-10.5-10.5.98.2.79.53.53.79.2.98-.2.98-.53.79-.79.53-.98.2h-10l-.98-.2-.79-.53-.53-.79-.2-.98.2-.98.53-.79.79-.53.98-.2zm31 0 .98.2.79.53.53.79.2.98-.2.98-.53.79-.79.53-.98.2h-10l-.98-.2-.79-.53-.53-.79-.2-.98.2-.98.53-.79.79-.53.98-.2zm-20.5-20.5.98.2.79.53.53.79.2.98v10l-.2.98-.53.79-.79.53-.98.2-.98-.2-.79-.53-.53-.79-.2-.98v-10l.2-.98.53-.79.79-.53zm385.65 484.44.98.2.79.53.53.79.2.98v10l-.2.98-.53.79-.79.53-.98.2-.98-.2-.78-.53-.54-.79-.2-.98v-10l.2-.98.54-.79.78-.53zm-10.5-10.5.98.2.79.53.53.79.2.98-.2.98-.53.79-.79.53-.98.2h-10l-.98-.2-.78-.53-.54-.79-.2-.98.2-.98.54-.79.78-.53.98-.2zm31 0 .98.2.79.53.53.79.2.98-.2.98-.53.79-.79.53-.98.2h-10l-.98-.2-.78-.53-.54-.79-.2-.98.2-.98.54-.79.78-.53.98-.2zm-20.5-20.5.98.2.79.53.53.79.2.98v10l-.2.98-.53.79-.79.53-.98.2-.98-.2-.78-.53-.54-.79-.2-.98v-10l.2-.98.54-.79.78-.53z"/><path fill="#a0c8ff" fill-opacity=".151" d="m102.64 147.7-3.02.18-2.73.55-2.47.88-2.63 5.61-15.9 36.85 3.48-.29 3.28-.09 5.61.3 5.03.87 4.52 1.39 4.07 1.9 3.68 2.39 3.33 2.92 3 3.47 3 3.52 3.36 3.04 3.75 2.6 4.16 2.17 4.63 1.74 5.16 1.29 5.74.81 6.41.28h.1l18.41-41.1-4.59.14-5.61-.25-4.89-.73-4.26-1.15-3.7-1.52-3.22-1.88-2.79-2.24-2.4-2.61-2.03-3.01-2.47-3.68-2.82-3.25-3.19-2.87-3.5-2.49-3.61-2.03-3.74-1.6-3.88-1.18-3.7-.7zm0 6 2.78.18 2.98.56 3.21.96 3.08 1.3 3.02 1.67 2.97 2.07 2.71 2.39 2.41 2.75 2.12 3.14 2.27 3.41 2.61 2.99 2.97 2.59 3.35 2.22 3.78 1.85 4.26 1.47 4.79 1.07 5.41.65-13 29.01-4.75-.45-4.26-.79-3.84-1.1-3.45-1.39-3.3-1.8-2.99-2.13-2.68-2.46-2.41-2.83-2.91-3.46-3.17-2.99-3.43-2.56-3.72-2.14-4.02-1.74-4.37-1.33-4.76-.91-5.19-.46 7.01-16.29 4.32-9.92 2.27-5.08 1.84-.33z"/><path fill="#a3b1bf" fill-rule="evenodd" d="m102.64 147.7-3.02.18-2.73.55-2.47.88-2.63 5.61-15.9 36.85 3.48-.29 3.28-.09 5.61.3 5.03.87 4.52 1.39 4.07 1.9 3.68 2.39 3.33 2.92 3 3.47 3 3.52 3.36 3.04 3.75 2.6 4.16 2.17 4.63 1.74 5.16 1.29 5.74.81 6.41.28h.1l18.41-41.1-4.59.14-5.61-.25-4.89-.73-4.26-1.15-3.7-1.52-3.22-1.88-2.79-2.24-2.4-2.61-2.03-3.01-2.47-3.68-2.82-3.25-3.19-2.87-3.5-2.49-3.61-2.03-3.74-1.6-3.88-1.18-3.7-.7zm0 3 3.07.2 3.29.61 3.54 1.06 3.41 1.43 3.33 1.84 3.27 2.28 2.98 2.63 2.66 3.02 2.33 3.45 2.27 3.36 2.66 2.9 3.07 2.49 3.51 2.09 4.02 1.69 4.6 1.26 5.26.82 6.01.29-15.66 34.94-5.51-.37-4.94-.77-4.43-1.15-3.98-1.51-3.81-1.99-3.44-2.39-3.1-2.8-2.76-3.25-2.85-3.35-3.12-2.88-3.39-2.43-3.7-2.02-4.03-1.59-4.41-1.18-4.83-.73-5.31-.26-2.08.04 7.06-16.45 4.71-10.86 2.82-6.39 1.4-3.06 2.78-.71z"/><path fill="#a3b1bf" fill-rule="evenodd" d="m99.23 141.06-.78-.17-.75.13-.64.41-.47.65-43.82 98.41 3.68 1.58 43.8-98.36.17-.79-.13-.75-.41-.64z"/><path fill="#a0c8ff" fill-opacity=".151" d="m346.07 292.5-3.66.34-3.35.91-3.1 1.48-2.81 1.99-2.38 2.39-1.99 2.81-1.48 3.1-.92 3.35-.34 3.66.34 3.65.92 3.35 1.48 3.11 1.99 2.81 2.38 2.38 2.81 1.99 3.1 1.48 3.35.92 3.66.34 3.66-.34 3.35-.92 3.1-1.48 2.81-1.99 2.38-2.38 1.99-2.81 1.49-3.11.91-3.35.34-3.65-.34-3.66-.91-3.35-1.49-3.1-1.99-2.81-2.38-2.39-2.81-1.99-3.1-1.48-3.35-.91zm0 6 2.56.24 2.34.64 2.18 1.04 1.96 1.39 1.68 1.67 1.39 1.97 1.04 2.18.64 2.34.24 2.56-.24 2.55-.64 2.35-1.04 2.17-1.39 1.97-1.68 1.67-1.96 1.4-2.18 1.04-2.34.64-2.56.24-2.56-.24-2.34-.64-2.17-1.04-1.97-1.4-1.67-1.67-1.4-1.97-1.04-2.17-.64-2.35-.24-2.55.24-2.56.64-2.34 1.04-2.18 1.4-1.97 1.67-1.67 1.97-1.39 2.17-1.04 2.34-.64z"/><path fill="#a3b1bf" fill-rule="evenodd" d="m346.07 289.5-3.16.22-2.97.61-2.82.98-2.68 1.35-2.43 1.64-2.22 1.95-1.95 2.22-1.64 2.43-1.34 2.67-.99 2.82-.61 2.98-.22 3.16.22 3.16.61 2.97.99 2.82 1.34 2.68 1.64 2.43 1.95 2.22 2.22 1.95 2.43 1.64 2.68 1.35 2.82.98 2.97.61 3.16.22 3.16-.22 2.97-.61 2.83-.98 2.67-1.35 2.43-1.64 2.22-1.95 1.95-2.22 1.64-2.43 1.35-2.68.98-2.82.61-2.97.22-3.16-.22-3.16-.61-2.98-.98-2.82-1.35-2.67-1.64-2.43-1.95-2.22-2.22-1.95-2.43-1.64-2.67-1.35-2.83-.98-2.97-.61zm0 3 3.66.34 3.35.91 3.1 1.48 2.81 1.99 2.38 2.39 1.99 2.81 1.49 3.1.91 3.35.34 3.66-.34 3.65-.91 3.35-1.49 3.11-1.99 2.81-2.38 2.38-2.81 1.99-3.1 1.48-3.35.92-3.66.34-3.66-.34-3.35-.92-3.1-1.48-2.81-1.99-2.38-2.38-1.99-2.81-1.48-3.11-.92-3.35-.34-3.65.34-3.66.92-3.35 1.48-3.1 1.99-2.81 2.38-2.39 2.81-1.99 3.1-1.48 3.35-.91zm-202.03 139 50-55v55zm67.15-109-.39.02-.71-.02-2.95.3-2.86.89-1.78.92-1.65 1.18-1.53 1.46-.26.28-1.17 1.28-2.45 2.71h-40.25l-2.3.31-2.03.86-1.74 1.35-1.35 1.74-.87 2.03-.31 2.29.31 2.29.87 2.04 1.35 1.73 1.74 1.35 2.03.86 2.3.32h18.28l2.29.31 2.04.86 1.74 1.35 1.35 1.74.86 2.03.32 2.29-.32 2.29-.86 2.04-1.35 1.73-1.74 1.35-2.04.86-2.29.32h-9.18l-.02.02-.48-.02h-40.85l-2.3.31-2.03.86-1.74 1.35-1.35 1.74-.87 2.03-.31 2.29.31 2.29.87 2.04 1.35 1.74 1.74 1.34 2.03.86 2.3.32h25.78l-47.94 52.85-1.59 2.11-1.13 2.24-.71 2.39-.3 2.47.12 2.44.54 2.44.95 2.3 1.35 2.12 1.79 1.95 2.48 1.79 2.62 1.19 2.81.63 1.53.25 1.58.1h81.17v21.03l.29 3.12.79 2.87 1.28 2.66 1.71 2.41 2.05 2.05 2.42 1.71 2.66 1.27 2.87.79 3.13.29 3.13-.29 2.87-.79 2.66-1.27 2.42-1.71 2.05-2.05 1.71-2.41 1.28-2.66.79-2.87.29-3.12V460.3h9.14l2.64-.25 2.42-.66 2.25-1.08 2.04-1.44 1.73-1.73 1.44-2.03 1.08-2.25.66-2.42.25-2.63-.25-2.64-.66-2.41-1.08-2.25-1.44-2.03-1.73-1.73-2.04-1.44-2.25-1.08-2.42-.66-2.64-.25h-9.14v-91.65l-.29-3.12-.79-2.87-1.28-2.66-1.71-2.41-2.05-2.05-2.42-1.71-2.66-1.27-2.87-.79zm-73.93 112h59.78v-65.76l-5.22 5.74-50 55zm73.97-109 2.58.25 2.37.65 2.19 1.05 1.99 1.41 1.69 1.69 1.41 1.98 1.04 2.2.65 2.36.24 2.58v94.65h12.14l2.1.2 1.92.52 1.79.85 1.61 1.14 1.37 1.37 1.15 1.61.85 1.78.53 1.92.19 2.1-.19 2.09-.53 1.92-.85 1.78-1.15 1.61-1.37 1.37-1.61 1.15-1.79.85-1.92.52-2.1.2h-12.14v24.03l-.24 2.58-.65 2.37-1.05 2.2-1.41 1.98-1.69 1.69-2 1.41-2.2 1.05-2.37.65-2.59.24-2.59-.24-2.37-.65-2.2-1.05-2-1.41-1.69-1.69-1.41-1.98-1.05-2.2-.65-2.37-.24-2.58V457.3h-84.17l-2.46-.28-.14-.03-.14-.02-2.31-.53-2.07-.94-1.89-1.39-1.53-1.68-1.14-1.9-.75-2.1-.33-2.26.1-2.28.54-2.17.95-2.01 1.35-1.82 47.94-52.85 4.55-5.01h-32.55l-1.52-.22-1.3-.54-1.14-.88-.88-1.13-.55-1.3-.21-1.52.21-1.51.55-1.3.88-1.14 1.14-.88 1.3-.54 1.52-.21h40.97l.22.02 1.38.04.06-.06h7.9l2.11-.2 1.94-.53 1.8-.86 1.62-1.15 1.39-1.38 1.15-1.63.86-1.79.53-1.94.2-2.11-.2-2.11-.53-1.94-.86-1.79-1.15-1.63-1.39-1.38-1.62-1.15-1.8-.86-1.94-.53-2.11-.19h-18.28l-1.52-.22-1.3-.54-1.14-.88-.88-1.13-.54-1.3-.22-1.52.22-1.51.54-1.3.88-1.14 1.14-.88 1.3-.54 1.52-.21h41.58l.9-.99 2.44-2.7.05-.05.05-.06.97-1.07.05-.05.05-.06.26-.28 1.79-1.6 2.07-1.18 2.27-.73 2.42-.25.57.02h.19z"/><path fill="#a0c8ff" fill-opacity=".151" d="m216.37 332.5 2.42.33 2.13.9 1.82 1.41 1.41 1.82.9 2.13.32 2.41v81l-.32 2.41-.9 2.13-1.41 1.82-1.82 1.41-2.13.9-2.42.33-2.41-.33-2.13-.9-1.82-1.41-1.41-1.82-.9-2.13-.33-2.41v-81l.33-2.41.9-2.13 1.41-1.82 1.82-1.41 2.13-.9z"/><path fill="#a3b1bf" fill-rule="evenodd" d="m44.04 238-4.32.3-4.08.83-3.86 1.35-3.66 1.83-3.32 2.25-3.03 2.67-2.67 3.02-2.24 3.33-1.84 3.66-1.35 3.86-.83 4.07-.3 4.33.3 4.33.83 4.07 1.35 3.86 1.84 3.66 2.24 3.33 2.67 3.02 3.03 2.67 3.32 2.25 3.66 1.83 3.86 1.35 4.08.83 4.32.3 4.33-.3 4.07-.83 3.86-1.35 3.66-1.83 3.33-2.25 3.03-2.67 2.66-3.02 2.25-3.33 1.84-3.66 1.34-3.86.83-4.07.3-4.33-.3-4.33-.83-4.07-1.34-3.86-1.84-3.66-2.25-3.33-2.66-3.02-3.03-2.67-3.33-2.25-3.66-1.83-3.86-1.35-4.07-.83zm0 3 3.91.27 3.68.75 3.5 1.22 3.3 1.67 3.01 2.03 2.75 2.42 2.41 2.74 2.03 3.01 1.67 3.31 1.22 3.49.75 3.68.27 3.91-.27 3.91-.75 3.68-1.22 3.49-1.67 3.31-2.03 3.01-2.41 2.74-2.75 2.42-3.01 2.03-3.3 1.67-3.5 1.22-3.68.75-3.91.27-3.91-.27-3.68-.75-3.49-1.22-3.31-1.67-3.01-2.03-2.74-2.42-2.42-2.74-2.03-3.01-1.66-3.31-1.23-3.49-.75-3.68-.27-3.91.27-3.91.75-3.68 1.23-3.49 1.66-3.31 2.03-3.01 2.42-2.74 2.74-2.42 3.01-2.03 3.31-1.67 3.49-1.22 3.68-.75z"/><path fill="#a0c8ff" fill-opacity=".151" d="m44.04 292.5 3.19-.23 2.97-.6 2.8-.97 2.65-1.34 2.47-1.67 2.19-1.93 1.92-2.18 1.67-2.47 1.34-2.65.97-2.8.6-2.98.23-3.18-.23-3.18-.6-2.98-.97-2.8-1.34-2.65-1.67-2.47-1.92-2.18-2.19-1.93-2.47-1.67L53 248.3l-2.8-.97-2.97-.6-3.19-.23-3.18.23-2.98.6-2.8.97-2.65 1.34-2.47 1.67-2.18 1.93-1.93 2.18-1.67 2.47-1.34 2.65-.96 2.8-.61 2.98-.23 3.18.23 3.18.61 2.98.96 2.8 1.34 2.65 1.67 2.47 1.93 2.18 2.18 1.93 2.47 1.67 2.65 1.34 2.8.97 2.98.6z"/><path fill="#a3b1bf" fill-rule="evenodd" d="m26.05 243.9-2.58 2.06-5.34-1.46-4.35-.8-3.51-.26-2.71.18-1.94.53-1.36.8-.92 1.05-.43 1.17-.07 1.38.32 1.65.85 2.03 1.47 2.46 2.17 2.85 3.01 3.3 5.05 4.69 6.5 5.2 7.12 4.97 8.21 5.06 8.48 4.58 7.88 3.68 7.74 3.04 6.59 2.02 4.37.96 3.55.45 2.87.05 2.17-.29 1.6-.54 1.15-.76.81-.95.44-1.25.04-1.5-.45-1.85-.78-1.78-1.22-2.05-1.74-2.37-3-3.41-4-3.86v-3.7l5.02 4.8 3.79 4.33 2.18 3.02 1.52 2.66.97 2.34.53 2.42-.09 2-.62 1.7-.98 1.21-1.35.99-1.8.75-2.38.48-3.19.15-3.9-.28-4.74-.82-4.63-1.18-5.15-1.64-5.69-2.16-5.57-2.43-5.82-2.87-6.1-3.34-5.94-3.61-5.4-3.61-4.88-3.6-4.73-3.86-3.99-3.63-3.33-3.43-3.09-3.69-2.19-3.23-1.46-2.84-.77-2.3-.26-1.94.18-1.66.56-1.46 1.11-1.35 1.61-1.05 2.22-.75 2.37-.36 2.88-.06 3.49.28 5.32.96zm620.71 74.6h-.03l-5.96.37-5.63.93-5.34 1.48-5.08 2.02-4.86 2.57-4.66 3.14-4.47 3.74-3.82 3.86-3.33 4.04-2.85 4.22-2.39 4.43-1.96 4.64-1.53 4.9-1.09 5.16-.2 1.17-.24 2.34v.24l.28 2.92.74 2.68 1.2 2.49 1.6 2.25 1.92 1.91 2.26 1.6 2.5 1.19 2.68.73 2.93.27 2.9-.26 2.66-.71 2.47-1.16 2.25-1.56 1.92-1.86 1.61-2.2 1.23-2.43.78-2.63.34-2.86.05-.22 1.14-3.72 1.43-3.16 1.71-2.68 1.97-2.26 2.25-1.86.03-.03.03-.02 3.18-2.02 3.29-1.42 3.43-.85 3.64-.28 4.24.34 3.77.82 3.37 1.27 3.02 1.7 2.72 2.15 2.34 2.61 1.83 2.86 1.35 3.15.86 3.48.35 3.88-.27 3.81-.79 3.4-1.29 3.06-1.79 2.76-2.32 2.5-.02.02-.02.02-2.7 2.14-3.15 1.72-3.68 1.28-4.29.82-5.01.3h-9.13l-.29.01-2.53.32-2.31.69-2.12 1.07-1.91 1.41-1.62 1.67-1.34 1.96-1 2.14-.61 2.32-.23 2.53.24 2.57.65 2.36 1.05 2.18 1.4 1.99 1.69 1.68 1.98 1.4 2.19 1.05 2.36.64 2.58.24.37-.01h11.13l4.29.31 3.85.81 3.47 1.27 3.14 1.73 2.86 2.2 2.1 2.2 1.75 2.5 1.41 2.82 1.06 3.19.69 3.61.3 4.1-.29 4-.7 3.52-1.05 3.11-1.4 2.74-1.75 2.42-2.1 2.14-.05.04-.04.04-2.95 2.43-3.18 1.87-3.44 1.35-3.76.81-4.12.28-3.96-.22-3.46-.63-3.02-1-2.65-1.36-2.32-1.71-2.73-2.62-2.42-3.02-2.13-3.45-1.84-3.93-.85-2.96-1.32-4.54-1.03-2.39-1.42-2.33-1.18-1.4-1.44-1.24-1.75-1.09-1.9-.79-2.32-.53-2.84-.23-2.97.27-2.73.74-2.52 1.2-2.28 1.62-1.94 1.93-1.62 2.28-1.2 2.51-.74 2.71-.28 2.96.26 2.85v.01l.02.1.15.69 1.62 6.5 2.03 5.89 2.43 5.34 2.82 4.85 3.2 4.39 3.59 3.96 4 3.55 4.5 3.26 4.65 2.72 4.79 2.22 4.97 1.72 5.17 1.25 5.38.76 5.65.26 6.49-.33 6.07-.82 5.67-1.29 5.31-1.73 4.99-2.17 4.69-2.62 4.43-3.07 4.16-3.53 3.47-3.44h33.49l2.41-.33 2.13-.9 1.82-1.41 1.41-1.82.91-2.13.32-2.41-.32-2.41-.91-2.13-1.41-1.82-1.82-1.41-2.13-.9-2.41-.33h-28l-2.41-.33-2.13-.9-1.82-1.41-1.41-1.82-.9-2.13-.33-2.41.33-2.41.9-2.13 1.41-1.82 1.82-1.41 2.13-.9 2.41-.33h50l2.41-.33 2.13-.9 1.82-1.41 1.41-1.82.91-2.13.32-2.41-.32-2.41-.91-2.13-1.41-1.82-1.82-1.41-2.13-.9-2.41-.33h-44.72l-1.15-3.03-1.34-2.99-.01-.03-.02-.02-2.57-4.32-3.17-4.09-3.83-3.88-4.53-3.69 4.4-3.69 3.61-3.78 2.89-3.89 2.24-4.01.03-.08.04-.08 1.74-5.01 1.25-5.09.75-5.18.25-5.29-.39-6-.98-5.68-1.56-5.42-2.14-5.18-2.74-4.97-3.36-4.79-4.02-4.64-3.99-3.66-4.3-3.17-4.61-2.72-4.96-2.26-5.33-1.81-5.77-1.34-6.22-.86-6.74-.35zm0 3 6.44.32 5.94.81 5.48 1.27 5.07 1.71 4.7 2.14 4.36 2.56 4.04 2.99 3.76 3.45 3.81 4.38 3.18 4.53 2.59 4.7 2.02 4.88 1.47 5.1.92 5.36.36 5.65-.23 5-.71 4.9-1.18 4.81-1.66 4.74-1.92 3.5-2.48 3.4-3.09 3.33-3.75 3.27-4.49 3.2 4.55 3.13 3.9 3.29 3.3 3.45 2.75 3.62 2.24 3.8 1.68 3.84 1.32 3.87h46.91l1.63.23 1.4.58 1.21.95.95 1.21.58 1.4.23 1.63-.23 1.63-.58 1.4-.95 1.21-1.21.95-1.4.58-1.63.23h-50l-2.19.2-2.01.55-1.85.89-1.69 1.19-1.43 1.43-1.19 1.68-.89 1.86-.54 2.01-.21 2.19.21 2.19.54 2.01.89 1.86 1.19 1.68 1.43 1.43 1.69 1.19 1.85.89 2.01.55 2.19.2h28l1.63.23 1.4.58 1.21.95.95 1.21.58 1.4.23 1.63-.23 1.63-.58 1.4-.95 1.21-1.21.95-1.4.58-1.63.23H691.2l-1.99 2.16-2.16 2.07-3.95 3.36-4.19 2.91-4.46 2.49-4.74 2.07-5.06 1.64-5.4 1.22-5.78.77-6.2.31-5.35-.24-5.11-.72-4.89-1.17-4.7-1.64-4.54-2.1-4.39-2.58-4.26-3.08-3.78-3.36-3.39-3.74-3.03-4.16-2.66-4.6-2.31-5.09-1.93-5.62-1.53-6.21-.13-.59v-.02l-.23-2.4.23-2.41.6-2.21.98-2.05 1.32-1.86 1.57-1.57 1.86-1.32 2.06-.98 2.21-.6 2.42-.22 2.79.27 2.17.61 1.68.91 1.48 1.23 1.19 1.41.92 1.58 1.05 2.56.75 2.56 1.26 4.49 2 4.28 2.33 3.75 2.64 3.29 2.98 2.85 2.68 1.97 3.03 1.56 3.41 1.14 3.87.72 4.38.26 3.86-.22 3.56-.65 3.32-1.05 3.11-1.46 2.92-1.87 2.75-2.32 2.41-2.46 1.99-2.76 1.59-3.1 1.2-3.49.79-3.93.33-4.44-.33-4.52-.79-4.01-1.2-3.57-1.59-3.19-2-2.84-2.4-2.53-3.21-2.46-3.52-1.93-3.86-1.43-4.27-.9-4.73-.36h-11.2l-.32.01-2.03-.19-1.87-.5-1.72-.83-1.56-1.1-1.33-1.32-1.11-1.56-.82-1.73-.51-1.86-.19-2.02.18-1.99.49-1.82.79-1.69 1.06-1.54 1.28-1.32 1.5-1.11 1.67-.84 1.8-.55 1.97-.25.29-.01h9.06l4.62-.23 4.09-.65 3.62-1.02 3.21-1.39 2.84-1.72 2.52-2.08 2.27-2.39 1.83-2.59 1.43-2.79 1.04-3.04.64-3.32.22-3.65-.3-3.67-.7-3.37-1.09-3.1-1.46-2.87-1.86-2.65-2.27-2.47-3.08-2.43-3.4-1.92-3.77-1.43-4.2-.92-4.69-.39-3.32.21-3.18.62-3.04 1.02-2.95 1.44-2.87 1.88-2.59 2.15-2.25 2.57-1.94 3.02-1.63 3.55-1.28 4.14-.13.54-.23 2.38-.61 2.19-.97 2.02-1.31 1.83-1.57 1.56-1.85 1.29-2.03.97-2.2.59-2.39.22-2.39-.22-2.19-.59-2.03-.97-1.84-1.29-1.56-1.56-1.3-1.83-.97-2.02-.6-2.19-.23-2.38.38-3.15 1.02-4.9 1.43-4.63 1.85-4.41 2.27-4.2 2.71-4.01 3.15-3.83 3.64-3.66 4.22-3.54 4.39-2.97 4.59-2.42 4.8-1.91 5.04-1.39 5.32-.88z"/><path fill="#a0c8ff" fill-opacity=".151" d="m562.66 237.27-3.61.2-2.82.47-2.18.7-2.04 1.02-1.62 1.17-1.25 1.32-1.51 2.29-1.11 2.51-1.74 5.24-.99 2.53-1.27 2.28-1.66 2.15-1.74 1.96-3.13 3.58-1.08 1.74-.48 1.59.04 1.04.41 1.09.87 1.2 1.12 1.02 1.77 1.2 2.62 1.38 3.19 1.84 2.37 1.91 1.71 1.99 1.29 2.27.72 2.2.2 2.16-.28 2.16-.71 1.99-1.17 1.85-1.53 1.58-1.91 1.28-2.37.99-2.37.94-1.87 1.12-1.45 1.27-1.2 1.51-.88 1.6-.57 1.68-.36 2.65.19 2.64.68 2.54 1.06 2.25.98 2.14.69 2.8.33 3.6-.13 4.6-.73 5.79-6.03 14.42-6.21 13.41-6.38 12.45-6.53 11.53-6.69 10.67-6.84 9.85-6.97 9.07-7.11 8.33-7.25 7.64-7.39 6.97-7.53 6.33-7.69 5.72-7.84 5.14-8.02 4.57-8.19 4.02-8.39 3.49-8.6 2.95-8.83 2.43-9.08 1.91-9.35 1.37-9.64.83-9.95.28-6.75-.12-6.91-.38-18.62-1.81-14.58-1.94-11.18-2.02-8.36-2.03-6.06-2-4.24-1.92-2.82-1.82-1.75-1.73-.96-1.65-.33-1.65.25-1.73.92-1.93 1.81-2.22 2.99-2.57 4.56-3 6.56-3.5 9.06-4.05-9.38 3.83-7.09 3.42-5.19 3.05-3.66 2.71-2.45 2.4-1.51 2.16-.78 1.95-.19 1.84.36 1.8.95 1.84 1.68 1.94 2.62 2.07 3.82 2.23 5.35 2.38 7.23 2.52 9.51 2.66 12.23 2.75 15.43 2.84 10.74 1.48 10.18.85 9.68.26 8.86-.24 8.44-.64 8.03-1 7.65-1.37 10.16-2.4 9.46-2.85 8.81-3.27 8.61-3.77 7.92-3.99 7.27-4.19 7.06-4.56 6.35-4.51 5.68-4.48 5.51-4.74 4.75-4.43 4.07-4.15 5.58-6.26 3.91-4.99 3.12-4.63 1.44-2.71 2.85-5.97 2.88-5.03 3.18-4.64 3.38-4.18 3.68-3.92 4.07-3.87 2.82-2.99 2-2.92 1.55-3.06 1.16-2.95 1.96-5.7 1.15-2.63 1.47-2.39 1.74-2.03 1.62-1.46 3.42-2.66 1.69-1.55 1.91-2.23 1.79-2.7 2.14-4.11 1.22-2.29 1.09-1.57.97-1.01 1.67-1.17 1.51-.62 2.96-.96 1.3-.82 1.34-1.58 1.08-2.18 1.15-3.93.69-2.29.73-1.49.73-.91 1.4-.91 1.46-.23 2.68.42 2.49.43.97-.15.83-.54.6-.92.48-1.78.19-2.19-.08-3.49-.59-12.29.11-5 .46-4.05.95-3.77 1.52-3.5 2.1-3.32 3.03-3.65 1.28-1.79 1.04-2.25.76-2.8.41-2.89.14-3.18-.16-3.51-.78-5.24-1.41-5.34-1.28-3.49-1.54-3.27-1.8-3.09-2.09-2.86-2.31-2.45-2.53-2.05-2.79-1.61-3.02-1.04-3.3-.48zm-59.21 169.22-2.34 4.32-2.34 5-.81 1.54-2.1 3.28-2.69 3.68-4.07 4.97-4.73 5.16-6.2 6.04-4.45 3.93-5.11 4.15-5.84 4.37-4.81 3.31-5.5 3.45-6.24 3.58-6.37 3.29-7.03 3.19-7.73 3.08-7.85 2.67-8.5 2.35-9.19 2.01-6.89 1.14-7.25.85-7.63.53-8.03.21-9.8-.28-9.98-.84-10.16-1.42-1.02-.17 13.89 1.29 7.05.39 6.9.12 9.72-.26 9.46-.79 9.19-1.3 8.96-1.8 8.74-2.29 8.53-2.79 8.37-3.31 8.16-3.8 7.97-4.32 7.8-4.83 7.62-5.37 7.46-5.92 7.21-6.41 7.08-7.01 6.97-7.66 6.85-8.31zm59.21-165.22 1.72.04 2.22.31 2.01.61 1.84.92 2.5 1.81 2.13 2.16 1.82 2.39 1.43 2.31 1.94 3.99 1.34 3.74.97 3.6.62 3.49.32 3.55.01 3.1-.26 2.71-.59 2.68-.78 1.92-.92 1.36-2.45 2.87-1.94 2.71-1.48 2.56-1.22 2.7-.92 2.77-.62 2.86-.5 4.49-.1 5.24.61 12.33.08 2.91-.12 1.72-.4-.1-1.67-.36-2.06-.2-1.6.14-1.73.53-1.61.98-1.6 1.69-.86 1.36-.8 1.84-.71 2.4-.64 2.48-.53 1.43-.65 1.1-.6.57-1.58.63-1.68.54-1.74.76-1.65 1.07-1.74 1.63-1.55 2.07-1.67 3.07-1.55 3.09-1.32 2.13-1.38 1.82-1.25 1.3-2.63 2.16-2.78 2.25-1.43 1.41-1.54 1.85-1.45 2.26-1.13 2.33-1.75 4.8-1.16 3.33-1.4 3.23-1.16 2.03-1.55 2.04-1.99 2.06-5.36 5.16-2.51 2.72-2.43 2.9 6.62-10.67 6.45-11.48 6.29-12.32 6.1-13.21 5.92-14.16.16-.4.07-.43.79-6.36.1-5.16-.43-4.15-.87-3.32-1.24-2.64-.87-1.92-.44-2.04-.01-2.05.45-1.86.77-1.43 1.11-1.2 1.51-1.01 1.98-.81 2.94-1.22 2.48-1.63 2.08-2.03 1.64-2.4 1.08-2.62.54-2.89-.05-2.55-.46-2.42-.89-2.34-1.33-2.29-1.65-2.03-2.02-1.89-2.43-1.75-2.9-1.6-2.3-1.22-1.18-.79-1.06-1 .38-.72.86-1.11 1.91-2.15 2.08-2.32 2.14-2.75 1.16-1.93.9-1.97 1.4-4.03.98-2.93 1.08-2.38.93-1.37 1.23-1.16 1.59-.97 1.77-.64 2.46-.45z"/><path fill="#a3b1bf" fill-rule="evenodd" d="m282.69 457.17-.83 1.58-.36 1.3-.01 1.08.21 1.04.55 1.18.97 1.35 1.96 1.83 3.42 2.23 4.15 2.04 6.16 2.38 7 2.19 9.51 2.45 10.5 2.25 13.48 2.45 10.09 1.39 9.56.84 9.05.33 8.59-.17 8.73-.61 8.23-.96 7.74-1.3 7.3-1.62 9.7-2.7 8.82-3 7.99-3.26 7.84-3.71 6.92-3.67 6.06-3.63 6.74-4.47 6.06-4.41 5.41-4.36 7.59-6.78 6.03-6.09 5.29-6 3.68-4.73 2.93-4.36 1.31-2.44 3.03-6.32 3.03-5.23 3.32-4.79 3.42-4.18 3.68-3.89 3.92-3.71 2.22-2.3 1.71-2.26 1.28-2.22 1.54-3.52 1.2-3.45 1.65-4.55 1.03-2.12 1.28-2.01 1.38-1.66 1.28-1.26 2.6-2.1 2.78-2.28 1.38-1.44 1.56-2.01 1.47-2.35 1.7-3.36 1.54-2.83 1.37-1.8 1.52-1.38 1.35-.83 2.66-.94 1.17-.36 1.06-.51.92-.77.96-1.43.78-1.85.87-3.14.7-2.36.84-1.75.95-1.25 1.05-.85 1.59-.65 1.54-.14 1.54.18 1.4.31 1.6.33.69.01.4-.16.46-.77.4-2.19-.03-4.34-.6-12.07.08-5.04.46-4.24.59-2.7.85-2.59 1.13-2.49 1.38-2.37 1.8-2.51 2.28-2.68 1.25-1.79.99-2.34.69-3.03.3-3.11-.02-3.43-.37-3.8-.69-3.75-1.02-3.76-1.37-3.78-1.75-3.69-1.89-3.12-2.02-2.62-2.14-2.17-2.47-1.87-2.51-1.34-2.6-.85-2.71-.38h-3.41l-2.7.23-2.12.43-2.04.7-1.61.85-1.27.97-1.57 1.8-1.18 2.08-.91 2.26-.81 2.47-1.29 3.74-.81 1.81-1.02 1.71-2.01 2.57-2 2.22-2.84 3.35-.83 1.54-.12 1.23.38.91.94 1.06 1.74 1.29 2.89 1.57 3.3 1.89 2.6 2.09 1.99 2.3 1.18 1.96.78 1.99.41 2.05.05 2.14-.45 2.42-.89 2.17-1.36 1.96-1.72 1.67-2.08 1.34-2.5 1.03-2.51 1.04-1.94 1.34-1.47 1.62-1.05 1.94-.58 2.4-.02 2.62.56 2.6 1.09 2.43 1.08 2.32.76 2.99.37 3.81-.12 4.81-.76 6.01-.08.31-5.37 12.89-5.51 12.1-5.67 11.35-5.8 10.62-5.94 9.94-6.06 9.29-6.75 9.41-6.87 8.68-6.99 7.97-7.12 7.31-7.24 6.67-7.36 6.06-7.92 5.76-8.09 5.16-8.3 4.58-8.5 4.01-8.73 3.46-8.98 2.91-9.07 2.32-9.31 1.78-9.58 1.23-9.86.69-10.16.11-10.49-.47-17.48-1.68-13.18-1.69-11.82-2-8.35-1.88-5.16-1.49-3.88-1.38-2.82-1.25-2.71-1.53-1.84-1.35-1.19-1.2-1.3-2.03-.5-1.74-.08-1.14zm86.83 30.89-9.63-.25-10.19-.85-10.8-1.48-15.69-2.88-12.4-2.79-9.59-2.69-7.25-2.55-5.42-2.44-3.94-2.33-2.75-2.21-1.82-2.11-1.08-2.04-.46-2.01.07-2.01.63-2.07 1.28-2.2 2.09-2.4 3.11-2.63 3.85-2.57 5.12-2.83 6.63-3.11 8.41-3.4 1.1 2.79-8.04 3.56-5.6 2.88-4.76 2.9-2.93 2.22-2.24 2.24-1.07 1.6-.54 1.55-.01 1.05.56 1.47 1.2 1.49 2.07 1.54 2.31 1.25 2.93 1.25 3.66 1.24 5.7 1.56 6.69 1.47 6.95 1.25 7.36 1.13 14.65 1.78 13.42 1.26 10.3.46 9.97-.11 9.68-.67 9.39-1.21 9.14-1.75 8.9-2.27 8.8-2.85 8.56-3.39 8.35-3.93 8.13-4.49 7.94-5.06 7.76-5.65 7.25-5.97 7.13-6.58 7.02-7.2 6.89-7.87 6.78-8.56 6.67-9.3 5.98-9.16 5.86-9.82 5.73-10.5 5.59-11.21 5.46-11.96 5.31-12.74.68-5.52.14-4.34-.3-3.37-.62-2.58-.88-1.96-1-2.03-.69-2.1-.38-2.18-.05-2.21.26-2.11.59-2.03.98-1.97 1.77-2.24 1.48-1.28 2.01-1.18 2.65-1.06 1.92-.78 1.6-1.02 1.31-1.25 1.04-1.47.68-1.62.33-1.8-.12-2.2-.66-2.11-1.25-2.09-1.65-1.83-2.16-1.7-2.76-1.56-3.26-1.78-2.13-1.6-1.12-1.22-.72-1.19-.38-1.17-.05-1.52.34-1.48.76-1.46 1.54-2.09 1.94-2.18 1.94-2.15 1.81-2.32.85-1.43.71-1.59 1.17-3.44.85-2.58 1.03-2.57 1.36-2.41 1.87-2.2 1.51-1.22 1.91-1.08 2.41-.9 2.51-.58 3.17-.32 3.99-.01 3.16.43 3.02.95 2.89 1.49 2.82 2.09 2.46 2.43 2.3 2.92 2.13 3.47 1.95 4.1 1.51 4.19 1.1 4.14.72 4.12.35 4.17-.05 3.79-.41 3.45-.85 3.35-1.19 2.66-1.5 2.1-2.84 3.42-1.99 3.11-1.44 3.28-.92 3.6-.45 3.9-.11 4.9.57 12.27.07 3.85-.26 2.56-.43 1.51-.58 1.09-.7.77-1.27.7-1.33.18-2.72-.44-2.07-.39-.93.03-.79.29-.76.72-.74 1.35-.69 2.25-1.05 3.68-1.04 2.33-1.29 1.83-1.32 1.13-1.51.77-1.67.55-2.15.76-1.03.64-1.12 1.08-1.02 1.41-1.2 2.25-1.88 3.68-1.64 2.61-1.74 2.23-1.53 1.58-3.02 2.48-2.36 1.9-1.12 1.11-1.18 1.42-1.1 1.73-.92 1.92-1.5 4.18-1.78 4.92-1.16 2.5-1.52 2.59-1.86 2.48-2.47 2.54-3.78 3.57-3.54 3.75-3.3 4.03-3.2 4.62-2.92 5.04-2.92 6.08-1.52 2.88-3.12 4.65-3.88 4.97-5.45 6.16-6.19 6.2-7.7 6.84-5.48 4.38-6.1 4.43-6.76 4.48-7.6 4.48-8.91 4.58-6.2 2.8-6.74 2.69-7.32 2.56-7.42 2.2-7.95 1.92-8.53 1.63-8.58 1.18-9.13.75z"/><path fill="#a0c8ff" fill-opacity=".151" d="M573 136.11h-.24l-5.1.19-4.72.52-4.37.84-4.05 1.13-4.01 1.51-3.56 1.76-3.16 2-2.79 2.23 1.64-2.58 2.22-2.39 2.88-2.23 3.18-1.82 3.7-1.58 4.3-1.31 4.41-.91 4.83-.58 5.3-.21.56.01 1.85-5.96-2.41-.05-5.12.19-4.77.51-4.46.81-4.16 1.1-4.13 1.48-3.66 1.73-3.21 1.96-2.83 2.19-2.54 2.55-2.01 2.74-1.51 2.95-1.04 3.19-.47 3.32.07 3.34.63 3.38 1.11 3.27 1.61 3.28 2.13 3.3-.36-2.55.02-2.52.38-2.51.86-2.65 1.23-2.45 1.64-2.29 2.06-2.14 3.13-2.41 3.72-2.1 4.38-1.75 4.57-1.25 5.01-.84 5.5-.38zm32.57-2.83-.96 6.13 4.93 2.46 4.39 2.63 3.88 2.81 3.6 3.15 2.91 3.17 2.3 3.18 1.43 2.6 1 2.52.59 2.47.22 2.45-1.64-3.45-2.13-3.37-2.63-3.31-3.18-3.27-3.42-2.9-3.82-2.73-4.26-2.56-4.74-2.37-1.07 6.15 5.08 2.76 4.41 2.98 3.81 3.18 2.63 2.69 2.16 2.7 1.75 2.72 1.36 2.75 1 2.92.52 2.86.06 2.84-.4 2.85-.76 2.43-1.09 2.27-1.44 2.14 3.37-2.04 2.88-2.24 2.43-2.46 2.05-2.76 1.53-2.96 1.03-3.2.48-3.55-.13-3.55-.77-3.61-1.31-3.48-1.86-3.48-2.46-3.49-2.84-3.23-3.33-3.14-3.88-3.05-4.13-2.74-4.54-2.53z"/><path fill="#a3b1bf" fill-rule="evenodd" d="m605.57 133.28-.47 3.04 5.26 2.54 4.79 2.84 4.44 3.19 3.87 3.42 2.71 2.91 2.19 2.84 1.71 2.78 1.29 2.75.95 2.93.47 2.82.04 2.75-.39 2.71-.82 2.57-1.23 2.44-1.66 2.33-.02-3.61-.65-3.65-1.31-3.73-1.86-3.51-2.51-3.52-3.23-3.56-3.35-2.99-3.78-2.8-4.07-2.52-4.43-2.28-.54 3.07 5.08 2.76 4.41 2.98 3.81 3.18 2.63 2.69 2.16 2.7 1.75 2.72 1.36 2.75 1 2.92.52 2.86.06 2.84-.4 2.85-.76 2.43-1.09 2.27-1.44 2.14 3.37-2.04 2.88-2.24 2.43-2.46 2.05-2.76 1.53-2.96 1.03-3.2.48-3.55-.13-3.55-.77-3.61-1.31-3.48-1.86-3.48-2.46-3.49-2.84-3.23-3.33-3.14-3.88-3.05-4.13-2.74-4.54-2.53zm-33.46 5.84-5.85.32-5.3.78-4.8 1.2-4.64 1.72-3.99 2.05-3.43 2.39-2.32 2.11-1.93 2.27-1.57 2.42-1.22 2.6-.48-2.83-.03-2.73.39-2.67.9-2.74 1.34-2.56 1.81-2.42 2.32-2.29 2.56-1.95 2.94-1.76 3.38-1.57 3.85-1.37 5.21-1.29 5.79-.81 6.42-.31 1.48.03.93-2.98-2.41-.05-5.12.19-4.77.51-4.45.81-4.17 1.1-4.13 1.48-3.66 1.73-3.21 1.96-2.83 2.19-2.54 2.55-2.01 2.74-1.51 2.95-1.04 3.19-.47 3.32.07 3.34.63 3.38 1.11 3.27 1.61 3.28 2.13 3.3-.36-2.55.02-2.52.38-2.51.86-2.65 1.23-2.45 1.64-2.29 2.06-2.14 3.13-2.41 3.72-2.1 4.38-1.75 4.57-1.25 5.01-.84 5.5-.38z"/><path fill="#a0c8ff" fill-opacity=".151" d="m603.93 72.5-2.23 1.27-2.45 2.12-2.75 3.21-3.08 4.58-3.44 6.28-3.85 8.34-4.28 10.81-4.75 13.71-5.25 17.1-5.78 20.99 2.95 3.13 2.98 2.52 3.01 1.95 3.06 1.44 3.14.96 2.58.45 2.68.14 3.96-.3 4.22-.96 4.55-1.68 4.05-21.45 2.81-17.69 1.76-14.42.9-11.59.19-9.17-.36-7.14-.77-5.45-1.09-4.08-1.3-2.97zm-2.18 9.6.56 3.19.45 4.79.16 5.41-.19 7.47-.91 11.77-1.85 14.86-2.51 15.82-3.5 18.75-2.68.76-2.49.44-2.32.14-2-.11-1.91-.33-2.49-.77-2.45-1.19-2.45-1.66-2.46-2.18 5.1-18.35 4.69-15.29 4.87-14.15 4.35-10.97 3.1-6.82 2.52-4.81 2.51-4.14z"/><path fill="#a3b1bf" fill-rule="evenodd" d="m603.93 72.5-2.23 1.27-2.45 2.12-2.75 3.21-3.08 4.58-3.44 6.28-3.85 8.34-4.28 10.81-4.75 13.71-5.25 17.1-5.78 20.99 2.95 3.13 2.98 2.52 3.01 1.95 3.06 1.44 3.14.96 2.58.45 2.68.14 3.96-.3 4.22-.96 4.55-1.68 4.05-21.45 2.81-17.69 1.76-14.42.9-11.59.19-9.17-.36-7.14-.77-5.45-1.09-4.08-1.3-2.97zm-.91 4.03.85 2.03.86 3.12.6 3.57.45 5 .14 5.55-.19 7.31-.54 7.76-.93 9.11-1.4 10.63-2.63 16.37-3.66 19.42-3.61 1.2-3.36.68-3.13.22-2.34-.13-2.25-.38-3.18-1.03-3.12-1.61-3.1-2.25-3.1-2.98 5.25-19.01 4.83-15.84 3.41-10.15 3.16-8.6 2.93-7.21 3.03-6.66 2.56-4.93 2.59-4.31 2.1-2.96 2.13-2.45z"/><path fill="#a3b1bf" fill-rule="evenodd" d="m579.03 182.78.64-.09.82-.6 1.1-1.45 1.38-2.59 1.59-3.9 1.41-4.32 1.34-5.15 1.05-5.21.63-4.5.28-4.21-.1-2.93-.36-1.78-.47-.9-.54-.37-.65.09-.82.6-1.1 1.45-1.38 2.59-1.59 3.9-1.4 4.32-1.35 5.15-1.05 5.22-.63 4.49-.28 4.21.11 2.93.35 1.79.47.9zm-29.75 20.58.66-.06 1.16-.92 1.14-1.4 1.43-2.17 1.35-2.44 1.42-2.95 1.25-3.03.9-2.64.66-2.51.27-1.79-.08-1.47-.4-.54-.67.06-1.15.92-1.15 1.4-1.42 2.17-1.36 2.44-1.42 2.95-1.24 3.03-.91 2.65-.66 2.5-.27 1.79.09 1.47zm19.81 24.49.67-.08 1.18-.97 1.18-1.47 1.46-2.26 1.41-2.55 1.47-3.08 1.3-3.15.96-2.75.7-2.61.3-1.85-.07-1.53-.39-.54-.66.07-1.18.97-1.18 1.47-1.47 2.27-1.4 2.54-1.47 3.08-1.31 3.15-.95 2.75-.7 2.61-.3 1.85.06 1.53zm24.74-18.09.66-.12 1.03-.98.97-1.45 1.16-2.2 1.06-2.46 1.06-2.95.88-3.02.58-2.61.36-2.46.07-1.74-.26-1.4-.46-.48-.66.12-1.02.98-.98 1.44-1.15 2.21-1.06 2.46-1.06 2.95-.88 3.01-.59 2.62-.36 2.46-.06 1.74.25 1.4z"/><path fill="#a0c8ff" fill-opacity=".151" d="m591.23 123.72-1.58.19-1.43.5-1.31.81-1.11 1.08-.82 1.3-.57 1.55-.17 1.88.31 1.78.75 1.62 1.13 1.39 1.46 1.06 1.77.66 1.58.19 1.58-.19 1.43-.5 1.31-.81 1.11-1.08.82-1.3.57-1.55.17-1.88-.31-1.78-.75-1.62-1.13-1.39-1.46-1.06-1.77-.67zm0 6 .23.03.62.44.13.76-.39.59-.58.19-.23-.03-.62-.45-.13-.75.39-.59z"/><path fill="#a3b1bf" fill-rule="evenodd" d="m591.23 123.72-1.58.19-1.43.5-1.31.81-1.11 1.08-.82 1.3-.57 1.55-.17 1.88.31 1.78.75 1.62 1.13 1.39 1.46 1.06 1.77.66 1.58.19 1.58-.19 1.43-.5 1.31-.81 1.11-1.08.82-1.3.57-1.55.17-1.88-.31-1.78-.75-1.62-1.13-1.39-1.46-1.06-1.77-.67zm0 3 .9.11 1.46.66 1.04 1.12.54 1.42-.04 1.59-.53 1.27-.87.97-1.14.64-1.35.23-.91-.11-1.42-.64-1.07-1.14-.55-1.45.05-1.56.53-1.27.87-.97 1.14-.64zm4.2-18.95-1.32.22-1.15.63-.88.97-.54 1.28-.04 1.6.54 1.42 1.04 1.11 1.45.66.91.11 1.32-.23 1.15-.63.88-.97.54-1.27.04-1.6-.54-1.42-1.04-1.12-1.45-.66zm0 3 .23.02.44.23.18.22.13.75-.39.59-.58.19-.23-.03-.62-.44-.13-.76.39-.59zm13.03-57.69.54.25.39.42.21.53-.02.6-4.5 19.48-.25.55-.41.39-.54.2-.6-.01-.54-.25-.39-.42-.21-.53.02-.6 4.5-19.49.25-.54.41-.39.54-.21z"/><path fill="#a0c8ff" fill-opacity=".151" d="m608.27 56.11 1.06-.07 1.2-.74 1.07-1.19 1.09-1.8.89-2.07.72-2.48.44-2.55.11-2.25-.19-2.1-.44-1.54-.76-1.19-.92-.53-1.06.07-1.2.74-1.07 1.2-1.09 1.8-.89 2.06-.72 2.49-.44 2.55-.11 2.24.19 2.1.44 1.55.76 1.18z"/><path fill="#a3b1bf" fill-rule="evenodd" d="m608.61 54.65.61-.21 1.32-1.44 1.16-2.09 1.14-3.49.51-3.64-.12-2.38-.55-1.87-.47-.47-.69.28-1.14 1.21-.71 1.14-.68 1.42-1.02 3.18-.48 3.32-.01 1.57.14 1.33.49 1.59zm.08 3.01-.76-.08-.77-.29-1-.78-.81-1.21-.69-2.28-.18-1.64.01-1.85.18-1.91.38-2 .54-1.97.67-1.79.81-1.67.88-1.39 1.61-1.74 1.26-.74 1.24-.26.82.08 1.05.45.86.74.68 1.09.62 1.93.26 2.46-.12 2.58-.46 2.7-.71 2.45-.92 2.23-1.17 2.01-1.28 1.5-1.48 1.03zm-34.65 221.09-.3-.03-.56-.24-.39-.41-.22-.53v-.6l.54-3.48.13-3.36-.25-3.25-.63-3.17-1-3.06-1.39-3.05-1.82-3.06-2.27-3.08-.28-.53-.05-.57.16-.55.39-.46.53-.28.57-.05.54.17.47.38 2.78 3.86 2.15 3.86 1.56 3.88 1.01 3.94.48 4.03-.06 4.14-.62 4.3-.2.49-.33.38-.43.24zm-218.65 44.59-.48-.08-.45-.24-.39-.46-.17-.55.04-.56.27-.54 1.81-2.68 1.12-2.47.52-2.32v-2.23l-.49-2.17-1.04-2.23-1.67-2.36-2.43-2.5-.35-.48-.14-.55.08-.57.31-.52.48-.35.56-.13.56.08.52.3 2.78 2.92 1.94 2.81 1.23 2.76.6 2.74v2.81l-.63 2.86-1.3 2.98-2.1 3.15-.54.43z"/><path fill="#a0c8ff" fill-opacity=".151" d="m684.66 402.84-1.83-.2-1.72-.64-1.65-1.09-1.44-1.61-.92-1.84-.41-2.01.11-2.04.62-1.96 1.18-1.82 2.31-3.03 1.78-3.11 1.28-3.2.82-3.31.34-3.37-.09-3.63-.56-3.94-1.09-4.28-1.51-4.09-1.91-3.67-2.31-3.29-2.72-2.94-3.05-2.55-3.54-2.29-4.07-2.02-4.66-1.72-1.95-.93-1.57-1.34-1.16-1.68-.7-1.92-.2-2.05.38-2.13.92-1.95 1.34-1.57 1.68-1.16 1.92-.7 2.05-.2 2.13.38 5.31 1.92 4.8 2.23 4.34 2.51 3.92 2.8 3.52 3.08 3.22 3.45 2.83 3.77 2.46 4.09 2.1 4.45 1.73 4.85 1.45 5.71.8 5.39.21 5.1-.35 4.87-.89 4.66-1.44 4.49-1.98 4.35-2.57 4.25-3.18 4.14-1.31 1.23-1.48.86-1.61.53z"/><path fill="#a3b1bf" fill-rule="evenodd" d="m646.23 211.5-.19 1.36-.49 1.16-.78 1.02-1.02.78-1.16.49-1.36.19-1.36-.19-1.16-.49-1.01-.78-.79-1.02-.49-1.16-.19-1.36.19-1.36.49-1.16.79-1.02 1.01-.78 1.16-.49 1.36-.19 1.36.19 1.16.49 1.02.78.78 1.02.49 1.16zM237.04 80.53l-.19 1.36-.49 1.16-.78 1.01-1.02.79-1.16.49-1.36.19-1.36-.19-1.16-.49-1.01-.79-.79-1.01-.49-1.16-.19-1.36.19-1.36.49-1.16.79-1.02 1.01-.78 1.16-.49 1.36-.19 1.36.19 1.16.49 1.02.78.78 1.02.49 1.16zm273.08 197.71-.2 1.35-.48 1.17-.79 1.01-1.01.79-1.17.48-1.35.2-1.36-.2-1.17-.48-1.01-.79-.79-1.01-.48-1.17-.19-1.35.19-1.36.48-1.17.79-1.01 1.01-.79 1.17-.48 1.36-.19 1.35.19 1.17.48 1.01.79.79 1.01.48 1.17zM308.04 658.5l-.19 1.36-.49 1.16-.78 1.02-1.02.78-1.16.49-1.36.19-1.36-.19-1.16-.49-1.01-.78-.79-1.02-.49-1.16-.19-1.36.19-1.36.49-1.16.79-1.02 1.01-.78 1.16-.49 1.36-.19 1.36.19 1.16.49 1.02.78.78 1.02.49 1.16zM53.95 639l-1.83.17-1.67.46-1.55.74-1.4.99-1.19 1.19-.99 1.4-.74 1.55-.46 1.67-.17 1.83.17 1.82.46 1.68.74 1.55.99 1.4 1.19 1.19 1.4.99 1.55.74 1.67.46 1.83.17 1.82-.17 1.68-.46 1.55-.74 1.4-.99 1.19-1.19.99-1.4.74-1.55.46-1.67.17-1.83-.17-1.83-.46-1.67-.74-1.55-.99-1.4-1.19-1.19-1.4-.99-1.55-.74-1.68-.46zm0 3 1.87.25 1.66.71 1.42 1.09 1.09 1.42.71 1.66.25 1.87-.25 1.87-.71 1.66-1.09 1.42-1.42 1.09-1.66.71-1.87.25-1.87-.25-1.66-.71-1.42-1.09-1.09-1.42-.71-1.66-.25-1.87.25-1.87.71-1.66 1.09-1.42 1.42-1.09 1.66-.71z"/><path fill="#a0c8ff" fill-opacity=".151" d="m53.95 642 1.87.25 1.66.71 1.42 1.09 1.09 1.42.71 1.66.25 1.87-.25 1.87-.71 1.66-1.09 1.42-1.42 1.09-1.66.71-1.87.25-1.87-.25-1.66-.71-1.42-1.09-1.09-1.42-.71-1.66-.25-1.87.25-1.87.71-1.66 1.09-1.42 1.42-1.09 1.66-.71z"/><path fill="#a3b1bf" fill-rule="evenodd" d="m247.04 27.56-1.82.17-1.68.45-1.55.74-1.4 1-1.19 1.19-.99 1.4-.74 1.55-.46 1.67-.17 1.83.17 1.82.46 1.67.74 1.55.99 1.41 1.19 1.19 1.4.99 1.55.74 1.68.46 1.82.17 1.83-.17 1.67-.46 1.55-.74 1.4-.99 1.19-1.19 1-1.41.74-1.55.45-1.67.17-1.82-.17-1.83-.45-1.67-.74-1.55-1-1.4-1.19-1.19-1.4-1-1.55-.74-1.67-.45zm0 3 1.87.25 1.66.7 1.42 1.1 1.09 1.42.71 1.65.25 1.88-.25 1.87-.71 1.66-1.09 1.41-1.42 1.1-1.66.7-1.87.26-1.87-.26-1.66-.7-1.42-1.1-1.09-1.41-.7-1.66-.26-1.87.26-1.88.7-1.65 1.09-1.42 1.42-1.1 1.66-.7z"/><path fill="#a0c8ff" fill-opacity=".151" d="m247.04 30.56 1.87.25 1.66.7 1.42 1.1 1.09 1.42.71 1.65.25 1.88-.25 1.87-.71 1.66-1.09 1.41-1.42 1.1-1.66.7-1.87.26-1.87-.26-1.66-.7-1.42-1.1-1.09-1.41-.7-1.66-.26-1.87.26-1.88.7-1.65 1.09-1.42 1.42-1.1 1.66-.7z"/><path fill="#a3b1bf" fill-rule="evenodd" d="m286.04 553.5-1.82.17-1.68.46-1.55.74-1.4.99-1.19 1.19-.99 1.4-.74 1.55-.46 1.67-.17 1.83.17 1.83.46 1.67.74 1.55.99 1.4 1.19 1.19 1.4.99 1.55.74 1.68.46 1.82.17 1.83-.17 1.67-.46 1.55-.74 1.4-.99 1.19-1.19 1-1.4.74-1.55.45-1.68.17-1.82-.17-1.83-.45-1.67-.74-1.55-1-1.4-1.19-1.19-1.4-.99-1.55-.74-1.67-.46zm0 3 1.87.25 1.66.71 1.42 1.09 1.09 1.42.71 1.66.25 1.87-.25 1.87-.71 1.66-1.09 1.42-1.42 1.09-1.66.71-1.87.25-1.87-.25-1.66-.71-1.42-1.09-1.09-1.42-.7-1.66-.26-1.87.26-1.87.7-1.66 1.09-1.42 1.42-1.09 1.66-.71z"/><path fill="#a0c8ff" fill-opacity=".151" d="m286.04 556.5 1.87.25 1.66.71 1.42 1.09 1.09 1.42.71 1.66.25 1.87-.25 1.87-.71 1.66-1.09 1.42-1.42 1.09-1.66.71-1.87.25-1.87-.25-1.66-.71-1.42-1.09-1.09-1.42-.7-1.66-.26-1.87.26-1.87.7-1.66 1.09-1.42 1.42-1.09 1.66-.71z"/><path fill="#a3b1bf" fill-rule="evenodd" d="m742.54 371.5-.19 1.36-.49 1.16-.78 1.02-1.02.78-1.16.49-1.36.19-1.36-.19-1.16-.49-1.01-.78-.79-1.02-.49-1.16-.19-1.36.19-1.36.49-1.16.79-1.02 1.01-.78 1.16-.49 1.36-.19 1.36.19 1.16.49 1.02.78.78 1.02.49 1.16z"/></svg>