<svg xmlns="http://www.w3.org/2000/svg" width="891" height="840"><path fill="#a3b1bf" fill-opacity=".396" fill-rule="evenodd" d="M440.56 254.06h-.05l-4.41-.06-1.53.01h-.01l-.59-.12-.47-.32-.32-.46-.12-.59.11-.59.32-.47.47-.33.58-.12 1.56-.01 4.5.06.58.14.47.33.3.49.11.59-.14.57-.32.46-.47.31zm-17.98.5-.56-.1-.46-.29-.32-.43-.16-.55.07-.6.28-.5.45-.35.57-.17 6.04-.4.6.1.48.29.34.46.15.58-.09.6-.3.48-.46.34-.58.15-5.93.39zm29.95.29h-.16l-5.92-.51-.58-.16-.45-.35-.29-.49-.08-.59.16-.58.35-.45.49-.29.6-.08 6.03.51.57.18.44.37.27.5.06.6-.17.54-.32.42-.46.28zm-41.86 1.17-.52-.1-.44-.26-.34-.39-.18-.51.03-.6.24-.52.41-.39.56-.21 6-.85.6.05.51.26.37.43.19.57-.05.59-.26.51-.43.38-.57.19-5.88.83zm53.73.52-.27-.02-5.86-.95-.57-.2-.42-.38-.25-.52-.04-.59.2-.57.39-.42.51-.25.6-.04 5.98.97.55.22.41.4.23.52.01.6-.18.5-.34.39-.44.25zm-65.49 1.84-.49-.09-.43-.23-.33-.36-.2-.47-.02-.6.2-.54.38-.42.54-.25 5.92-1.3h.6l.52.22.41.4.23.55v.6l-.22.53-.4.4-.55.24-5.8 1.27zm77.2.75-.38-.04-5.78-1.4-.54-.24-.4-.42-.21-.53.01-.6.25-.54.41-.39.53-.21h.6l5.89 1.42.54.27.37.43.19.53-.03.6-.21.47-.33.35zm-88.74 2.5-.87-.28-.56-.76-.07-.6.16-.55.35-.44.53-.3 5.79-1.75.6-.05.54.18.44.37.27.54.05.59-.18.55-.37.43-.53.28-5.69 1.71zm100.22.98-.49-.08-5.65-1.83-.53-.28-.36-.45-.17-.54.06-.6.28-.53.45-.36.54-.16.6.05 5.76 1.87.51.3.35.46.14.55-.08.59-.56.74zm-111.51 3.15-.83-.25-.56-.68-.12-.59.12-.56.32-.47.5-.34 5.65-2.19.6-.09.55.13.46.34.32.51.09.59-.14.56-.33.46-.51.31-5.56 2.16zm122.67 1.19-.6-.12-5.48-2.25-.5-.33-.32-.47-.13-.55.1-.6.32-.5.47-.32.56-.13.59.1 5.59 2.3.49.34.31.48.1.56-.12.59-.57.66zm-133.61 3.79-.77-.21-.57-.61-.16-.58.07-.57.28-.49.47-.38 5.48-2.62.58-.13.56.09.49.3.35.49.14.58-.1.56-.29.49-.49.35-5.37 2.57zm144.4 1.38-.7-.17-5.29-2.66-.48-.36-.29-.5-.08-.56.14-.58.37-.48.49-.29.56-.08.58.14 5.4 2.72.47.38.27.5.06.57-.17.57-.57.6zm-154.92 4.42-.72-.18-.57-.54-.2-.57.03-.57.24-.52.44-.4 5.26-3.03.57-.18.57.05.51.26.38.46.18.57-.05.57-.26.51-.45.39-5.16 2.97zm165.29 1.56-.79-.23-5.08-3.06-.45-.4-.25-.51-.04-.57.19-.57.39-.45.52-.25.57-.04.57.19 5.17 3.12.44.42.23.52.02.57-.21.56-.56.52zm-175.34 5.02-.67-.15-.55-.48-.24-.55-.02-.57.2-.53.41-.44 5.01-3.42.56-.22.57.01.52.22.43.43.22.56-.01.57-.22.52-.43.42-4.91 3.36zm185.24 1.73-.89-.29-4.84-3.44-.42-.43-.21-.53.01-.57.23-.55.43-.42.53-.21h.57l.55.23 4.93 3.51.41.44.19.54-.03.57-.25.55-.55.45zm-194.75 5.59-.62-.13-.53-.41-.29-.53-.05-.57.16-.54.37-.47 4.73-3.79.54-.26.57-.03.54.18.46.39.26.54.03.57-.17.54-.4.45-4.64 3.72-.46.26zm204.11 1.9-.5-.09-.47-.28-4.57-3.79-.39-.46-.17-.55.05-.57.27-.53.46-.38.55-.17.57.04.53.27 4.66 3.87.36.48.15.55-.06.56-.3.53-.52.39zm-213.04 6.12-.57-.12-.51-.34-.32-.51-.1-.56.12-.56.34-.49 4.43-4.13.51-.3.57-.08.55.14.48.35.31.52.08.57-.14.55-.36.48-4.35 4.05-.49.32zm221.82 2.05-.56-.11-.5-.33-4.27-4.13-.35-.49-.13-.56.09-.56.31-.51.49-.35.56-.13.56.09.51.31 4.36 4.21.33.5.1.56-.11.56-.33.5-.5.33zm-230.12 6.6-.52-.09-.47-.29-.36-.48-.14-.55.07-.56.3-.52 4.11-4.45.49-.34.56-.12.56.09.51.32.34.5.12.55-.1.57-.32.5-4.03 4.37-.52.38zm-7.61 9.26-.91-.31-.4-.45-.18-.54.03-.57.26-.54 3.76-4.74.47-.38.54-.16.57.05.53.28.38.47.16.55-.05.56-.28.53-3.69 4.66-.54.44zm-6.9 9.8-.81-.24-.43-.42-.22-.53-.01-.57.22-.56 3.38-5.01.44-.41.53-.2.57.01.55.24.41.43.2.54-.01.57-.24.55-3.32 4.92-.55.51zm-6.13 10.29-.71-.18-.46-.39-.26-.51-.06-.57.18-.57 2.99-5.25.41-.45.51-.24.57-.03.57.2.44.4.24.52.04.57-.2.56-2.94 5.16-.56.58zm-5.32 10.71-.62-.13-.48-.35-.3-.48-.1-.57.13-.58 2.59-5.46.37-.48.49-.28.57-.07.58.15.47.37.28.5.08.56-.16.58-2.53 5.36-.57.65zm-4.5 11.11-.51-.09-.51-.31-.34-.47-.14-.55.09-.59 2.17-5.66.33-.5.47-.32.56-.12.59.12.5.33.32.47.12.56-.11.59-2.13 5.55-.56.72zm-3.64 11.42-.4-.05-.54-.27-.37-.44-.18-.54.04-.6 1.73-5.8.29-.53.45-.35.55-.16.59.07.53.29.35.45.16.54-.06.6-1.7 5.69-.54.8zm-2.76 11.67-.29-.02-.56-.23-.4-.41-.22-.52v-.61l1.27-5.91.26-.55.42-.38.53-.21.6.02.54.25.39.42.2.54-.02.6-1.25 5.8-.19.5-.34.38-.43.25zm-1.86 11.85-.18-.01-.57-.19-.43-.37-.26-.5-.05-.6.82-6 .21-.56.39-.42.52-.25.6-.02.56.21.41.39.25.51.02.6-.81 5.89-.16.53-.33.42-.45.27zm-.96 11.96h-.07l-.58-.15-.46-.34-.3-.48-.09-.59.37-6.05.16-.57.36-.45.5-.28.59-.07.58.16.44.36.28.5.08.59-.37 5.93-.13.57-.33.45-.46.3zm-.07 11.99-.57-.11-.47-.31-.32-.46-.14-.57-.08-5.22v-.83l.12-.59.32-.47.47-.32.59-.12h.01l.58.12.48.32.31.48.12.59v.82l.08 5.12-.1.59-.3.49-.46.33-.59.14zm315.71 3.1h-.08l-.58-.15-.46-.34-.29-.49-.09-.59.19-5.94.13-.59.32-.46.47-.32.58-.11h.02l.59.13.47.32.31.48.11.59-.19 6.05-.15.56-.32.45-.47.3zm-314.87 8.86-.55-.1-.45-.28-.33-.42-.16-.54-.54-6.03.08-.59.29-.49.45-.36.57-.16.6.07.49.29.35.45.16.58.53 5.92-.06.6-.26.5-.44.37-.57.18zm305.21 37.96-.52-.1-.51-.31-.33-.47-.14-.55.1-.6 1.96-5.6.3-.52.45-.35.55-.16.59.07.52.3.35.45.16.55-.07.6-2 5.71-.57.72zm-4.59 11.04-.63-.14-.48-.35-.3-.49-.09-.56.13-.59 2.38-5.42.34-.5.48-.31.56-.12.59.12.49.33.32.48.11.56-.12.59-2.42 5.53-.57.64zm-283.08 8.06-.75-.21-.57-.59-2.75-5.41-.15-.58.08-.56.29-.5.48-.36.58-.15.56.08.5.29.36.48 2.7 5.3.17.58-.06.56-.27.51-.46.38zm277.65 2.61-.73-.19-.45-.39-.26-.51-.05-.57.18-.57 2.79-5.23.37-.48.5-.27.57-.07.58.16.47.37.27.5.07.57-.16.58-2.84 5.33-.56.57zm-271.6 7.77-.71-.18-.56-.52-3.15-5.18-.19-.57.04-.57.25-.51.44-.4.57-.19.57.03.52.25.4.45 3.09 5.08.21.56-.02.57-.22.53-.44.41zm265.38 2.46-.83-.25-.42-.42-.22-.53-.01-.57.23-.56 3.18-5.01.4-.44.52-.23.57-.03.57.2.44.41.24.52.02.57-.2.56-3.24 5.11-.55.5zm-6.98 9.74-.48-.08-.44-.24-.39-.45-.18-.54.04-.57.26-.54 3.55-4.76.44-.41.54-.19.57.01.55.25.4.44.2.53-.01.57-.25.55-3.62 4.85-.54.43zm-7.7 9.19-.53-.1-.48-.29-.36-.49-.13-.55.08-.56.3-.52 3.91-4.48.46-.37.55-.16.57.06.53.29.37.47.16.54-.06.57-.29.53-3.97 4.56-.52.37zm-8.38 8.58-.57-.11-.51-.36-.32-.5-.1-.57.13-.55.34-.5 4.23-4.17.5-.34.55-.11.56.1.51.32.34.5.11.56-.1.56-.33.51-4.3 4.25-.49.31zm-9 7.93-.63-.13-.53-.42-.28-.53-.05-.57.16-.54.38-.47 4.53-3.85.53-.29.56-.08.55.15.48.36.3.52.07.57-.14.55-.36.48-4.62 3.91-.46.26zm-192.46 5.54-.88-.29-4.83-3.64-.39-.46-.18-.54.04-.57.27-.53.46-.39.54-.18.57.04.54.27 4.74 3.57.4.45.2.53-.02.57-.25.55-.55.46zm182.88 1.7-.68-.17-.55-.48-.24-.55-.01-.57.21-.53.41-.44 4.82-3.49.54-.26.57-.03.54.19.45.4.26.54.02.57-.18.54-.4.45-4.9 3.56zm-172.93 4.96-.78-.22-5.09-3.27-.42-.43-.22-.52v-.57l.23-.56.42-.42.53-.22h.57l.56.23 4.99 3.2.44.41.23.52.03.57-.21.56-.56.54zm162.83 1.52-.73-.19-.57-.54-.19-.57.03-.57.25-.52.44-.4 5.07-3.12.56-.21.57.01.52.22.42.43.22.56-.02.57-.22.53-.43.42-5.16 3.18zm-152.4 4.36-.68-.17-5.33-2.86-.45-.4-.25-.51-.05-.57.19-.57.39-.45.51-.25.57-.05.57.18 5.22 2.82.47.37.27.5.07.57-.17.58-.56.6zm141.83 1.35-.78-.22-.57-.62-.15-.58.07-.57.29-.49.47-.37 5.29-2.72.58-.18.57.06.5.26.39.46.17.58-.06.57-.26.5-.46.39-5.39 2.77zm-130.99 3.72-.58-.12-5.52-2.45-.48-.36-.3-.49-.09-.56.15-.59.35-.48.49-.29.56-.09.59.14 5.41 2.41.5.34.31.48.11.56-.12.58-.56.68zm120 1.16-.83-.25-.56-.69-.11-.59.12-.56.32-.47.5-.33 5.49-2.32.59-.13.56.1.48.31.35.48.13.59-.1.56-.3.49-.49.34-5.59 2.36zm-108.8 3.08-.47-.08-5.71-2.03-.5-.32-.33-.47-.14-.56.1-.59.32-.5.47-.33.55-.13.59.09 5.6 1.99.52.3.35.46.15.55-.07.59-.56.75zm97.47.95-.88-.28-.55-.77-.07-.6.17-.54.35-.45.53-.29 5.65-1.89.6-.08.55.14.46.34.31.51.08.6-.14.55-.34.46-.51.31-5.76 1.92zm-85.96 2.42-.36-.05-5.85-1.59-.53-.28-.36-.44-.17-.54.05-.6.28-.53.44-.36.54-.18.6.05 5.73 1.56.54.26.38.43.2.53-.03.6-.21.47-.33.35zm74.38.72-.49-.08-.44-.24-.33-.36-.2-.48-.01-.6.2-.53.39-.42.54-.25 5.77-1.44.6-.04.54.18.43.38.27.53.03.6-.18.54-.37.43-.54.27-5.87 1.48zm-62.64 1.76-.26-.02-5.94-1.14-.55-.24-.4-.41-.21-.53v-.6l.24-.55.41-.4.53-.21h.6l5.83 1.12.56.22.41.39.24.52.02.6-.19.51-.33.39-.44.26zm50.86.49-.53-.09-.44-.26-.33-.4-.18-.52.03-.6.24-.52.42-.38.57-.21 5.85-1 .6.01.52.22.41.41.23.55-.01.6-.23.53-.4.4-.56.23-5.96 1.02zm-38.97 1.09-.14-.01-6.02-.68-.57-.2-.42-.37-.26-.52-.04-.59.2-.57.38-.43.51-.26.59-.03 5.91.67.57.17.44.36.27.51.07.59-.16.55-.33.42-.45.29zm27.05.26-.55-.11-.46-.29-.33-.43-.15-.56.07-.59.29-.5.45-.35.57-.16 5.92-.56.59.05.51.27.37.43.19.57-.06.6-.26.51-.43.37-.58.18-6.02.57zm-15.08.42h-.03l-6.05-.23-.58-.15-.45-.35-.3-.49-.08-.59.15-.58.35-.46.49-.29.59-.08 5.94.22.58.13.47.33.31.48.11.59-.13.58-.32.46-.47.31zm3.1.03-.59-.12-.47-.32-.32-.47-.12-.59.12-.59.32-.47.47-.32.59-.12 5.94-.11.57.09.49.3.35.47.15.58-.1.6-.3.48-.46.34-.59.14zm-3.24-429.98-.58-.12-.47-.31-.32-.47-.13-.58.12-.59.31-.48.47-.32.58-.13 6.04-.01.58.13.47.32.32.48.11.59-.12.58-.32.47-.47.32-.59.11h-.01l-5.97.01zm17.99.37h-.08l-5.97-.25-.58-.14-.46-.34-.31-.48-.1-.59.14-.59.34-.46.48-.31.59-.09 6.03.25.58.16.45.34.3.49.08.59-.14.57-.32.44-.47.3zm-29.98.03-.56-.11-.47-.3-.32-.45-.15-.56.09-.59.29-.49.46-.35.58-.15 6.03-.27h.05l.57.12.47.3.32.46.13.57-.1.6-.3.48-.46.33-.58.14-5.96.27zm41.94.87h-.15l-5.94-.52-.58-.16-.44-.35-.29-.5-.07-.6.16-.57.36-.45.5-.28.59-.08 6.01.52.57.18.44.36.27.5.06.6-.16.54-.33.43-.45.28zm-53.9.05-.55-.1-.45-.28-.33-.43-.16-.54.06-.6.27-.5.44-.36.57-.18 6.01-.53.59.07.5.28.36.45.16.58-.07.6-.28.49-.45.36-.58.16-5.94.52zm65.81 1.38-.21-.01-5.92-.78-.57-.19-.43-.37-.26-.51-.05-.6.19-.57.38-.43.51-.26.59-.05 5.98.79.57.2.42.38.25.51.04.6-.18.52-.33.41-.45.26zm-77.72.07-.53-.1-.45-.26-.33-.41-.17-.52.03-.6.25-.51.42-.38.57-.21 5.98-.79.59.05.51.26.38.43.19.57-.05.6-.26.51-.43.37-.57.19-5.91.78zm89.56 1.88-.28-.02-5.87-1.04-.57-.21-.41-.4-.24-.51-.02-.6.21-.57.39-.41.52-.24.6-.02 5.94 1.05.56.22.41.4.22.53.01.6-.19.5-.33.38-.44.25zm-101.39.09-.51-.09-.44-.25-.33-.38-.19-.5v-.6l.23-.53.41-.4.55-.22 5.94-1.06.6.02.52.24.39.41.21.56-.02.6-.23.52-.42.39-.56.22-5.87 1.04zm113.13 2.38-.34-.03-5.83-1.3-.55-.24-.4-.41-.21-.53v-.6l.24-.55.41-.39.53-.22h.6l5.89 1.31.54.25.39.42.21.54-.02.6-.2.47-.34.36-.43.24zm-124.87.11-.49-.08-.43-.23-.33-.37-.21-.47-.01-.6.2-.53.39-.42.54-.26 5.89-1.32h.59l.53.21.42.4.24.55v.6l-.21.53-.4.41-.55.24-5.82 1.3zm136.49 2.88-.41-.05-5.76-1.55-.54-.27-.38-.42-.19-.54.03-.6.26-.54.43-.38.54-.19.6.03 5.82 1.57.53.28.37.43.18.54-.04.6-.55.8zm-148.1.14-.9-.3-.54-.79-.05-.6.18-.54.37-.44.53-.28 5.82-1.58.6-.03.54.19.43.38.26.54.03.6-.19.54-.37.42-.54.27-5.76 1.56zm159.57 3.37-.47-.08-5.69-1.8-.52-.29-.36-.44-.17-.55.06-.6.28-.52.45-.36.54-.17.6.06 5.75 1.82.52.3.35.45.15.55-.07.6-.56.75zm-171.06.16-.86-.28-.56-.75-.07-.59.15-.55.35-.46.52-.3 5.77-1.84.6-.06.54.17.44.36.29.52.06.6-.17.55-.35.44-.53.29-5.71 1.82zm182.36 3.85-.53-.1-5.6-2.05-.51-.31-.34-.46-.14-.56.08-.59.31-.51.46-.34.55-.15.6.09 5.66 2.08.51.32.32.47.13.55-.09.59-.57.72zm-193.7.2-.83-.26-.57-.71-.1-.59.13-.55.33-.47.51-.32 5.67-2.1.6-.09.55.14.46.34.31.52.09.59-.15.55-.33.46-.52.31-5.61 2.08zm204.8 4.3-.59-.12-5.49-2.3-.5-.33-.31-.47-.12-.56.11-.59.33-.5.47-.32.56-.12.59.11 5.55 2.32.49.35.31.48.1.56-.12.59-.57.66zm-215.93.24-.81-.23-.57-.67-.13-.59.11-.56.31-.48.49-.34 5.57-2.35.59-.12.56.12.47.32.34.5.11.59-.12.56-.31.47-.5.34-5.52 2.32zm226.8 4.74-.65-.15-5.38-2.54-.49-.35-.29-.49-.1-.56.14-.58.35-.49.49-.29.56-.1.59.14 5.44 2.56.48.37.28.49.08.56-.15.59-.56.62zm-237.73.3-.78-.22-.57-.63-.15-.58.08-.56.29-.5.47-.36 5.47-2.59.58-.14.56.09.49.3.36.48.13.58-.09.57-.29.49-.49.35-5.4 2.56zm248.38 5.16-.71-.18-5.27-2.78-.47-.37-.27-.5-.07-.57.16-.57.38-.47.5-.28.56-.07.58.16 5.32 2.81.46.39.27.5.05.57-.17.57-.57.59zm-259.06.35-.75-.2-.57-.58-.18-.58.06-.56.26-.51.46-.39 5.34-2.83.58-.16.56.07.5.27.38.47.16.57-.06.57-.28.5-.46.38-5.29 2.8zm269.46 5.57-.77-.21-5.14-3-.45-.4-.26-.51-.04-.57.19-.57.39-.45.52-.25.56-.05.57.19 5.2 3.04.44.4.24.52.04.57-.2.57-.57.54zm-279.89.41-.72-.19-.56-.54-.2-.57.03-.57.23-.51.45-.41 5.2-3.06.57-.19.57.04.51.25.4.45.19.57-.04.57-.25.51-.45.4-5.16 3.03zm290.02 5.97-.82-.24-5.01-3.23-.43-.42-.23-.52-.02-.57.21-.56.42-.44.52-.23.57-.01.56.21 5.06 3.26.42.43.22.52.01.57-.23.56-.55.5zm-300.17.46-.69-.17-.56-.5-.22-.56v-.57l.22-.53.42-.42 5.07-3.29.56-.21.57.01.52.23.42.43.21.56-.01.57-.23.53-.44.41-5.01 3.26zm310.02 6.36-.88-.28-4.86-3.45-.42-.43-.2-.53v-.57l.24-.56.43-.41.54-.21.57.01.55.23 4.91 3.49.41.44.19.54-.02.57-.25.54-.54.47zm-319.87.51-.66-.16-.55-.46-.25-.55-.02-.57.19-.53.41-.45 4.91-3.5.55-.24.57-.01.53.2.44.42.24.55.01.57-.21.53-.41.44-4.86 3.47zm329.41 6.74-.48-.08-.45-.24-4.71-3.66-.39-.45-.19-.54.04-.57.26-.54.45-.4.54-.18.57.03.54.26 4.76 3.7.38.46.17.54-.04.57-.27.54-.54.42zm-338.94.55-.64-.14-.54-.42-.27-.54-.05-.57.17-.54.39-.46 4.75-3.72.54-.26.57-.04.54.19.45.39.27.54.03.57-.18.54-.4.45-4.7 3.68-.45.25zm348.16 7.12-.51-.09-.48-.28-4.54-3.86-.37-.47-.16-.55.05-.57.29-.52.47-.38.54-.16.57.06.53.28 4.59 3.91.37.47.15.55-.07.57-.3.52-.52.39zm-357.37.58-.6-.12-.53-.39-.3-.52-.07-.57.15-.55.36-.48 4.59-3.92.53-.29.56-.05.55.15.47.38.29.53.05.56-.15.55-.38.47-4.53 3.88-.48.28zm366.24 7.48-.54-.1-.49-.31-4.37-4.06-.35-.48-.14-.56.08-.56.31-.52.48-.35.56-.14.56.08.52.31 4.42 4.1.34.49.12.56-.09.56-.32.51-.51.35zm-375.09.62-.58-.12-.51-.35-.32-.5-.09-.57.12-.55.34-.5 4.41-4.11.51-.31.56-.09.56.14.49.35.3.51.09.57-.14.55-.35.49-4.36 4.07-.49.32zm383.61 7.83-.57-.12-.51-.34-4.19-4.25-.33-.5-.11-.56.11-.56.32-.5.5-.34.56-.11.56.11.51.33 4.23 4.29.32.51.1.56-.12.56-.34.49-.49.32zm-392.1.64-.55-.1-.49-.31-.34-.5-.12-.55.09-.57.32-.5 4.23-4.31.5-.33.56-.11.56.11.5.33.33.5.1.56-.1.56-.34.5-4.17 4.26-.51.35zm400.24 8.17-.6-.12-.52-.39-4-4.42-.31-.52-.09-.56.13-.56.35-.48.51-.31.57-.09.55.13.49.35 4.05 4.48.3.52.07.56-.14.56-.37.47-.47.29zm-408.35.67-.52-.09-.47-.28-.36-.48-.15-.55.07-.57.3-.52 4.03-4.49.49-.35.55-.13.56.08.52.31.35.49.13.55-.08.57-.31.51-3.98 4.44-.53.38zm416.1 8.5-.63-.14-.54-.42-3.8-4.6-.29-.53-.06-.57.15-.55.38-.47.52-.28.57-.07.55.16.47.37 3.85 4.65.27.53.05.57-.16.55-.39.46-.45.25zm-423.81.68-.49-.08-.45-.25-.38-.46-.17-.55.04-.57.28-.53 3.82-4.66.48-.37.54-.16.57.06.53.29.37.47.16.55-.06.56-.29.53-3.78 4.61-.54.42zm431.15 8.82-.66-.16-.54-.45-3.6-4.77-.27-.54-.03-.57.18-.54.39-.45.54-.27.56-.03.55.18.45.39 3.64 4.81.25.55.03.57-.19.54-.41.44zm6.92 9.81-.69-.17-.56-.49-3.38-4.92-.24-.55-.01-.57.2-.53.41-.44.55-.24.57-.01.53.2.44.41 3.42 4.97.23.56v.57l-.21.53-.42.43zm6.48 10.12-.72-.19-.56-.53-3.17-5.07-.21-.56.01-.57.23-.52.43-.42.56-.22.57.02.52.22.42.43 3.2 5.13.21.56-.03.57-.24.52-.44.41zm6.03 10.39-.75-.2-.56-.58-2.94-5.2-.2-.57.04-.56.25-.52.45-.4.57-.19.57.04.51.25.4.45 2.98 5.26.17.57-.05.57-.26.51-.46.38zm5.57 10.66-.78-.22-.57-.62-2.71-5.33-.16-.57.06-.57.27-.5.47-.38.57-.17.57.07.5.27.38.46 2.74 5.39.16.58-.08.57-.28.49-.48.37zm-488.24.61-.66-.16-.48-.36-.28-.5-.08-.56.15-.58 2.72-5.37.38-.47.5-.27.56-.07.58.17.47.37.27.51.06.56-.16.58-2.68 5.31-.57.62zm493.33 10.28-.81-.23-.57-.66-2.47-5.45-.14-.58.09-.56.29-.49.49-.36.58-.14.56.08.49.3.36.48 2.5 5.51.13.59-.1.56-.31.48-.49.35zm-498.37.57-.6-.13-.49-.35-.3-.48-.1-.56.12-.59 2.47-5.48.36-.48.49-.29.56-.09.58.13.49.36.29.49.09.56-.14.59-2.44 5.42-.57.66zm502.97 10.55-.83-.25-.57-.71-2.23-5.55-.11-.59.11-.56.32-.48.5-.33.59-.12.56.12.47.31.34.5 2.25 5.62.1.59-.13.56-.32.46-.51.33zm-507.52.52-.54-.1-.51-.32-.32-.47-.13-.56.1-.59 2.23-5.6.34-.5.47-.32.56-.11.59.11.5.33.31.48.12.56-.11.59-2.21 5.54-.56.7zm-4.07 11.29-.48-.08-.52-.3-.34-.46-.15-.54.07-.6 1.98-5.7.31-.51.46-.34.56-.14.59.09.51.31.34.46.14.55-.09.6-1.96 5.63-.55.75zm-9.14 34.78-.29-.03-.55-.23-.41-.4-.22-.52-.01-.6 1.21-5.91.24-.55.42-.4.53-.21.59.01.55.24.4.41.21.53-.01.6-1.19 5.85-.19.49-.33.38-.44.25zm537.59 23.24-.55-.1-.45-.28-.33-.42-.16-.54-.69-5.93.05-.6.25-.51.43-.37.57-.2.6.05.51.26.38.43.19.56.69 6-.06.59-.27.51-.43.36-.58.18zm.98 11.96-.56-.11-.46-.3-.33-.44-.15-.56-.42-5.95.07-.6.28-.5.45-.35.57-.17.6.08.49.27.36.45.17.57.43 6.02-.09.59-.29.49-.45.35-.58.15zm-537.84 72.07-.5-.09-.44-.24-.33-.37-.2-.49-1.16-5.92.01-.6.23-.53.41-.4.56-.22.6.01.52.23.4.41.22.55 1.15 5.86v.6l-.21.53-.4.4-.55.24zm2.69 11.69-.91-.31-.33-.35-.21-.47-1.42-5.86-.01-.6.2-.53.39-.42.55-.25.6-.01.53.2.42.39.24.55 1.41 5.79.03.6-.19.54-.38.43-.54.26zm3.22 11.56-.89-.29-.55-.77-1.68-5.8-.04-.6.18-.54.37-.43.53-.28.6-.04.54.18.44.37.27.54 1.66 5.73.06.6-.17.54-.36.44-.53.29zm3.73 11.45-.85-.27-.56-.73-1.95-5.74-.06-.59.15-.55.35-.45.53-.3.59-.07.55.16.45.35.3.52 1.92 5.67.08.6-.15.55-.34.46-.51.3zm509.37 10.73-.56-.1-.5-.33-.32-.47-.12-.56.11-.59 2.15-5.57.32-.51.46-.33.56-.13.59.09.51.32.33.47.13.55-.09.59-2.18 5.63-.56.7zm-505.13.53-.82-.24-.57-.7-2.19-5.64-.1-.59.13-.55.33-.47.51-.32.59-.1.56.14.46.33.32.51 2.18 5.57.1.59-.12.56-.32.48-.5.33zm500.45 10.47-.62-.13-.49-.35-.3-.49-.09-.56.13-.58 2.39-5.45.34-.49.48-.31.56-.11.59.12.49.34.31.48.11.56-.12.59-2.42 5.5-.56.65zm-495.71.59-.8-.23-.57-.65-2.44-5.53-.12-.59.11-.56.31-.48.49-.34.59-.12.56.11.48.31.34.49 2.42 5.47.13.59-.09.56-.3.49-.49.35zm490.54 10.2-.68-.16-.47-.37-.27-.5-.07-.57.15-.58 2.63-5.33.37-.48.49-.29.56-.08.58.14.48.37.29.49.08.56-.14.58-2.66 5.4-.57.61zm-485.32.64-.77-.22-.57-.6-2.68-5.42-.15-.58.08-.57.29-.49.48-.36.58-.15.56.08.5.29.36.48 2.66 5.36.16.57-.07.57-.28.5-.47.37zm479.68 9.92-.73-.2-.46-.39-.25-.51-.05-.57.18-.57 2.87-5.22.38-.46.51-.27.56-.06.58.18.46.38.27.5.06.57-.18.58-2.89 5.27-.57.57zm-473.99.66-.74-.19-.56-.57-2.92-5.29-.18-.57.06-.57.27-.51.46-.38.57-.17.57.06.51.26.38.46 2.89 5.23.18.57-.04.57-.25.51-.46.4zm467.89 9.63-.79-.22-.44-.41-.23-.53-.02-.57.21-.56 3.09-5.09.4-.44.52-.25.57-.03.56.2.45.4.24.52.04.57-.2.56-3.12 5.15-.56.52zm-461.73.69-.71-.18-.56-.52-3.15-5.16-.2-.56.03-.57.24-.52.45-.4.56-.2.57.03.52.24.4.45 3.12 5.1.21.56-.02.57-.23.52-.43.41zm455.18 9.34-.85-.26-.41-.43-.21-.53v-.57l.23-.56 3.32-4.95.42-.42.53-.22.57-.01.55.22.43.42.22.52.01.58-.22.55-3.35 5.01-.55.49zm-448.58.7-.68-.17-.56-.48-3.37-5.01-.22-.55v-.57l.22-.53.43-.42.56-.23.57.01.52.22.43.42 3.33 4.96.24.55v.57l-.2.53-.42.43zm441.59 9.03-.9-.3-.4-.45-.18-.54.03-.57.25-.54 3.53-4.8.44-.41.54-.2.57.02.55.24.4.45.2.53-.01.57-.25.55-3.57 4.85-.54.45zm-434.55.7-.66-.15-.54-.44-3.59-4.86-.25-.54-.02-.57.2-.54.4-.44.55-.25.57-.02.54.2.44.41 3.55 4.8.26.54.03.57-.18.54-.4.45zm427.14 8.72-.49-.08-.46-.26-.38-.47-.16-.54.05-.57.29-.53 3.73-4.65.46-.39.54-.17.57.04.54.27.39.46.17.54-.04.57-.27.54-3.78 4.69-.53.41zm-419.69.69-.63-.13-.53-.41-3.8-4.69-.27-.54-.04-.57.17-.54.39-.46.53-.27.57-.04.55.17.45.39 3.76 4.63.29.53.05.57-.16.55-.38.47-.46.26zm411.87 8.4-.52-.1-.48-.29-.36-.48-.13-.55.08-.57.3-.51 3.94-4.48.47-.37.55-.15.57.07.52.29.37.47.15.56-.07.56-.29.53-3.98 4.52-.52.38zm-404.02.67-.59-.12-.52-.37-4-4.52-.29-.52-.07-.57.15-.55.36-.47.53-.3.56-.07.56.15.47.37 3.96 4.47.3.51.08.57-.13.55-.36.49-.48.29zm395.81 8.07-.55-.11-.5-.32-.33-.5-.12-.56.11-.56.32-.5 4.13-4.3.49-.35.56-.13.56.09.51.32.35.49.13.56-.09.56-.32.51-4.18 4.35-.5.34zm-387.56.65-.56-.11-.51-.34-4.19-4.34-.32-.5-.09-.57.12-.55.35-.5.51-.31.56-.1.56.13.49.34 4.15 4.29.32.5.11.57-.11.56-.34.49-.49.33zm378.97 7.72-.58-.12-.52-.35-.31-.52-.09-.56.13-.56.35-.48 4.32-4.12.5-.33.56-.1.56.12.5.33.32.51.1.56-.11.56-.34.5-4.37 4.16-.48.3zm-370.35.62-.54-.1-.48-.3-4.38-4.15-.34-.49-.12-.56.1-.56.32-.51.5-.34.56-.11.56.1.51.32 4.32 4.1.35.49.13.56-.08.56-.31.51-.52.36zm361.4 7.37-.61-.13-.53-.39-.29-.53-.06-.56.15-.55.37-.48 4.49-3.92.52-.3.57-.08.55.14.48.36.3.52.08.56-.14.55-.36.48-4.55 3.97-.46.28zm-352.44.59-.5-.09-.46-.27-4.56-3.95-.36-.48-.14-.55.07-.57.31-.52.48-.36.55-.14.56.08.52.3 4.51 3.9.37.48.15.54-.06.57-.29.53-.53.4zm343.15 7.01-.65-.15-.54-.43-.27-.54-.03-.57.17-.54.39-.46 4.67-3.72.53-.28.57-.05.54.16.47.38.28.53.05.57-.17.55-.38.46-4.71 3.77-.45.24zm-333.84.54-.47-.08-.45-.24-4.72-3.74-.38-.46-.16-.55.04-.57.28-.53.47-.38.54-.17.57.05.53.28 4.67 3.71.39.45.18.54-.04.57-.26.54-.54.43zm324.21 6.64-.67-.16-.55-.47-.24-.55-.02-.57.2-.54.41-.44 4.83-3.51.54-.26.57-.03.54.19.44.4.26.54.03.57-.19.54-.4.45-4.88 3.56zm-314.58.49-.87-.27-4.88-3.54-.4-.44-.19-.54.03-.57.25-.54.45-.4.54-.19.57.02.54.25 4.83 3.5.41.44.2.53-.01.57-.25.55-.55.47zm304.65 6.26-.7-.17-.56-.52-.22-.55.01-.58.22-.52.43-.42 4.98-3.3.55-.24h.57l.53.21.43.42.23.56.01.57-.22.53-.42.43-5.03 3.34zm-294.72.45-.82-.24-5.02-3.32-.42-.43-.22-.52v-.57l.23-.56.43-.42.53-.21h.57l.56.23 4.97 3.28.43.41.22.53.02.57-.22.56-.56.51zm284.49 5.86-.73-.19-.56-.55-.2-.57.04-.57.25-.52.44-.4 5.12-3.08.57-.2.57.02.52.23.41.44.2.56-.02.57-.23.52-.44.41-5.18 3.12zm-274.29.39-.75-.2-5.17-3.09-.44-.41-.23-.52-.03-.57.21-.56.41-.44.52-.24.57-.02.56.2 5.11 3.06.45.4.24.51.04.57-.19.57-.56.55zm263.8 5.46-.76-.21-.57-.59-.17-.57.06-.57.27-.5.46-.39 5.26-2.85.57-.18.57.05.51.26.39.45.18.57-.05.57-.26.51-.45.39-5.31 2.89zm-253.33.34-.7-.17-5.29-2.86-.46-.39-.26-.51-.05-.56.18-.58.39-.45.51-.26.57-.05.57.18 5.24 2.82.47.38.26.51.07.56-.17.58-.57.59zm242.58 5.04-.79-.22-.57-.63-.14-.59.08-.56.29-.49.48-.36 5.38-2.62.58-.16.56.08.5.28.37.47.16.58-.08.57-.28.49-.47.37-5.43 2.65zm-231.87.29-.64-.14-5.41-2.62-.47-.37-.28-.5-.08-.56.16-.58.37-.48.49-.28.57-.07.58.15 5.35 2.59.48.36.29.49.09.57-.14.58-.57.64zm220.88 4.62-.82-.24-.56-.68-.12-.59.11-.56.31-.48.5-.33 5.49-2.38.58-.13.57.1.48.3.35.49.13.58-.1.56-.3.49-.49.35-5.55 2.4zm-209.95.23-.58-.12-5.52-2.37-.49-.35-.3-.49-.1-.56.13-.58.35-.49.48-.3.56-.11.59.13 5.46 2.35.49.34.32.48.11.56-.11.59-.57.68zm198.75 4.18-.84-.26-.56-.72-.09-.6.13-.55.33-.46.51-.32 5.6-2.13.59-.1.56.12.47.32.32.51.11.59-.13.55-.32.47-.5.33-5.66 2.16zm-187.6.19-.51-.1-5.65-2.13-.5-.33-.32-.47-.13-.56.11-.59.32-.5.47-.33.56-.12.59.1 5.58 2.12.51.31.33.46.14.56-.09.59-.56.72zm176.22 3.72-.88-.28-.55-.77-.07-.59.16-.55.36-.45.52-.29 5.69-1.88.59-.08.55.15.46.34.3.52.08.6-.15.55-.34.45-.52.31-5.75 1.9zm-164.86.15-.46-.07-5.73-1.88-.52-.31-.34-.45-.15-.55.08-.6.3-.52.46-.34.55-.15.59.08 5.67 1.86.52.29.36.45.16.55-.06.59-.56.77zm153.35 3.24-.91-.31-.33-.34-.21-.46-.04-.6.19-.54.37-.43.54-.27 5.74-1.62.59-.05.55.17.44.36.28.53.05.6-.17.55-.36.44-.54.28-5.8 1.64zm-141.84.13-.39-.05-5.81-1.63-.53-.28-.36-.44-.18-.55.05-.59.29-.53.44-.37.54-.17.59.05 5.75 1.61.54.27.37.43.19.54-.04.6-.21.46-.33.34zm130.19 2.74-.5-.09-.43-.23-.33-.37-.2-.48-.02-.6.21-.53.39-.42.55-.24 5.81-1.37.6-.02.54.19.42.39.26.54.02.6-.2.53-.38.43-.54.25-5.87 1.38zm-118.54.11-.32-.04-5.88-1.37-.54-.25-.38-.42-.2-.54.02-.6.26-.54.42-.38.54-.2.6.02 5.81 1.35.55.25.39.41.21.53-.01.6-.2.49-.33.36-.44.24zm106.77 2.24-.51-.09-.44-.25-.33-.39-.19-.51.01-.59.24-.53.41-.39.55-.22 5.87-1.11h.59l.53.22.41.41.23.55v.6l-.22.52-.4.41-.56.23-5.92 1.12zm-95 .09-.26-.02-5.93-1.11-.55-.23-.4-.41-.22-.52-.01-.6.24-.56.4-.4.53-.22h.6l5.86 1.09.56.22.41.4.23.52.02.6-.19.5-.33.39-.44.26zm83.15 1.74-.54-.09-.45-.28-.33-.4-.17-.53.04-.6.26-.51.43-.38.56-.19 5.91-.85.6.03.51.24.39.42.21.57-.03.59-.24.52-.42.39-.56.21-5.97.85zm-71.29.07-.19-.01-5.98-.85-.56-.21-.42-.38-.24-.52-.03-.6.2-.56.39-.42.52-.24.6-.03 5.9.83.57.19.43.38.25.51.05.6-.17.53-.33.41-.45.27zm59.36 1.24-.55-.11-.46-.28-.32-.43-.16-.55.07-.6.28-.5.44-.36.57-.17 5.94-.58.6.05.5.27.37.44.19.57-.06.6-.27.5-.43.37-.57.18-6.01.59zm-47.43.04h-.13l-6-.58-.57-.19-.44-.36-.27-.51-.05-.6.18-.57.37-.44.5-.26.6-.06 5.94.58.57.17.45.35.27.5.07.6-.15.55-.33.43-.46.28zm35.46.74-.57-.11-.46-.31-.33-.45-.14-.56.1-.6.3-.48.46-.34.58-.15 5.96-.32.58.08.5.29.35.45.16.58-.08.59-.29.49-.45.35-.58.16-6.02.33zm-23.49.02h-.06l-6.02-.32-.58-.15-.46-.35-.28-.49-.09-.6.16-.58.34-.45.49-.28.61-.09 5.95.31.59.15.46.34.3.48.09.59-.14.57-.32.45-.47.31zm11.5.24-5.55-.05-.58-.14-.47-.32-.31-.48-.11-.59.13-.58.32-.47.47-.31.58-.11h.03l11.45-.02.62.13.47.3.32.46.13.58-.11.59-.31.48-.46.33-.59.13zM431.22 3.03l-.59-.12-.47-.32-.32-.46-.12-.58.11-.59.31-.48.47-.33.59-.12L436 0h1.22l.59.12.47.32.32.48.12.59-.12.58-.32.47-.48.32-.58.12H436l-4.76.03zm17.98.18h-.05l-5.96-.15-.59-.13-.46-.32-.32-.48-.11-.59.13-.58.32-.47.47-.31.58-.12h.03l6.01.15.58.14.46.33.31.48.1.6-.13.57-.33.46-.46.3zm-29.98.13-.57-.12-.46-.3-.33-.45-.14-.57.1-.6.3-.48.46-.34.58-.14 6.02-.2h.04l.58.11.47.31.32.46.13.58-.11.59-.3.48-.47.33-.58.14-5.98.2zm41.97.42h-.09l-5.97-.32-.59-.15-.45-.34-.3-.48-.09-.6.15-.58.34-.46.49-.3.58-.08 6.02.32.58.15.45.35.29.49.08.59-.14.56-.33.45-.46.29zM407.24 4l-.56-.11-.46-.3-.32-.43-.15-.56.08-.6.28-.49.45-.35.58-.16 6.01-.37.6.09.49.3.34.44.15.58-.09.6-.29.48-.45.35-.59.15-5.96.37zm65.91.66h-.13l-5.96-.49-.58-.17-.45-.35-.28-.5-.08-.59.17-.58.35-.45.5-.28.59-.08 6 .5.58.17.44.36.28.5.06.6-.15.54-.33.43-.46.29zM395.29 5l-.55-.1-.46-.28-.32-.43-.16-.54.06-.6.27-.5.44-.36.57-.18 6-.55.6.08.49.28.36.44.17.57-.07.59-.28.5-.45.36-.57.17-5.95.54zm89.79.92-.18-.02-5.93-.66-.58-.18-.43-.37-.27-.5-.06-.6.18-.57.38-.43.5-.27.59-.07 5.98.68.57.18.43.38.26.5.05.6-.17.54-.32.41-.46.27zm-101.72.44-.53-.1-.45-.28-.33-.41-.17-.52.04-.6.26-.51.43-.38.57-.19 5.97-.73.6.05.51.27.37.43.18.58-.05.59-.26.51-.44.37-.57.19-5.93.71zm113.61 1.15-.22-.01-5.92-.84-.56-.2-.43-.38-.25-.51-.04-.6.19-.57.38-.43.52-.25.59-.04 5.96.85.57.21.42.38.24.52.04.6-.18.51-.33.4-.45.27zm-125.48.55-.52-.1-.45-.26-.33-.39-.18-.52.03-.6.24-.51.41-.39.57-.21 5.95-.9.6.03.51.25.39.42.2.57-.04.6-.25.51-.42.39-.56.2-5.91.89zm137.32 1.4-.26-.02-5.89-1.02-.56-.21-.42-.39-.24-.52-.02-.6.21-.56.39-.42.52-.23.6-.03 5.94 1.03.55.22.41.4.23.52.02.6-.19.5-.33.39-.44.25zm-149.14.65-.51-.09-.44-.25-.33-.38-.19-.5v-.6l.23-.53.41-.4.55-.22 5.93-1.08.6.02.52.23.39.41.22.56-.02.6-.23.52-.41.4-.56.22-5.88 1.06zm160.92 1.65-.31-.03-5.86-1.19-.55-.23-.4-.41-.23-.52v-.6l.23-.55.4-.41.53-.22.6-.01 5.9 1.2.55.24.4.41.21.53v.6l-.2.48-.33.38-.44.24zm-172.68.75-.5-.09-.43-.24-.33-.36-.2-.49-.01-.6.21-.53.39-.41.55-.24 5.89-1.25h.6l.53.22.41.39.23.56v.6l-.22.52-.39.41-.56.24-5.84 1.23zm184.38 1.89-.35-.04-5.82-1.36-.55-.25-.39-.41-.21-.53.02-.6.24-.55.42-.39.53-.21.6.01 5.86 1.37.55.26.38.42.2.53-.02.6-.2.47-.34.36-.43.24zm-196.06.86-.91-.32-.33-.35-.21-.47-.03-.6.2-.54.38-.42.54-.26 5.85-1.42.61-.02.53.2.41.39.25.55.02.6-.2.53-.39.42-.54.25-5.81 1.41zm207.68 2.13-.39-.06-5.78-1.53-.54-.26-.38-.43-.19-.53.03-.6.26-.54.43-.38.54-.19.6.03 5.82 1.54.53.27.37.43.19.54-.04.6-.21.46-.33.34zm-219.27.95-.9-.3-.54-.79-.05-.6.18-.54.37-.44.53-.27 5.81-1.59.6-.04.54.19.43.37.27.54.03.6-.18.54-.38.43-.54.27-5.76 1.58zm230.8 2.37-.44-.06-5.73-1.7-.53-.28-.37-.44-.17-.54.05-.6.27-.53.44-.37.55-.17.59.05 5.78 1.71.52.29.36.44.17.54-.06.6-.55.78zm-242.3 1.06-.87-.28-.56-.77-.06-.59.16-.55.36-.45.52-.29 5.76-1.76.6-.06.54.18.44.36.29.53.05.6-.17.54-.36.44-.53.28-5.72 1.75zm253.72 2.61-.48-.08-5.68-1.87-.52-.29-.35-.45-.16-.55.07-.59.29-.53.45-.35.55-.16.59.07 5.72 1.88.52.3.35.46.15.55-.08.59-.55.75zM301.7 25.56l-.85-.27-.56-.74-.08-.59.14-.55.35-.46.51-.31 5.73-1.94.59-.07.55.15.45.35.3.52.07.6-.15.55-.35.45-.52.3-5.68 1.93zm276.47 2.83-.52-.1-5.62-2.03-.51-.31-.34-.46-.15-.55.09-.6.31-.51.46-.34.55-.14.59.08 5.66 2.05.51.32.34.46.13.56-.09.59-.56.72zm-287.78 1.29-.84-.26-.56-.71-.1-.59.13-.56.33-.46.51-.32 5.66-2.11.59-.09.56.14.46.33.31.51.09.6-.14.55-.33.46-.51.32-5.62 2.09zm298.97 3.04-.56-.11-5.56-2.2-.51-.32-.32-.47-.13-.56.1-.59.33-.5.47-.33.55-.13.59.11 5.6 2.21.5.34.32.47.12.56-.11.59-.57.69zm-310.15 1.41-.82-.24-.57-.68-.11-.59.11-.56.31-.48.5-.33 5.6-2.28.59-.11.56.13.47.32.33.5.1.59-.12.56-.32.47-.5.33-5.56 2.26zm321.16 3.24-.6-.13-5.47-2.35-.5-.34-.31-.48-.11-.56.12-.59.34-.49.48-.31.55-.11.59.11 5.51 2.38.49.34.31.48.1.57-.13.58-.57.66zm-332.2 1.54-.8-.23-.57-.65-.14-.59.1-.56.3-.49.49-.35 5.52-2.44.59-.12.56.11.48.3.34.49.13.59-.11.56-.3.48-.5.35-5.48 2.42zm343.07 3.43-.64-.15-5.4-2.51-.49-.36-.29-.48-.1-.57.14-.58.35-.49.49-.29.56-.1.59.14 5.44 2.53.48.36.28.5.09.56-.14.58-.57.64zm-353.97 1.68-.78-.22-.57-.63-.15-.58.08-.56.29-.5.47-.36 5.45-2.6.59-.15.56.09.49.3.36.48.14.58-.09.56-.29.49-.49.36-5.4 2.58zm364.7 3.61-.69-.17-5.32-2.67-.47-.37-.29-.49-.07-.57.15-.58.37-.47.49-.29.57-.07.58.15 5.36 2.69.47.38.28.5.06.56-.16.58-.56.61zm-375.44 1.81-.76-.21-.57-.6-.16-.58.06-.56.27-.5.47-.38 5.36-2.76.59-.16.56.07.5.28.37.47.16.58-.07.56-.28.5-.47.38-5.33 2.74zm386.01 3.79-.72-.19-5.25-2.83-.46-.38-.27-.5-.06-.57.17-.58.38-.46.5-.27.57-.06.58.17 5.28 2.85.46.39.26.51.05.57-.18.57-.56.58zm-396.57 1.94-.75-.2-.56-.56-.19-.58.05-.56.26-.51.45-.4 5.28-2.91.58-.18.57.06.5.26.39.46.17.57-.05.57-.26.51-.46.38-5.25 2.9zm406.97 3.97-.76-.21-5.16-2.98-.45-.39-.26-.52-.04-.56.19-.58.39-.45.51-.25.57-.05.57.19 5.2 3.01.45.4.24.51.04.57-.19.57-.57.55zm-417.36 2.07-.73-.18-.56-.55-.2-.56.03-.57.24-.52.44-.4 5.19-3.07.57-.2.57.04.52.25.4.45.19.57-.04.57-.25.51-.45.4-5.15 3.05zm427.59 4.15-.8-.23-5.07-3.14-.44-.4-.24-.52-.03-.57.21-.57.41-.44.51-.24.57-.02.57.2 5.11 3.16.43.41.23.52.02.57-.21.56-.56.53zm-437.8 2.19-.71-.17-.55-.52-.22-.56.01-.57.23-.52.43-.42 5.1-3.22.56-.21.57.02.52.24.41.43.21.57-.02.57-.23.52-.44.41-5.06 3.2zm447.85 4.32-.84-.25-4.98-3.29-.42-.42-.23-.52-.01-.57.22-.56.42-.43.53-.22.57-.01.56.22 5.01 3.31.43.42.21.53v.57l-.22.56-.56.49zm-457.86 2.32-.69-.16-.55-.49-.24-.56v-.57l.21-.53.42-.43 5-3.36.55-.23h.57l.53.22.43.43.22.55v.57l-.22.53-.42.43-4.97 3.34zm467.71 4.49-.87-.28-4.88-3.43-.42-.43-.2-.53v-.57l.24-.55.43-.42.53-.21.57.01.55.23 4.92 3.46.41.43.2.54-.01.57-.24.55-.55.47zm-477.53 2.44-.66-.16-.55-.46-.25-.55-.02-.57.19-.53.41-.45 4.9-3.51.55-.24.57-.01.53.2.44.41.24.55.01.57-.2.54-.41.43-4.87 3.49zm-9.6 7.2-.65-.14-.54-.44-.26-.54-.04-.57.18-.54.39-.45 4.79-3.65.54-.26.57-.03.54.19.45.4.26.54.03.57-.19.54-.4.45-4.75 3.62zm-9.39 7.49-.62-.14-.54-.41-.28-.53-.05-.57.16-.54.38-.47 4.68-3.79.54-.27.56-.05.55.17.46.39.27.53.05.57-.17.54-.39.47-4.65 3.76-.46.26zm-9.16 7.75-.61-.13-.52-.38-.3-.52-.07-.57.15-.55.36-.48 4.57-3.92.53-.29.57-.06.55.15.47.37.29.53.06.57-.16.55-.37.47-4.53 3.89-.48.28zm-8.93 8.02-.59-.12-.51-.36-.31-.52-.09-.56.13-.56.35-.48 4.45-4.06.52-.3.57-.08.55.14.48.36.3.51.08.57-.14.55-.35.48-4.42 4.03-.49.3zm-8.69 8.27-.57-.11-.5-.34-.33-.51-.1-.56.11-.56.34-.49 4.33-4.18.51-.32.56-.1.56.12.49.35.32.51.09.56-.12.56-.34.49-4.3 4.15-.5.32zm-8.45 8.52-.54-.1-.5-.32-.34-.49-.11-.56.09-.56.32-.51 4.21-4.31.5-.33.56-.11.56.1.5.33.34.5.11.56-.11.56-.33.5-4.17 4.28-.51.35zm-8.19 8.76-.52-.1-.49-.29-.35-.49-.14-.55.09-.57.3-.51 4.08-4.43.49-.35.56-.12.56.09.51.31.35.49.13.56-.09.56-.32.51-4.05 4.4-.52.37zm-7.93 8.99-.51-.09-.46-.27-.37-.47-.15-.55.06-.57.29-.53 3.95-4.54.48-.36.55-.14.57.07.52.3.36.48.14.55-.07.57-.3.52-3.92 4.51-.53.39zm-7.66 9.22-.49-.08-.45-.26-.38-.46-.17-.54.05-.57.27-.54 3.81-4.65.47-.37.55-.16.57.05.53.29.37.47.16.54-.05.57-.29.53-3.78 4.62-.54.42zm648.97 15.69-.66-.15-.55-.46-3.56-4.81-.26-.54-.03-.57.19-.54.39-.45.55-.26.57-.02.54.18.44.4 3.59 4.84.26.54.02.57-.2.54-.4.44zm6.94 9.81-.68-.17-.55-.49-3.42-4.9-.25-.55-.01-.57.2-.54.41-.44.55-.24.57-.01.54.2.43.41 3.45 4.95.24.55v.57l-.21.53-.42.43zm6.66 10-.71-.18-.55-.51-3.28-5.01-.23-.55.01-.57.21-.53.43-.43.55-.22h.57l.53.22.43.42 3.3 5.05.22.55-.02.57-.22.53-.43.42zm6.36 10.2-.73-.19-.56-.54-3.13-5.1-.21-.56.02-.57.23-.53.44-.41.56-.21.57.02.52.23.42.44 3.15 5.14.2.57-.03.57-.24.51-.44.41zm6.05 10.38-.74-.2-.57-.57-2.98-5.19-.19-.57.04-.57.25-.51.44-.4.57-.19.57.03.52.25.4.45 3 5.23.18.57-.04.57-.26.51-.45.39zm5.75 10.56-.76-.21-.57-.6-2.82-5.28-.18-.57.06-.57.26-.5.46-.39.57-.18.57.06.5.26.39.46 2.85 5.32.17.57-.07.57-.27.5-.46.38zm5.44 10.72-.78-.22-.57-.62-2.67-5.36-.16-.58.08-.57.27-.5.47-.37.58-.16.57.07.5.28.37.47 2.69 5.41.15.58-.08.56-.29.49-.47.37zm5.12 10.89-.8-.23-.57-.65-2.51-5.44-.14-.59.09-.56.29-.49.48-.36.58-.14.56.09.5.29.35.48 2.53 5.48.14.59-.1.56-.3.48-.48.36zm4.8 11.04-.82-.25-.57-.68-2.35-5.51-.12-.59.1-.56.31-.48.49-.35.59-.12.56.1.48.31.34.49 2.37 5.56.12.59-.12.56-.31.47-.5.34zm4.47 11.17-.84-.25-.56-.71-2.19-5.59-.11-.59.12-.56.32-.47.51-.33.59-.1.56.12.47.32.32.5 2.21 5.63.1.59-.13.55-.33.47-.51.32zm4.13 11.31-.85-.27-.56-.74-2.02-5.64-.09-.6.14-.55.33-.46.51-.32.6-.09.55.14.46.33.31.51 2.04 5.7.08.59-.14.55-.35.46-.51.31zm3.81 11.43-.88-.28-.55-.77-1.86-5.71-.07-.59.16-.55.34-.45.52-.3.6-.07.55.15.45.35.3.52 1.87 5.75.06.6-.16.54-.36.45-.52.29zM44.9 291.96l-.44-.06-.53-.29-.36-.44-.16-.55.05-.6 1.81-5.74.3-.52.44-.35.55-.16.6.06.52.3.35.45.16.54-.06.6-1.8 5.7-.55.78zm784.59 8.1-.89-.3-.55-.79-1.68-5.74-.05-.6.17-.54.36-.45.53-.28.59-.05.55.17.44.36.29.53 1.68 5.78.05.59-.18.55-.37.43-.53.28zm-787.94 3.43-.39-.06-.54-.27-.37-.43-.18-.54.04-.6 1.63-5.8.28-.53.44-.36.54-.18.6.05.53.28.37.44.17.54-.05.6-1.62 5.75-.21.46-.34.34zm791.05 8.16-.92-.32-.33-.35-.21-.47-1.5-5.78-.04-.6.19-.54.37-.43.54-.27.6-.03.54.18.43.38.27.53 1.51 5.83.03.6-.19.54-.38.42-.54.26zM38.55 315.1l-.36-.04-.54-.26-.39-.42-.19-.53.02-.6 1.46-5.84.27-.54.42-.38.54-.19.6.03.54.26.38.43.19.54-.03.6-1.46 5.8-.2.47-.33.35zm796.81 8.22-.5-.08-.43-.24-.34-.37-.19-.48-1.34-5.83-.02-.6.21-.53.38-.42.55-.26.59-.02.54.21.42.38.25.55 1.34 5.87.01.6-.21.53-.39.41-.55.25zM35.89 326.8l-.32-.03-.55-.24-.39-.41-.22-.53.01-.6 1.29-5.88.25-.55.41-.39.53-.21.61.02.54.24.39.42.21.53-.01.6-1.29 5.84-.19.49-.34.37-.43.24zm801.89 8.27-.51-.09-.44-.25-.34-.38-.19-.5-1.16-5.86v-.6l.22-.53.4-.4.55-.24h.6l.52.21.41.4.24.56 1.17 5.9-.01.6-.22.53-.41.4-.55.23zm-804.21 3.5-.26-.02-.56-.23-.41-.39-.23-.53-.01-.6 1.11-5.91.23-.56.41-.4.52-.22h.61l.55.23.4.4.22.53.01.6-1.11 5.87-.19.5-.33.39-.44.25zm806.27 8.32-.52-.09-.44-.26-.33-.4-.19-.51-.98-5.89.01-.6.24-.52.41-.4.55-.22.61.02.52.23.39.41.22.56 1 5.94-.03.6-.24.51-.41.39-.57.21zm-808.23 3.52-.23-.02-.56-.2-.42-.39-.25-.52-.03-.6.95-5.94.21-.56.39-.42.52-.23.6-.03.56.22.42.39.23.52.03.6-.94 5.9-.18.52-.33.4-.44.26zm809.96 8.36-.54-.1-.45-.27-.33-.41-.17-.53-.81-5.92.03-.6.25-.51.42-.39.56-.2.6.03.52.25.38.42.2.57.82 5.96-.04.6-.25.51-.43.38-.57.19zM29.99 362.3l-.18-.01-.57-.19-.43-.38-.26-.51-.05-.59.77-5.98.2-.56.38-.43.51-.25.6-.04.56.2.43.38.25.51.04.6-.76 5.93-.17.53-.33.41-.45.28zm812.95 8.39-.55-.11-.45-.28-.33-.42-.16-.54-.64-5.95.05-.59.26-.51.43-.37.57-.19.6.05.51.27.37.43.19.57.64 5.99-.06.59-.27.51-.44.36-.57.18zm-814.22 3.54-.14-.01-.57-.17-.44-.36-.28-.5-.06-.6.59-5.99.18-.58.37-.43.5-.27.6-.06.57.19.44.36.27.51.05.59-.59 5.95-.15.55-.33.43-.46.28zm815.24 8.41-.56-.11-.46-.29-.32-.44-.15-.55-.47-5.96.07-.6.28-.5.44-.36.58-.16.59.06.5.28.36.44.17.58.47 6-.08.6-.28.49-.45.35-.58.17zM27.8 386.19h-.09l-.58-.16-.45-.35-.29-.49-.09-.59.42-6.01.17-.58.36-.46.49-.28.59-.06.58.16.45.36.28.49.07.6-.41 5.96-.15.56-.32.44-.47.3zm816.84 8.43-.57-.11-.47-.31-.32-.45-.14-.57-.3-5.97.09-.59.29-.49.46-.35.58-.15.59.09.49.29.35.45.15.58.3 6.02-.1.59-.3.48-.46.34-.58.15zm-817.41 3.55h-.05l-.58-.14-.46-.33-.31-.48-.1-.6.24-6.01.15-.58.33-.46.48-.29.61-.1.59.15.45.34.3.49.09.59-.24 5.97-.13.58-.33.45-.46.31zm817.73 8.44-.58-.12-.47-.31-.32-.47-.13-.58-.11-5.98.1-.59.31-.48.46-.33.58-.14h.05l.57.12.47.31.32.46.13.57.12 6.02-.11.59-.31.48-.47.32-.59.13zM27 410.16l-.59-.13-.47-.32-.32-.47-.12-.59.07-6.02.13-.58.32-.46.47-.32.58-.11h.03l.59.13.46.33.32.48.1.59-.07 5.97-.12.59-.32.47-.47.32zm817.95 8.45h-.03l-.58-.13-.47-.33-.31-.47-.11-.59.05-5.98.12-.59.32-.47.47-.32.59-.12.59.12.47.32.32.47.12.59-.05 6.02-.13.58-.32.47-.47.31zm-817.83 3.54-.58-.11-.46-.31-.33-.46-.13-.58-.1-6.02.11-.59.32-.48.47-.32.59-.13h.01l.59.12.47.32.32.47.12.58.1 5.98-.1.59-.31.48-.46.33-.59.13zm817.47 8.44h-.07l-.58-.14-.46-.34-.3-.49-.09-.59.22-5.98.13-.57.33-.46.46-.31.58-.11h.04l.59.14.46.33.31.48.1.59-.23 6.02-.14.57-.32.45-.46.3zm-817 3.55-.57-.11-.46-.3-.33-.45-.14-.56-.28-6.01.1-.6.3-.48.46-.34.58-.14.6.09.49.3.33.46.14.59.28 5.97-.09.59-.3.49-.45.35-.58.15zm816.29 8.43h-.12l-.57-.17-.45-.35-.28-.5-.08-.59.4-5.97.15-.58.34-.45.49-.29.6-.08.58.15.45.35.3.49.08.59-.4 6.01-.15.55-.33.44-.46.29zM28.4 446.11l-.55-.1-.46-.29-.33-.44-.15-.55-.45-6 .08-.59.28-.5.45-.35.58-.16.59.08.5.29.35.45.16.58.45 5.96-.07.59-.28.5-.45.36-.57.17zm814.42 8.41-.16-.01-.57-.18-.44-.36-.27-.51-.06-.59.57-5.95.17-.58.36-.44.5-.28.6-.07.58.18.44.36.27.49.07.6-.57 5.99-.16.54-.33.43-.46.28zm-813.26 3.53-.54-.1-.45-.28-.33-.41-.17-.54-.62-5.99.06-.6.27-.5.44-.36.57-.18.6.06.5.27.37.45.17.57.62 5.95-.05.59-.26.51-.44.37-.57.18zm811.85 8.39-.2-.02-.57-.19-.42-.38-.26-.51-.04-.6.75-5.93.18-.58.38-.43.5-.26.6-.05.57.19.43.37.27.51.05.6-.75 5.97-.18.53-.33.41-.45.27zm-810.34 3.52-.53-.1-.45-.27-.33-.4-.17-.52-.8-5.97.04-.6.26-.51.43-.38.57-.19.59.05.51.26.38.42.19.57.8 5.92-.04.6-.25.52-.42.38-.57.2zm808.58 8.34-.24-.02-.56-.21-.41-.39-.24-.52-.03-.6.92-5.9.21-.57.38-.42.52-.25.59-.03.57.21.42.38.25.51.03.6-.93 5.96-.18.51-.33.39-.44.26zm-806.72 3.51-.51-.09-.45-.26-.33-.39-.18-.51-.98-5.94.03-.6.24-.51.42-.39.56-.21.6.02.51.24.39.42.21.57.97 5.89-.02.6-.23.52-.41.4-.56.22zm804.62 8.31-.29-.03-.55-.23-.4-.4-.23-.53-.01-.6 1.1-5.88.22-.55.4-.41.52-.23.6-.02.56.22.4.4.24.52.01.6-1.1 5.92-.19.5-.33.38-.44.25zM35.14 493.6l-.51-.09-.43-.24-.34-.38-.19-.49-1.15-5.91.01-.6.23-.53.4-.4.56-.22.6.01.52.22.4.41.23.56 1.14 5.86v.6l-.22.53-.4.41-.55.23zm799.96 8.26-.33-.04-.55-.24-.39-.42-.21-.53.01-.6 1.27-5.84.23-.55.41-.4.53-.22.6.01.55.24.4.41.22.52-.01.6-1.27 5.89-.2.48-.33.37-.43.23zm-797.41 3.46-.49-.08-.43-.24-.33-.36-.21-.47-1.32-5.88-.01-.6.21-.53.4-.41.55-.24.6-.01.53.21.41.39.24.55 1.32 5.83.01.6-.2.54-.39.41-.54.26zm794.61 8.21-.37-.05-.54-.26-.38-.43-.19-.53.03-.6 1.43-5.81.26-.54.42-.38.53-.2.6.02.55.25.38.42.2.53-.02.6-1.45 5.85-.21.46-.33.36zm-791.71 3.44-.9-.31-.33-.35-.22-.46-1.49-5.83-.03-.6.2-.54.38-.42.54-.26.6-.03.54.2.42.38.26.54 1.48 5.79.04.6-.19.54-.37.43-.54.27zm3.24 11.55-.88-.29-.55-.79-1.67-5.78-.05-.6.19-.54.36-.44.54-.27.6-.04.54.18.43.36.28.54 1.65 5.74.06.6-.18.54-.36.44-.53.29zm3.6 11.47-.87-.27-.56-.76-1.85-5.76-.06-.59.17-.55.35-.44.53-.29.59-.07.55.17.45.35.29.53 1.83 5.71.07.6-.15.55-.35.45-.52.3zm738.67 83.57-.77-.22-.44-.4-.24-.52-.03-.57.2-.57 3.05-5.12.4-.44.52-.25.57-.04.56.2.45.4.25.51.03.57-.19.57-3.07 5.16-.57.54zM94.49 637.14l-.7-.17-.55-.5-3.29-5.06-.22-.56.02-.57.23-.52.43-.42.56-.22.57.02.52.22.42.44 3.26 5.01.22.56v.57l-.22.53-.42.42zm678.61 6.53-.85-.26-.41-.43-.21-.54v-.57l.24-.55 3.35-4.94.42-.42.53-.22h.57l.56.23.42.42.22.53v.57l-.23.56-3.37 4.97-.55.49zm-671.84 3.39-.68-.16-.55-.47-3.43-4.96-.24-.55v-.57l.21-.53.42-.43.55-.23.57-.01.54.21.42.42 3.41 4.92.24.55.01.57-.2.53-.41.44zm664.91 6.38-.89-.29-.4-.45-.19-.53.02-.57.25-.55 3.49-4.84.44-.41.53-.2.57.02.55.24.41.44.2.53-.01.57-.24.55-3.52 4.88-.55.45zm-657.86 3.35-.66-.16-.54-.45-3.58-4.85-.25-.54-.01-.57.19-.54.41-.44.54-.25.57-.02.54.2.44.4 3.55 4.82.26.54.02.57-.18.54-.4.45zM758.95 663l-.48-.08-.44-.24-.39-.45-.18-.55.04-.56.27-.54 3.63-4.74.45-.4.54-.18.57.03.54.26.4.45.18.54-.03.57-.26.54-3.66 4.77-.54.43zm-643.31 3.29-.63-.14-.54-.42-3.72-4.75-.26-.54-.04-.57.18-.54.39-.45.54-.27.57-.03.54.18.46.39 3.69 4.71.27.53.04.57-.17.55-.39.46-.45.24zm635.81 6.06-.49-.09-.47-.25-.37-.47-.16-.55.05-.57.28-.53 3.77-4.63.46-.38.55-.17.57.05.53.27.39.46.16.55-.04.57-.28.53-3.79 4.66-.54.41zm-628.2 3.23-.62-.13-.53-.4-3.85-4.64-.28-.53-.05-.56.16-.55.38-.47.53-.28.57-.05.55.16.46.38 3.82 4.6.29.53.06.57-.15.55-.38.47-.46.26zm620.43 5.9-.51-.09-.48-.28-.36-.48-.15-.55.08-.57.29-.52 3.91-4.52.47-.37.55-.15.57.06.52.29.37.47.16.55-.07.57-.29.52-3.93 4.56-.52.38zm-612.56 3.16-.6-.12-.52-.38-3.98-4.52-.3-.52-.07-.57.15-.55.37-.47.52-.3.57-.07.55.15.47.36 3.96 4.49.3.52.08.56-.14.56-.36.48-.48.29zm604.53 5.74-.54-.1-.49-.3-.34-.49-.13-.56.09-.56.31-.51 4.03-4.41.49-.36.55-.13.56.08.52.3.36.49.13.55-.07.56-.31.52-4.07 4.44-.51.36zm-596.4 3.08-.58-.11-.51-.35-4.11-4.4-.31-.52-.09-.56.14-.56.35-.48.51-.31.56-.09.56.13.49.35 4.08 4.37.32.51.09.56-.12.56-.35.49-.49.31zm588.1 5.58-.55-.1-.5-.33-.33-.5-.12-.55.11-.57.32-.5 4.17-4.28.49-.35.56-.12.56.1.51.32.34.49.12.56-.1.56-.32.51-4.19 4.32-.5.33zm-579.72 3.01-.55-.11-.5-.33-4.24-4.28-.33-.5-.1-.56.12-.56.33-.5.51-.32.56-.11.56.12.49.34 4.21 4.24.33.5.11.56-.1.56-.33.5-.5.34zm571.18 5.41-.57-.11-.51-.35-.32-.51-.1-.56.12-.56.34-.49 4.29-4.16.5-.33.56-.1.56.11.5.33.33.51.1.56-.11.56-.33.49-4.32 4.2-.49.31zm-562.55 2.92-.54-.1-.49-.31-4.36-4.15-.33-.49-.12-.56.1-.56.32-.51.49-.34.56-.12.56.1.51.32 4.33 4.12.34.49.13.56-.09.56-.32.51-.51.36zm553.77 5.25-.6-.12-.52-.37-.3-.52-.08-.56.13-.56.36-.48 4.41-4.04.51-.31.56-.09.56.13.49.35.31.51.09.57-.13.55-.35.49-4.44 4.07-.48.29zm-544.91 2.82-.51-.09-.48-.29-4.48-4.02-.35-.48-.13-.55.08-.57.3-.51.49-.36.56-.13.56.08.51.31 4.45 3.99.36.48.14.55-.07.56-.3.52-.52.38zm535.88 5.1-.61-.13-.53-.4-.29-.53-.06-.56.15-.55.37-.47 4.52-3.91.52-.3.57-.07.55.14.48.36.3.53.07.56-.15.55-.36.48-4.56 3.94-.46.27zm-526.78 2.71-.5-.08-.46-.27-4.59-3.88-.37-.48-.15-.55.06-.56.3-.53.47-.37.55-.15.57.07.52.29 4.56 3.86.38.47.15.55-.05.56-.29.53-.53.41zm517.53 4.94-.63-.14-.54-.43-.28-.53-.04-.57.17-.54.38-.46 4.64-3.78.53-.28.57-.06.54.16.47.38.28.53.06.57-.16.54-.38.47-4.67 3.81-.46.25zm-508.22 2.6-.47-.08-.45-.24-4.7-3.75-.39-.46-.16-.55.05-.56.27-.54.47-.38.54-.17.57.05.53.28 4.67 3.72.39.46.18.54-.04.57-.27.54-.54.43zm498.75 4.77-.66-.15-.54-.45-.26-.54-.03-.57.18-.54.4-.45 4.75-3.64.54-.26.57-.04.54.18.45.39.27.53.04.57-.18.55-.39.45-4.78 3.67zm-489.22 2.5-.89-.3-4.81-3.61-.39-.45-.18-.54.03-.57.26-.54.45-.4.54-.18.57.03.54.27 4.78 3.58.4.45.19.53-.03.57-.25.55-.54.45zm479.53 4.6-.68-.16-.55-.47-.24-.55-.01-.57.2-.54.41-.43 4.85-3.51.55-.25.57-.02.53.19.45.41.25.54.02.57-.19.54-.41.44-4.88 3.53zm-469.79 2.38-.86-.27-4.91-3.47-.41-.44-.19-.53.01-.57.25-.55.44-.41.53-.2.57.02.55.24 4.88 3.45.41.43.2.53v.57l-.24.55-.55.48zm459.9 4.43-.7-.17-.55-.5-.23-.55v-.57l.22-.53.42-.43 4.96-3.36.55-.23h.57l.53.2.43.42.24.55v.57l-.21.53-.41.43-4.99 3.39zm-449.97 2.26-.82-.24-5.01-3.33-.42-.42-.21-.53v-.57l.23-.56.42-.42.53-.21h.57l.56.23 4.97 3.29.43.43.22.52.01.57-.22.56-.56.51zM652.6 759l-.71-.18-.56-.52-.21-.57.02-.57.23-.52.44-.41 5.05-3.21.56-.22.57.01.52.22.42.43.22.56-.01.57-.22.53-.43.42-5.09 3.23zm-429.75 2.14-.78-.22-5.1-3.17-.44-.42-.22-.52-.02-.57.21-.56.42-.44.52-.23.57-.01.56.21 5.07 3.15.43.41.24.52.03.57-.21.56-.56.53zm419.47 4.08-.73-.19-.56-.55-.2-.57.04-.57.25-.51.44-.4 5.15-3.06.56-.21.57.03.52.24.41.44.2.57-.03.57-.24.52-.44.4-5.18 3.09zm-409.17 2.01-.74-.19-5.19-3.03-.45-.4-.24-.51-.04-.57.2-.57.4-.45.52-.24.57-.03.56.19 5.16 3 .45.4.25.51.04.57-.19.57-.56.56zm398.71 3.91-.75-.2-.57-.58-.18-.57.06-.57.26-.51.46-.38 5.23-2.91.57-.19.57.05.51.25.4.45.18.57-.04.57-.26.51-.45.4-5.27 2.93zm-388.24 1.88-.7-.17-5.28-2.87-.46-.39-.26-.51-.05-.57.18-.57.39-.46.51-.26.57-.05.57.18 5.24 2.85.46.38.27.51.06.56-.17.58-.57.59zm377.6 3.73-.77-.21-.56-.61-.16-.58.07-.56.27-.5.47-.37 5.32-2.76.58-.17.56.06.51.27.38.47.17.57-.07.57-.26.5-.47.38-5.36 2.78zm-366.97 1.75-.66-.15-5.36-2.72-.47-.37-.27-.5-.07-.57.17-.58.37-.46.5-.28.57-.06.58.16 5.31 2.69.48.37.28.49.07.57-.15.58-.57.62zm356.17 3.55-.78-.23-.57-.63-.15-.58.09-.57.29-.49.48-.36 5.4-2.6.58-.15.57.08.49.28.37.48.15.58-.08.57-.28.49-.48.37-5.44 2.62zm-345.38 1.62-.63-.14-5.43-2.55-.48-.37-.29-.49-.08-.56.15-.58.36-.48.49-.29.57-.09.58.15 5.39 2.53.48.36.3.49.09.56-.14.58-.57.65zm334.43 3.36-.81-.24-.57-.66-.12-.59.1-.56.31-.48.49-.35 5.47-2.44.59-.13.56.09.49.3.35.49.13.58-.09.57-.3.48-.49.35-5.51 2.46zm-323.5 1.48-.59-.12-5.5-2.39-.49-.35-.3-.48-.1-.57.12-.58.35-.49.49-.31.56-.1.58.14 5.46 2.37.5.34.31.47.11.56-.12.59-.57.68zm312.4 3.17-.83-.25-.56-.69-.11-.6.12-.55.32-.48.5-.33 5.55-2.27.59-.12.55.11.48.31.34.5.12.59-.12.56-.31.48-.49.33-5.59 2.3zm-301.32 1.35-.54-.1-5.6-2.24-.49-.33-.32-.47-.12-.56.11-.59.34-.5.47-.32.56-.12.59.12 5.55 2.22.5.32.33.47.12.56-.1.59-.56.7zM577.13 796l-.84-.26-.57-.73-.09-.59.14-.55.33-.47.51-.31 5.62-2.11.59-.1.55.13.47.32.33.51.1.59-.13.56-.33.47-.51.32-5.65 2.13zm-278.84 1.24-.5-.09-5.66-2.07-.51-.32-.33-.46-.13-.56.09-.59.32-.51.46-.33.56-.13.59.09 5.62 2.06.51.31.34.46.14.55-.09.59-.56.73zm267.48 2.75-.87-.28-.56-.75-.07-.6.16-.54.34-.46.52-.3 5.68-1.94.59-.08.55.14.46.34.31.52.08.59-.14.55-.34.46-.52.31-5.72 1.96zm-256.12 1.12-.47-.07-5.71-1.91-.52-.3-.34-.45-.15-.55.07-.6.31-.52.45-.34.55-.15.6.08 5.67 1.88.52.3.35.45.16.55-.07.59-.55.76zm244.63 2.53-.88-.29-.55-.78-.06-.6.17-.54.36-.45.53-.28 5.74-1.78.59-.06.55.16.45.35.29.53.06.6-.16.54-.35.45-.52.29-5.78 1.79zm-233.17 1-.42-.06-5.77-1.73-.52-.29-.36-.44-.17-.55.06-.59.29-.53.44-.36.55-.16.6.06 5.72 1.71.53.28.37.44.17.55-.05.59-.55.79zm221.64 2.29-.91-.3-.33-.35-.21-.46-.04-.6.19-.54.37-.43.54-.27 5.76-1.6.6-.04.54.18.44.36.27.53.05.6-.18.54-.37.44-.53.28-5.8 1.61zm-210.07.91-.38-.05-5.82-1.56-.53-.27-.37-.44-.18-.54.04-.6.27-.53.43-.37.55-.18.59.04 5.78 1.55.53.26.38.43.19.54-.03.6-.21.46-.33.35zm198.44 2.04-.49-.08-.43-.24-.34-.36-.2-.47-.02-.6.2-.53.39-.42.54-.26 5.8-1.43.61-.02.53.19.43.38.26.54.03.6-.2.54-.38.42-.54.26-5.84 1.44zm-186.79.81-.33-.04-5.86-1.39-.55-.25-.38-.43-.2-.53.03-.6.25-.54.43-.39.53-.19.6.02 5.82 1.38.54.24.39.42.21.53-.02.6-.2.48-.33.37-.43.23zm175.08 1.8-.51-.09-.43-.24-.34-.38-.19-.49v-.6l.21-.53.4-.4.55-.24 5.85-1.26.6-.01.53.21.41.39.25.55.01.6-.21.53-.39.42-.55.24-5.89 1.27zm-163.34.7-.3-.03-5.89-1.21-.55-.24-.4-.41-.21-.53v-.6l.24-.55.42-.39.53-.22.59.01 5.86 1.2.55.23.4.41.22.52.01.6-.2.5-.33.38-.43.24zm151.55 1.56-.51-.09-.44-.26-.33-.39-.19-.5.01-.6.24-.52.41-.4.55-.22 5.88-1.08.6.01.52.22.41.41.23.55-.01.6-.22.53-.41.4-.55.23-5.92 1.09zm-139.75.6-.25-.02-5.93-1.04-.56-.22-.41-.4-.22-.52-.02-.6.23-.56.4-.41.52-.23.6-.01 5.89 1.03.56.22.41.39.24.52.02.6-.19.51-.33.39-.44.26zm127.91 1.31-.53-.09-.45-.27-.33-.4-.17-.52.03-.6.25-.51.42-.39.56-.2 5.91-.91.6.02.52.24.39.42.21.56-.02.6-.24.52-.42.39-.56.21-5.95.92zm-116.05.5-.21-.01-5.96-.87-.56-.21-.42-.38-.24-.52-.03-.6.21-.56.38-.42.52-.24.6-.03 5.91.85.57.2.42.39.26.51.03.6-.17.52-.33.41-.45.26zm104.15 1.07-.54-.1-.45-.28-.33-.42-.17-.53.06-.6.26-.5.43-.38.57-.18 5.93-.74.61.04.51.26.37.42.2.57-.05.6-.25.51-.43.38-.57.19-5.97.75zm-92.24.39-.17-.01-5.98-.69-.57-.19-.43-.37-.26-.51-.04-.6.19-.57.37-.42.51-.26.6-.05 5.93.68.58.18.43.37.27.5.06.6-.17.54-.33.42-.45.28zm80.31.82-.55-.1-.46-.29-.33-.43-.16-.55.07-.59.28-.5.44-.36.58-.17 5.95-.57.6.07.5.27.37.43.17.58-.06.59-.27.5-.43.37-.58.18-5.99.57zm-68.37.3-.12-.01-6-.51-.57-.18-.44-.36-.27-.5-.07-.6.17-.57.36-.45.5-.27.6-.06 5.96.51.58.17.44.35.28.5.08.59-.16.55-.32.44-.46.29zm56.4.57-.56-.11-.47-.3-.32-.44-.14-.57.08-.59.29-.49.46-.35.58-.15 5.96-.39.59.08.5.28.35.45.16.58-.07.6-.29.49-.44.35-.58.17-6.01.39zm-44.42.19h-.08l-6.01-.34-.58-.16-.45-.35-.29-.49-.08-.6.15-.58.35-.45.49-.28.6-.09 5.97.34.58.15.46.34.29.49.09.59-.14.57-.32.45-.47.3zm32.43.33-.57-.12-.47-.31-.32-.45-.13-.58.1-.59.31-.48.46-.34.58-.13 5.98-.22.59.09.48.3.34.46.15.59-.09.59-.3.49-.46.34-.58.14-6.02.22zm-20.46.08h-.03l-6-.16-.59-.14-.46-.34-.3-.48-.1-.59.14-.59.33-.47.48-.31.6-.08 5.96.16.59.13.47.33.31.48.1.59-.12.58-.33.46-.47.32zm8.47.09-2.48-.01-.59-.12-.47-.32-.32-.48-.11-.59.12-.58.32-.47.47-.32.59-.12h.01l8.44-.03h.02l.58.11.47.32.32.46.13.59-.11.58-.32.48-.46.33-.59.13z"/><path fill="#a3b1bf" fill-rule="evenodd" d="m338 73-4.46.31-4.21.85-3.98 1.39-3.77 1.9-3.44 2.32-3.12 2.75-2.75 3.12-2.32 3.44-1.9 3.77-1.39 3.98-.85 4.21-.31 4.46.31 4.46.85 4.21 1.39 3.98 1.9 3.77 2.32 3.44 2.75 3.12 3.12 2.75 3.44 2.32 3.77 1.9 3.98 1.39 4.21.85 4.46.31 4.46-.31 4.21-.85 3.98-1.39 3.77-1.9 3.44-2.32 3.12-2.75 2.75-3.12 2.32-3.44 1.9-3.77 1.39-3.98.85-4.21.31-4.46-.31-4.46-.85-4.21-1.39-3.98-1.9-3.77-2.32-3.44-2.75-3.12-3.12-2.75-3.44-2.32-3.77-1.9-3.98-1.39-4.21-.85zm0 3 4.05.28 3.81.78 3.61 1.26 3.43 1.73 3.11 2.1 2.84 2.5 2.5 2.84 2.1 3.11 1.73 3.43 1.26 3.61.78 3.81.28 4.05-.28 4.05-.78 3.81-1.26 3.61-1.73 3.43-2.1 3.11-2.5 2.84-2.84 2.5-3.11 2.1-3.43 1.73-3.61 1.26-3.81.78-4.05.28-4.05-.28-3.81-.78-3.61-1.26-3.43-1.73-3.11-2.1-2.84-2.5-2.5-2.84-2.1-3.11-1.73-3.43-1.26-3.61-.78-3.81-.28-4.05.28-4.05.78-3.81 1.26-3.61 1.73-3.43 2.1-3.11 2.5-2.84 2.84-2.5 3.11-2.1 3.43-1.73 3.61-1.26 3.81-.78z"/><path fill="#a0c8ff" fill-opacity=".151" d="m338 126.5 2.91-.21 2.72-.55 2.55-.89 2.42-1.22 2.95-2.08 2.5-2.5 2.08-2.95 1.22-2.42.89-2.55.55-2.72.21-2.91-.21-2.91-.55-2.72-.89-2.55-1.22-2.42-2.08-2.95-2.5-2.5-2.95-2.08-2.42-1.22-2.55-.89-2.72-.55-2.91-.21-2.91.21-2.72.55-2.55.89-2.42 1.22-2.95 2.08-2.5 2.5-2.08 2.95-1.22 2.42-.89 2.55-.55 2.72-.21 2.91.21 2.91.55 2.72.89 2.55 1.22 2.42 2.08 2.95 2.5 2.5 2.95 2.08 2.42 1.22 2.55.89 2.72.55z"/><path fill="#a3b1bf" fill-rule="evenodd" d="m320 79.9-2.57 2.06-5.34-1.46-4.35-.8-3.51-.26-2.71.18-1.94.53-1.36.8-.92 1.05-.43 1.17-.07 1.38.32 1.65.85 2.03 1.47 2.46 2.16 2.85 3.02 3.3 5.05 4.69 6.5 5.2 7.12 4.97 8.21 5.06 8.48 4.58 7.87 3.68 7.75 3.04 6.59 2.02 4.37.96 3.55.45 2.86.05 2.18-.29 1.6-.54 1.15-.76.8-.95.45-1.25.04-1.5-.45-1.85-.79-1.78-1.21-2.05-1.74-2.37-3.01-3.41-3.99-3.86v-3.7l5.02 4.8 3.79 4.33 2.17 3.02 1.52 2.66.98 2.34.53 2.42-.09 2-.62 1.7-.98 1.21-1.35.99-1.8.75-2.38.48-3.19.15-3.9-.28-4.74-.82-4.63-1.18-5.15-1.64-5.7-2.16-5.56-2.43-5.82-2.87-6.1-3.34-5.94-3.61-5.4-3.61-4.89-3.6-4.72-3.86-3.99-3.63-3.34-3.43-3.08-3.69-2.19-3.23-1.46-2.84-.78-2.3-.25-1.94.18-1.66.56-1.46 1.11-1.35 1.6-1.05 2.23-.75 2.37-.36 2.88-.06 3.49.28 5.32.96z"/><path fill="#a3b1bf" fill-rule="evenodd" d="m306.83 108.28.5 3.27-3.94 3.89-2.86 3.37-1.99 2.9-1.19 2.44-.51 1.95.01 1.58.45 1.32.8.95 1.15.76 1.6.54 2.18.29 2.86-.05 3.55-.45 4.37-.96 6.59-2.02 7.75-3.04 7.87-3.68 8.48-4.58 8.21-5.06 7.12-4.97 6.51-5.19 5.04-4.7 3.02-3.3 2.16-2.85 1.47-2.46.85-2.03.32-1.65-.07-1.38-.43-1.17-.86-1.01-1.28-.79-1.83-.53-1.93-.21-2.38.03-2.92.32-4.46.9-5.34 1.53-3.2-1.85 6.67-1.95 5.64-1.12 3.71-.37 3.06.01 2.51.33 2.36.75 1.69 1.07 1.16 1.39.56 1.45.18 1.67-.25 1.94-.78 2.3-1.46 2.84-2.19 3.23-3.08 3.69-3.34 3.43-3.99 3.63-4.72 3.86-4.89 3.6-5.4 3.61-5.94 3.61-6.1 3.34-5.82 2.87-5.56 2.43-5.7 2.16-5.14 1.64-4.64 1.18-4.74.82-3.9.28-3.18-.15-2.38-.48-1.81-.75-1.35-.99-.98-1.21-.61-1.64-.11-1.91.46-2.31.88-2.23 1.38-2.53 1.99-2.87 3.49-4.13z"/><path fill="#acc0dc" fill-opacity=".196" d="M648.32 403.36h24.08l1.32-.07v-28zM220.95 459.3v-3h-57.66l.67 2.53 1.02 2.32 1.36 2.13 1.66 1.9 1.9 1.61 2.17 1.33 2.34.98 2.5.61 2.69.22h41.35zm104.92 43.91h-20.46l-3.03-.28-2.78-.76-2.57-1.23-2.33-1.65-1.98-1.98-1.65-2.34-1.23-2.58-.75-2.78-.29-3.04.29-3.04.75-2.78 1.23-2.58 1.65-2.33 1.98-1.99 2.33-1.65 2.57-1.23 2.78-.76 3.03-.28h38.77l-3.42-5.26-3.13-5.46-2.83-5.67-2.49-5.83-2.17-5.99-1.83-6.18-2.84.81-3.07.29h-52.83l1.43 1.71 1.08 1.96.68 2.15.24 2.35-.2 2.09-.52 1.92-.85 1.78-1.15 1.61-1.37 1.37-1.62 1.15-1.78.85-1.92.52-2.1.2h-12.14v24.03l-.18 2.21-.49 2.08.12 1.95-.28 3.04-.76 2.78-1.23 2.58-1.65 2.34-1.97 1.98-2.33 1.65-2.57 1.23-2.78.76-3.03.28h-18.57l-3.03.29-2.77.76-2.57 1.23-2.33 1.65-1.98 1.98-1.65 2.34-1.23 2.58-.76 2.78-.28 3.04.28 3.04.76 2.78 1.23 2.58 1.65 2.33 1.98 1.98 2.33 1.66 2.57 1.23 2.77.76 3.03.28h112.24l3.03-.28 2.78-.76 2.57-1.23 2.33-1.66 1.98-1.98 1.65-2.33 1.23-2.58.76-2.78.28-3.04-.28-3.04-.76-2.78-1.23-2.58-1.65-2.34-1.98-1.98-2.33-1.65-2.57-1.23-2.78-.76zm-23.41-99.85h19.94l2.34.18.48-7.06.89-6.86 1.28-6.68 1.69-6.51 2.08-6.36h-28.7l-3.03.28-2.78.76-2.57 1.23-2.33 1.66-1.98 1.98-1.65 2.33-1.23 2.58-.75 2.79-.29 3.03.29 3.04.75 2.79 1.23 2.57 1.65 2.34 1.98 1.98 2.33 1.66 2.57 1.23 2.78.75zm321.28-66.57h14.22l3.03-.29 2.78-.76 2.57-1.23 2.33-1.65 1.98-1.98 1.65-2.34 1.23-2.58.76-2.78.28-3.04-.29-3.04-.75-2.78-1.23-2.58-1.65-2.33-1.98-1.98-2.33-1.66-2.57-1.23-2.78-.76-3.03-.28H470.93l6.98 2.71 6.69 3.13 6.42 3.55 6.17 3.98 5.9 4.38 5.56 4.73 5.23 5.08 4.91 5.44h35.98l2.96.3 2.71.79 2.52 1.3 2.27 1.73 1.93 2.08 1.62 2.47 1.2 2.7.74 2.93.28 3.2-.28 3.2-.74 2.93-1.2 2.7-1.62 2.47-1.93 2.08-2.27 1.73-2.52 1.3-2.71.79-2.96.3h-16.09l2.32 7.61 1.76 7.83 1.2 8.07.63 8.35h64.66l30.12-33.29h-15.63l-3.03-.28-2.78-.76-2.57-1.23-2.33-1.65-1.97-1.99-1.65-2.33-1.23-2.58-.76-2.78-.28-3.04.28-3.04.76-2.78 1.22-2.58 1.66-2.34 1.97-1.98 2.33-1.65 2.57-1.23 2.78-.76z"/><path fill="#a3b1bf" fill-rule="evenodd" d="m434.67 297.37-7.61.27-7.4.75-7.21 1.22-7.03 1.69-6.93 2.16-6.67 2.57-6.45 2.98-6.22 3.38-6.01 3.79-5.7 4.12-5.42 4.47-5.13 4.82-4.83 5.14-4.47 5.42-4.12 5.7-3.78 6-3.39 6.23-2.97 6.44-2.57 6.68-2.16 6.93-1.7 7.03-1.22 7.2-.75 7.4-.26 7.61.26 7.61.75 7.4 1.22 7.21 1.7 7.03 2.16 6.93 2.57 6.67 2.97 6.45 3.39 6.22 3.78 6.01 4.12 5.7 4.47 5.42 4.83 5.13 5.13 4.83 5.42 4.47 5.7 4.12 6.01 3.78 6.22 3.39 6.45 2.97 6.67 2.57 6.93 2.16 7.03 1.7 7.21 1.22 7.4.75 7.61.26 7.61-.26 7.4-.75 7.2-1.22 7.03-1.7 6.93-2.16 6.68-2.57 6.44-2.97 6.23-3.39 6-3.78 5.7-4.12 5.42-4.47 5.14-4.83 4.82-5.13 4.47-5.42 4.12-5.7 3.79-6.01 3.38-6.22 2.98-6.45 2.57-6.67 2.16-6.93 1.69-7.03 1.22-7.21.75-7.4.27-7.61-.27-7.61-.75-7.4-1.22-7.2-1.69-7.03-2.16-6.93-2.57-6.68-2.98-6.44-3.38-6.23-3.79-6-4.12-5.7-4.47-5.42-4.82-5.14-5.14-4.82-5.42-4.47-5.7-4.12-6-3.79-6.23-3.38-6.44-2.98-6.68-2.57-6.93-2.16-7.03-1.69-7.2-1.22-7.4-.75zm0 3 7.15.24 7.02.69 6.88 1.13 6.77 1.58 6.67 2.02 6.48 2.43 6.3 2.86 6.14 3.29 5.91 3.67 5.67 4.07 5.44 4.47 5.23 4.89 4.89 5.23 4.47 5.44 4.07 5.67 3.67 5.91 3.29 6.14 2.86 6.3 2.43 6.48 2.02 6.67 1.58 6.77 1.13 6.88.69 7.02.24 7.15-.24 7.16-.69 7.01-1.13 6.89-1.58 6.77-2.02 6.67-2.43 6.47-2.86 6.31-3.29 6.14-3.67 5.9-4.07 5.67-4.47 5.45-4.89 5.22-5.23 4.9-5.45 4.47-5.66 4.07-5.91 3.67-6.14 3.28-6.3 2.86-6.48 2.44-6.67 2.02-6.77 1.58-6.88 1.13-7.02.69-7.15.23-7.16-.23-7.01-.69-6.89-1.13-6.77-1.58-6.67-2.02-6.47-2.44-6.31-2.86-6.14-3.28-5.9-3.67-5.67-4.07-5.45-4.47-5.22-4.9-4.9-5.22-4.47-5.45-4.07-5.67-3.67-5.9-3.28-6.14-2.86-6.31-2.44-6.47-2.02-6.67-1.58-6.77-1.13-6.89-.69-7.01-.23-7.16.23-7.15.69-7.02 1.13-6.88 1.58-6.77 2.02-6.67 2.44-6.48 2.86-6.3 3.28-6.14 3.67-5.91 4.07-5.67 4.47-5.44 4.9-5.23 5.22-4.89 5.45-4.47 5.67-4.07 5.9-3.67 6.14-3.29 6.31-2.86 6.47-2.43 6.67-2.02 6.77-1.58 6.89-1.13 7.01-.69z"/><path fill="#a0c8ff" fill-opacity=".151" d="m434.67 316.37 6.08.2 5.97.59 5.85.96 5.76 1.34 5.67 1.72 5.51 2.07 5.36 2.43 5.22 2.8 5.03 3.12 4.82 3.46 4.63 3.81 4.44 4.16 4.16 4.44 3.81 4.63 3.46 4.82 3.12 5.03 2.8 5.22 2.43 5.36 2.07 5.51 1.72 5.67 1.34 5.76.96 5.85.59 5.97.2 6.08-.2 6.09-.59 5.96-.96 5.86-1.34 5.76-1.72 5.67-2.07 5.51-2.43 5.36-2.8 5.22-3.12 5.02-3.46 4.82-3.81 4.63-4.16 4.45-4.44 4.16-4.63 3.81-4.82 3.45-5.03 3.13-5.22 2.79-5.36 2.43-5.51 2.07-5.67 1.72-5.76 1.34-5.85.97-5.97.58-6.08.2-6.09-.2-5.96-.58-5.86-.97-5.76-1.34-5.67-1.72-5.51-2.07-5.36-2.43-5.22-2.79-5.02-3.13-4.82-3.45-4.63-3.81-4.45-4.16-4.16-4.45-3.81-4.63-3.45-4.82-3.13-5.02-2.79-5.22-2.43-5.36-2.07-5.51-1.72-5.67-1.34-5.76-.97-5.86-.58-5.96-.2-6.09.2-6.08.58-5.97.97-5.85 1.34-5.76 1.72-5.67 2.07-5.51 2.43-5.36 2.79-5.22 3.13-5.03 3.45-4.82 3.81-4.63 4.16-4.44 4.45-4.16 4.63-3.81 4.82-3.46 5.02-3.12 5.22-2.8 5.36-2.43 5.51-2.07 5.67-1.72 5.76-1.34 5.86-.96 5.96-.59z"/><path fill="#a3b1bf" fill-rule="evenodd" d="m339.98 495.69-8.58-.26-6.88-.71-5.42-1.06-4.21-1.33-3.21-1.54-2.4-1.69-1.73-1.85-1.17-2.02-.65-2-.23-2.19.2-2.44.72-2.74 1.31-3.11 2.02-3.56 3.22-4.49 4.49-5.26 6.03-6.13 7.85-7.12.53-.3.56-.07.55.15.48.37.29.52.07.57-.15.55-.36.47-4.96 4.42-4.92 4.71-4.64 4.89-3.96 4.75-2.36 3.31-1.78 3.04-1.27 2.8-.67 2.22-.24 1.98.13 1.8.49 1.65.88 1.47 1.23 1.34 1.65 1.23 2.13 1.11 2.97 1.09 3.59.92 4.29.7 6.62.6 7.58.19 7.8-.17 8.17-.47 8.17-.7 7.94-.85 9.76-1.37 10.26-1.88 10.78-2.4 10.68-2.78 10.94-3.24 11.22-3.7 11.09-4.04 11.14-4.42 11.16-4.82 11.03-5.13 10.82-5.44 10.64-5.74 9.73-5.65 8.85-5.51 8.02-5.36 7.86-5.68 6.8-5.35 5.84-5.04 5.58-5.39 4.39-4.87 3.34-4.38 2.25-3.62 1.51-3.2.89-2.85.38-2.54-.17-2.47-.71-2.2-1.26-2-1.9-1.85-2.66-1.71-3.62-1.55-4.78-1.34-.55-.24-.4-.41-.21-.53.01-.6.24-.55.42-.39.53-.21h.6l4.87 1.36 3.67 1.48 2.68 1.57 2.4 1.98 1.67 1.93 1.08 1.92.72 2.1.35 1.98.01 1.87-.39 2.78-.91 3.06-1.53 3.39-2.25 3.78-3.38 4.59-4.44 5.06-5.66 5.58-5.94 5.21-6.95 5.52-8.05 5.86-8.24 5.53-9.13 5.69-10.1 5.86-10.71 5.79-10.92 5.48-11.11 5.18-11.26 4.85-11.22 4.46-11.2 4.07-11.31 3.73-11.04 3.26-10.78 2.81-10.87 2.42-10.35 1.89-9.86 1.39-12.73 1.3-10.76.71zM405.5 341.5l-3.74.35-3.43.93-3.18 1.52-2.87 2.04-2.44 2.44-2.04 2.87-1.52 3.18-.93 3.43L385 362l.35 3.74.93 3.43 1.52 3.18 2.04 2.87 2.44 2.44 2.87 2.04 3.18 1.52 3.43.93 3.74.35 3.74-.35 3.43-.93 3.18-1.52 2.87-2.04 2.44-2.44 2.04-2.87 1.52-3.18.93-3.43.35-3.74-.35-3.74-.93-3.43-1.52-3.18-2.04-2.87-2.44-2.44-2.87-2.04-3.18-1.52-3.43-.93zm0 3 3.19.3 2.92.8 2.72 1.29 2.45 1.74 2.09 2.09 1.74 2.45 1.29 2.72.8 2.92.3 3.19-.3 3.19-.8 2.92-1.29 2.72-1.74 2.45-2.09 2.09-2.45 1.74-2.72 1.29-2.92.8-3.19.3-3.19-.3-2.92-.8-2.72-1.29-2.45-1.74-2.09-2.09-1.74-2.45-1.29-2.72-.8-2.92-.3-3.19.3-3.19.8-2.92 1.29-2.72 1.74-2.45 2.09-2.09 2.45-1.74 2.72-1.29 2.92-.8zm-1.12 52.38-4.31-.29-4.15-.85-4.03-1.41-3.94-2.01-3.87-2.63-.39-.46-.18-.54.04-.57.26-.54.46-.39.54-.18.57.04.54.26 3.44 2.36 3.5 1.8 3.56 1.29 3.67.8 3.79.31 3.96-.18.6.05.5.27.37.43.18.57-.05.6-.27.51-.43.37-.58.18zM428 390l-.76-.21-.57-.59-.17-.58.07-.57.27-.5.46-.38 3.11-1.89 2.61-2.13 2.16-2.37 1.75-2.64 1.36-2.94.91-3.02.57-3.39.19-3.79-.23-4.26-.7-4.79v-.6l.23-.52.41-.4.55-.23.6.01.53.23.4.4.22.56.81 5.91.13 5.21-.47 4.6-1 4.08-1.5 3.62-1.99 3.24-2.51 2.9-3.06 2.59-3.68 2.28z"/><path fill="#a3b1bf" fill-rule="evenodd" d="m457.5 413.5-2.28.31-2.01.85-1.72 1.33-1.33 1.72-.85 2.01L449 422l.31 2.28.85 2.01 1.33 1.72 1.72 1.33 2.01.85 2.28.31 2.28-.31 2.01-.85 1.72-1.33 1.33-1.72.85-2.01.31-2.28-.31-2.28-.85-2.01-1.33-1.72-1.72-1.33-2.01-.85zm0 3 1.49.21 1.28.54 1.12.86.86 1.12.54 1.28.21 1.49-.21 1.49-.54 1.28-.86 1.12-1.12.86-1.28.54-1.49.21-1.49-.21-1.28-.54-1.12-.86-.86-1.12-.54-1.28L452 422l.21-1.49.54-1.28.86-1.12 1.12-.86 1.28-.54zm-.08 21.5-2.47-.21-2.36-.61-2.28-1.02-2.23-1.47-.39-.46-.18-.54.04-.57.26-.54.46-.39.54-.18.57.04.54.26 2.11 1.37 2.17.87 2.25.42 2.38-.05.61.06.5.26.37.44.18.57-.05.59-.27.51-.43.37-.57.18zm9.58-3-.77-.21-.57-.62-.16-.58.08-.56.28-.5.47-.37 1.95-1.23 1.44-1.5 1.02-1.78.6-2.14.15-2.58-.38-3.14v-.6l.22-.53.41-.4.55-.23h.6l.52.22.41.4.23.56.43 3.36-.08 2.86-.52 2.45-.92 2.12-1.31 1.85-1.74 1.61-2.24 1.38zm28-81-2.41.33-2.13.9-1.82 1.41-1.41 1.82-.9 2.13L486 363l.33 2.41.9 2.13 1.41 1.82 1.82 1.41 2.13.9 2.41.33 2.41-.33 2.13-.9 1.82-1.41 1.41-1.82.9-2.13.33-2.41-.33-2.41-.9-2.13-1.41-1.82-1.82-1.41-2.13-.9zm0 3 1.63.23 1.39.58 1.22.95.95 1.22.58 1.39.23 1.63-.23 1.63-.58 1.39-.95 1.22-1.22.95-1.39.58-1.63.23-1.63-.23-1.39-.58-1.22-.95-.95-1.22-.58-1.39L489 363l.23-1.63.58-1.39.95-1.22 1.22-.95 1.39-.58zm22 38.5 1.18-.24.94-.64.64-.94.24-1.18-.24-1.18-.64-.94-.94-.64-1.18-.24-1.18.24-.94.64-.64.94-.24 1.18.24 1.18.64.94.94.64zm-129 29-2.19.2-2.01.55-1.86.89-1.68 1.19-1.43 1.43-1.19 1.68-.89 1.86-.55 2.01-.2 2.19.2 2.19.55 2.01.89 1.86 1.19 1.68 1.43 1.43 1.68 1.19 1.86.89 2.01.55 2.19.2 2.19-.2 2.01-.55 1.86-.89 1.68-1.19 1.43-1.43 1.19-1.68.89-1.86.55-2.01.2-2.19-.2-2.19-.55-2.01-.89-1.86-1.19-1.68-1.43-1.43-1.68-1.19-1.86-.89-2.01-.55zm0 3 2.41.33 2.13.9 1.82 1.41 1.41 1.82.9 2.13.33 2.41-.33 2.41-.9 2.13-1.41 1.82-1.82 1.41-2.13.9-2.41.33-2.41-.33-2.13-.9-1.82-1.41-1.41-1.82-.9-2.13-.33-2.41.33-2.41.9-2.13 1.41-1.82 1.82-1.41 2.13-.9z"/><path fill="none" stroke="#a3b1bf" stroke-linecap="round" stroke-width="3" d="m376 452.5 2.46 1.69 2.5 1.2 2.57.76 2.67.33 2.8-.1"/><path fill="#a0c8ff" fill-opacity=".151" d="m565.5 254 1.83-.17 1.67-.46 1.55-.74 1.4-.99 1.19-1.19.99-1.4.74-1.55.46-1.67.17-1.83-.17-1.83-.46-1.67-.74-1.55-.99-1.4-1.19-1.19-1.4-.99-1.55-.74-1.67-.46-1.83-.17-1.82.17-1.68.46-1.55.74-1.4.99-1.19 1.19-.99 1.4-.74 1.55-.46 1.67-.17 1.83.17 1.83.46 1.67.74 1.55.99 1.4 1.19 1.19 1.4.99 1.55.74 1.67.46z"/><path fill="#a3b1bf" fill-rule="evenodd" d="m565.5 254-1.82-.17-1.68-.46-1.55-.74-1.4-.99-1.19-1.19-.99-1.4-.74-1.55-.46-1.67-.17-1.83.17-1.83.46-1.67.74-1.55.99-1.4 1.19-1.19 1.4-.99 1.55-.74 1.67-.46 1.83-.17 1.83.17 1.67.46 1.55.74 1.4.99 1.19 1.19.99 1.4.74 1.55.46 1.67.17 1.83-.17 1.83-.46 1.67-.74 1.55-.99 1.4-1.19 1.19-1.4.99-1.55.74-1.67.46zm0-23-2.37.22-2.18.59-2.01.96-1.83 1.3-1.54 1.54-1.3 1.83-.96 2.01-.59 2.18-.22 2.37.22 2.37.59 2.18.96 2.01 1.3 1.83 1.54 1.54 1.83 1.3 2.01.96 2.18.59 2.37.22 2.37-.22 2.18-.59 2.01-.96 1.83-1.3 1.54-1.54 1.3-1.83.96-2.01.59-2.18.22-2.37-.22-2.37-.59-2.18-.96-2.01-1.3-1.83-1.54-1.54-1.83-1.3-2.01-.96-2.18-.59z"/><path fill="#a0c8ff" fill-opacity=".151" d="m302.4 301.37 1.83-.17 1.67-.46 1.55-.74 1.4-.99 1.19-1.19.99-1.41.74-1.55.46-1.67.17-1.82-.17-1.83-.46-1.67-.74-1.55-.99-1.4-1.19-1.19-1.4-1-1.55-.74-1.67-.45-1.83-.17-1.82.17-1.68.45-1.55.74-1.4 1-1.19 1.19-.99 1.4-.74 1.55-.46 1.67-.17 1.83.17 1.82.46 1.67.74 1.55.99 1.41 1.19 1.19 1.4.99 1.55.74 1.68.46z"/><path fill="#a3b1bf" fill-rule="evenodd" d="m302.4 301.37-1.82-.17-1.68-.46-1.55-.74-1.4-.99-1.19-1.19-.99-1.41-.74-1.55-.46-1.67-.17-1.82.17-1.83.46-1.67.74-1.55.99-1.4 1.19-1.19 1.4-1 1.55-.74 1.68-.45 1.82-.17 1.83.17 1.67.45 1.55.74 1.4 1 1.19 1.19.99 1.4.74 1.55.46 1.67.17 1.83-.17 1.82-.46 1.67-.74 1.55-.99 1.41-1.19 1.19-1.4.99-1.55.74-1.67.46zm0-23-2.37.22-2.18.59-2.01.96-1.83 1.29-1.54 1.55-1.29 1.82-.97 2.02-.59 2.17-.22 2.38.22 2.37.59 2.17.97 2.02 1.29 1.82 1.54 1.55 1.83 1.29 2.01.96 2.18.6 2.37.22 2.37-.22 2.18-.6 2.01-.96 1.83-1.29 1.54-1.55 1.3-1.82.96-2.02.59-2.17.22-2.37-.22-2.38-.59-2.17-.96-2.02-1.3-1.82-1.54-1.55-1.83-1.29-2.01-.96-2.18-.59z"/><path fill="#a0c8ff" fill-opacity=".151" d="m84.5 700.45 1.75-.24 1.51-.63 1.3-1.02 1.02-1.3.63-1.51.24-1.75-.24-1.75-.63-1.5-1.02-1.31-1.3-1.02-1.51-.63-1.75-.24-1.75.24-1.5.63-1.31 1.02-1.02 1.31-.63 1.5-.24 1.75.24 1.75.63 1.51 1.02 1.3 1.31 1.02 1.5.63z"/><path fill="#a3b1bf" fill-rule="evenodd" d="m84.5 705.45-2.09-.19-1.92-.52-1.77-.85-1.61-1.14-1.36-1.36-1.14-1.61-.85-1.77-.52-1.92-.19-2.09.19-2.09.52-1.92.85-1.77 1.14-1.61 1.36-1.36 1.61-1.14 1.77-.85 1.92-.52 2.09-.19 2.09.19 1.92.52 1.77.85 1.61 1.14 1.36 1.36 1.14 1.61.85 1.77.52 1.92.19 2.09-.19 2.09-.52 1.92-.85 1.77-1.14 1.61-1.36 1.36-1.61 1.14-1.77.85-1.92.52zm0-26.45-2.74.26-2.51.68-2.32 1.11-2.11 1.49-1.78 1.78-1.49 2.11-1.11 2.32-.69 2.51-.25 2.74.25 2.74.69 2.51 1.11 2.32 1.49 2.11 1.78 1.78 2.11 1.49 2.32 1.11 2.51.69 2.74.25 2.74-.25 2.51-.69 2.32-1.11 2.11-1.49 1.78-1.78 1.49-2.11 1.11-2.32.69-2.51.25-2.74-.25-2.74-.69-2.51-1.11-2.32-1.49-2.11-1.78-1.78-2.11-1.49-2.32-1.11-2.51-.68zM562 570.5l1.36-.19 1.16-.49 1.02-.78.78-1.02.49-1.16.19-1.36-.19-1.36-.49-1.16-.78-1.02-1.02-.78-1.16-.49-1.36-.19-1.36.19-1.16.49-1.02.78-.78 1.02-.49 1.16-.19 1.36.19 1.36.49 1.16.78 1.02 1.02.78 1.16.49zm-512-215 1.36-.19 1.16-.49 1.02-.78.78-1.02.49-1.16.19-1.36-.19-1.36-.49-1.16-.78-1.02-1.02-.78-1.16-.49-1.36-.19-1.36.19-1.16.49-1.02.78-.78 1.02-.49 1.16-.19 1.36.19 1.36.49 1.16.78 1.02 1.02.78 1.16.49zm735-21 1.36-.19 1.16-.49 1.02-.78.78-1.02.49-1.16.19-1.36-.19-1.36-.49-1.16-.78-1.02-1.02-.78-1.16-.49-1.36-.19-1.36.19-1.16.49-1.02.78-.78 1.02-.49 1.16-.19 1.36.19 1.36.49 1.16.78 1.02 1.02.78 1.16.49zm-350 172 1.36-.19 1.16-.49 1.02-.78.78-1.02.49-1.16.19-1.36-.19-1.36-.49-1.16-.78-1.02-1.02-.78-1.16-.49-1.36-.19-1.36.19-1.16.49-1.02.78-.78 1.02-.49 1.16-.19 1.36.19 1.36.49 1.16.78 1.02 1.02.78 1.16.49zm-76-251 1.36-.19 1.16-.49 1.02-.78.78-1.02.49-1.16.19-1.36-.19-1.36-.49-1.16-.78-1.02-1.02-.78-1.16-.49-1.36-.19-1.36.19-1.16.49-1.02.78-.78 1.02-.49 1.16-.19 1.36.19 1.36.49 1.16.78 1.02 1.02.78 1.16.49zm417 460 1.36-.19 1.16-.49 1.02-.78.78-1.02.49-1.16.19-1.36-.19-1.36-.49-1.16-.78-1.02-1.02-.78-1.16-.49-1.36-.19-1.36.19-1.16.49-1.02.78-.78 1.02-.49 1.16-.19 1.36.19 1.36.49 1.16.78 1.02 1.02.78 1.16.49zM46 554l-4.41.24-4.2.64-4.04 1.03-3.88 1.44-3.74 1.81-3.49 2.12-3.25 2.43-3.03 2.75-2.75 3.03-2.43 3.25-2.12 3.49-1.81 3.74-1.44 3.88-1.03 4.04-.64 4.2-.24 4.41.24 4.41.64 4.2 1.03 4.04 1.44 3.88 1.81 3.74 2.12 3.49 2.43 3.25 2.75 3.03 3.03 2.75 3.25 2.43 3.49 2.12 3.74 1.81 3.88 1.44 4.04 1.03 4.2.64L46 639l4.41-.24 4.2-.64 4.04-1.03 3.88-1.44 3.74-1.81 3.49-2.12 3.25-2.43 3.03-2.75 2.75-3.03 2.43-3.25 2.12-3.49 1.81-3.74 1.44-3.88 1.03-4.04.64-4.2.24-4.41-.24-4.41-.64-4.2-1.03-4.04-1.44-3.88-1.81-3.74-2.12-3.49-2.43-3.25-2.75-3.03-3.03-2.75-3.25-2.43-3.49-2.12-3.74-1.81-3.88-1.44-4.04-1.03-4.2-.64zm0 88.5-4.77-.26-4.55-.69-4.37-1.12-4.2-1.55-4.05-1.96-3.77-2.3-3.52-2.63-3.28-2.98-2.98-3.28-2.63-3.52-2.3-3.77-1.96-4.05-1.55-4.2-1.12-4.37-.69-4.55L0 596.5l.26-4.77.69-4.55 1.12-4.37 1.55-4.2 1.96-4.05 2.3-3.77 2.63-3.52 2.98-3.28 3.28-2.98 3.52-2.63 3.77-2.3 4.05-1.96 4.2-1.55 4.37-1.12 4.55-.69 4.77-.26 4.77.26 4.55.69 4.37 1.12 4.2 1.55 4.05 1.96 3.77 2.3 3.52 2.63 3.28 2.98 2.98 3.28 2.63 3.52 2.3 3.77 1.96 4.05 1.55 4.2 1.12 4.37.69 4.55.26 4.77-.26 4.77-.69 4.55-1.12 4.37-1.55 4.2-1.96 4.05-2.3 3.77-2.63 3.52-2.98 3.28-3.28 2.98-3.52 2.63-3.77 2.3-4.05 1.96-4.2 1.55-4.37 1.12-4.55.69z"/><path fill="#a0c8ff" fill-opacity=".151" d="m46 633.5 3.84-.21 3.67-.55 3.51-.9 3.38-1.25 4.3-2.16 3.91-2.63 3.55-3.14 3.14-3.55 2.63-3.91 2.16-4.3 1.25-3.38.9-3.51.55-3.67.21-3.84-.21-3.84-.55-3.67-.9-3.51-1.25-3.38-2.16-4.3-2.63-3.91-3.14-3.55-3.55-3.14-3.91-2.63-4.3-2.16-3.38-1.25-3.51-.9-3.67-.55-3.84-.21-3.84.21-3.67.55-3.51.9-3.38 1.25-4.3 2.16-3.91 2.63-3.55 3.14-3.14 3.55-2.63 3.91-2.16 4.3-1.25 3.38-.9 3.51-.55 3.67L9 596.5l.21 3.84.55 3.67.9 3.51 1.25 3.38 2.16 4.3 2.63 3.91 3.14 3.55 3.55 3.14 3.91 2.63 4.3 2.16 3.38 1.25 3.51.9 3.67.55z"/><path fill="#a3b1bf" fill-rule="evenodd" d="M8.5 575.5h44l.59-.12.47-.32.32-.47.12-.59-.12-.59-.32-.47-.47-.32-.59-.12h-44l-.59.12-.47.32-.32.47L7 574l.12.59.32.47.47.32zm79 8h-26l-.59.12-.47.32-.32.47-.12.59.12.59.32.47.47.32.59.12h26l.59-.12.47-.32.32-.47.12-.59-.12-.59-.32-.47-.47-.32zM54 585l-.12-.59-.32-.47-.47-.32-.59-.12h-12l-.59.12-.47.32-.32.47-.12.59.12.59.32.47.47.32.59.12h12l.59-.12.47-.32.32-.47zm-18.5 13.5-.59.12-.47.32-.32.47-.12.59.12.59.32.47.47.32.59.12h12l.59-.12.47-.32.32-.47.12-.59-.12-.59-.32-.47-.47-.32-.59-.12zm27 20h-12l-.59.12-.47.32-.32.47-.12.59.12.59.32.47.47.32.59.12h12l.59-.12.47-.32.32-.47.12-.59-.12-.59-.32-.47-.47-.32zm21 0h-12l-.59.12-.47.32-.32.47-.12.59.12.59.32.47.47.32.59.12h12l.59-.12.47-.32.32-.47.12-.59-.12-.59-.32-.47-.47-.32zM28 600l-.12-.59-.32-.47-.47-.32-.59-.12h-23l-.59.12-.47.32-.32.47L2 600l.12.59.32.47.47.32.59.12h23l.59-.12.47-.32.32-.47zm35.5 9.5h-57l-.59.12-.47.32-.32.47L5 611l.12.59.32.47.47.32.59.12h57l.59-.12.47-.32.32-.47.12-.59-.12-.59-.32-.47-.47-.32zm104.5-179 50-55v55zm67.15-109h-1.11l-2.95.3-2.85.89-1.78.92-1.65 1.18-1.54 1.46-3.87 4.27h-40.25l-2.3.31-2.03.86-1.74 1.35-1.35 1.74-.87 2.03-.31 2.29.31 2.29.87 2.04 1.35 1.73 1.74 1.35 2.03.86 2.3.32h18.28l2.29.31 2.04.86 1.74 1.35 1.35 1.74.86 2.03.32 2.29-.32 2.29-.86 2.04-1.35 1.73-1.74 1.35-2.04.86-2.29.32H146.9l-2.3.31-2.03.86-1.75 1.35-1.34 1.74-.87 2.03-.31 2.29.31 2.29.87 2.04 1.34 1.74 1.75 1.34 2.03.87 2.3.31h25.78l-47.94 52.85-1.59 2.12-1.13 2.23-.71 2.39-.3 2.48.12 2.43.54 2.44.94 2.3 1.36 2.12 1.78 1.95 1.81 1.39 1.94 1.06 2.05.74 2.12.42 1.52.26 1.59.09h81.17v21.03l.29 3.12.79 2.87 1.28 2.66 1.71 2.41 2.05 2.05 2.41 1.71 2.67 1.27 2.87.79 3.13.29 3.13-.29 2.87-.79 2.66-1.27 2.42-1.71 2.05-2.05 1.71-2.41 1.28-2.66.79-2.87.29-3.12V459.3h9.14l2.64-.25 2.42-.66 2.25-1.08 2.04-1.44 1.73-1.73 1.44-2.03 1.08-2.25.66-2.42.25-2.63-.25-2.63-.66-2.42-1.08-2.25-1.44-2.03-1.73-1.73-2.04-1.44-2.25-1.08-2.42-.66-2.64-.25h-9.14v-91.65l-.29-3.12-.79-2.87-1.28-2.66-1.71-2.41-2.05-2.05-2.42-1.71-2.66-1.27-2.87-.79zm-73.93 112H221v-65.76l-5.22 5.74-50 55zm73.97-109 2.58.25 2.37.65 2.19 1.05 1.99 1.41 1.69 1.69 1.4 1.98 1.05 2.2.65 2.36.24 2.58v94.65h12.14l2.1.2 1.92.52 1.78.85 1.62 1.14 1.37 1.37 1.15 1.61.85 1.79.52 1.92.2 2.09-.2 2.09-.52 1.92-.85 1.78-1.15 1.61-1.37 1.37-1.62 1.15-1.78.85-1.92.52-2.1.2h-12.14v24.03l-.24 2.58-.65 2.37-1.05 2.2-1.41 1.98-1.7 1.69-1.99 1.41-2.2 1.05-2.37.65-2.59.24-2.59-.24-2.37-.65-2.2-1.05-2-1.41-1.69-1.69-1.41-1.98-1.05-2.2-.65-2.37-.24-2.58V456.3h-84.17l-2.31-.48-3.77-1.18-1.81-.79-1.12-.73-1.53-1.68-1.14-1.91-.75-2.1-.33-2.26.1-2.28.54-2.16.95-2.02 1.35-1.82 52.49-57.86H146.9l-1.52-.22-1.3-.54-1.14-.88-.88-1.13-.55-1.3-.21-1.52.21-1.51.55-1.3.88-1.14 1.14-.87 1.3-.55 1.52-.21h50.53l2.11-.2 1.94-.53 1.8-.86 1.62-1.15 1.39-1.38 1.15-1.63.86-1.79.53-1.94.2-2.11-.2-2.11-.53-1.94-.86-1.79-1.15-1.63-1.39-1.38-1.62-1.15-1.8-.86-1.94-.53-2.11-.19h-18.28l-1.52-.22-1.3-.54-1.14-.88-.88-1.13-.55-1.3-.21-1.52.21-1.51.55-1.3.88-1.14 1.14-.88 1.3-.54 1.52-.21h41.58l4.77-5.26 1.79-1.6 2.07-1.17 2.27-.74 2.41-.25z"/><path fill="#a0c8ff" fill-opacity=".151" d="m240.36 331.5 2.41.33 2.13.9 1.83 1.41 1.4 1.82.91 2.13.32 2.41v87l-.32 2.41-.91 2.13-1.4 1.82-1.83 1.41-2.13.9-2.41.33-2.41-.33-2.13-.9-1.82-1.41-1.41-1.82-.9-2.13-.33-2.41v-87l.33-2.41.9-2.13 1.41-1.82 1.82-1.41 2.13-.9z"/><path fill="#a3b1bf" fill-rule="evenodd" d="m623.92 430.32 49.8-55.03v55.03zm66.96-108.82-.39.02-.72-.02-2.94.3-2.84.89-1.78.92-1.65 1.18-1.53 1.46-.26.28-1.16 1.29-96.88 107.06-1.58 2.12-1.14 2.23-.71 2.39-.29 2.48.12 2.44.54 2.43.94 2.31 1.35 2.11 1.78 1.95 2.48 1.79 2.62 1.19 2.8.63 1.52.26 1.59.09h80.97v21.03l.29 3.12.78 2.87 1.28 2.66 1.71 2.41 2.04 2.05 2.41 1.71 2.66 1.27 2.87.79 3.12.29 3.12-.29 2.86-.79 2.66-1.27 2.41-1.71 2.04-2.05 1.71-2.41 1.28-2.66.78-2.87.29-3.12V459.3h9.12l2.63-.25 2.42-.66 2.24-1.08 2.04-1.44 1.72-1.73 1.45-2.03 1.07-2.25.66-2.42.25-2.63-.25-2.64-.66-2.41-1.08-2.25-1.44-2.03-1.72-1.73-2.04-1.44-2.24-1.08-2.42-.66-2.63-.25h-9.12v-20.39h35.4l2.29-.31 2.03-.87 1.74-1.34 1.34-1.74.86-2.03.32-2.3-.32-2.29-.86-2.03-1.34-1.74-1.74-1.34-2.03-.87-2.29-.31h-39.68l-2.3-.31-2.03-.87-1.73-1.34-1.35-1.74-.86-2.03-.32-2.3.32-2.29.86-2.03 1.35-1.74 1.73-1.34 2.03-.87 2.3-.31h17.15l2.29-.31 2.04-.87 1.73-1.34 1.35-1.74.86-2.03.31-2.3-.31-2.29-.86-2.03-1.35-1.74-1.73-1.35-2.04-.86-2.29-.31h-12.87v-19.75l-.29-3.12-.78-2.87-1.28-2.66-1.71-2.41-2.04-2.05-2.41-1.71-2.66-1.27-2.86-.79zm-73.73 111.82h59.57V367.5l-5.23 5.77-49.8 55.04zm73.76-108.82 2.58.25 2.36.65 2.19 1.05 1.98 1.41 1.68 1.69 1.4 1.98 1.05 2.2.64 2.36.24 2.58v22.75h15.87l1.52.21 1.3.55 1.13.88.88 1.13.54 1.3.21 1.51-.21 1.52-.54 1.3-.88 1.13-1.13.88-1.3.54-1.52.22h-17.15l-2.12.2-1.93.53-1.8.85-1.62 1.16-1.38 1.38-1.15 1.62-.86 1.8-.53 1.93-.2 2.11.2 2.12.53 1.93.86 1.8 1.15 1.62 1.38 1.38 1.62 1.16 1.8.85 1.93.53 2.12.2h39.68l1.51.21 1.3.55 1.13.88.88 1.13.54 1.3.22 1.51-.22 1.52-.54 1.3-.88 1.13-1.13.88-1.3.55-1.51.21h-38.4v26.39h12.12l2.09.2 1.92.52 1.78.85 1.61 1.14 1.37 1.37 1.14 1.61.85 1.78.52 1.92.2 2.1-.2 2.09-.52 1.92-.85 1.78-1.14 1.61-1.37 1.37-1.61 1.15-1.78.85-1.92.52-2.09.2h-12.12v24.03l-.24 2.58-.64 2.37-1.05 2.2-1.41 1.98-1.69 1.69-1.98 1.41-2.2 1.05-2.36.65-2.58.24-2.58-.24-2.37-.65-2.2-1.05-1.98-1.41-1.69-1.69-1.41-1.98-1.05-2.2-.64-2.37-.24-2.58V456.3h-83.97l-2.46-.28-.14-.03-.14-.02-2.3-.53-2.07-.94-1.88-1.38-1.42-1.55-1.07-1.68-.75-1.83-.43-1.93-.09-1.93.23-1.96.56-1.89.9-1.78 1.26-1.68 96.88-107.06.05-.06.05-.05.96-1.07.06-.06.05-.05.25-.28 1.79-1.6 2.06-1.17 2.27-.74 2.4-.25.57.02h.19z"/><path fill="#a0c8ff" fill-opacity=".151" d="m696 331.5 2.41.33 2.13.9 1.82 1.41 1.41 1.82.9 2.13.33 2.41v10l-.33 2.41-.9 2.13-1.41 1.82-1.82 1.41-2.13.9-2.41.33-2.41-.33-2.13-.9-1.82-1.41-1.41-1.82-.9-2.13-.33-2.41v-10l.33-2.41.9-2.13 1.41-1.82 1.82-1.41 2.13-.9zm0 125 2.41.33 2.13.9 1.82 1.41 1.41 1.82.9 2.13.33 2.41v16l-.33 2.41-.9 2.13-1.41 1.82-1.82 1.41-2.13.9-2.41.33-2.41-.33-2.13-.9-1.82-1.41-1.41-1.82-.9-2.13-.33-2.41v-16l.33-2.41.9-2.13 1.41-1.82 1.82-1.41 2.13-.9z"/><path fill="#a3b1bf" fill-rule="evenodd" d="m799 448.5.98.2.79.53.53.79.2.98v10l-.2.98-.53.79-.79.53-.98.2-.98-.2-.79-.53-.53-.79-.2-.98v-10l.2-.98.53-.79.79-.53zm0 31 .98.2.79.53.53.79.2.98v10l-.2.98-.53.79-.79.53-.98.2-.98-.2-.79-.53-.53-.79-.2-.98v-10l.2-.98.53-.79.79-.53zm23-8-.2.98-.53.79-.79.53-.98.2h-10l-.98-.2-.79-.53-.53-.79-.2-.98.2-.98.53-.79.79-.53.98-.2h10l.98.2.79.53.53.79zm-31 0-.2.98-.53.79-.79.53-.98.2h-10l-.98-.2-.79-.53-.53-.79-.2-.98.2-.98.53-.79.79-.53.98-.2h10l.98.2.79.53.53.79zM208 235l.98.2.79.53.53.79.2.98v10l-.2.98-.53.79-.79.53-.98.2-.98-.2-.79-.53-.53-.79-.2-.98v-10l.2-.98.53-.79.79-.53zm0 31 .98.2.79.53.53.79.2.98v10l-.2.98-.53.79-.79.53-.98.2-.98-.2-.79-.53-.53-.79-.2-.98v-10l.2-.98.53-.79.79-.53zm23-8-.2.98-.53.79-.79.53-.98.2h-10l-.98-.2-.79-.53-.53-.79-.2-.98.2-.98.53-.79.79-.53.98-.2h10l.98.2.79.53.53.79zm-31 0-.2.98-.53.79-.79.53-.98.2h-10l-.98-.2-.79-.53-.53-.79-.2-.98.2-.98.53-.79.79-.53.98-.2h10l.98.2.79.53.53.79zm-86.21 268.63.98.2.79.53.53.79.2.98v10l-.2.98-.53.79-.79.53-.98.2-.98-.2-.79-.53-.53-.79-.2-.98v-10l.2-.98.53-.79.79-.53zm0 31 .98.2.79.53.53.79.2.98v10l-.2.98-.53.79-.79.53-.98.2-.98-.2-.79-.53-.53-.79-.2-.98v-10l.2-.98.53-.79.79-.53zm23-8-.2.98-.53.79-.79.53-.98.2h-10l-.98-.2-.79-.53-.53-.79-.2-.98.2-.98.53-.79.79-.53.98-.2h10l.98.2.79.53.53.79zm-31 0-.2.98-.53.79-.79.53-.98.2h-10l-.98-.2-.79-.53-.53-.79-.2-.98.2-.98.53-.79.79-.53.98-.2h10l.98.2.79.53.53.79zM808 608.5l-4.46-.24-4.25-.65-4.08-1.05-3.93-1.44-3.79-1.84-3.53-2.14-3.29-2.46-3.06-2.79-2.79-3.06-2.46-3.29-2.14-3.53-1.84-3.79-1.44-3.93-1.05-4.08-.65-4.25-.24-4.46.24-4.46.65-4.25 1.05-4.08 1.44-3.93 1.84-3.79 2.14-3.53 2.46-3.29 2.79-3.06 3.06-2.79 3.29-2.46 3.53-2.14 3.79-1.84 3.93-1.44 4.08-1.05 4.25-.65 4.46-.24 4.46.24 4.25.65 4.08 1.05 3.93 1.44 3.79 1.84 3.53 2.14 3.29 2.46 3.06 2.79 2.79 3.06 2.46 3.29 2.14 3.53 1.84 3.79 1.44 3.93 1.05 4.08.65 4.25.24 4.46-.24 4.46-.65 4.25-1.05 4.08-1.44 3.93-1.84 3.79-2.14 3.53-2.46 3.29-2.79 3.06-3.06 2.79-3.29 2.46-3.53 2.14-3.79 1.84-3.93 1.44-4.08 1.05-4.25.65zm0-89.5-4.83.26-4.61.7-4.41 1.13-4.25 1.56-4.1 1.98-3.81 2.32-3.56 2.66-3.31 3.01-3.01 3.31-2.66 3.56-2.32 3.81-1.98 4.1-1.56 4.25-1.13 4.41-.7 4.61-.26 4.83.26 4.83.7 4.61 1.13 4.41 1.56 4.25 1.98 4.1 2.32 3.81 2.66 3.56 3.01 3.31 3.31 3.01 3.56 2.66 3.81 2.32 4.1 1.98 4.25 1.56 4.41 1.13 4.61.7 4.83.26 4.83-.26 4.61-.7 4.41-1.13 4.25-1.56 4.1-1.98 3.81-2.32 3.56-2.66 3.31-3.01 3.01-3.31 2.66-3.56 2.32-3.81 1.98-4.1 1.56-4.25 1.13-4.41.7-4.61.26-4.83-.26-4.83-.7-4.61-1.13-4.41-1.56-4.25-1.98-4.1-2.32-3.81-2.66-3.56-3.01-3.31-3.31-3.01-3.56-2.66-3.81-2.32-4.1-1.98-4.25-1.56-4.41-1.13-4.61-.7z"/><path fill="#a0c8ff" fill-opacity=".151" d="m808 529.5-4.94.34-4.65.95-4.41 1.54-4.18 2.11-3.8 2.57-3.46 3.05-3.05 3.46-2.57 3.8-2.11 4.18-1.54 4.41-.95 4.65-.34 4.94.34 4.94.95 4.65 1.54 4.41 2.11 4.18 2.57 3.8 3.05 3.46 3.46 3.05 3.8 2.57 4.18 2.11 4.41 1.54 4.65.95 4.94.34 4.94-.34 4.65-.95 4.41-1.54 4.18-2.11 3.8-2.57 3.46-3.05 3.05-3.46 2.57-3.8 2.11-4.18 1.54-4.41.95-4.65.34-4.94-.34-4.94-.95-4.65-1.54-4.41-2.11-4.18-2.57-3.8-3.05-3.46-3.46-3.05-3.8-2.57-4.18-2.11-4.41-1.54-4.65-.95zm71.5 49.5 2.14-.29 1.9-.8 1.62-1.25 1.25-1.62.8-1.9.29-2.14-.29-2.14-.8-1.9-1.25-1.62-1.62-1.25-1.9-.8-2.14-.29-2.14.29-1.9.8-1.62 1.25-1.25 1.62-.8 1.9-.29 2.14.29 2.14.8 1.9 1.25 1.62 1.62 1.25 1.9.8z"/><path fill="#a3b1bf" fill-rule="evenodd" d="m879.5 579-2.14-.29-1.9-.8-1.62-1.25-1.25-1.62-.8-1.9-.29-2.14.29-2.14.8-1.9 1.25-1.62 1.62-1.25 1.9-.8 2.14-.29 2.14.29 1.9.8 1.62 1.25 1.25 1.62.8 1.9.29 2.14-.29 2.14-.8 1.9-1.25 1.62-1.62 1.25-1.9.8zm-11.5-8 .25 2.37.66 2.13 1.07 1.96 1.43 1.71 1.69 1.38 1.99 1.07-1.62 5.64-2.03 5.37-2.45 5.14-2.87 4.91-3.27 4.66-3.6 4.34-3.94 4.03-4.28 3.72-4.57 3.36-4.82 2.96-5.08 2.57-5.36 2.18-5.51 1.72-5.68 1.24-5.89.76-6.12.28-5.49-.22-5.31-.62-5.14-1.01-5-1.39-4.91-1.77-4.68-2.09-4.48-2.43-4.29-2.75-4.08-3.06-3.81-3.32-3.56-3.6-3.32-3.87-3.01-4.09-2.7-4.3-2.39-4.52-2.08-4.74-3.03.47 2.14 5.02 2.47 4.77 2.81 4.54 3.14 4.33 3.46 4.09 3.72 3.8 3.99 3.52 4.27 3.24 4.5 2.91 4.7 2.57 4.92 2.22 5.15 1.87 5.25 1.48 5.41 1.06 5.58.65 5.77.24 6.38-.29 6.14-.8 5.93-1.29 5.74-1.79 5.59-2.27 5.3-2.67 5.03-3.09 4.77-3.5 4.47-3.88 4.1-4.2 3.76-4.52 3.41-4.86 3-5.12 2.56-5.35 2.12-5.6 1.69-5.88 1.51.11 2.1-.2 1.92-.52 1.78-.85 1.62-1.14 1.37-1.37 1.14-1.62.85-1.78.52-1.92.2-2.1-.2-2.1-.52-1.92-.85-1.78-1.14-1.62-1.37-1.37-1.62-1.14-1.78-.85-1.92-.52-2.1-.2-2.1.2-1.92.52-1.78.85-1.62 1.14-1.37 1.37-1.14 1.62-.85 1.78-.52 1.92zm-48-10-.21 1.49-.54 1.28-.86 1.12-1.12.86-1.28.54-1.49.21-1.49-.21-1.28-.54-1.12-.86-.86-1.12-.54-1.28L809 561l.21-1.49.54-1.28.86-1.12 1.12-.86 1.28-.54 1.49-.21 1.49.21 1.28.54 1.12.86.86 1.12.54 1.28zm-25-7-.21 1.49-.54 1.28-.86 1.12-1.12.86-1.28.54-1.49.21-1.49-.21-1.28-.54-1.12-.86-.86-1.12-.54-1.28L784 554l.21-1.49.54-1.28.86-1.12 1.12-.86 1.28-.54 1.49-.21 1.49.21 1.28.54 1.12.86.86 1.12.54 1.28zm-293.53-13.56-2.41-.33-2.13-.9-1.82-1.41-1.41-1.82-.9-2.13-.33-2.41.33-2.41.9-2.13 1.41-1.83 1.82-1.4 2.13-.91 2.41-.32 2.41.32 2.13.91 1.82 1.4 1.41 1.83.9 2.13.33 2.41-.33 2.41-.9 2.13-1.41 1.82-1.82 1.41-2.13.9zm0-20.86-2.16.2-1.99.54-1.84.88-1.66 1.17-1.41 1.42-1.18 1.66-.88 1.84-.54 1.98-.2 2.17.2 2.16.54 1.99.88 1.83 1.18 1.67 1.41 1.41 1.66 1.18 1.84.88 1.99.54 2.16.2 2.17-.2 1.98-.54 1.84-.88 1.66-1.18 1.41-1.41 1.18-1.67.88-1.83.54-1.99.2-2.16-.2-2.17-.54-1.98-.88-1.84-1.18-1.66-1.41-1.42-1.66-1.17-1.84-.88-1.98-.54z"/><path fill="#a0c8ff" fill-opacity=".151" d="m510.53 531.44-.33 2.42-.91 2.15-1.42 1.83-1.83 1.42-2.14.9-2.43.33-2.42-.33-2.15-.9-1.83-1.42-1.42-1.83-.91-2.15-.32-2.42.32-2.43.91-2.14 1.42-1.83 1.83-1.42 2.15-.91 2.42-.33 2.43.33 2.14.91 1.83 1.42 1.42 1.83.91 2.14z"/><path fill="#a3b1bf" fill-rule="evenodd" d="m59.64 211.74-3.08-1.43-3.04.27-2.92.1-5.23-.3-4.69-.83-4.22-1.32-3.81-1.8-3.45-2.28-3.12-2.78-2.22-2.57-1.81-2.63-1.45-2.69-1.67-4.22-1.05-4.11-.59-4.09-.2-3.69.07-3.5.23-2.73.58-3.71 1.35-4.89 1.82-4.46 2.28-4.08 2.73-3.81 3.02-3.41 3.33-3.05 3.6-2.73 3.71-2.33 3.82-1.95 3.97-1.62 3.85-1.2 3.76-.81 3.11-.44 4.72-.25 4.37.22 4.15.65 3.95 1.05 3.78 1.46 3.62 1.88 3.5 2.35 3.05.17 3.01.49-3.84-3.25-3.99-2.68-4.05-2.08-3.83-1.52-3.66-1.01-5.47-.9-4.59-.23-5.07.27-3.33.47-4.4.96-4.37 1.39-4.35 1.84-4.17 2.21-3.98 2.61-3.79 3-3.48 3.34-3.13 3.68-2.79 4.04-2.34 4.32-1.84 4.62-1.36 4.99-.57 3.55-.27 2.85-.11 3.79.18 4.02.63 4.55 1.14 4.59 1.84 4.74 1.61 3.02 2.04 2.97 2.51 2.92 2.59 2.38 2.7 2.02 2.83 1.66 2.98 1.38 3.05 1.1 3.14.81 4.81.75 4.86.24 6.23-.36 6-.97z"/><path fill="#a3b1bf" fill-rule="evenodd" d="m86.24 140.01-4.47.26-4.31.65-7.82 1.82-6.3 1.74-3.45 1.19-3.61 1.53-3.51 1.89-3.38 2.35-2.07 1.82-1.92 2.09-1.76 2.39-1.82 3.3-1.43 3.63-1.02 3.98-.59 4.08-.17 4.19.24 4.34.66 4.29 1.07 4.17 1.49 4.09 1.91 3.89 2.3 3.58 2.72 3.27 3.12 2.88 3.53 2.39 3.99 1.92 3.43 1.07 3.4.63 3.4.19 3.56-.22 3.51-.59 3.46-.99 3.36-1.31 3.24-1.6 3.13-1.9 4.37-3.28 3.92-3.71 3.44-4.07 2.78-4.22 2.04-4.09 1.61-4.3 1.18-4.53.73-4.63.28-4.56-.16-4.51-.63-4.47-1.09-4.11-1.52-3.82-1.49-2.7-1.73-2.38-1.98-2.09-2.24-1.81-3.16-1.77-3.3-1.14-3.44-.63zm0 3 3.53.21 3.09.63 2.7 1 2.38 1.36 2.48 2.11 2.14 2.61 1.81 3.16 1.36 3.41.98 3.73.6 4.09.18 4.14-.23 4.22-.66 4.32-1.09 4.24-1.51 4.07-1.96 3.93-2.38 3.64-3.05 3.69-3.49 3.42-4 3.13-2.88 1.83-3.02 1.57-3.18 1.3-3.29.99-3.38.6-3.5.22-3.15-.19-3.04-.57-2.96-.93-2.89-1.33-2.67-1.66-2.49-2-2.32-2.35-2.64-3.51-2.25-4.04-1.84-4.65-.98-3.6-.66-3.59-.33-3.6-.02-3.62.3-3.46.6-3.32.93-3.24 1.21-2.94 1.49-2.66 2.17-2.81 2.41-2.37 2.67-1.97 4.34-2.41 4.4-1.78 4.42-1.38 3.82-1.01 7.55-1.75 4.11-.63zM30.38 295.43l-3.77-2.5-3.08-2.61-2.46-2.73-2.13-3.01-1.66-2.96-1.23-2.93-1.31-4.49-.67-3.95-.26-3.73.04-2.68.27-2.86-.02-.6-.24-.52-.41-.39-.56-.21-.61.02-.51.24-.39.41-.22.56-.25 2.81-.04 2.86.28 4.09.71 4.34 1.43 4.96 1.33 3.25 1.8 3.28 2.31 3.33 2.69 3.01 3.36 2.88 4.12 2.74.74.2.74-.2.56-.56.19-.57-.04-.57-.25-.51zm-11.8 2.14-3.21-2.95-2.36-2.84-1.89-2.93-1.26-2.52-.92-2.42-.48-1.66-.33-1.66-.17-.58-.37-.44-.5-.27-.6-.05-.57.17-.44.37-.27.5-.06.6.36 1.98.53 1.89 1.01 2.69 1.39 2.8 2.09 3.25 2.61 3.13 3.56 3.28.46.25.48.08.64-.14.53-.43.28-.53.04-.57-.17-.54zm6.97-127.34.09.01.56-.11.47-.3.32-.44.15-.56.46-3.65.75-3.07 1-2.57 1.96-3.5 2.04-2.54 2.2-2.05 1.71-1.24 1.96-1.09.5-.34.31-.47.11-.56-.11-.59-.34-.5-.48-.31-.56-.11-.59.11-2.25 1.22-1.97 1.41-2.54 2.32-1.58 1.81-1.53 2.25-1.5 2.77-1.15 2.91-.86 3.47-.54 4.13.09.6.29.49.45.35zm69.09 67.01-1.49.21-1.28.53-1.12.87-.86 1.12-.54 1.28-.21 1.49.21 1.49.54 1.28.86 1.11 1.12.87 1.28.54 1.49.21 1.49-.21 1.28-.54 1.12-.87.86-1.11.54-1.28.21-1.49-.21-1.49-.54-1.28-.86-1.12-1.12-.87-1.28-.53zm0 14-2.27-.31-2.02-.85-1.72-1.34-1.33-1.72-.85-2.01-.31-2.27.31-2.28.85-2.01 1.33-1.72 1.72-1.33 2.02-.85 2.27-.31 2.27.31 2.02.85 1.72 1.33 1.33 1.72.85 2.01.31 2.28-.31 2.27-.85 2.01-1.33 1.72-1.72 1.34-2.02.85z"/><path fill="#a0c8ff" fill-opacity=".151" d="m100.14 242.74-.21 1.49-.54 1.28-.86 1.12-1.12.86-1.28.54-1.49.21-1.49-.21-1.28-.54-1.12-.86-.86-1.12-.54-1.28-.21-1.49.21-1.5.54-1.28.86-1.11 1.12-.87 1.28-.53 1.49-.21 1.49.21 1.28.53 1.12.87.86 1.11.54 1.28zm-7.03-98.85-7.66 1.52-6.4 1.77-5.28 1.99-4.33 2.16-3.5 2.3-2.77 2.45-2.13 2.59-1.56 2.75-1.02 2.96-.5 3.2.04 3.51 1.06 13.71.49 5.53.62 4.3.62 2.68.85 2.37 1.05 2.09 1.33 1.91 1.75 1.89 2.23 1.86 2.01 1.18 2.04.73 2.11.29 2.16-.05 2.18-.36 2.23-.65 3.21-1.38 3.07-1.72 2.87-1.97 2.45-1.93 3.67-3.45 2.26-2.55 2.7-3.64 1.63-2.68 1.54-3.24 1.44-3.88 1.03-3.99.67-4.73.25-5.57-.4-4.38-.75-3.85-1.06-3.37-1.47-3.22-1.69-2.68-1.9-2.23-2.23-1.89-2.37-1.39z"/><path fill="#a3b1bf" fill-rule="evenodd" d="m156.63 256.63-1.65 1.23-1.72.73-1.97.46-2.87.43-7.5 1.25.94-2.29.63-2.24.33-2.2.07-3.3-.34-3.07-.67-2.94-.8-2.49-1.7-3.88 6.73-2.16 4.88-1.7 3.45-1.33 3.19-1.14.81-.09.5.16.98.84.94 1.56.67 1.89.48 2.45.17 2.89-.2 3.24-.63 3.24-1.08 3.15-.99 1.98-1.21 1.76zm-19.25 4.3-.22.63-2.9.73-5.53 1.49-4.61 1.39-4.2 1.63-3.08 1.72-1.7 1.43-1.19 1.6-.76 1.8-.22 1.71.27 1.54.63 1.55 1.05 2.02 1.4 2.66-1.21 3.08-1.39 2.56-2.4 3.37-1.98 2.22-2.77 2.53-3.21 2.36-4.15 2.39-2.98 1.37-3.45 1.28-3.99 1.16-4.01-1.98-4.08-2.36-4.01-2.62-3.96-2.84 2.79-2.41 2.27-2.45 1.81-2.5 2.19-3.99 1.41-3.76.92-3.73.44-3.07.14-4.49 1.32-.67.52-.34.16-.14 1.81-1.5 2.13-1.51 3.76-2.33 4.45-2.39 6.38-2.95 4.87-2.38 3.14-2.01 2.49-2.15 1.35-1.69.85-1.71.28-1.22v-1.09l-.12-.54-.52-2.15-1.13-4.2 2.7.89 3.03.73 3.16.47 3.29.17h.02l3.82-.28 3.96-.8 1.61 3.52.83 2.42.69 2.93.33 3.08-.14 3.28-.43 2.17-.78 2.17zm-19.27 25.69 1.14 2.68 2.17 5.56 1.16 3.68.38 2.27-.11 1.78-.52 1.42-1 1.28-1.34.98-1.57.73-1.7.55-3.35.71-3.98.52-3.7.1-3.59-.22-3.17-.44-2.99-.63-2.42-.67 5.21-2.01 4.28-2.15 3.48-2.27 3.26-2.63 2.56-2.49 1.97-2.36 2.45-3.66zm-53.39 2.28 2.92-2.57 2.28-2.49 1.71-2.42 1.44-2.62 1.02-2.38.66-2.16.62-3.19.17-2.25 1.52.58 1.54.35 1.64.12 1.47-.11-.3 4.42-.51 2.85-.96 3.33-1.39 3.33-2.06 3.47-1.67 2.16-2.07 2.09-2.49 2.04zm-11.38-10.56 1.5-.51.61-.46.47-.64.32-1.14-.15-1.2-.52-1.19-.83-1.24-2.04-2.28-1.55-1.95-1.09-2.06-.66-2.18-.4-3.4.15-3.23.51-3.06.59-2.25.77-2.22.12-.59-.11-.56-.31-.48-.49-.34-.59-.12-.56.11-.48.3-.34.5-.79 2.21-.59 2.09-.58 2.89-.31 3.08.09 3.4-3.14 1.3-2.77.87-2.43.51-3.6.31-2.88-.18-2.63-.55-1.91-.68-2.54-1.38.38-4.21.74-3.9 1.08-3.62 2.16-5.2 2.58-4.77 2.87-4.52 2.88-4.21 4.07-5.4 4.32.14 3.03.38 3.67.79 3.72 1.22 3.88 1.85 2.43 1.56 2.33 1.95 2.23 2.35-1.64 1-1.31.97-1.01 1.42-.74 1.97-.31 2.28.12 3.05.64 3.23 1.33 3.88 1.92 3.93 2.88 4.46 2.03 2.45 2.03 1.87.04 2.17-.19 2.02-.62 2.84-1.08 2.94-1.88 3.39-1.58 2.13-2.09 2.19-2.69 2.26-4.97-4.56zm-2.98-3L48 273.19l-1.87-1.29-1.49-.65-1.21-.19-.75.08-.7.25-.93.71-.63.94-.35 1.24-.17 2.07.05 2.41-.02 3.99-.39 1.75-.74.99-.84.31h-1.17l-1.25-.27-1.39-.53-2.65-1.49-1.56-1.3-1.68-1.97-1.42-2.4-1.31-3.37-.87-3.83-.49-5.13 1.69.78 2.34.78 2.59.53 3.23.22 2.69-.15 3.1-.51 3.19-.88 3.63-1.42.83 2.4 1.3 2.31 1.82 2.23 2.09 2.43.55 1.07-1.17.16zm-3.74-55.41 3.14.53 5.45 1.36 3.11 1.07 3.21 1.41 3.05 1.75 2.7 2.12 1.56 1.65 1.25 1.83.95 2.04-1.9 1.16-2.06-2.3-2.13-1.95-2.22-1.63-3.55-2.03-3.5-1.47-3.53-1.07-3.19-.66-3.06-.39-2.39-.16zm23.74 24.33.59 2.9 1.18 3.48 1.71 3.5 2.64 3.89 2.08 2.46 2.64 2.56 3.25 2.67-2.02.85-1.51.27-1.92-.07-1.99-.57-2-1.1-2.04-1.74-2.12-2.5-2.61-4.04-1.75-3.52-1.22-3.47-.6-2.82-.15-2.64.25-1.87.67-1.61.87-.81 3.94-2.4-.16 2.86zm3.27-8.64 15.76-9.58 3.61-1.79 2.36-.96 2.57-.86 2.61-.62 2.34-.22 1.52.13 1.21.41.97.67 1.35 1.74 1.46 2.67 1.29 2.98 1.23 3.35 2.01 6.52 1.26 5-.06-.03.1.18v.64l-.55 1.27-1.03 1.32-2.19 1.89-2.82 1.79-4.58 2.24-6.42 2.97-4.56 2.43-3.89 2.39-2.32 1.63-3.76-3.04-2.9-2.87-2.18-2.72-1.87-2.97-1.32-2.71-.86-2.51-.76-3.77-.15-3.04.23-2.78zm31.35-30.95 1.84 1.43 2.37 1.07.57.15.26 5.16-.2 4.98-.34 2.15-.47 1.4-.31-.33-1.45-1.07-1.64-.68-1.88-.3.41-1.81.42-3.11.27-3.63zm7.83 3.12 2.69-.06 2.8-.49 2.69-.95 2.45-1.44 3.52 4.81 1.84 2.92 1.69 3.12 1.4 3.2.89 3 .28 2-.09 1.74-.41 1.54-2.7.98-2.66.56-2.64.07-2.45-.48-.63-.22-2.57-.76-1.58-.19-1.93.12-2.41.65-1.05-2.29-1.07-2.01.72-1.12.58-1.47.44-1.91.33-2.94.09-3.09zm14.44-7.46 1.26-1.9.74-.72 1.01-.61 1.42-.45 1.41-.17 1.38.08 1.04.27.75.49.01.38-.59 1.12-1.07 1.36-2.42 2.56-1.17 1.21-.69.93-.24.91.41.92.8.5h.65l1-.52 1.55-.95 1.22-.37 1.88-.13 1.83.14 1.19.3 1.05.49 1.04.74.5.55.55.93.88 2.24.51 2.29-.04 1.58-.46 1.58-.76 1.51-1.01 1.47-2.31 2.63-2.1 1.89-2.46 1.76-.04-2.06-.32-2.17-.64-2.28-1.31-3.34-1.64-3.24-1.84-3.08-1.74-2.59-2.86-3.8zm-99.31 27.6.13.06 1.37.64.84.51.02.52-.24.81-.45.83-.67.86-.83.73-1 .53-1.33.22-1.76-.27 1.23-.93 1.16-1.22.92-1.47zm-7.33 3.73-.36.16-1.88-1.02-2.12-1.34 1.26-.72 1.32-1.11 1.14-1.42.99-2.01 4.14 2.35-.43 1.78-.8 1.26-1.07.98-.99.61zm-7.25-4.39-1.98-1.81-1.92-2.1 1.78-.53.82-.48.91-.79.79-1 .74-1.46 1.75 1.65 2.12 1.7-.66 1.65-.77 1.17-.85.8-1.49.84-1.19.34zm-6.01-6.99-.18-.07-1.69-3.25-1.25-3.72 1.82.41.51.02 1.63-.21 2.14-.94.86 1.96.99 1.73-.49 1.85-.7 1.22-.88.75-.91.34-.81.07zM3.6 209.29l-.06-3.39.36-3.27 1 .77 1.3.61 1.79.29.97-.1.06 2.7.39 2.58-1.08.74-1.03.37-1.01.07-.97-.21-.75-.36zm3.82-16.7.61.98.86.98 1.09.82 1.5.63-1.08 2.03-.97 2.92-1.22.33-1.05-.12-.99-.53-.69-.67-.61-.88-.09-.14 1.2-3.3zm6.56-9.45.85 4.12.98 3.64-.69.69-.96.98-.67.7-1.72-.35-1-.72-.71-1.03-.52-1.17-.25-.58 1.46-2.11 1.75-2.34zm151.01 55.28-.66-3.2-.98-2.5-.91-1.46-1-1.08-1.09-.77-1.44-.48-1.5.05-1.65.45-2.41.91-3.39 1.3-4.8 1.67-6.78 2.18-5.17 1.31-2.3.33-2.27.11h-.02l-3.94-.27-3.56-.68-3.31-1.01-2.51-1.06-1.21-3.52 1.79-.48 1.35-.08 1.16.14 2.06.63.72.25 2.02.49 2.04.19 2.06-.1 3.06-.59 2.96-1.03 2.82-1.38 2.52-1.57 2.29-1.75 1.78-1.64 2.34-2.61 1.25-1.78 1.09-2.09.66-2.27.07-2.47-.58-2.69-1.19-2.99-.84-1.33-.95-.99-1.36-.96-1.47-.71-1.67-.44-2.39-.21h-.87l1.21-1.54.85-1.52.39-1.56-.24-1.47-.51-.82-.79-.71-1.12-.58-1.76-.46-1.98-.09-1.99.27-1.85.61-1.6.95-1.11 1.06-1.65 2.43-.91 1.46-1.15 1.39-1.52 1.17-1.73.9-1.95.63-3.01.43-2.77-.14-.42-.07-1.11-.27-1.94-.92-1.51-1.3-1.22-1.64-1.01-1.94-1.64-4.35-.58-1.64-2.08 3.13.91 2.51 1.09 2.47-.14.62-.11 7.53-.48 6.47-.42 2.46-.38.97-.06.09-2.84.58-2.73.86-4.61 1.95-2.48 1.3-14.21 8.65-1.24-2.42-1.56-2.15-1.88-1.9-3.23-2.41-3.53-1.95-3.69-1.53-3.44-1.11-5.76-1.33 6.09-5.46h-4.56l-6.11 5.7L42 220.4l-2.6 2.95-2.48 3.09-2.51 3.44-3.46 5.08-3.42 5.6-2.18-3.93.43.01 1.38-.13.98-.27 1.59-.83 1.38-1.19 1.12-1.44.74-1.53.33-1.59-.16-1.42-.69-1.16-1.25-.91-4.06-1.93-3.31-1.79.38-1.11 1.54-3.05 1.81-2.44 2.04-2.05 1.75-1.37 1.65-1.01.71-.28.55-.22.41-.4.23-.52.01-.6-.22-.56-.4-.41-.52-.23-.6-.01-1.19.41-2.09 1.2-2.14 1.64-2.37 2.36-2.1 2.79-1.77 3.42-.28.8-3.28-2.54-1.51-1.47-1.3-1.56-1.27-2.09-1.05-2.5-.66-2.69-.24-2.89.3-2.91.92-2.92.94-1.78 1.15-1.62 1.34-1.47 1.48-1.29-1.29-4.15-1.12-5.43-.34-2.76-.11-2.28-1.88 1.54-2.33 2.35-2.25 2.71-2.32 3.34-.22.37-1.9 3.42L2.63 196l-1.23 4.01-.74 4.27-.16 2.9.15 2.98.49 3.08.96 3.3 1.24 2.97 1.51 2.65 2.72 3.63 2.95 2.99 3.18 2.55 2.95 1.93 2.91 1.55 2.18.95 1.65 3.65 2.56 4.19-1.86 4.26-1.51 4.64-.74 3.2-.48 3.39-.22 3.62.16 5.2.59 4.41.96 3.74 1.28 3.17 1.59 2.66 1.87 2.23 2.19 1.84 1.64 1.04 1.85.89 1.93.65 1.88.28 1.81-.15 1.59-.69 1.15-1.09.75-1.37.42-1.56.18-1.75-.03-3.56-.05-1.7.07-1.86.14-.74.19-.26.49.05.56.21 1.09.66 1.22.96 1.88 1.79.02.02 7.51 7.38 4.53 4.13 5.1 4.35 5.35 4.19 5.58 3.93 5.76 3.52 5.65 2.83 3.83 1.43 2.77.81 3.58.78 3.82.54 4.4.21 3.61-.15 3.86-.52 3.91-.85 2.06-.71 1.97-1 1.72-1.36 1.38-1.83.62-1.45.33-1.53.05-1.65-.37-2.57-.86-3.06-2.69-7.03-2.51-5.65-1.96-3.77-1.39-2.86-.19-.92.11-.85.58-1.26 1.03-1.19 1.59-1.15 2.81-1.4 3.85-1.38 9.07-2.55 4.6-1.12 3.53-.72 5.69-.9 3.07-.47 2.39-.57 2.17-.95 2.19-1.62 1.69-1.83 1.42-2.03 1.17-2.24 1.26-3.58.74-3.68.25-3.7z"/><path fill="#a0c8ff" fill-opacity=".151" d="m751.82 192.32 4.05-3.17 3.48-3-5.29-16.5-4.05 4.25-4.27 3.97 2.18 4.1 1.65 3.69 1.33 3.6zm-20.01-3.7-6.8 4.41-5.87 3.48 3.54 3.23 5.08 8.07 7.18-4.2 8.99-5.74-3.69-2.11-3.19-2.29-2.89-2.48zm-1.85-27.7 6.42-3.75 3.25-1.67 3.04-1.34 3.01-.99 2.58-.47-4.76-11.52-4.48 1.21-4.46 1.58-4.45 1.97-6.42 3.46-6.09 3.94zm-69.24-39.69 3.49-4.83 3.54-4.18 3.59-3.59 3.87-3.34 3.66-2.77 3.48-2.25 5.27-2.88 4.23-1.83 3.9-1.25 2.21-.4-18.01-6.49-2.98.83-2.89 1.1-2.8 1.37-3.94 2.46-3.49 2.76-3.06 3.05-2.34 3.01zm56.27 32.53-5.68 4.35-4.99 4.38-4.52 4.54-3.51 4.08-2.89 4.06-1.64 3.1 8.69 6.84 17.37-17.98.48-.27z"/><path fill="#a3b1bf" fill-rule="evenodd" d="m697.96 113.49-3.37.32-3.09.84-2.87 1.37-2.6 1.84-2.2 2.21-1.84 2.59-1.37 2.87-.84 3.09-.32 3.37.32 3.38.84 3.09 1.37 2.86 1.84 2.6 2.2 2.2 2.6 1.84 2.87 1.37 3.09.85 3.37.31 3.37-.31 3.09-.85 2.87-1.37 2.6-1.84 2.2-2.2 1.84-2.6 1.37-2.86.85-3.09.31-3.38-.31-3.37-.85-3.09-1.37-2.87-1.84-2.59-2.2-2.21-2.6-1.84-2.87-1.37-3.09-.84zm0 40-2.97-.21-2.78-.57-2.62-.9-2.47-1.26-3.02-2.13-2.56-2.57-2.14-3.01-1.25-2.48-.91-2.61-.56-2.78-.22-2.98.22-2.97.56-2.78.91-2.61 1.25-2.48 2.14-3.02 2.56-2.56 3.02-2.14 2.47-1.25 2.62-.91 2.78-.56 2.97-.22 2.97.22 2.78.56 2.62.91 2.47 1.25 3.02 2.14 2.56 2.56 2.14 3.02 1.25 2.48.91 2.61.57 2.78.21 2.97-.21 2.98-.57 2.78-.91 2.61-1.25 2.48-2.14 3.01-2.56 2.57-3.02 2.13-2.47 1.26-2.62.9-2.78.57z"/><path fill="#a3b1bf" fill-rule="evenodd" d="m697.96 122.49-1.73.17-1.59.43-1.47.7-1.92 1.49-1.49 1.92-.7 1.48-.44 1.58-.16 1.73.16 1.74.44 1.58.7 1.48 1.49 1.92 1.92 1.49 1.47.7 1.59.43 1.73.16 1.73-.16 1.59-.43 1.47-.7 1.93-1.49 1.48-1.92.71-1.48.43-1.58.16-1.74-.16-1.73-.43-1.58-.71-1.48-1.48-1.92-1.93-1.49-1.47-.7-1.59-.43zm0 22-2.28-.21-2.09-.57-1.93-.92-1.76-1.25-1.49-1.49-1.24-1.75-.93-1.94-.57-2.09-.21-2.28.21-2.27.57-2.09.93-1.94 1.24-1.75 1.49-1.49 1.76-1.25 1.93-.92 2.09-.57 2.28-.22 2.28.22 2.09.57 1.94.92 1.75 1.25 1.49 1.49 1.24 1.75.93 1.94.57 2.09.21 2.27-.21 2.28-.57 2.09-.93 1.94-1.24 1.75-1.49 1.49-1.75 1.25-1.94.92-2.09.57z"/><path fill="#a0c8ff" fill-opacity=".151" d="m697.96 122.49-1.73.17-1.59.43-1.47.7-1.92 1.49-1.49 1.92-.7 1.48-.44 1.58-.16 1.73.16 1.74.44 1.58.7 1.48 1.49 1.92 1.92 1.49 1.47.7 1.59.43 1.73.16 1.73-.16 1.59-.43 1.47-.7 1.93-1.49 1.48-1.92.71-1.48.43-1.58.16-1.74-.16-1.73-.43-1.58-.71-1.48-1.48-1.92-1.93-1.49-1.47-.7-1.59-.43z"/><path fill="#a3b1bf" fill-rule="evenodd" d="M767.19 242.28v1.57l.24 2.15.54 2.25 1.03 2.61 1.51 2.54 2.29 2.73 1.8 1.65 2.28 1.66 2.82 1.67-2.16-3.76-1.02-2.24-.98-2.64-1.15-2.7-1.34-2.17-1.56-1.9-1.51-1.44-1.56-1.19zm25.37 26.94-8.09-2.81-4.68-1.92-3.72-1.99-2.9-2.06-2.64-2.41-2.01-2.33-1.46-2.26-1.63-3.59-.83-3.1-.35-2.97.01-2.08.24-2.05.39-1.66 1.6.6 1.56.73 1.42.83 1.9 1.37 1.88 1.68 1.98 2.28 1.7 2.67 1.45 3.37 1.6 3.98 1.59 2.94 1.71 2.52 1.27 1.53 1.35 1.34zm-62.6-172.73-.6-.12-.53-.39-3.67-3.82-3.52-3.18-3.38-2.59-5.24-3.35-4.42-2.26-4.2-1.72-2.86-.92-2.8-.66-.57-.21-.42-.39-.24-.51-.03-.6.21-.56.38-.42.52-.25.6-.03 3.21.74 3.07.98 4.42 1.8 4.64 2.37 5.47 3.52 3.54 2.72 3.69 3.34 3.86 4.02.3.52.07.57-.15.55-.36.48-.47.28zM742 111l-.74-.19-.56-.57-1.68-2.7-2.41-3.35-1.33-1.49-1.11-.95-.42-.43-.22-.53v-.57l.22-.55.43-.42.53-.22h.57l.55.22 1.58 1.34 1.69 1.91 2.79 3.93 1.41 2.33.19.57-.04.56-.25.52-.46.39zm26.15 112-4.57-.58-3.25-.88-2.78-1.24-1.82-1.23-1.43-1.36-.78-1.06-.64-1.33-3.48-9.68-2.41 9.93-.16 2.42.16 2.25.43 2.17.6 1.94-3.31-1.56-3.27-2.05-3.26-2.58-3.25-3.18-3.25-3.83-2.48-3.44 6.56-3.84 7.87-5.02 4.23 1.72 4.8 1.39 1.9.45-.06-1.96-.23-2.36-.37-2.42-.76-3.56 3.33-2.62 2.98-2.54 4.16 1.06 3.42 1.43 2.78 1.75 2.25 2.07 1.77 2.41.93 1.83.69 1.86.48 1.91.3 1.89-1.95-1.01-2.32-.73-2.75-.42-1.98-.08-2.89.27-2.08.72-1.46 1.09-.98 1.47-.39 1.32-.08 1.29.2 1.29.66 1.85.87 1.6 1.64 2.17.33.37.43.24 3.99 2.5 3.19 2.46 2.5 2.42 1.91 2.39-3.09-.88zm-44.82-26.14-.9-.48 7.29-4.78 1.82-1.28 2.65 2.48 3.01 2.31 3.38 2.15-7.16 4.52-5.83 3.42-2.87-5.21-.98-2.13zm-19.38-6.91-1.78 2.41-1.26 2.39-.79 2.4-.36 2.43.06 2.51.46 2.33.7 2.15.96 1.98 1.75 2.74 1.75 2.15-2.98-1.04-2.53-1.4-2.14-1.77-1.79-2.15-1.27-2.21-.97-2.34-.68-2.51-.58-3.86-.14-3.83.19-3.76.39-3.27.98-5.06 5.17 4.38 5.74 4.35zm-23.23-28.45-3.93-5.65-3.52-5.82-3.12-6-2.71-6.21-2.33-6.41-1.92-6.64-.61-2.54 2.59-3.86 2.72-3.45 2.83-3.06 4.57-4.16 4.58-3.41 4.73-2.92 4.45-2.27 4.41-1.88 3.8-1.36 4.51 2.39 4.36 2.63 5.4 3.78 5.16 4.18 4.94 4.6 4.7 5.04 4.49 5.51 4.27 5.99 3.29 5.23 2.83 5.04-.82.23-6.18 2.04-5.71 2.38-5.27 2.72-5.08 3.08-4.58 3.17-4.12 3.23-5.74 5.12-4.54 4.64-3.97 4.56-2.68 3.42-4.24-4.31-3.93-4.44zm-6.93-73.56-4.32 2.33-3.66 2.47-3.29 2.7-2.7 2.64.22-7.03.47-4.9 6.77.7zm19.6 6.11-4.91 2.03-5.54 2.81-3.63 2.18-3.68 2.59-3.76 3.02-3.5 3.3-3.39 3.79-3.27 4.32-1.25-8.47-.54-7.2 1.74-2.01 3.74-3.6 4.09-3.08 4.44-2.58 4.85-2.09 7.47 2.22zm79.86 65.85-2.52-1.57-2.58-1.12-2.64-.71-4.04-.5-3.68.04-3.46.4-2.47.48-2.44-6.31-3.39-7.52 5.25 1.3 4.41 1.48 3.67 1.64 3.52 2 2.9 2.01 2.34 2.02 3.05 3.33zM724.17 174l-1.99-5.35-1.26-4.63-.85-4.34-.39-2.88 5.04 2.46 4.36 2.64 3.74 2.81 3.48 3.15 2.96 3.18 2.48 3.19 3.19 5.04 2.32 4.7 1.78 4.67 1.13 3.89.79 3.61.36 2.37-4.58-1.56-4.19-1.98-3.83-2.37-3.5-2.79-3.19-3.22-2.91-3.68-2.62-4.18zm28.1-5.62-3.17 3.33-3.3 3.2-2.5-3.6-3.02-3.63-3.42-3.43-4.05-3.35 6.97-3.91 5.08-2.54 2.42-1.11 1.82 4.79 1.34 3.98zm-6.14-17.83-.08.06-2.87 1.3-5.59 2.81-7.5 4.25-4.9-2.87-5.71-2.61 4.85-2.99 5.3-2.77 5.57-2.38 6.01-1.99 1.41-.38zm-51.39 26.38 4.92-6.02 3.25-3.53 4.05-3.98 4.44-3.91 5.16-3.99.53 4.36.57 3.07.92 3.86-4.43 3.55-4.36 3.91-4.13 4.2-3.81 4.52-3.64-2.98zm24.61 17.74-7.87-4.79-7.25-5.07 3.46-4.11 3.76-3.86 3.99-3.61 4.07-3.31 1.63 4.39 2.2 4.7 2.71 4.57 3.44 4.52-5.6 3.78zm37.74-9.79.07.23-4.87 3.94-.87-2.63-1.12-2.9-1.31-2.92-1.61-3.08 5.72-5.63zm7.87 27.11-.67-.84-1.25-2-.49-1.21-.2-1.18.21-1.08.8-.92 1.32-.57 2.55-.27 1.73.07 2.35.37 1.82.56 1.37.71 1.73 1.44 1.08 1.58.66 1.75.28 1.66.03 1.6-.1 1.18-.22 1.15.54-2.02.42-2.12.37-3.04.1-3.26-.3-3.68-.5-2.45-.81-2.45-1.15-2.46-1.48-2.25-1.97-2.14-2.51-2.02-2.79-1.61-3.52-1.39-4.4-1.11-4-13-.71-3.05-2.41-8.18 3.77-.64 2.25-.18 2.51.02 3.7.48 3.13.98 2.67 1.45 2.27 1.92 1.91 2.43 1.56 3.01 3.77 9.15-.89-9.85-.34-1.95-.52-1.89-1.02-2.72-1.4-2.84-2.15-3.32-2.41-2.9-3.48-3.24-2.61-1.96-3.18-1.95-3.84-1.92-3.97-1.57-4.7-1.39-5.55-1.17-2.65-4.84-3.07-5-3.52-5.18-3.78-4.97-4.25-4.93-4.74-4.88-5.05-4.55-5.58-4.31-6.15-4.08-4.78-2.73-5.13-2.49-5.49-2.27-5.89-2.02-5.9-1.62-6.33-1.3-6.78-.95-7.27-.6-.47 3.07-.34 3.33-.29 5.12-.03 5.65.37 7.05.87 7.4 1.61 8.42 1.45 5.65 1.91 5.93 2.4 6.24 2.78 6.06 3.38 6.22 4.04 6.4 4.46 6.08 5.24 6.14 6.07 6.19-1.05 4.51-.57 3.51-.4 4.42v4.61l.57 4.82.77 3.14 1.19 2.98 1.6 2.84 1.86 2.29 2.16 1.93 2.48 1.58 2.85 1.23 3.27.88 3.75.51 5.08.36-4.07-3.06-1.18-1.01-2.6-2.7-1.4-1.83-1.33-2.2-1.01-2.39-.58-2.62v-2.48l.54-2.44 1.12-2.44 1.78-2.48 1.07-1.19 6.48 4.18 7.17 4.1 1.32 2.84 1.53 2.87 2.43 3.99 2.89 4.08 3.71 4.37 2.76 2.73 3.07 2.53 3.41 2.32 3.63 1.91 3.94 1.43 4.31.93-.77-1.04-1.6-2.83-.79-1.89-.64-2.25-.31-2.39.11-2.6.56 1.43.83 1.36 1.61 1.84 1.3 1.11 1.78 1.14 2.36 1.14 2.45.85 3.14.68 3.97.45 3.16.39 2.38.6 1.75.75 1.59 1.04 1.14 1.09.76 1.14.73 1.9.23 1.81-.1 1.74-.25 1.29-.39 1.25.75-1.56.54-1.68.41-2.52.03-1.76-.26-2.03-.61-2.33-.92-2.2-1.49-2.42-2.16-2.7-2.47-2.4-3.37-2.59z"/><text xml:space="preserve" x="275.005" y="704" fill="#515a6e" font-family="'Noto Sans CJK SC'" font-size="70" font-weight="500" letter-spacing="0">Whoops</text><text xml:space="preserve" x="287.155" y="774" fill="#515a6e" font-family="'Noto Sans CJK SC'" font-size="30" font-weight="400" letter-spacing="0">It looks like youre lost</text><path fill="#2d8cf0" fill-rule="evenodd" d="M385 808h92l.78.16.63.43.43.63.16.78v28l-.16.78-.43.63-.63.43-.78.16h-92l-.78-.16-.63-.43-.43-.63-.16-.78v-28l.16-.78.43-.63.63-.43z"/><text xml:space="preserve" x="407" y="829" fill="#fff" font-family="'Noto Sans CJK SC'" font-size="12" font-weight="400" letter-spacing="0"></text></svg>