<svg xmlns="http://www.w3.org/2000/svg" width="823" height="823"><path fill="#a3b1bf" fill-opacity=".396" fill-rule="evenodd" d="M416.92 3.04h-.02L411.5 3h-.58l-.59-.12-.47-.32-.32-.47-.12-.59.12-.59.32-.47.47-.32.59-.12h.58l5.44.04.58.12.47.33.31.48.12.59-.13.58-.32.46-.47.32zm-17.99.15-.57-.12-.47-.3-.32-.46-.14-.58.1-.59.31-.48.46-.33.59-.14 6.01-.14h.02l.58.12.47.31.32.47.13.58-.11.59-.31.48-.47.32-.59.13-5.96.14zm29.98.17h-.06l-5.98-.21-.58-.13-.47-.33-.3-.48-.11-.6.14-.57.32-.46.47-.31.57-.11h.04l6.02.2.58.15.46.34.3.48.1.6-.14.56-.32.46-.47.3zm-41.95.36-.56-.11-.46-.29-.33-.45-.14-.56.08-.59.29-.49.46-.35.58-.15 6.01-.31.59.09.49.3.34.46.14.58-.09.59-.3.49-.46.34-.58.14-5.97.31zm53.93.32-.11-.01-5.96-.38-.58-.15-.46-.34-.29-.49-.09-.6.16-.57.35-.45.49-.29.58-.1 6.01.38.58.16.45.35.29.5.07.59-.15.56-.32.44-.46.29zM375 4.6l-.55-.1-.46-.29-.33-.43-.16-.55.07-.59.28-.5.44-.36.58-.17 6-.49.59.08.5.28.35.45.17.58-.08.6-.29.49-.44.35-.58.17-5.96.48zm77.84.46-.15-.01-5.95-.55-.58-.17-.44-.36-.28-.5-.07-.59.17-.58.37-.44.5-.28.59-.07 5.99.56.57.17.44.37.27.5.06.6-.16.54-.33.42-.45.29zm-89.78.77-.54-.1-.45-.27-.33-.42-.17-.53.05-.6.27-.51.43-.37.57-.19 5.98-.66.59.06.51.27.37.44.18.57-.06.6-.27.5-.44.37-.57.18-5.94.65zm101.7.6-.19-.01-5.94-.73-.57-.19-.43-.37-.26-.5-.06-.6.19-.57.38-.43.51-.27.59-.05 5.97.73.57.19.43.38.25.51.05.6-.17.53-.33.41-.45.27zm-113.59.98-.53-.1-.45-.26-.33-.41-.17-.51.03-.6.25-.52.42-.38.56-.21 5.96-.83.6.04.51.25.38.43.2.57-.04.6-.26.51-.42.38-.57.19-5.92.83zm125.47.74-.24-.02-5.91-.9-.56-.2-.43-.39-.24-.51-.04-.6.2-.57.38-.42.52-.25.6-.03 5.95.9.56.22.42.39.24.51.03.6-.18.52-.34.39-.44.26zM339.32 9.33l-.51-.09-.44-.25-.33-.39-.19-.5.01-.6.24-.53.41-.39.55-.22L345 5.35l.6.02.52.24.39.41.21.57-.02.6-.24.51-.42.39-.56.22-5.89 1zm149.14.88-.29-.03-5.88-1.07-.55-.22-.41-.39-.24-.52-.02-.6.22-.56.4-.41.52-.24.6-.01 5.92 1.08.56.22.4.41.23.52.01.6-.19.5-.34.38-.43.25zM327.54 11.6l-.5-.09-.43-.24-.34-.37-.19-.49-.01-.6.22-.53.4-.41.55-.24 5.91-1.18.59.01.53.22.4.4.23.56v.6l-.23.52-.4.41-.56.23-5.86 1.17zm172.67 1.02-.33-.03-5.84-1.25-.56-.23-.39-.41-.22-.53v-.6l.23-.55.41-.4.53-.22h.6l5.89 1.26.55.24.39.41.21.53-.01.6-.2.49-.33.37-.43.24zm-184.37 1.6-.5-.08-.42-.24-.34-.36-.2-.47-.02-.6.2-.54.39-.42.54-.25 5.87-1.36.6-.01.53.21.41.39.25.55.01.6-.21.53-.39.42-.55.24-5.82 1.35zm196.05 1.16-.37-.05-5.81-1.41-.54-.25-.39-.42-.2-.54.02-.6.25-.54.42-.39.53-.2.6.02 5.85 1.43.54.25.38.43.2.54-.03.6-.21.46-.33.36zm-207.68 1.8-.9-.3-.34-.35-.21-.46-.03-.6.18-.54.37-.43.54-.27 5.82-1.53.6-.03.54.2.43.38.26.54.03.6-.2.53-.37.43-.55.26-5.78 1.52zm219.27 1.3-.41-.06-5.76-1.59-.54-.26-.38-.43-.18-.54.03-.6.27-.54.43-.37.54-.19.6.04 5.8 1.59.54.28.37.44.17.54-.04.6-.55.79zm-230.8 2-.89-.29-.55-.77-.06-.6.17-.55.36-.44.53-.28 5.78-1.7.6-.05.54.18.44.36.27.54.05.6-.18.54-.36.43-.54.28-5.73 1.69zm242.29 1.44-.45-.07-5.72-1.76-.52-.28-.37-.44-.17-.55.06-.59.28-.53.44-.36.55-.17.6.05 5.75 1.77.53.29.35.45.16.54-.06.6-.55.77zm-253.73 2.2-.86-.27-.56-.75-.07-.6.15-.54.35-.46.52-.3 5.72-1.87.6-.06.55.16.44.35.3.53.06.59-.16.55-.35.45-.53.29-5.68 1.86zm265.16 1.59-.49-.08-5.68-1.93-.52-.3-.35-.45-.15-.55.07-.6.3-.52.45-.35.55-.15.59.07 5.73 1.95.51.3.34.46.15.55-.08.6-.56.73zM269.92 28.1l-.84-.26-.56-.72-.09-.59.13-.56.34-.46.51-.32 5.66-2.03.6-.09.55.15.46.34.3.51.09.6-.15.55-.34.46-.51.31-5.63 2.02zm287.8 1.74-.54-.1-5.62-2.1-.51-.31-.34-.46-.13-.56.09-.59.31-.51.46-.33.56-.14.59.09 5.66 2.11.51.32.32.47.13.55-.09.59-.57.71zm-298.99 2.57-.83-.25-.57-.69-.1-.59.12-.56.32-.47.5-.33 5.6-2.21.59-.1.56.13.47.33.32.5.1.6-.13.55-.32.47-.51.32-5.56 2.19zm310.16 1.89-.57-.12-5.55-2.26-.51-.33-.32-.47-.12-.56.11-.59.33-.5.47-.32.56-.12.59.11 5.59 2.28.5.33.31.48.12.56-.12.59-.57.68zm-321.18 2.73-.81-.24-.57-.66-.13-.59.11-.56.3-.48.49-.35 5.52-2.36.59-.11.56.11.48.31.33.5.12.59-.11.56-.32.47-.49.34-5.48 2.34zm332.23 2.06-.62-.14-5.48-2.42-.49-.35-.31-.48-.11-.56.13-.58.34-.5.48-.3.56-.11.59.13 5.52 2.44.49.35.3.49.1.56-.14.58-.56.66zm-343.12 2.88-.79-.23-.57-.63-.14-.59.09-.56.29-.49.48-.36 5.44-2.52.59-.13.56.09.49.3.35.49.13.58-.09.56-.3.49-.49.35-5.4 2.5zm354.01 2.22-.66-.15-5.4-2.58-.49-.36-.29-.49-.09-.56.14-.59.36-.48.49-.29.56-.09.59.14 5.45 2.61.47.36.29.5.08.56-.15.58-.57.63zm-364.75 3.03-.77-.21-.57-.61-.16-.57.07-.57.28-.5.47-.37 5.37-2.68.58-.15.57.08.49.28.37.48.15.58-.08.56-.28.5-.48.36-5.33 2.66zm375.48 2.4-.69-.17-5.33-2.74-.47-.37-.28-.5-.07-.57.16-.58.37-.47.5-.28.56-.07.58.16 5.37 2.76.46.38.27.5.07.57-.17.58-.57.59zM215.5 52.8l-.76-.2-.56-.59-.18-.57.06-.57.26-.5.46-.39 5.29-2.84.57-.16.57.06.5.27.38.46.17.58-.06.57-.27.5-.46.38-5.26 2.81zm396.63 2.56-.74-.19-5.24-2.9-.46-.39-.26-.5-.06-.57.18-.58.38-.46.51-.26.57-.05.57.17 5.28 2.92.46.39.25.51.05.57-.18.57-.57.57zm-407.06 3.32-.73-.19-.56-.56-.2-.56.04-.57.25-.52.45-.4 5.21-2.99.57-.18.56.04.52.26.39.45.18.57-.04.57-.26.51-.45.4-5.17 2.96zm417.45 2.72-.78-.21-5.15-3.05-.45-.4-.25-.51-.03-.57.19-.57.4-.45.51-.25.57-.04.57.19 5.19 3.08.44.4.24.52.03.57-.2.56-.56.55zm-427.69 3.47-.72-.18-.56-.53-.21-.56.02-.57.24-.52.43-.42 5.12-3.14.57-.2.57.03.51.24.41.44.2.57-.03.57-.24.51-.44.41-5.08 3.12zm437.89 2.87-.81-.23-5.06-3.2-.43-.41-.24-.52-.02-.57.21-.57.41-.43.52-.24.57-.02.57.21 5.09 3.22.43.42.23.53.01.57-.22.56-.55.51zm-447.96 3.61-.69-.17-.56-.5-.22-.56v-.57l.22-.52.42-.43 5.03-3.29.56-.22.57.01.52.23.42.43.22.56-.01.57-.23.52-.43.42-4.99 3.27zm457.97 3.03-.84-.26-4.97-3.34-.42-.43-.22-.53v-.57l.22-.55.43-.43.53-.21.57-.01.55.23 5 3.37.42.43.21.53v.57l-.24.55-.55.49zm9.82 6.93-.88-.29-4.87-3.48-.41-.44-.2-.53.01-.57.24-.55.44-.42.53-.2.57.01.55.25 4.9 3.51.41.44.19.54-.02.57-.25.54-.55.46zm9.6 7.21-.92-.32-4.75-3.62-.4-.45-.19-.54.03-.57.26-.54.45-.4.54-.19.57.03.54.26 4.79 3.65.39.46.18.54-.03.57-.27.53-.54.44zm9.39 7.48-.49-.08-.46-.26-4.65-3.76-.39-.46-.17-.55.05-.57.27-.53.46-.39.55-.17.56.05.54.27 4.68 3.79.38.47.16.54-.05.57-.28.53-.53.41zm9.16 7.75-.51-.09-.47-.28-4.54-3.89-.37-.47-.15-.55.06-.57.28-.53.48-.37.54-.15.57.06.53.29 4.57 3.92.36.48.15.55-.07.57-.3.52-.52.38zm8.94 8.02-.54-.1-.48-.3-4.42-4.03-.36-.48-.14-.55.08-.57.3-.51.49-.36.55-.14.56.08.52.3 4.45 4.05.35.49.13.56-.08.56-.31.51-.52.37zm8.69 8.26-.55-.1-.5-.32-4.3-4.15-.35-.5-.12-.55.1-.57.32-.5.49-.35.55-.12.57.09.51.32 4.33 4.18.33.5.12.56-.1.56-.33.5-.5.34zm8.45 8.52-.58-.11-.5-.35-4.18-4.27-.33-.5-.11-.56.11-.56.34-.5.5-.33.56-.11.56.11.5.34 4.21 4.3.32.51.1.56-.12.56-.34.49-.5.32zm-595 4.68-.54-.09-.48-.31-.35-.49-.13-.55.09-.57.31-.51 4.14-4.37.5-.34.56-.12.56.1.5.32.35.49.12.56-.1.56-.32.51-4.11 4.34-.52.36zm603.19 4.08-.59-.13-.52-.36-4.05-4.4-.31-.51-.09-.56.12-.56.35-.49.51-.31.57-.09.55.13.49.34 4.08 4.43.31.51.08.57-.14.55-.35.49-.48.29zm-611.25 4.81-.52-.09-.47-.28-.37-.48-.14-.55.07-.57.3-.52 4.02-4.49.48-.36.55-.13.57.08.52.31.35.48.14.55-.08.57-.31.52-3.99 4.45-.52.39zm619.19 4.18-.62-.13-.52-.4-3.92-4.51-.3-.52-.07-.56.14-.55.36-.48.52-.3.57-.07.55.14.48.36 3.95 4.54.29.52.06.57-.15.55-.37.47-.46.28zm-626.99 4.94-.5-.08-.46-.26-.38-.47-.16-.55.06-.57.28-.52 3.89-4.61.47-.37.55-.15.57.06.52.29.37.48.15.55-.06.56-.29.53-3.86 4.57-.53.41zm634.66 4.27-.64-.14-.53-.42-3.79-4.62-.28-.53-.06-.56.16-.55.37-.47.53-.28.57-.06.55.16.47.37 3.81 4.65.28.54.05.57-.17.54-.38.46-.46.26zm-642.2 5.08-.47-.08-.45-.24-.39-.46-.17-.54.03-.57.27-.54 3.75-4.71.46-.39.55-.16.57.04.53.28.38.46.17.55-.05.57-.27.53-3.72 4.68-.54.44zm649.59 4.35-.65-.15-.54-.44-3.65-4.73-.27-.54-.04-.56.17-.55.39-.46.54-.26.57-.04.54.17.46.39 3.67 4.76.27.54.03.57-.18.54-.4.45zm-656.85 5.21-.89-.29-.4-.44-.19-.54.02-.57.26-.54 3.6-4.83.45-.4.54-.18.57.03.55.26.39.45.18.54-.03.57-.26.54-3.58 4.79-.54.46zm663.97 4.43-.67-.16-.55-.47-3.51-4.83-.26-.54-.02-.57.19-.54.4-.45.55-.25.57-.02.53.19.45.4 3.54 4.86.24.55.02.57-.2.54-.41.44zm-670.95 5.35-.85-.27-.41-.43-.21-.53v-.57l.24-.56 3.47-4.93.44-.41.53-.19.57.01.55.24.41.44.2.54-.02.57-.24.55-3.44 4.89-.55.49zm677.78 4.49-.69-.17-.56-.5-3.37-4.92-.23-.56-.01-.57.21-.53.41-.43.55-.24.57-.01.54.21.43.42 3.39 4.96.23.55v.57l-.22.53-.42.43zm-684.47 5.49-.81-.25-.43-.42-.22-.52-.02-.57.22-.56 3.33-5.03.43-.43.52-.21h.58l.55.23.42.42.21.53.01.57-.23.56-3.3 4.99-.56.51zm691.01 4.54-.71-.18-.56-.52-3.22-5.02-.23-.56.01-.57.22-.53.43-.42.56-.22.57.01.53.22.42.43 3.24 5.05.22.57-.02.57-.23.52-.43.41zm-697.41 5.63-.78-.22-.44-.41-.23-.52-.03-.57.2-.56 3.18-5.13.41-.44.52-.22.57-.02.56.21.44.41.23.52.02.57-.22.57-3.15 5.09-.56.53zm703.65 4.58-.73-.19-.57-.55-3.07-5.11-.2-.56.02-.57.24-.52.44-.41.56-.2.57.02.52.24.41.44 3.1 5.15.19.56-.03.57-.25.52-.44.4zm-709.75 5.77-.74-.19-.45-.4-.25-.51-.05-.57.19-.57 3.02-5.22.41-.45.51-.24.57-.04.57.2.44.4.25.52.03.56-.19.57-3 5.19-.57.56zm715.68 4.62-.74-.2-.57-.58-2.92-5.19-.19-.57.05-.57.25-.51.45-.4.57-.19.57.05.51.25.39.45 2.95 5.24.18.57-.06.57-.25.5-.46.39zm-721.47 5.92-.7-.18-.47-.38-.26-.5-.06-.57.17-.58 2.87-5.31.38-.45.51-.26.57-.05.57.17.46.39.26.51.05.57-.18.57-2.84 5.27-.57.59zm727.11 4.64-.77-.22-.57-.6-2.76-5.28-.18-.57.06-.57.27-.5.46-.39.58-.17.57.06.5.27.38.46 2.79 5.32.16.58-.07.56-.27.5-.47.38zm-732.59 6.06-.67-.16-.47-.36-.28-.5-.08-.56.15-.58 2.71-5.4.38-.47.5-.27.57-.07.57.16.47.38.28.5.07.56-.17.58-2.69 5.35-.57.62zm737.9 4.65-.78-.22-.57-.63-2.61-5.36-.15-.58.07-.57.28-.49.48-.37.58-.15.56.07.5.28.37.48 2.63 5.39.14.58-.08.57-.29.49-.48.36zm-743.07 6.21-.62-.14-.49-.35-.3-.49-.09-.56.14-.58 2.55-5.48.36-.48.49-.28.56-.09.59.14.48.37.29.49.08.56-.14.58-2.54 5.43-.57.65zm748.07 4.65-.8-.24-.57-.66-2.45-5.42-.14-.59.1-.56.29-.49.48-.35.59-.14.56.09.49.3.35.48 2.47 5.47.13.59-.1.56-.3.48-.49.35zm-752.92 6.37-.58-.12-.5-.34-.31-.48-.11-.56.12-.59 2.39-5.54.35-.49.48-.31.56-.1.59.13.49.34.3.49.11.56-.13.58-2.38 5.51-.56.67zm757.6 4.62-.82-.24-.57-.69-2.29-5.49-.12-.59.11-.56.31-.48.49-.34.59-.12.56.11.48.31.34.49 2.31 5.54.11.59-.12.56-.31.47-.5.33zM29.14 264.7l-.54-.1-.51-.32-.32-.47-.13-.56.1-.59 2.23-5.62.33-.5.48-.31.56-.12.58.11.5.33.32.47.12.56-.11.59-2.21 5.57-.56.71zm766.49 4.65-.85-.26-.56-.72-2.13-5.58-.11-.59.13-.56.32-.47.51-.32.59-.1.56.12.47.32.32.51 2.15 5.62.1.59-.14.56-.33.46-.51.32zm-770.68 6.64-.5-.09-.51-.31-.34-.46-.15-.55.09-.59 2.06-5.68.32-.51.46-.33.56-.14.59.09.51.32.33.46.13.56-.09.59-2.04 5.64-.57.73zm774.72 4.66-.86-.28-.56-.74-1.97-5.64-.09-.6.14-.55.34-.46.51-.31.6-.09.55.15.46.33.31.52 1.99 5.68.07.6-.15.55-.34.45-.52.31zM21.1 287.4l-.46-.07-.53-.3-.35-.44-.16-.55.07-.6 1.89-5.74.3-.52.46-.34.54-.16.6.08.52.3.35.45.15.55-.08.6-1.88 5.7-.55.76zm782.27 4.66-.88-.29-.55-.77-1.81-5.7-.06-.59.16-.55.35-.45.52-.3.59-.07.55.16.45.35.3.53 1.82 5.74.05.59-.16.55-.36.44-.53.29zM17.59 298.9l-.42-.06-.53-.28-.37-.43-.17-.55.04-.6 1.72-5.77.29-.53.44-.36.54-.16.6.06.53.28.36.45.17.54-.06.6-1.7 5.73-.55.79zm-3.17 11.57-.37-.04-.54-.26-.38-.43-.19-.54.03-.6 1.54-5.82.27-.53.44-.38.54-.18.6.04.53.27.37.43.19.54-.04.6-1.54 5.78-.2.46-.34.36zm-2.82 11.67-.33-.04-.55-.25-.39-.41-.2-.53.01-.6 1.37-5.87.26-.54.42-.38.53-.2.6.02.55.25.38.42.2.54-.02.6-1.36 5.82-.2.48-.34.36-.43.24zm800.84 4.74-.5-.09-.44-.24-.33-.37-.2-.49-1.29-5.83-.01-.6.2-.53.39-.42.55-.25.6-.02.53.21.42.39.24.55 1.31 5.88v.6l-.21.53-.4.41-.55.24zm-803.31 7-.29-.03-.55-.23-.41-.41-.22-.52v-.6l1.19-5.9.24-.55.41-.4.53-.22.6.01.55.24.4.41.21.53v.6l-1.19 5.85-.19.5-.33.38-.44.25zm805.64 4.77-.51-.09-.44-.26-.33-.38-.19-.5-1.12-5.87v-.6l.22-.53.41-.4.55-.24.6.01.53.22.4.4.23.55 1.13 5.92-.01.6-.23.52-.41.4-.56.22zM7 345.68l-.25-.02-.56-.21-.41-.39-.24-.52-.02-.6 1.02-5.93.22-.56.4-.41.52-.23.6-.01.56.22.41.4.23.52.02.6-1.02 5.89-.18.51-.34.39-.44.26zm809.76 4.8-.52-.1-.45-.26-.33-.4-.18-.51-.95-5.9.02-.6.24-.52.41-.4.56-.21.6.02.52.24.4.41.21.56.96 5.94-.03.6-.25.52-.42.39-.56.2zM5.22 357.55l-.2-.01-.57-.2-.43-.38-.25-.51-.04-.6.85-5.96.21-.57.39-.42.51-.24.6-.03.56.2.42.39.25.51.03.6-.85 5.92-.17.52-.33.41-.45.27zm813.18 4.82-.53-.1-.46-.28-.33-.41-.16-.53-.78-5.93.04-.6.25-.51.43-.38.56-.2.6.04.51.25.38.42.2.57.78 5.97-.04.6-.26.51-.43.37-.57.19zM3.79 369.46l-.16-.01-.57-.18-.44-.36-.27-.51-.06-.6.68-5.98.19-.57.37-.43.5-.26.61-.05.57.19.43.37.26.51.05.6-.67 5.94-.17.54-.32.42-.46.28zm815.9 4.83-.55-.1-.45-.29-.33-.42-.16-.55-.6-5.94.06-.6.26-.51.44-.36.57-.19.6.06.51.27.36.43.18.57.61 5.99-.07.6-.27.5-.44.36-.57.18zM2.7 381.41h-.12l-.57-.17-.45-.35-.28-.5-.08-.59.5-6 .18-.58.36-.44.5-.28.59-.06.58.17.44.36.28.5.06.6-.5 5.95-.15.56-.32.43-.46.29zm817.94 4.84-.56-.1-.46-.3-.33-.44-.15-.56-.42-5.96.07-.6.28-.49.45-.36.57-.16.59.07.5.28.36.44.17.58.43 6.01-.08.59-.29.49-.45.35-.58.16zM1.96 393.39l-.07-.01-.58-.14-.46-.35-.3-.48-.09-.6.33-6.01.15-.58.35-.45.49-.29.6-.08.58.15.45.35.29.49.08.6-.32 5.97-.14.56-.33.45-.46.3zm819.28 4.85-.58-.12-.46-.3-.33-.46-.13-.57-.26-5.97.1-.6.29-.48.46-.35.58-.14.59.09.49.29.34.46.15.58.26 6.01-.1.6-.3.48-.47.34-.58.14zM1.57 405.38h-.03l-.58-.13-.47-.33-.31-.48-.11-.59.15-6.02.14-.58.34-.47.49-.3.58-.1.58.14.47.33.3.49.1.59-.15 5.97-.13.58-.32.47-.47.31zm-.05 11.99-.58-.11-.47-.32-.32-.47-.13-.58L0 411.5v-1.63l.12-.59.32-.47.48-.32.58-.12h.01l.59.13.47.32.32.47.11.59v1.62l.02 4.36-.11.59-.32.47-.47.33-.58.12zM821.46 419h-.02l-.59-.13-.47-.33-.31-.47-.11-.59.04-5.98.26-.85.68-.54-.68-.53-.27-.85-.08-5.98.11-.59.31-.48.46-.33.59-.13.58.1.48.31.33.47.14.59.08 6.02-.26.85-.67.55.67.54.27.85-.04 6.02-.13.58-.32.47-.47.31zM1.82 429.35l-.57-.12-.47-.3-.32-.46-.14-.57-.19-6 .1-.59.31-.48.47-.33.58-.13.58.08.49.31.33.48.14.59.19 5.96-.1.59-.3.48-.46.34-.58.15zm819.29 1.64h-.06l-.59-.14-.45-.34-.3-.49-.1-.59.22-5.98.13-.58.34-.47.48-.31.59-.09.59.13.46.34.3.48.11.59-.22 6.02-.14.57-.32.45-.47.3zM2.46 441.33l-.56-.11-.46-.3-.32-.43-.15-.56-.37-6.01.09-.6.29-.48.46-.35.58-.15.61.1.48.29.34.45.15.58.36 5.96-.08.6-.29.49-.45.35-.58.16zm817.96 1.64h-.11l-.58-.16-.44-.36-.29-.49-.08-.6.39-5.96.15-.58.35-.46.49-.29.59-.08.59.15.45.35.29.49.09.59-.39 6.01-.15.55-.33.44-.46.29zM3.45 453.28l-.55-.1-.45-.28-.33-.43-.16-.54-.54-6 .07-.59.28-.5.45-.36.57-.17.6.08.5.28.35.44.17.58.54 5.95-.07.6-.27.5-.44.36-.57.18zm815.93 1.64-.15-.01-.57-.17-.44-.37-.27-.5-.06-.6.56-5.95.17-.58.36-.44.5-.28.59-.06.58.17.44.35.28.5.07.6-.57 5.99-.16.54-.32.43-.46.28zM4.79 465.21l-.53-.1-.46-.27-.33-.42-.17-.52-.71-5.98.05-.6.27-.51.43-.37.57-.18.6.05.51.26.37.44.18.57.71 5.94-.04.6-.26.5-.43.38-.57.19zM818 466.84l-.2-.01-.57-.2-.42-.38-.26-.51-.04-.6.73-5.93.19-.57.37-.43.5-.26.61-.05.57.18.43.37.26.51.05.6-.74 5.98-.17.52-.33.41-.45.27zM6.48 477.09l-.53-.1-.44-.26-.33-.4-.18-.51-.89-5.96.03-.6.25-.51.43-.38.56-.2.6.03.51.25.38.43.21.56.88 5.91-.03.6-.24.52-.42.39-.56.21zm809.78 1.62-.24-.02-.56-.21-.42-.39-.24-.52-.02-.6.91-5.9.2-.57.39-.42.51-.25.6-.03.56.2.42.39.25.51.04.6-.92 5.95-.18.51-.33.4-.45.26zM8.51 488.91l-.51-.09-.44-.25-.33-.39-.19-.5-1.07-5.92.02-.6.24-.52.41-.4.56-.21.6.02.52.23.39.41.22.56 1.06 5.88-.01.6-.23.53-.4.4-.56.22zm805.67 1.62-.28-.03-.56-.23-.4-.4-.23-.52v-.6l1.08-5.88.22-.56.4-.41.52-.23.59-.02.56.22.41.4.24.52.01.6-1.09 5.92-.19.5-.33.38-.44.25zM10.89 500.67l-.5-.09-.43-.24-.33-.37-.2-.48-1.24-5.89v-.6l.22-.53.4-.41.55-.23h.6l.53.22.4.4.24.55 1.23 5.85.01.6-.22.53-.39.41-.55.24zm800.86 1.61-.32-.04-.55-.24-.39-.42-.21-.53.01-.6 1.25-5.84.24-.55.41-.4.52-.22h.6l.55.24.4.41.22.53v.6l-1.26 5.88-.2.49-.34.36-.43.24zM13.62 512.35l-.92-.31-.33-.36-.21-.46-1.41-5.86-.01-.6.2-.53.39-.42.54-.25.6-.02.54.21.41.38.25.55 1.4 5.81.03.6-.2.54-.38.42-.54.26zm795.36 1.6-.37-.05-.54-.26-.38-.42-.19-.54.02-.6 1.43-5.8.25-.55.42-.39.53-.2.6.03.55.25.39.42.2.53-.02.6-1.44 5.85-.21.47-.33.35zm-792.29 10-.9-.3-.55-.79-1.58-5.81-.03-.6.19-.54.37-.43.54-.27.6-.03.54.19.43.37.26.54 1.57 5.77.05.6-.18.54-.37.43-.54.28zm789.17 1.59-.41-.06-.53-.28-.37-.43-.18-.54.05-.6 1.6-5.76.26-.54.44-.37.53-.19.6.04.54.27.37.43.19.54-.04.6-1.6 5.8-.55.79zM20.1 535.45l-.88-.28-.55-.77-1.76-5.76-.05-.6.17-.54.37-.44.53-.28.59-.05.55.17.44.36.28.53 1.74 5.72.06.59-.16.55-.36.45-.52.29zm782.3 1.6-.46-.07-.52-.29-.35-.45-.17-.54.07-.6 1.77-5.74.28-.53.45-.36.54-.17.6.06.53.28.36.44.17.55-.06.6-1.78 5.78-.56.76zm-778.55 9.8-.86-.27-.56-.74-1.92-5.7-.07-.6.15-.55.35-.45.52-.3.6-.07.55.16.45.35.29.52 1.91 5.66.08.6-.15.55-.34.45-.51.31zm774.74 1.63-.5-.09-.51-.3-.34-.46-.15-.55.08-.6 1.94-5.67.3-.53.45-.34.55-.16.6.08.52.3.35.45.15.55-.07.59-1.96 5.72-.56.74zm-770.66 9.66-.84-.26-.56-.71-2.09-5.65-.09-.59.14-.56.33-.46.52-.31.59-.09.55.14.46.34.32.51 2.07 5.6.1.6-.13.55-.33.47-.51.32zm766.51 1.64-.54-.1-.5-.32-.33-.47-.13-.55.1-.59 2.11-5.62.31-.51.47-.33.55-.14.59.09.51.31.34.47.13.55-.09.59-2.12 5.66-.56.71zm-762.1 9.51-.82-.24-.57-.69-2.25-5.58-.11-.59.13-.56.32-.47.5-.32.59-.11.56.12.47.32.33.51 2.24 5.54.11.59-.11.56-.32.47-.5.34zm757.63 1.67-.58-.12-.5-.34-.31-.47-.11-.56.11-.59 2.27-5.55.33-.5.48-.32.55-.12.59.11.51.33.31.47.13.55-.11.6-2.29 5.59-.57.68zm-752.91 9.31-.8-.23-.57-.66-2.41-5.49-.12-.59.11-.56.3-.48.5-.34.59-.12.56.11.48.3.34.5 2.39 5.45.13.59-.1.56-.3.48-.49.35zm748.1 1.72-.61-.13-.49-.35-.3-.49-.1-.56.14-.59 2.43-5.48.34-.49.48-.3.56-.11.59.13.5.34.3.48.11.56-.13.59-2.45 5.52-.57.65zM42.1 591.11l-.78-.22-.57-.63-2.57-5.42-.14-.58.09-.57.3-.49.48-.35.58-.14.57.09.49.29.35.49 2.55 5.38.15.58-.08.56-.29.5-.47.36zm737.94 1.77-.66-.16-.48-.36-.28-.5-.08-.56.15-.58 2.59-5.41.36-.48.49-.29.57-.09.58.15.48.36.29.49.09.56-.14.58-2.61 5.45-.57.62zM47.46 601.8l-.76-.21-.57-.6-2.73-5.34-.15-.58.07-.57.28-.49.47-.37.58-.16.56.07.5.28.37.47 2.71 5.31.17.58-.07.57-.27.5-.47.37zm727.14 1.8-.7-.17-.47-.38-.27-.5-.06-.57.17-.58 2.75-5.32.37-.47.5-.28.57-.07.58.16.47.37.27.5.07.57-.16.58-2.77 5.36-.56.59zm-721.46 8.74-.75-.2-.57-.57-2.88-5.27-.17-.57.05-.57.27-.51.46-.38.57-.17.57.05.51.27.38.46 2.86 5.23.19.57-.05.57-.26.51-.46.39zm715.7 1.82-.73-.2-.46-.39-.25-.51-.05-.57.19-.57 2.9-5.24.39-.46.51-.26.56-.05.58.17.46.39.26.51.05.56-.17.58-2.93 5.27-.56.57zM59.11 622.7l-.72-.18-.57-.55-3.03-5.18-.19-.57.04-.57.24-.51.45-.4.57-.19.57.04.52.25.39.45 3.02 5.14.2.57-.03.57-.24.52-.45.4zm703.67 1.84-.77-.22-.44-.4-.24-.52-.03-.57.2-.57 3.06-5.14.4-.45.51-.25.57-.04.57.2.45.4.24.51.04.57-.19.57-3.08 5.18-.56.54zM65.4 632.89l-.71-.17-.56-.52-3.19-5.09-.21-.57.03-.57.23-.52.44-.41.56-.2.57.02.52.24.41.43 3.17 5.06.21.56-.01.57-.23.52-.43.42zm691.03 1.84-.82-.23-.43-.42-.22-.53-.01-.57.22-.56 3.2-5.05.41-.44.53-.23.57-.02.56.21.43.41.23.52.03.57-.21.56-3.23 5.1-.56.51zM71.97 642.9l-.69-.16-.55-.5-3.34-4.99-.22-.56.01-.57.22-.53.42-.42.56-.22h.57l.52.22.43.43 3.31 4.96.23.55v.57l-.21.53-.42.43zm677.8 1.84-.85-.27-.41-.43-.21-.53v-.57l.24-.55 3.35-4.96.42-.42.53-.22h.57l.56.22.42.43.22.53v.57l-.22.55-3.38 5-.55.48zm-670.93 7.97-.67-.15-.55-.47-3.48-4.9-.24-.55-.01-.57.21-.53.41-.44.55-.24h.57l.53.2.44.41 3.46 4.87.24.54.02.57-.2.54-.4.44zm663.99 1.83-.88-.29-.41-.44-.19-.54.02-.57.25-.54 3.49-4.86.44-.41.54-.2.57.01.55.24.41.44.2.53-.02.57-.24.55-3.52 4.9-.54.46zm-656.84 7.79-.64-.15-.55-.44-3.62-4.8-.26-.54-.02-.57.19-.54.4-.45.54-.25.57-.03.54.19.45.4 3.59 4.76.27.54.03.57-.18.54-.39.46zm649.62 1.8-.47-.07-.45-.24-.39-.46-.18-.54.04-.57.27-.54 3.63-4.75.45-.4.54-.18.57.03.54.25.4.45.18.54-.03.57-.26.54-3.65 4.79-.54.44zm-642.18 7.6-.63-.14-.54-.42-3.76-4.69-.27-.53-.04-.57.17-.55.38-.45.54-.27.57-.05.54.18.46.38 3.74 4.66.28.53.05.57-.17.55-.38.46-.45.25zm634.68 1.78-.49-.08-.46-.26-.38-.47-.16-.55.05-.56.29-.53 3.77-4.65.46-.38.54-.17.57.04.53.28.39.46.17.54-.05.57-.27.54-3.8 4.67-.53.41zm-626.98 7.4-.61-.13-.53-.39-3.9-4.58-.28-.53-.06-.57.16-.54.37-.47.53-.29.56-.06.55.16.47.37 3.87 4.55.3.52.06.57-.14.55-.37.47-.47.28zm619.22 1.75-.52-.09-.47-.28-.36-.47-.15-.56.07-.56.3-.52 3.9-4.54.47-.37.55-.15.57.06.52.29.37.47.16.55-.06.57-.29.53-3.93 4.56-.53.39zm-611.25 7.21-.59-.12-.52-.37-4.03-4.46-.3-.52-.08-.57.14-.55.36-.48.52-.3.57-.08.55.14.48.36 4 4.44.31.51.09.56-.14.56-.35.48-.48.3zm603.22 1.71-.53-.09-.49-.31-.35-.48-.13-.56.09-.56.31-.52 4.03-4.41.49-.36.55-.14.56.08.52.31.36.48.13.55-.07.57-.31.52-4.06 4.44-.51.36zm-594.99 7.01-.57-.11-.51-.34-4.16-4.35-.32-.51-.09-.56.13-.56.34-.49.51-.32.56-.09.56.13.49.34 4.13 4.32.33.5.1.56-.12.56-.34.5-.49.32zm586.71 1.67-.55-.1-.5-.33-.34-.49-.11-.56.1-.56.33-.51 4.16-4.29.49-.34.56-.13.56.1.51.32.34.49.12.56-.09.56-.32.51-4.19 4.32-.5.34zm-578.23 6.82-.55-.11-.5-.32-4.28-4.22-.34-.51-.1-.56.1-.56.34-.5.5-.33.56-.11.56.11.5.33 4.25 4.2.34.5.12.55-.1.57-.33.5-.5.34zm569.7 1.62-.57-.12-.51-.34-.32-.51-.1-.56.12-.56.34-.49 4.28-4.17.5-.33.56-.11.56.11.5.34.33.5.11.56-.12.56-.33.5-4.31 4.2-.49.31zm-560.98 6.61-.53-.1-.48-.29-4.41-4.1-.35-.49-.12-.56.09-.56.32-.51.49-.35.56-.12.56.09.51.31 4.38 4.08.35.48.13.56-.08.56-.31.51-.52.37zm552.21 1.57-.59-.12-.52-.37-.3-.52-.08-.56.13-.56.36-.48 4.39-4.05.52-.31.56-.09.55.13.49.35.32.51.09.56-.13.56-.35.49-4.43 4.07-.48.3zm-543.25 6.41-.51-.09-.47-.28-4.52-3.97-.36-.48-.14-.55.07-.57.3-.51.48-.36.56-.14.56.07.52.3 4.5 3.94.36.48.15.55-.07.57-.29.52-.53.39zm534.26 1.51-.62-.13-.53-.39-.29-.53-.06-.57.15-.55.37-.47 4.51-3.91.52-.3.57-.07.55.14.48.36.3.52.07.57-.14.55-.37.48-4.54 3.94-.47.27zm-525.06 6.21-.49-.08-.46-.26-4.64-3.84-.37-.47-.16-.55.06-.57.29-.52.47-.38.54-.15.57.06.53.28 4.61 3.81.38.47.16.54-.05.57-.28.53-.53.42zm515.83 1.45-.63-.14-.54-.42-.27-.54-.05-.56.17-.55.38-.46 4.62-3.78.53-.29.57-.05.55.16.46.37.29.53.05.57-.16.55-.37.47-4.66 3.8-.45.26zm-506.42 5.99-.91-.31-4.75-3.7-.39-.46-.17-.54.04-.57.27-.54.46-.38.55-.18.56.05.54.27 4.72 3.67.39.46.18.54-.03.57-.26.54-.55.44zm496.98 1.39-.65-.15-.55-.45-.26-.54-.03-.57.19-.54.39-.45 4.73-3.64.54-.27.57-.04.54.18.46.39.27.53.04.57-.18.55-.39.45-4.76 3.67zm-487.34 5.79-.88-.29-4.86-3.56-.4-.45-.19-.54.03-.57.25-.54.45-.4.54-.19.57.03.54.25 4.83 3.54.4.44.2.54-.02.57-.25.54-.54.47zm477.69 1.31-.67-.16-.55-.47-.24-.55-.02-.57.2-.53.41-.44 4.83-3.5.55-.26.57-.02.53.19.45.4.25.55.02.57-.19.54-.4.44-4.87 3.53zm-467.85 5.57-.84-.25-4.97-3.43-.41-.43-.2-.53v-.57l.24-.55.44-.42.53-.2.57.01.55.24 4.93 3.39.42.43.21.53v.57l-.23.56-.56.49zm458 1.24-.69-.16-.55-.5-.23-.56v-.57l.21-.52.43-.43 4.93-3.36.55-.24h.57l.53.2.43.42.24.55.01.57-.21.53-.42.44-4.96 3.38zm-447.96 5.36-.81-.23-5.06-3.28-.43-.42-.22-.53v-.57l.22-.55.42-.43.53-.22.57-.01.56.23 5.02 3.25.43.42.23.52.02.57-.22.56-.56.52zm437.92 1.17-.71-.18-.56-.52-.21-.56.02-.57.23-.53.43-.41 5.03-3.21.56-.22.57.01.52.22.42.43.22.55-.01.57-.22.53-.43.42-5.06 3.24zm-427.69 5.14-.77-.21-5.16-3.13-.44-.41-.23-.52-.02-.57.2-.56.41-.44.52-.24.57-.02.57.21 5.12 3.1.44.4.24.52.04.57-.2.57-.57.54zm417.47 1.09-.73-.19-.57-.55-.19-.57.03-.57.25-.51.45-.41 5.11-3.06.57-.21.57.03.52.24.4.44.21.56-.03.57-.24.52-.44.41-5.15 3.09zm-407.06 4.91-.73-.19-5.25-2.97-.45-.4-.25-.51-.04-.57.19-.57.4-.45.51-.25.57-.04.57.19 5.21 2.95.46.39.26.51.04.57-.18.57-.56.57zm396.66 1.01-.75-.2-.56-.58-.18-.57.05-.57.26-.51.46-.39 5.2-2.91.57-.19.57.05.51.25.39.45.19.57-.04.57-.26.51-.45.4-5.24 2.93zm-386.07 4.69-.69-.17-5.34-2.82-.46-.38-.26-.51-.06-.57.17-.57.39-.46.5-.27.57-.06.57.18 5.3 2.8.47.37.27.51.07.56-.17.58-.57.6zm375.51.92-.77-.21-.57-.6-.16-.58.07-.57.27-.5.47-.37 5.28-2.76.58-.17.57.06.5.27.38.46.17.58-.06.56-.26.51-.47.38-5.32 2.78zM233.6 782.5l-.65-.15-5.41-2.66-.48-.37-.28-.5-.07-.56.16-.58.37-.48.5-.28.56-.07.58.16 5.38 2.64.47.36.29.5.08.56-.14.58-.57.63zm354.04.84-.79-.22-.57-.63-.14-.58.08-.57.29-.49.48-.36 5.36-2.6.58-.16.57.08.49.28.37.48.15.58-.07.56-.28.5-.48.37-5.4 2.62zm-343.12 4.23-.61-.13-5.5-2.51-.48-.35-.3-.49-.09-.56.14-.59.36-.48.49-.3.56-.09.58.14 5.46 2.49.49.35.3.48.1.56-.13.59-.57.65zm332.25.76-.8-.24-.57-.66-.13-.58.1-.57.31-.48.49-.35 5.43-2.44.58-.13.57.09.48.29.36.49.13.58-.09.57-.3.48-.48.36-5.47 2.46zm-321.19 3.98-.57-.11-5.57-2.34-.5-.35-.31-.48-.1-.56.12-.58.34-.5.48-.3.56-.11.59.12 5.53 2.32.49.34.32.47.12.56-.12.59-.56.69zm310.19.68-.83-.25-.56-.69-.11-.59.12-.56.31-.47.5-.33 5.5-2.28.59-.12.56.11.48.31.34.49.12.59-.11.56-.31.48-.5.34-5.54 2.3zm-298.99 3.74-.53-.1-5.64-2.17-.5-.33-.33-.47-.12-.56.1-.59.33-.5.47-.33.56-.12.59.1 5.6 2.16.5.32.33.47.14.55-.1.6-.56.71zm287.81.61-.85-.26-.56-.72-.09-.59.13-.55.33-.47.51-.32 5.59-2.12.59-.11.56.13.47.32.32.51.1.59-.12.56-.33.47-.5.32-5.63 2.14zm-276.49 3.47-.48-.08-5.71-2.01-.51-.31-.33-.46-.14-.55.08-.6.31-.51.47-.34.55-.14.59.09 5.66 1.99.52.31.34.45.15.55-.08.6-.56.74zm265.18.55-.86-.27-.56-.75-.07-.59.15-.55.34-.46.52-.3 5.65-1.96.59-.09.55.15.46.33.31.52.09.59-.15.56-.33.46-.52.31-5.69 1.97zm-253.73 3.2-.44-.07-5.76-1.84-.52-.3-.35-.45-.16-.54.07-.6.3-.52.45-.35.54-.16.6.07 5.72 1.83.52.29.36.44.16.55-.06.59-.55.77zm242.31.49-.88-.29-.55-.77-.06-.6.17-.54.36-.45.52-.29 5.71-1.79.59-.06.55.15.45.35.29.53.07.59-.16.55-.35.45-.52.3-5.75 1.8zm-230.8 2.9-.4-.05-5.79-1.66-.53-.28-.36-.44-.18-.55.06-.6.28-.53.44-.36.54-.17.6.05 5.74 1.65.54.27.37.44.18.54-.04.6-.55.79zm219.28.45-.9-.31-.33-.34-.21-.46-.04-.6.18-.54.37-.43.53-.27 5.76-1.63.6-.05.54.18.44.36.28.54.05.59-.18.55-.36.43-.54.28-5.79 1.64zm-207.68 2.61-.36-.05-5.83-1.49-.54-.26-.37-.43-.19-.54.03-.6.27-.54.43-.37.53-.19.6.03 5.79 1.48.55.26.38.42.19.54-.02.6-.21.47-.33.35zm196.07.39-.92-.31-.33-.36-.21-.47-.02-.6.2-.54.38-.42.54-.26 5.8-1.45.6-.03.54.19.43.38.26.54.03.59-.19.54-.38.43-.54.26-5.84 1.47zm-184.38 2.32-.32-.04-5.87-1.31-.55-.25-.39-.42-.2-.53.02-.6.24-.55.42-.39.53-.2.61.02 5.83 1.3.55.24.39.42.21.53v.6l-.2.48-.33.37-.44.24zm172.68.35-.5-.09-.44-.24-.33-.38-.2-.48v-.6l.21-.53.4-.41.55-.24 5.84-1.29.6-.01.53.21.42.39.24.54.02.6-.21.54-.39.41-.55.25-5.88 1.29zm-160.91 2.01-.28-.02-5.91-1.14-.55-.24-.4-.4-.22-.53-.01-.6.24-.55.41-.4.52-.22.6-.01 5.87 1.14.55.22.41.41.23.52.01.6-.19.5-.33.38-.44.25zm149.14.3-.52-.09-.44-.25-.33-.39-.19-.5.02-.6.23-.52.4-.4.56-.22 5.87-1.11h.6l.53.22.4.4.23.56v.6l-.22.52-.4.41-.56.23-5.91 1.12zm-137.32 1.72-.23-.01-5.94-.97-.56-.22-.42-.4-.23-.52-.02-.59.22-.57.39-.41.52-.23.6-.02 5.9.96.56.21.42.39.24.51.03.6-.18.52-.33.4-.44.26zm125.48.26-.52-.1-.45-.26-.33-.4-.18-.52.03-.6.25-.51.41-.39.57-.21 5.9-.94.6.02.52.24.39.42.22.56-.02.6-.24.52-.42.39-.56.21-5.94.95zm-113.6 1.41-.19-.01-5.96-.79-.57-.2-.42-.39-.25-.51-.04-.6.2-.56.38-.43.52-.25.6-.03 5.92.79.57.19.43.37.26.51.04.6-.17.53-.33.41-.45.28zm101.71.21-.53-.1-.46-.28-.32-.41-.17-.53.04-.6.26-.51.43-.37.57-.19 5.93-.77.6.05.51.25.38.42.2.57-.04.6-.25.51-.42.38-.57.2-5.97.77zm-89.78 1.12-.15-.01-5.99-.62-.57-.18-.43-.37-.27-.51-.05-.6.18-.57.37-.43.5-.26.6-.06 5.95.61.57.18.44.36.28.5.06.6-.16.54-.33.43-.45.28zm77.85.15-.55-.1-.45-.29-.33-.42-.16-.55.07-.6.27-.5.44-.36.58-.17 5.95-.59.59.05.51.27.36.44.19.57-.06.6-.27.5-.43.37-.58.18-5.99.6zm-65.89.82h-.11l-6-.45-.58-.16-.44-.36-.28-.5-.07-.59.16-.58.35-.44.5-.28.6-.08 5.96.45.58.15.45.36.29.49.08.59-.15.56-.32.44-.47.29zm53.93.11-.56-.11-.46-.29-.33-.45-.14-.56.08-.59.29-.49.45-.35.58-.16 5.96-.42.6.08.5.28.35.45.16.57-.07.6-.28.5-.45.35-.58.17-6 .42zm-41.95.52h-.06l-6.02-.27-.58-.15-.45-.34-.3-.49-.09-.6.15-.58.35-.45.49-.3.59-.09 5.97.27.58.14.47.34.3.49.09.59-.13.57-.33.45-.46.31zm29.97.06-.58-.11-.46-.31-.33-.46-.13-.57.1-.59.3-.48.46-.34.59-.14 5.97-.24.59.09.49.3.34.45.15.58-.09.59-.3.49-.45.34-.58.15-6.02.25zm-17.98.22h-.01l-6.02-.09-.59-.14-.46-.33-.31-.48-.11-.59.13-.58.32-.46.47-.31.58-.11h.04l5.97.09.59.13.47.32.32.48.11.59-.12.58-.33.47-.47.31zm6 .02-.59-.12-.47-.32-.32-.47-.12-.59.12-.59.31-.47.47-.32.59-.12 5.98-.08.56.11.49.31.34.47.14.58-.11.59-.31.48-.47.33-.59.13-6.01.08zm3.47-684.94h-.03l-5.62-.06h-.35l-.58-.12-.48-.32-.32-.47-.12-.59.12-.59.32-.47.48-.32.58-.12h.35l5.68.06.59.13.46.33.32.48.1.59-.13.58-.32.46-.47.31zm-17.98.21-.56-.11-.47-.3-.32-.45-.14-.57.09-.6.3-.48.46-.34.58-.15 6.01-.2h.04l.58.12.46.31.33.46.13.58-.11.59-.31.48-.46.33-.59.13-5.95.2zm29.97.29-.1-.01-5.95-.31-.59-.14-.46-.34-.3-.49-.09-.59.14-.58.33-.46.48-.3.61-.1 6.02.32.58.16.45.35.29.49.08.59-.14.56-.33.44-.46.3zm-41.94.5-.55-.11-.46-.28-.32-.43-.16-.55.07-.6.27-.49.45-.36.57-.18 6.02-.46.59.08.49.29.35.45.16.58-.08.6-.29.49-.45.35-.58.16-5.95.45zm53.89.51h-.16l-5.94-.58-.57-.16-.45-.36-.27-.5-.07-.6.17-.57.35-.45.5-.28.6-.06 6 .57.57.18.44.37.27.51.05.59-.16.54-.33.42-.45.28zm-65.81.79-.54-.09-.45-.27-.33-.41-.17-.53.04-.6.26-.51.42-.38.57-.19 5.99-.72.6.05.5.27.37.43.18.57-.05.6-.27.51-.43.36-.57.19-5.93.71zm77.71.75-.22-.02-5.91-.83-.57-.19-.43-.38-.25-.51-.05-.6.2-.56.38-.43.51-.26.59-.04 5.98.84.56.2.42.39.24.52.03.59-.17.52-.34.4-.44.27zm-89.57 1.08-.52-.09-.44-.26-.33-.39-.19-.5.02-.6.23-.52.41-.4.56-.22 5.95-.98.6.03.52.24.38.42.21.56-.03.6-.24.52-.42.39-.56.2-5.89.97zm101.39.97-.29-.02-5.87-1.09-.56-.22-.41-.39-.23-.53-.02-.6.22-.56.4-.41.52-.23.6-.02 5.93 1.1.55.23.41.41.22.52v.6l-.19.5-.33.38-.44.24zm-113.16 1.37-.49-.09-.44-.23-.33-.37-.2-.48-.01-.6.21-.53.39-.42.55-.24 5.9-1.25.6.01.53.22.4.4.24.55v.6l-.23.53-.4.4-.55.24-5.84 1.22zm124.88 1.2-.36-.04-5.81-1.34-.55-.24-.39-.42-.21-.53.01-.6.24-.55.41-.39.53-.21.6.01 5.88 1.36.55.25.38.42.2.54-.02.6-.21.47-.33.36-.43.23zM340 147.39l-.9-.31-.33-.35-.22-.46-.03-.59.18-.54.38-.43.53-.27 5.85-1.5.6-.03.53.2.42.38.26.55.02.6-.19.53-.39.42-.54.26-5.78 1.48zm148.12 1.43-.41-.06-5.75-1.6-.54-.27-.38-.43-.18-.53.03-.6.27-.54.43-.38.54-.18.6.03 5.81 1.61.53.28.37.44.17.55-.05.59-.55.79zm-159.63 1.93-.88-.28-.55-.77-.06-.59.16-.55.35-.45.53-.29 5.77-1.75.6-.05.54.17.44.36.28.53.05.6-.18.55-.36.44-.53.27-5.71 1.74zm171.1 1.66-.48-.08-5.69-1.85-.53-.29-.35-.45-.17-.54.06-.6.29-.53.45-.35.55-.17.59.07 5.76 1.87.52.3.35.46.15.55-.08.59-.56.75zm-182.46 2.21-.85-.26-.56-.73-.09-.59.14-.55.34-.47.51-.31 5.68-2.01.6-.07.55.15.46.34.3.52.07.59-.15.55-.34.46-.52.3-5.62 1.99zm193.78 1.9-.55-.1-5.6-2.11-.51-.31-.34-.46-.13-.56.08-.59.32-.51.46-.34.55-.14.59.09 5.67 2.13.51.32.32.47.13.56-.1.59-.57.7zm11.12 4.59-.61-.12-5.5-2.35-.5-.33-.31-.48-.12-.56.12-.59.33-.5.48-.31.56-.12.59.12 5.56 2.37.49.35.31.48.1.56-.13.59-.57.66zm10.9 5.08-.66-.15-5.4-2.59-.48-.35-.29-.49-.09-.57.14-.58.35-.48.49-.3.57-.09.58.14 5.45 2.62.48.37.28.49.08.57-.16.58-.56.62zm10.66 5.55-.72-.18-5.27-2.82-.47-.38-.27-.5-.06-.56.16-.58.38-.47.5-.27.57-.07.57.17 5.33 2.85.46.39.26.51.06.56-.18.58-.57.57zm-269.75 3.14-.74-.19-.56-.55-.19-.57.04-.57.25-.52.45-.39 5.24-2.96.57-.18.57.05.5.26.39.46.18.57-.05.57-.26.51-.46.38-5.18 2.93zM554 177.75l-.78-.21-5.14-3.05-.45-.4-.25-.51-.04-.57.19-.57.4-.45.51-.25.57-.04.57.19 5.2 3.08.44.41.24.52.03.57-.21.56-.56.54zm-290.39 3.36-.7-.18-.56-.51-.22-.56.02-.57.22-.53.43-.41 5.11-3.19.57-.2.57.02.52.24.4.44.21.57-.03.57-.24.51-.44.41-5.05 3.15zm300.52 3.1-.83-.25-5-3.27-.44-.41-.22-.53-.02-.57.22-.56.41-.43.53-.23.57-.01.56.21 5.05 3.3.43.43.21.53.01.57-.23.55-.56.5zm-310.47 3.57-.67-.16-.56-.48-.24-.55-.01-.57.21-.54.41-.43 4.97-3.41.55-.23.57.01.53.21.43.42.22.56v.57l-.21.53-.42.42-4.92 3.37zm320.31 3.32-.89-.29-4.85-3.48-.42-.43-.2-.54.01-.57.24-.55.43-.41.54-.2h.57l.55.24 4.9 3.52.41.45.19.53-.02.57-.25.55-.55.46zm-329.96 3.77-.65-.14-.54-.44-.26-.54-.04-.57.18-.54.39-.46 4.82-3.62.54-.25.57-.02.54.19.45.4.25.55.02.57-.19.54-.4.44-4.77 3.58zm339.48 3.54-.48-.08-.46-.25-4.69-3.69-.4-.45-.18-.54.04-.57.26-.54.45-.39.54-.18.57.03.54.26 4.75 3.73.38.46.17.55-.04.56-.28.54-.53.42zm-348.82 3.97-.62-.13-.53-.4-.29-.53-.06-.57.16-.54.37-.48 4.66-3.82.53-.28.57-.05.54.17.47.39.27.53.05.57-.17.54-.38.47-4.61 3.78-.46.27zm358.02 3.74-.52-.09-.47-.28-4.53-3.88-.38-.47-.15-.55.06-.57.28-.53.47-.37.55-.16.57.06.53.29 4.58 3.93.36.47.14.56-.07.56-.29.52-.53.39zm-367.03 4.17-.59-.11-.52-.37-.3-.52-.09-.56.13-.55.36-.49 4.48-4.03.52-.29.57-.08.55.15.48.36.3.52.07.57-.15.55-.36.48-4.44 3.98-.48.3zm375.88 3.94-.55-.11-.49-.31-4.36-4.08-.35-.48-.13-.56.08-.56.31-.52.49-.35.55-.13.57.08.51.31 4.4 4.12.35.5.12.55-.1.56-.32.51-.51.35zM217 218.59l-.56-.1-.5-.34-.33-.5-.11-.56.11-.56.33-.5 4.31-4.22.5-.32.57-.09.55.12.5.34.32.51.09.56-.12.56-.34.49-4.26 4.17-.5.34zm393.02 4.11-.57-.11-.51-.35-4.17-4.26-.34-.5-.1-.56.1-.56.34-.5.5-.33.56-.11.56.11.5.33 4.22 4.3.32.51.09.56-.12.56-.34.5-.49.31zm-401.32 4.56-.53-.1-.48-.29-.35-.49-.13-.55.08-.57.31-.51 4.12-4.41.49-.34.56-.12.56.1.51.32.34.49.12.56-.09.56-.32.51-4.08 4.35-.52.37zm409.43 4.28-.6-.13-.52-.38-3.99-4.44-.31-.51-.08-.57.13-.55.35-.49.52-.31.56-.08.55.13.49.35 4.03 4.49.3.52.07.56-.14.56-.37.47-.47.29zm-417.34 4.74-.5-.09-.47-.26-.37-.47-.15-.55.05-.57.29-.53 3.93-4.57.48-.37.55-.14.56.07.53.3.36.48.14.55-.07.56-.29.52-3.89 4.53-.53.41zm425.06 4.43-.63-.14-.54-.42-3.79-4.6-.28-.53-.06-.57.15-.55.38-.47.52-.28.57-.06.55.15.47.38 3.83 4.65.28.53.04.57-.17.55-.38.46-.45.25zm-432.58 4.93-.91-.31-.4-.45-.17-.54.03-.57.26-.54 3.73-4.75.46-.38.55-.17.56.04.54.28.38.46.17.55-.05.56-.27.54-3.69 4.69-.54.44zm439.89 4.57-.66-.16-.55-.45-3.58-4.77-.27-.53-.03-.57.18-.55.39-.45.54-.26.57-.04.54.18.46.39 3.62 4.82.25.54.02.57-.19.54-.4.45zm-446.99 5.11-.86-.27-.42-.44-.2-.53.01-.57.24-.55 3.52-4.91.44-.4.54-.19.57.02.55.25.4.44.19.54-.02.57-.25.55-3.48 4.85-.56.48zm453.88 4.69-.69-.17-.56-.5-3.37-4.91-.24-.55-.01-.57.2-.53.41-.44.55-.24.57-.01.54.21.43.41 3.41 4.96.23.56v.57l-.22.53-.42.42zm-460.56 5.29-.81-.23-.43-.42-.23-.52-.01-.57.21-.56 3.31-5.06.42-.42.53-.22h.57l.56.23.42.42.22.53v.57l-.23.56-3.27 5-.56.52zm467.01 4.79-.72-.18-.56-.54-3.16-5.04-.21-.56.01-.58.23-.52.43-.42.56-.21.57.01.52.23.42.43 3.19 5.1.2.57-.02.57-.24.52-.44.41zm-473.25 5.48-.75-.2-.45-.4-.25-.51-.04-.57.19-.57 3.08-5.2.41-.44.52-.23.57-.03.56.2.44.41.24.52.03.57-.21.56-3.04 5.14-.57.56zm479.26 4.88-.75-.2-.57-.58-2.93-5.18-.19-.56.04-.57.25-.52.45-.4.56-.19.57.04.52.25.4.45 2.96 5.24.18.57-.05.57-.26.51-.46.38zm-485.05 5.66-.69-.17-.47-.38-.27-.5-.06-.57.16-.58 2.85-5.33.39-.45.51-.26.57-.06.57.18.46.39.26.51.05.57-.18.57-2.82 5.27-.56.6zm490.59 4.94-.78-.21-.56-.62-2.7-5.3-.17-.58.06-.57.27-.5.47-.38.58-.16.56.06.51.27.37.47 2.73 5.36.16.58-.08.56-.28.5-.47.37zm5.08 10.83-.81-.23-.57-.66-2.46-5.41-.14-.59.09-.56.29-.49.48-.36.59-.14.56.09.49.29.36.48 2.49 5.47.13.59-.1.56-.31.49-.49.34zm-517.39 40.17-.39-.05-.53-.27-.38-.43-.18-.54.03-.6 1.62-5.81.28-.53.44-.37.54-.17.59.05.54.28.36.43.18.55-.05.59-1.6 5.75-.21.46-.33.35zm-2.83 11.65-.32-.03-.55-.24-.4-.42-.21-.53.01-.6 1.36-5.87.26-.55.42-.38.53-.2.6.02.55.26.38.42.2.54-.02.59-1.35 5.82-.2.48-.33.37-.43.24zm-5.4 35.56h-.13l-.57-.17-.45-.36-.28-.5-.07-.59.58-6.01.19-.57.36-.44.51-.26.6-.06.57.18.43.37.27.51.06.59-.58 5.94-.15.55-.33.43-.46.29zm-.76 11.98h-.07l-.58-.15-.46-.34-.3-.48-.09-.6.32-6.02.16-.58.36-.44.5-.29.57-.09.58.16.45.35.29.49.08.59-.31 5.96-.14.57-.33.45-.46.3zm-.25 11.99-.59-.12-.47-.32-.32-.47-.12-.59v-.23l.06-5.8.13-.59.33-.47.48-.31.59-.1.59.13.46.33.31.48.11.59-.06 5.74v.23l-.12.59-.32.47-.47.32zm.26 11.98-.56-.11-.47-.3-.32-.46-.14-.56-.2-6.02.11-.59.3-.48.47-.33.58-.13.6.12.48.31.33.45.13.59.19 5.95-.09.59-.3.48-.46.34-.58.15zm.79 11.97-.55-.1-.46-.29-.33-.43-.16-.55-.46-6.01.09-.6.28-.49.46-.35.57-.16.6.09.49.28.35.45.16.58.45 5.95-.07.6-.27.5-.45.36-.57.17zm525.7 86.66-.61-.12-.49-.35-.3-.48-.1-.56.12-.59 2.36-5.5.33-.5.48-.31.56-.12.59.12.5.33.31.48.11.56-.11.59-2.38 5.56-.57.66zm-500.99 5.51-.8-.22-.56-.64-2.49-5.47-.13-.59.1-.56.31-.49.49-.34.58-.13.56.1.49.31.34.48 2.46 5.42.15.58-.09.57-.3.49-.48.35zm495.89 5.39-.66-.16-.48-.36-.28-.5-.07-.56.15-.59 2.59-5.39.36-.48.49-.29.56-.09.59.14.48.36.29.49.09.56-.14.58-2.62 5.45-.57.62zm-490.59 5.34-.77-.21-.56-.6-2.73-5.36-.15-.58.07-.57.29-.49.47-.37.58-.15.57.07.49.28.37.48 2.7 5.3.16.58-.06.57-.27.5-.47.38zm5.77 10.48-.74-.19-.56-.56-2.96-5.24-.18-.57.05-.57.26-.51.46-.38.57-.18.57.05.51.26.39.46 2.92 5.18.19.57-.04.57-.24.51-.45.4zm6.22 10.23-.71-.17-.56-.52-3.18-5.11-.2-.56.02-.57.24-.52.44-.41.56-.2.57.02.52.24.41.44 3.15 5.06.22.56-.02.57-.22.52-.44.42zm6.66 9.95-.67-.16-.56-.48-3.4-4.96-.23-.56v-.57l.22-.53.42-.42.55-.23h.57l.53.22.43.42 3.37 4.91.24.55.01.57-.2.53-.42.44zm7.09 9.66-.65-.15-.54-.44-3.62-4.81-.25-.55-.02-.57.19-.53.41-.45.54-.25.57-.02.54.19.44.4 3.58 4.77.27.54.03.57-.18.54-.39.45zm7.51 9.34-.62-.13-.53-.4-3.83-4.66-.27-.53-.05-.57.17-.55.38-.46.54-.27.57-.05.54.17.46.38 3.79 4.61.28.53.06.56-.15.55-.38.47-.46.27zm417.34 4.71-.52-.09-.47-.29-.36-.47-.15-.56.07-.56.3-.52 3.89-4.53.47-.37.55-.16.57.06.53.29.37.47.16.55-.06.56-.29.53-3.93 4.58-.53.38zm-409.43 4.31-.59-.12-.52-.37-4.02-4.49-.3-.52-.07-.57.14-.55.36-.48.52-.29.57-.07.55.14.48.36 3.98 4.44.31.52.09.56-.14.56-.35.48-.48.3zm401.32 4.53-.55-.11-.49-.31-.34-.49-.12-.56.09-.56.32-.51 4.09-4.35.48-.36.56-.13.56.09.52.3.35.49.13.56-.08.56-.31.51-4.13 4.4-.51.35zm-393.03 4.13-.56-.11-.5-.33-4.22-4.31-.32-.51-.09-.56.12-.56.34-.49.51-.32.56-.1.56.12.49.35 4.17 4.26.33.5.11.56-.11.56-.33.5-.5.33zm384.54 4.34-.58-.11-.51-.35-.31-.51-.1-.56.12-.56.34-.49 4.27-4.17.5-.33.56-.11.56.11.5.33.33.5.11.56-.11.56-.33.5-4.31 4.22-.5.31zm-375.88 3.96-.53-.1-.48-.3-4.4-4.12-.34-.49-.12-.56.09-.56.32-.51.5-.34.55-.12.57.09.5.32 4.36 4.08.35.49.13.55-.08.57-.31.51-.52.37zm367.04 4.14-.61-.13-.52-.38-.3-.52-.07-.57.14-.55.37-.48 4.44-3.98.51-.3.57-.09.55.13.49.36.31.51.08.57-.13.55-.36.49-4.49 4.02-.47.28zm-358.02 3.78-.5-.09-.46-.26-4.58-3.94-.36-.47-.15-.56.08-.56.29-.52.48-.37.55-.14.57.07.52.3 4.53 3.89.37.47.16.55-.06.56-.29.53-.53.4zm348.83 3.93-.63-.14-.54-.43-.27-.53-.05-.57.17-.54.38-.46 4.61-3.79.53-.28.57-.06.55.16.46.37.29.53.06.56-.16.55-.37.47-4.66 3.83-.45.25zm-339.47 3.59-.92-.31-4.74-3.73-.39-.46-.16-.55.04-.57.28-.53.46-.39.55-.16.56.04.54.28 4.69 3.69.4.45.18.54-.04.57-.26.54-.54.44zm329.97 3.7-.66-.15-.55-.46-.25-.54-.03-.57.2-.54.4-.45 4.77-3.57.54-.27.56-.03.55.18.45.39.26.54.04.57-.18.54-.4.46-4.82 3.61zm-320.3 3.41-.86-.28-4.9-3.52-.4-.44-.2-.54.03-.57.25-.54.44-.41.54-.19.57.02.54.25 4.86 3.49.41.43.2.54-.01.57-.24.55-.55.48zm310.49 3.47-.69-.17-.56-.5-.23-.55.01-.57.21-.53.42-.43 4.92-3.36.55-.24.57-.01.53.2.44.41.24.55.01.57-.21.54-.41.43-4.97 3.41zm-300.51 3.21-.8-.24-5.06-3.3-.42-.43-.21-.53-.01-.57.23-.55.43-.43.53-.21h.57l.55.22 5 3.27.43.42.23.53.01.57-.21.56-.56.51zm290.41 3.23-.72-.19-.56-.53-.2-.57.02-.57.24-.51.44-.41 5.06-3.15.56-.22.57.02.52.23.42.43.21.56-.01.57-.23.52-.43.42-5.11 3.18zm-280.14 3.01-.75-.2-5.2-3.08-.44-.41-.23-.52-.03-.57.2-.56.41-.44.52-.24.57-.03.56.2 5.14 3.06.45.39.25.52.04.57-.19.56-.56.56zm269.78 2.98-.75-.2-.57-.58-.17-.57.05-.57.26-.5.46-.39 5.18-2.93.57-.19.57.04.51.25.4.45.19.57-.04.57-.25.51-.45.4-5.24 2.96zm-259.25 2.81-.69-.17-5.33-2.85-.45-.39-.26-.5-.06-.57.18-.58.39-.45.51-.26.57-.06.57.18 5.27 2.82.46.38.27.5.07.57-.17.58-.56.6zm248.64 2.72-.78-.21-.56-.62-.16-.58.08-.57.28-.49.47-.37 5.31-2.7.58-.16.57.06.5.28.37.46.17.58-.06.56-.28.51-.46.37-5.37 2.73zm-237.86 2.61-.63-.14-5.45-2.62-.47-.37-.29-.49-.07-.57.15-.58.37-.47.49-.28.57-.08.58.15 5.39 2.59.48.36.3.49.08.56-.14.58-.56.64zm227.03 2.45-.81-.23-.57-.66-.13-.59.11-.56.3-.48.49-.35 5.42-2.46.58-.14.56.09.49.3.36.48.14.58-.09.56-.29.49-.49.36-5.47 2.49zm-216.02 2.4-.57-.12-5.57-2.38-.49-.34-.3-.48-.1-.57.13-.58.34-.49.49-.31.56-.1.59.13 5.5 2.35.49.34.32.47.11.56-.11.59-.57.68zm204.97 2.19-.83-.26-.56-.7-.1-.59.12-.56.33-.47.5-.32 5.51-2.22.6-.12.55.12.48.31.34.5.11.59-.11.56-.32.48-.5.33-5.57 2.24zm-193.75 2.17-.51-.09-5.67-2.13-.5-.33-.33-.47-.12-.55.1-.59.33-.51.47-.32.55-.13.59.1 5.6 2.11.51.31.34.47.14.55-.09.59-.56.73zm182.48 1.93-.86-.27-.56-.74-.07-.6.15-.55.34-.45.52-.31 5.63-1.98.59-.09.56.14.46.34.31.51.09.59-.14.55-.33.47-.51.31-5.69 2zm-171.08 1.93-.45-.07-5.75-1.88-.52-.3-.34-.45-.16-.55.08-.6.3-.52.46-.34.55-.15.59.07 5.69 1.86.53.29.35.45.17.55-.07.59-.55.77zm159.64 1.68-.89-.29-.55-.79-.05-.6.18-.54.36-.44.53-.28 5.71-1.73.6-.06.55.16.44.35.29.53.07.59-.17.55-.35.45-.53.29-5.77 1.75zm-148.11 1.67-.39-.05-5.81-1.62-.53-.28-.37-.44-.17-.54.05-.6.27-.53.44-.36.55-.18.59.05 5.75 1.6.54.27.37.43.19.54-.04.6-.21.46-.33.34zm136.52 1.43-.92-.31-.33-.36-.21-.47-.02-.6.2-.54.38-.42.55-.26 5.78-1.48.6-.03.53.19.44.37.26.54.04.6-.19.53-.37.44-.54.26-5.84 1.5zm-124.87 1.41-.32-.04-5.88-1.36-.54-.26-.39-.42-.19-.53.02-.6.25-.55.43-.38.53-.2.6.02 5.81 1.35.55.25.4.41.21.53-.01.6-.2.48-.34.37-.43.24zm113.16 1.18-.51-.09-.44-.25-.33-.37-.19-.5v-.6l.22-.52.4-.41.56-.23 5.84-1.23h.6l.53.21.41.39.24.55.01.6-.21.53-.39.41-.55.24-5.9 1.24zm-101.39 1.14-.26-.02-5.93-1.11-.55-.23-.4-.4-.22-.53-.01-.6.23-.55.41-.41.52-.22h.6l5.87 1.09.56.22.41.4.23.52.02.6-.19.5-.33.39-.44.26zm89.57.93-.52-.09-.45-.26-.33-.4-.18-.52.03-.6.24-.51.42-.39.57-.21 5.88-.97.6.02.52.24.4.41.22.55-.02.6-.23.52-.41.4-.56.22-5.95.98zm-77.71.87-.19-.01-5.98-.84-.56-.21-.42-.39-.24-.51-.03-.6.21-.56.38-.42.52-.25.6-.03 5.9.84.57.19.43.38.26.51.04.6-.17.52-.33.41-.45.28zm65.82.69-.55-.1-.45-.28-.33-.42-.16-.54.05-.6.27-.5.43-.37.58-.18 5.92-.71.6.04.51.26.38.42.19.57-.04.6-.26.51-.42.38-.57.19-5.99.72zm-53.89.6-.13-.01-6-.58-.58-.18-.43-.37-.27-.5-.05-.6.18-.57.37-.44.5-.26.6-.06 5.94.58.57.17.45.35.27.5.07.6-.15.55-.33.43-.46.28zm41.93.43-.56-.11-.46-.29-.32-.44-.15-.56.08-.59.29-.5.45-.35.58-.15 5.95-.45.58.06.5.28.37.45.17.57-.07.6-.27.5-.45.36-.57.16-6.02.46zm-29.96.34h-.06l-6.03-.32-.57-.16-.45-.35-.29-.49-.09-.6.16-.58.35-.45.49-.29.6-.08 5.95.32.59.14.46.34.3.49.09.59-.14.57-.32.45-.47.31zm17.99.18-.58-.11-.47-.31-.32-.47-.13-.58.11-.59.31-.47.47-.33.58-.14 5.95-.19.59.09.49.3.34.46.14.58-.09.6-.3.48-.46.34-.58.15-6.02.19zm-6 .07h-.11l-5.91-.06-.59-.13-.47-.33-.31-.48-.1-.59.13-.58.33-.46.48-.31.59-.12 5.85.06h.11l.59.12.48.32.32.47.11.59-.11.59-.32.47-.48.32zm-7.76-464.85-.57-.11-.47-.31-.32-.45-.14-.57.09-.59.31-.49.45-.33.59-.15 6.04-.14h.01l.58.11.47.32.33.47.12.58-.12.59-.31.48-.47.32-.59.13-5.94.14zm17.98.13-.08-.01-5.95-.22-.58-.13-.47-.33-.31-.48-.1-.59.13-.58.32-.46.47-.32.58-.11h.03l6.04.23.58.15.46.34.29.49.09.6-.14.56-.33.45-.46.3zm-29.95.72-.54-.1-.46-.28-.33-.43-.16-.54.06-.59.27-.51.44-.36.57-.18 6.02-.52.6.07.49.29.35.45.17.58-.08.59-.29.49-.45.36-.57.16-5.94.51zm41.91.29-.18-.01-5.92-.6-.58-.16-.44-.36-.28-.5-.07-.6.17-.57.36-.44.5-.28.59-.07 6.02.6.57.19.43.37.26.51.05.6-.16.53-.33.42-.46.27zm-53.8 1.31-.52-.09-.44-.26-.33-.39-.18-.51.02-.6.23-.52.42-.39.56-.22 5.98-.9.59.03.51.26.38.43.2.57-.04.6-.25.51-.43.38-.57.19-5.88.89zm65.66.46-.27-.02-5.87-.97-.57-.21-.42-.38-.24-.52-.03-.6.2-.56.39-.42.51-.25.6-.03 5.96.98.56.23.41.4.23.52.01.6-.19.5-.33.39-.44.25zm-77.42 1.89-.49-.09-.43-.23-.34-.36-.2-.48-.01-.6.2-.53.39-.42.54-.25 5.91-1.28h.6l.53.22.4.4.24.56-.01.6-.22.53-.4.4-.55.23-5.82 1.26zm89.15.63-.37-.05-5.79-1.34-.55-.24-.4-.41-.21-.53v-.6l.25-.55.41-.39.52-.22.61.01 5.89 1.36.54.26.38.42.2.54-.03.6-.21.47-.33.35zm-100.74 2.46-.88-.29-.55-.78-.06-.6.17-.54.36-.44.53-.29 5.82-1.65.59-.04.54.19.43.38.27.54.04.59-.19.54-.37.43-.54.27-5.72 1.62zm112.28.79-.45-.07-5.7-1.71-.54-.27-.37-.44-.17-.54.04-.6.28-.53.43-.37.54-.18.6.05 5.79 1.73.53.29.35.45.16.55-.06.59-.56.77zm-123.65 3.03-.84-.26-.56-.72-.1-.59.14-.55.33-.47.51-.32 5.7-2.01.6-.08.54.16.46.34.3.52.07.6-.15.55-.35.45-.52.3-5.6 1.99zm135 .97-.54-.1-5.6-2.08-.52-.3-.34-.46-.14-.55.08-.6.31-.51.46-.34.55-.15.6.08 5.68 2.11.51.32.32.47.13.56-.1.59-.57.71zm-146.08 3.56-.81-.23-.57-.66-.13-.59.1-.56.31-.48.48-.35 5.55-2.37.59-.11.56.12.47.31.33.5.11.59-.11.56-.32.48-.5.33-5.46 2.33zm157.14 1.15-.63-.14-5.45-2.43-.49-.34-.31-.47-.11-.56.12-.59.34-.5.48-.31.56-.11.59.12 5.54 2.46.48.36.29.49.09.56-.13.59-.57.64zm-167.91 4.07-.76-.21-.57-.6-.17-.57.07-.57.27-.5.46-.38 5.39-2.72.58-.14.56.08.5.28.36.48.15.58-.08.57-.29.49-.48.36-5.3 2.67zM313 250.5l-.72-.19-.57-.54-.2-.56.03-.57.24-.52.44-.41 5.2-3.05.57-.18.57.04.51.26.4.45.18.57-.04.57-.26.51-.45.39-5.13 3.01zm-10.04 6.53-.68-.16-.55-.48-.24-.55-.01-.57.21-.53.41-.44 5.01-3.37.56-.22.57.01.52.22.42.43.22.56-.01.57-.22.52-.43.42-4.92 3.32zm-9.61 7.16-.64-.14-.53-.42-.28-.54-.04-.57.17-.54.39-.46 4.78-3.68.55-.26.57-.03.53.19.45.4.26.55.02.57-.19.53-.4.45-4.71 3.63-.45.24zm238.57 1.84-.5-.09-.45-.25-4.66-3.71-.4-.45-.18-.54.04-.57.26-.54.45-.39.55-.18.56.03.54.26 4.74 3.77.38.46.16.55-.05.57-.28.53-.53.41zm-247.72 5.92-.59-.13-.52-.37-.31-.52-.07-.56.13-.56.36-.48 4.55-3.98.52-.28.57-.07.55.16.47.37.29.52.06.57-.15.55-.37.47-4.48 3.92-.48.29zm256.75 1.97-.53-.09-.49-.31-4.42-3.99-.36-.47-.15-.55.07-.57.3-.52.48-.36.55-.15.56.07.53.3 4.49 4.05.34.49.13.55-.09.57-.31.51-.51.36zm-265.39 6.34-.55-.11-.5-.32-.33-.49-.12-.56.1-.57.33-.5 4.29-4.26.5-.32.57-.1.55.12.5.34.32.51.1.56-.12.56-.34.49-4.23 4.2-.5.34zm273.91 2.11-.58-.12-.51-.35-4.16-4.25-.33-.5-.11-.56.1-.56.33-.5.5-.34.56-.11.56.11.5.33 4.23 4.32.32.51.09.56-.12.56-.35.49-.49.31zm-282.02 6.73-.51-.09-.47-.27-.37-.48-.14-.55.06-.57.29-.52 4.02-4.52.49-.35.55-.13.57.08.51.31.35.49.13.55-.08.56-.31.52-3.95 4.45-.53.39zm289.99 2.23-.62-.13-.53-.41-3.89-4.5-.3-.52-.07-.57.14-.55.36-.48.52-.3.56-.08.56.14.48.36 3.94 4.58.28.53.06.57-.16.54-.37.47-.46.27zm7.39 9.44-.67-.16-.54-.45-3.6-4.74-.26-.54-.04-.57.17-.54.39-.46.54-.27.57-.04.54.18.46.39 3.64 4.81.26.55.02.57-.19.53-.41.45zm6.77 9.88-.7-.18-.56-.52-3.29-4.95-.23-.55v-.57l.21-.53.41-.43.56-.24h.57l.53.21.43.42 3.33 5.03.22.56-.01.57-.23.52-.43.42zm-339.84 40.6-.49-.08-.51-.31-.35-.45-.15-.55.08-.6 2.06-5.7.32-.51.47-.33.56-.13.59.1.5.32.33.47.13.55-.09.6-2.03 5.61-.56.74zm-3.54 11.48-.39-.05-.54-.27-.37-.43-.19-.54.04-.6 1.69-5.81.29-.52.44-.36.55-.17.6.06.52.29.36.44.17.55-.06.59-1.66 5.72-.22.45-.33.35zm-6.51 59.39-.57-.12-.46-.3-.33-.45-.13-.56-.2-6.05.11-.59.31-.47.47-.33.59-.13h.02l.58.12.47.31.33.46.12.58.19 5.96-.09.59-.3.49-.45.34-.59.14zm.94 11.95-.54-.1-.45-.28-.33-.41-.17-.54-.56-6.02.07-.6.28-.49.45-.36.57-.16.59.07.5.28.36.45.17.58.56 5.92-.06.6-.26.5-.44.37-.57.19zm1.69 11.88-.51-.09-.44-.26-.34-.39-.18-.5-.95-5.97.04-.6.25-.52.42-.38.57-.2.6.04.51.25.38.42.2.56.93 5.88-.01.6-.24.52-.41.4-.55.22zm2.44 11.74-.49-.08-.43-.23-.33-.36-.2-.48-1.33-5.9v-.6l.22-.52.4-.41.55-.24h.6l.52.22.41.39.24.56 1.3 5.8.03.6-.2.54-.39.42-.54.25zm3.19 11.57-.88-.29-.56-.77-1.69-5.8-.04-.6.18-.54.37-.43.54-.28.59-.04.55.19.43.37.27.53 1.67 5.71.06.6-.17.55-.35.44-.53.29zm338.32 51.09-.85-.27-.41-.43-.21-.53v-.57l.24-.55 3.29-4.97.42-.43.52-.22.57-.02.56.22.43.42.23.52.01.57-.22.56-3.34 5.04-.55.49zm-311.92 2.37-.68-.15-.55-.48-3.41-4.98-.23-.55.01-.57.22-.53.42-.43.56-.22h.57l.53.22.42.43 3.36 4.9.24.55.01.57-.2.53-.41.44zm304.82 7.31-.48-.08-.44-.24-.39-.46-.18-.54.04-.57.27-.54 3.6-4.74.44-.41.54-.19.57.02.54.25.41.45.19.54-.02.57-.25.54-3.66 4.82-.54.43zm-297.59 2.25-.63-.14-.54-.42-3.72-4.76-.26-.54-.03-.57.19-.54.39-.45.54-.26.57-.03.54.19.46.39 3.66 4.69.27.53.05.57-.17.54-.38.47-.45.25zm289.9 6.96-.52-.09-.48-.29-.36-.48-.14-.55.08-.57.3-.52 3.89-4.51.47-.37.54-.16.57.06.53.28.37.47.16.55-.05.57-.29.53-3.95 4.58-.52.37zm-282.08 2.13-.59-.12-.52-.37-4.01-4.52-.29-.52-.07-.57.15-.55.37-.47.52-.3.57-.06.55.15.47.37 3.96 4.44.3.52.09.56-.13.56-.36.48-.48.3zm273.83 6.58-.56-.11-.51-.34-.32-.5-.11-.56.11-.56.33-.5 4.16-4.25.5-.35.55-.12.57.09.5.32.35.49.12.56-.09.56-.32.51-4.22 4.32-.5.33zm-265.45 2-.55-.1-.49-.32-4.29-4.26-.33-.5-.1-.56.12-.56.33-.5.51-.32.56-.11.56.12.5.34 4.22 4.19.34.49.12.56-.1.56-.32.51-.51.35zm256.67 6.17-.6-.13-.53-.38-.29-.53-.07-.56.14-.55.37-.48 4.41-3.99.51-.31.57-.09.55.13.49.35.32.51.08.57-.12.55-.35.49-4.49 4.05-.47.28zm-247.77 1.87-.5-.09-.47-.26-4.55-3.99-.35-.48-.14-.55.08-.57.3-.52.49-.35.55-.14.57.08.51.31 4.48 3.92.37.47.16.55-.07.57-.28.52-.53.4zm238.5 5.73-.64-.15-.54-.44-.27-.53-.03-.57.18-.55.39-.45 4.66-3.7.52-.28.57-.05.55.16.47.38.28.53.05.57-.16.55-.38.46-4.73 3.76zm-229.1 1.74-.9-.3-4.79-3.69-.39-.46-.17-.54.04-.57.28-.53.46-.39.54-.17.57.04.53.28 4.72 3.63.4.45.19.53-.03.57-.25.55-.55.45zm219.38 5.26-.69-.17-.55-.49-.23-.56v-.57l.21-.53.42-.42 4.88-3.4.55-.25.57-.01.53.19.44.41.25.55.02.57-.2.53-.41.44-4.95 3.45zm-209.53 1.61-.82-.25-5.02-3.38-.42-.43-.2-.53.01-.57.24-.56.43-.41.53-.21.57.01.55.24 4.94 3.33.43.42.22.53.01.57-.22.56-.55.5zm199.39 4.76-.73-.19-.57-.55-.19-.57.04-.57.24-.51.45-.4 5.08-3.08.56-.21.57.01.52.23.42.44.21.56-.02.57-.23.52-.43.42-5.16 3.13zm-189.13 1.47-.73-.19-5.23-3.06-.44-.41-.24-.52-.02-.57.2-.56.41-.44.52-.24.57-.03.56.2 5.14 3.01.46.4.25.51.05.57-.19.57-.56.57zm178.62 4.25-.78-.21-.57-.61-.15-.58.07-.57.28-.5.47-.37 5.26-2.75.57-.18.57.06.51.26.38.46.18.57-.06.57-.26.51-.46.38-5.34 2.8zm-167.97 1.33-.65-.15-5.41-2.73-.47-.38-.27-.5-.06-.57.16-.57.38-.47.51-.27.56-.06.58.16 5.33 2.69.47.36.29.49.08.57-.15.58-.57.63zm157.12 3.71-.82-.24-.57-.67-.12-.59.11-.56.31-.48.5-.34 5.42-2.41.58-.14.56.09.49.29.36.48.14.59-.09.56-.3.49-.48.36-5.51 2.45zm-146.14 1.18-.56-.12-5.58-2.37-.48-.35-.31-.48-.1-.57.13-.58.35-.49.48-.3.57-.1.58.13 5.49 2.34.5.33.32.47.12.56-.12.59-.56.69zm134.98 3.17-.86-.27-.56-.73-.08-.6.14-.55.34-.46.52-.31 5.57-2.07.6-.1.55.12.47.33.33.5.1.6-.13.55-.32.47-.51.32-5.66 2.11zm-123.69 1.01-.48-.08-5.72-2.02-.51-.31-.33-.47-.14-.55.1-.6.31-.51.47-.33.55-.13.59.09 5.63 1.98.52.3.35.46.15.55-.07.59-.56.75zm112.25 2.62-.89-.3-.55-.79-.04-.6.17-.54.37-.44.53-.27 5.7-1.72.6-.06.55.16.45.35.29.53.06.6-.16.54-.35.45-.53.29-5.79 1.74zm-100.76.82-.39-.05-5.82-1.64-.53-.29-.36-.44-.17-.54.06-.6.28-.53.45-.36.54-.17.6.06 5.72 1.61.54.27.37.43.19.54-.03.6-.21.46-.34.35zm89.12 2.08-.5-.09-.43-.24-.33-.37-.2-.48-.01-.6.21-.53.4-.42.55-.24 5.79-1.34.6-.03.54.2.42.38.26.54.03.6-.2.54-.38.42-.54.26-5.89 1.37zm-77.44.63-.29-.03-5.91-1.27-.55-.25-.38-.42-.21-.53.02-.6.25-.54.41-.39.54-.21.6.02 5.81 1.25.56.23.4.41.22.52v.6l-.19.5-.33.37-.44.25zm65.64 1.52-.52-.09-.45-.27-.33-.4-.18-.51.03-.6.25-.52.42-.38.56-.21 5.87-.97.6.01.52.23.4.4.23.56-.02.6-.23.52-.4.4-.56.23-5.96.99zm-53.8.44-.2-.01-5.98-.89-.56-.22-.42-.39-.23-.52-.02-.6.21-.56.39-.41.52-.24.6-.02 5.88.88.57.19.43.38.25.51.04.6-.17.53-.33.4-.45.27zm41.89.97-.55-.1-.46-.29-.33-.43-.15-.55.07-.6.27-.49.45-.36.57-.17 5.92-.61.6.05.51.26.37.43.19.58-.05.59-.26.51-.44.37-.57.19-6.01.62zm-29.96.24h-.11l-6.02-.52-.57-.18-.44-.36-.27-.5-.06-.6.18-.57.37-.45.5-.27.59-.05 5.93.51.58.16.45.35.29.49.08.6-.15.55-.33.44-.46.29zm17.98.42-.57-.12-.47-.31-.33-.46-.13-.58.11-.59.31-.48.46-.33.59-.13 5.95-.24.59.1.49.3.34.44.16.58-.09.59-.29.49-.46.35-.58.15-6.04.24zm-6 .04h-.01l-6.04-.14-.58-.14-.46-.34-.3-.48-.1-.59.15-.59.34-.46.49-.3.58-.09 5.95.13.58.13.47.32.32.48.11.58-.12.59-.32.47-.47.32z"/><path fill="#acc0dc" fill-opacity=".196" d="M446.01 510.85v35.85l-.2 2.12-.52 1.95-.86 1.8-1.15 1.63-1.38 1.38-1.62 1.16-1.79.86-1.94.53-2.11.2-2.11-.2-1.94-.53-1.79-.86-1.63-1.16-1.37-1.38-1.15-1.63-.86-1.8-.53-1.95-.19-2.12v-35.85zm-324-131.03v56l.32 2.64.88 2.39 1.38 2.11 1.82 1.76-2.08 2.92-1.57 3.26-.72 2.31-.44 2.42-.16 2.54.02.23.95 5.03 1.25 4.92 1.56 4.83 1.85 4.72 2.13 4.59 2.41 4.45-2.01.29-1.84.59-1.7.89-1.54 1.16-1.3 1.37-1.08 1.6-.81 1.76-.49 1.89-.19 2.05v43.48l-.19 2.12-.53 1.95-.86 1.8-1.15 1.63-1.37 1.39-1.63 1.15-1.79.86-1.94.53-2.11.2-2.11-.2-1.94-.53-1.79-.86-1.62-1.15-1.38-1.39-1.15-1.63-.86-1.8-.52-1.95-.2-2.12v-162.2zm603.5 124.83v23.01l-.2 2.12-.52 1.95-.86 1.8-1.15 1.63-1.38 1.38-1.62 1.16-1.79.86-1.94.53-2.11.2-2.11-.2-1.94-.53-1.79-.86-1.63-1.16-1.37-1.38-1.15-1.63-.86-1.8-.53-1.95-.19-2.12v-23.01zM341.87 285.49l2.11.2 1.93.53 1.8.86 1.62 1.16 1.38 1.38 1.15 1.63.85 1.81.53 1.94.2 2.12v87.03l.17 1.99.46 1.83.76 1.71 1.01 1.57 1.23 1.35 1.44 1.17v35.58l.19 2.1.53 1.92.85 1.79 1.14 1.61 1.37 1.37 1.62 1.14 1.78.85 1.92.53 2.1.19h29.71v10h-29.71l-2.1.2-1.92.52-1.78.85-1.62 1.14-1.37 1.37-1.14 1.62-.85 1.78-.53 1.92-.19 2.1v13.9l-1.44 1.17-1.23 1.36-1.01 1.57-.76 1.71-.46 1.83-.17 1.98v38.97l-.2 2.12-.53 1.94-.85 1.81-1.15 1.63-1.38 1.38-1.62 1.16-1.8.86-1.93.53-2.11.2-2.12-.2-1.93-.53-1.79-.86-1.63-1.16-1.37-1.38-1.15-1.63-.86-1.81-.53-1.94-.19-2.12V413.15l-.2-2.12-.53-1.95-.85-1.8-1.16-1.63-1.37-1.39-1.63-1.15-1.79-.86-1.93-.53-2.12-.2-2.11.2-1.93.53-1.8.86-1.62 1.15-1.38 1.39-1.15 1.63-.85 1.8-.53 1.95-.2 2.12v87.47l-.19 2.13-.53 1.94-.86 1.8-1.15 1.64-1.37 1.38-1.63 1.16-1.79.86-1.94.53-2.11.19-2.11-.19-1.94-.53-1.79-.86-1.62-1.16-1.38-1.38-1.15-1.64-.86-1.8-.52-1.94-.2-2.13v-37.06l1.09-5.83.67-5.99.24-6.16-.24-6.16-.67-5.99-1.09-5.83V318.81l.2-2.12.52-1.95.86-1.8 1.15-1.63 1.38-1.39 1.62-1.15 1.79-.86 1.94-.53 2.11-.2 2.11.2 1.94.53 1.79.86 1.63 1.15 1.37 1.39 1.15 1.63.86 1.8.53 1.95.19 2.12v9.57l.2 2.12.53 1.95.85 1.8 1.15 1.63 1.38 1.39 1.62 1.15 1.8.86 1.93.53 2.11.2 2.12-.2 1.93-.53 1.79-.86 1.63-1.15 1.38-1.39 1.15-1.63.85-1.8.53-1.95.2-2.12v-31.26l.19-2.12.53-1.94.86-1.81 1.15-1.63 1.37-1.38 1.63-1.16 1.79-.86 1.93-.53zm232.78-33.84 2.11.2 1.94.53 1.79.86 1.63 1.16 1.37 1.39 1.15 1.64.86 1.8.53 1.95.19 2.13v47.34h-3.21l-2.1.2-1.92.52-1.78.85-1.62 1.14-1.37 1.37-1.14 1.62-.85 1.78-.53 1.92-.19 2.1v171l.06 1.14-2.36-.95-2-1.36-1.72-1.8-1.3-2.12-.8-2.35-.31-2.65v-14.79l-.2-2.12-.52-1.95-.86-1.81-1.15-1.64-1.38-1.39-1.62-1.15-1.79-.87-1.94-.53-2.11-.2-2.11.2-1.94.53-1.79.87-1.62 1.15-1.38 1.39-1.15 1.64-.86 1.81-.52 1.95-.2 2.12v54.72l-.2 2.13-.53 1.95-.85 1.81-1.15 1.63-1.38 1.39-1.62 1.16-1.8.86-1.93.53-2.11.2-2.12-.2-1.93-.53-1.79-.86-1.63-1.16-1.37-1.39-1.15-1.63-.86-1.81-.53-1.95-.19-2.13V413.15l-.2-2.13-.53-1.95-.85-1.8-1.16-1.64-1.37-1.39-1.63-1.16-1.79-.86-1.93-.53-2.12-.2-2.47.28-2.22.72-2.02 1.18v-11.32l-.2-2.1-.52-1.92-.85-1.78-1.14-1.62-1.37-1.37-1.62-1.14-1.78-.85-1.92-.52-2.1-.2h-16.5v-10h16.5l2.1-.19 1.92-.53 1.78-.85 1.62-1.14 1.37-1.37 1.14-1.61.85-1.79.52-1.92.2-2.1v-22.79l2.02 1.17 2.22.73 2.47.27 2.12-.19 1.93-.54 1.79-.86 1.63-1.16 1.37-1.38 1.16-1.64.85-1.81.53-1.95.2-2.13v-31.33l.19-2.13.53-1.95.86-1.81 1.15-1.63 1.37-1.39 1.63-1.16 1.79-.86 1.93-.53 2.12-.2 2.11.2 1.93.53 1.8.86 1.62 1.16 1.38 1.39 1.15 1.63.85 1.81.53 1.95.2 2.13v76.75l.2 2.13.52 1.95.86 1.81 1.15 1.63 1.38 1.39 1.62 1.16 1.79.86 1.94.53 2.11.2 2.11-.2 1.94-.53 1.79-.86 1.62-1.16 1.38-1.39 1.15-1.63.86-1.81.52-1.95.2-2.13V263.31l.2-2.13.53-1.95.85-1.8 1.15-1.64 1.38-1.39 1.62-1.16 1.8-.86 1.93-.53zm-315.14 254.4v6.7l-.2 2.13-.53 1.94-.85 1.8-1.15 1.64-1.38 1.38-1.62 1.16-1.79.86-1.94.53-2.11.19-2.66-.31-2.41-.86-2.14-1.36-1.79-1.79 5.58-2.95 5.27-3.31 5-3.68zm466-31.4v16h-23.14v-16zm-580.5-71.22 1.42 2.37 1.77 2.2 1.99 1.91 2.2 1.61 2.4 1.32 2.53.99 2.69.66 4.25.69 3.76.11 3.58-.31 2.92-.57 2.64-.77 1.79-.67 1.78-.84.11-.06 3.42-2.04 3.55-1.68 3.71-1.32 3.81-.95 3.9-.57 3.99-.2 4.19.23 4 .6 3.83.99 3.68 1.35 3.56 1.72 3.31 2.01 3.09 2.3 2.88 2.61 2.62 2.87 2.31 3.08 2.01 3.3 1.72 3.55 1.36 3.68.99 3.82.6 3.98.23 4.18-.23 4.25-.64 4.07-1.04 3.91-1.43 3.79-1.78 3.57-2.11 3.36v-37.24l-.2-2.13-.53-1.94-.85-1.8-1.15-1.63-1.38-1.39-1.62-1.15-1.8-.86-1.93-.53-2.11-.2-2.12.2-1.93.53-1.79.86-1.63 1.15-1.38 1.39-1.15 1.63-.85 1.8-.53 1.94-.2 2.13v48.36l-.33 2.75-.91 2.48-4.29.71-4.47.25-4.26-.22-4.1-.64-3.96-1.04-.6-2.06-.22-2.23v-30.98l-.2-2.12-.52-1.94-.86-1.81-1.15-1.63-1.38-1.38-1.62-1.16-1.79-.86-1.94-.53-2.11-.2-2.11.2-1.94.53-1.79.86-1.62 1.16-1.38 1.38-1.15 1.63-.86 1.81-.53 1.94-.19 2.12v14.58l-1.2-2.7-1.02-2.83-.02-.07-1.28-4.81-1.61-4-1.91-3.3-2.2-2.7-2.1-1.89-2.3-1.5-2.52-1.15-2.78-.79-3.07-.42.08-1.27Zm568.93-79.41 2.11.2 1.94.53 1.79.86 1.62 1.15 1.38 1.39 1.15 1.63.85 1.8.53 1.95.2 2.12v125h-14V324.28zM446.01 440.85v10h-23.14v-10zM259.51 327.9v57.2l-3.7-3.23-3.89-3.01-4.08-2.79-4.23-2.54-4.39-2.29-4.56-2.04.92-1.85.57-2.01.22-2.2v-33.68h15.19l2.8-.19 2.64-.52zm186.5 42.95v10h-69.43v-10zm-232.79-41.39v33.68l.03.49-4.96-.46-5.07-.17-6.28.25-6.38.75 6.1-34.54zM109.08 311.8l2.59.3 2.31.8 2.09 1.28h-5.86l-2.27.3-2.01.86-1.72 1.33-1.33 1.72-.86 2.01-.31 2.28v3.19l.31 2.28.86 2.01 1.33 1.72 1.72 1.33 2.01.85 2.27.31h4.54l.29-.03 1.97-.19h5.87l1.81 1.97 2.21 1.51 1.65.71 1.77.43 1.9.16 1.91-.16 1.77-.43 1.64-.71 2.22-1.51 1.8-1.97h19.45l2.19.25 1.96.66 1.78 1.06v15.39l.27 2.51.77 2.29-1.47 1.18-1.68.9-1.83.56-1.99.2h-63.5v-35.72l.2-2.12.52-1.95.86-1.8 1.15-1.63 1.38-1.39 1.62-1.15 1.79-.86 1.94-.53zm46.29-58.15 2.11.2 1.93.53 1.8.86 1.62 1.15 1.38 1.39 1.15 1.63.85 1.8.53 1.95.2 2.12v25.64l-2.19 1.71-1.94 1.96-1.69 2.22-1.38 2.42-1.04 2.6-.71 2.8-1.69 9.55h-12.5v-48.9l.19-2.12.53-1.95.86-1.8 1.15-1.63 1.37-1.39 1.63-1.15 1.79-.86 1.93-.53zm232.78-.5 2.11.2 1.94.53 1.79.86 1.63 1.15 1.37 1.39 1.15 1.63.86 1.8.53 1.95.19 2.12v46.07h-23.14v-46.07l.2-2.12.53-1.95.85-1.8 1.15-1.63 1.38-1.39 1.62-1.15 1.8-.86 1.93-.53zm279.5 47.71 1.91.16 1.77.44 1.65.7 2.21 1.52 1.81 1.97 1.31 2.34.76 2.66h-22.83l.76-2.66 1.31-2.34 1.8-1.97 2.22-1.52 1.65-.7 1.76-.44zm-419.71-35.58 2.11.2 1.94.53 1.79.86 1.62 1.15 1.38 1.39 1.15 1.63.85 1.8.53 1.95.2 2.12v11.8l-2.51-.85-2.64-.52-2.8-.19h-15.19v-10.24l.19-2.12.53-1.95.86-1.8 1.15-1.63 1.37-1.39 1.63-1.15 1.79-.86 1.94-.53z"/><path fill="#a3b1bf" fill-rule="evenodd" d="m772.31 337.24 26.22-35.64 1.06-1.13 1.14-.67 1.27-.29 1.31.07 1.17.39 1.07.71.85.96.52 1.08.21 1.25-.13 1.27-.48 1.25-.9 1.28-2.45 2.37-5.29 4.94-9.37 9.02-14.69 14.46zm-2.78 4.88.95 1.05.6 1.17.26 1.34-.08 1.36-.42 1.24-.79 1.17-1.05.95-1.17.58-1.31.24-1.34-.1-1.23-.43-1.17-.8-.96-1.05-.6-1.16-.28-1.31.06-1.34.41-1.23.79-1.17 1.05-.95 1.17-.59 1.34-.27 1.36.08 1.24.42zm-93.13-89.18-1.66-1.45 9.2-13.33 2.41.97 1.63 1.09 3.73 2.96 3.09 1.93 2.56 1.11 2.14.49 2.22-.02 2.06-.57 1.97-1.14 1.93-1.82 1.45-2.02 1.12-2.37.7-2.55.28-2.62-.17-2.62-.61-2.51-.69-1.55-.93-1.38-1.19-1.23-1.78-1.34-2.16-1.22-2.11-1.16-1.37-1-1.32-1.5-.5-1.31.14-1.26.81-1.33 1.07-.91 1.18-.42 1.35.04 1.64.59 2.03 1.32 1.25 1.09 1.18 1.3 2 2.84 1.41 2.89.89 2.97.48 3.08.14 2.95-.18 2.83-.78 4.12-1.26 3.65-1.64 3.24-1.46 2.08-1.76 1.75-1.99 1.48-2.16 1.18-2.2.8-2.27.42-2.23.03-2.16-.39-1.94-.85-2.33-1.5-3.19-1.9-1.66-.69-1.6-.36-1.02.02-.92.33-.86.66zm-11.29 11.91-.96-1.05-.6-1.16-.28-1.31.06-1.33.41-1.23.79-1.18 1.05-.94 1.17-.6 1.34-.26 1.36.07 1.24.43 1.18.79.94 1.05.58 1.16.25 1.32-.1 1.33-.44 1.24-.8 1.17-1.05.95-1.15.59-1.29.26-1.31-.08-1.22-.42z"/><path fill="#a0c8ff" fill-opacity=".151" d="m353.83 480.36-11 2.74-10.25 2.04-9.54 1.41-8.9.8-8.3.27-7.04-.21-6.6-.6-6.2-.97-5.82-1.32-5.48-1.67 3.91-9.24 5.77 1.65 6.22 1.23 6.74.8 7.28.33 7.89-.18 8.55-.73 9.26-1.32 10.02-1.98 10.85-2.7 1.36-.17 1.26.16 1.18.49 1.03.77.77 1 .54 1.26.17 1.36-.16 1.25-.49 1.18-.77 1.03-.99.77z"/><path fill="#a3b1bf" fill-rule="evenodd" d="m353.83 480.36-11 2.74-10.25 2.04-9.54 1.41-8.9.8-8.3.27-8.32-.29-7.72-.84-7.15-1.36-6.65-1.84 4.16-9.19 5.71 1.5 6.14 1.1 6.63.69 7.16.24 7.73-.25 8.36-.76 9.02-1.33 9.75-1.96 10.53-2.62 1.36-.17 1.26.16 1.18.49 1.03.77.77 1 .54 1.26.17 1.36-.16 1.25-.49 1.18-.77 1.03-.99.77zm6.4-6.93-.85-1.99-1.27-1.62-1.63-1.23-1.89-.78-2.04-.28-2.15.29-10.52 2.62-9.71 1.93-8.96 1.31-8.27.74-7.63.21-7.03-.27-6.5-.72-5.99-1.13-5.54-1.53-6.09 14.86 5.59 1.67 5.94 1.33 6.3.97 6.7.6 7.13.2 8.47-.26 9.06-.82 9.71-1.43 10.41-2.07 11.15-2.78 1.99-.84 1.61-1.28 1.24-1.63.78-1.89.27-2.04z"/><path fill="#a3b1bf" fill-rule="evenodd" d="m305.85 484.12-7.97-.28-7.38-.79-6.84-1.28-6.35-1.74.91-2.86 5.96 1.64 6.42 1.22 6.91.78 7.45.31 8.05-.2 8.68-.76 9.38-1.35 10.12-2.01 10.92-2.71.61-.04.53.18.44.37.27.54.04.6-.19.54-.37.43-.53.27-10.82 2.7-10.07 2.01-9.36 1.38-8.71.79z"/><path fill="#a0c8ff" fill-opacity=".151" d="m360.87 412.87-5.7-1.02-5.27-1.32-4.87-1.61-4.51-1.89-4.4-2.3-3.95-2.52-3.52-2.76-3.12-2.99-2.81-3.33-2.35-3.53-1.91-3.74-1.47-3.98-.87-3.55-.5-3.52-.12-3.5.24-3.5.87-4.59 1.47-4.46 2.11-4.35 2.63-4.06 3.22-3.81 3.85-3.58 5.24-3.94 5.16-3.17 5.11-2.48 5.09-1.82 5.08-1.2 5.11-.62-.15 1.94-.01 3.07.1 3.07.16 1.93-3.95.52-3.97 1-4.03 1.5-4.09 2.03-4.19 2.63-4.31 3.26-2.85 2.64-2.38 2.8-1.96 2.97-1.57 3.18-1.1 3.24-.67 3.32-.2 3.39.28 3.37.77 3.39 1.1 2.96 1.45 2.79 1.8 2.64 2.17 2.52 3.29 2.97 3.86 2.7 4.53 2.42 4.76 1.94 5.31 1.59 5.93 1.23.14.27.16 1.28.11 3.36-.07 3.44z"/><path fill="#a3b1bf" fill-rule="evenodd" d="m359.78 326.79-5.3.7-5.26 1.31-5.26 1.92-5.27 2.58-5.32 3.29-5.39 4.05-3.17 2.88-2.79 3.01-2.42 3.16-2.07 3.31-1.76 3.52-1.38 3.58-1 3.66-.64 3.75-.25 3.79.13 3.79.54 3.81.95 3.85 1.55 4.21 1.99 3.96 2.44 3.72 2.91 3.52 3.24 3.17 3.64 2.93 4.07 2.69 4.54 2.44 4.65 2.02 5.03 1.74 5.43 1.43 5.86 1.11.37-.25.46-1.3.58-3.92.21-4.76-.07-2.31-.18-1.75-.39-1.42-.42-.41-5.32-1.19-4.77-1.49-4.27-1.78-4.05-2.21-3.46-2.43-2.92-2.66-2.52-3.02-1.92-3.22-1.37-3.45-.67-3-.24-2.98.19-3 .59-2.94 1-2.88 1.41-2.83 1.75-2.64 2.14-2.49 2.55-2.37 4.61-3.45 4.47-2.68 4.33-1.97 4.24-1.33 4.18-.73.25-.31.28-1.41.23-4-.05-4.75-.32-3.95-.33-1.35zm.01 13.04-4.54.77-4.59 1.42-4.68 2.1-4.79 2.86-4.95 3.7-2.85 2.64-2.38 2.8-1.96 2.97-1.57 3.18-1.1 3.24-.67 3.33-.2 3.38.28 3.37.77 3.39 1.08 2.91 1.42 2.76 1.76 2.61 2.12 2.49 3.21 2.94 3.77 2.68 4.42 2.41 4.64 1.95 5.19 1.61 5.78 1.26.52.44.43 1.3.18 1.61.02 1.91-.14 1.9-.28 1.51-.48 1.17-.47.26-5.54-1.07-5.13-1.35-4.75-1.64-4.39-1.9-4.28-2.29-3.84-2.51-3.43-2.74-3.04-2.96-2.74-3.28-2.29-3.48-1.86-3.68-1.45-3.92-.87-3.55-.49-3.52-.13-3.5.24-3.5.87-4.59 1.47-4.46 2.11-4.35 2.63-4.06 3.22-3.81 3.85-3.58 5.16-3.89 5.1-3.14 5.04-2.46 5.02-1.83 5.01-1.23 5.04-.65.09 1.56.12 3.43-.1 3.46-.27 1.29z"/><path fill="#a3b1bf" fill-rule="evenodd" d="m360.37 333.27-4.66.62-4.64 1.15-4.66 1.72-4.7 2.31-4.76 2.95-4.84 3.64-3.49 3.25-2.93 3.46-2.4 3.67-1.92 3.95-1.34 4.03-.8 4.15-.22 4.22.36 4.22.97 4.26 1.3 3.53 1.69 3.33 2.08 3.14 2.48 2.99 2.77 2.69 3.11 2.49 3.49 2.31 3.91 2.11 5.4 2.29 6 1.88 6.66 1.44.26.02.69-.2.42-.51.16-.68-.12-.71-.4-.58-.73-.33-6.25-1.36-5.61-1.76-5.05-2.13-4.78-2.66-4.11-2.95-3.49-3.27-2.32-2.75-1.93-2.9-1.56-3.06-1.2-3.24-.88-3.86-.32-3.83.21-3.83.74-3.77 1.23-3.67 1.76-3.59 2.19-3.35 2.68-3.15 3.2-2.97 4.39-3.33 4.32-2.71 4.25-2.15 4.2-1.63 4.18-1.13 4.18-.67.35-.21.31-.61.28-1.48-.02-.64zm339.64-22.62 2.1.2 1.92.52 1.78.85 1.62 1.14 1.37 1.37 1.14 1.62.85 1.78.52 1.92.2 2.1v138.5h21l1.87.25 1.66.71 1.42 1.09 1.09 1.42.71 1.66.25 1.87-.25 1.88-.71 1.65-1.09 1.42-1.42 1.09-1.66.71-1.87.25h-34l-2.14.29-1.9.8-1.62 1.25-1.25 1.62-.8 1.9-.29 2.14.29 2.14.8 1.9 1.25 1.62 1.62 1.25 1.9.8 2.14.29h48l1.87.25 1.66.71 1.42 1.09 1.09 1.42.71 1.66.25 1.87-.25 1.88-.71 1.65-1.09 1.42-1.42 1.09-1.66.71-1.87.25h-163.5l-2.1-.19-1.92-.53-1.78-.85-1.62-1.14-1.37-1.37-1.14-1.61-.85-1.79-.53-1.92-.19-2.1v-11.6l3-.31v11.91l.31 2.27.85 2.02 1.33 1.72 1.72 1.33 2.02.85 2.27.31h163.5l1.57-.32 1.26-.85.85-1.26.32-1.57-.32-1.57-.85-1.26-1.26-.85-1.57-.32h-48l-2.01-.19-1.83-.5-1.71-.81-1.54-1.1-1.31-1.31-1.1-1.54-.81-1.71-.5-1.83-.19-2.01.19-2 .5-1.84.81-1.71 1.1-1.54 1.31-1.31 1.54-1.1 1.71-.81 1.83-.5 2.01-.19h34l1.57-.32 1.26-.85.85-1.26.32-1.57-.32-1.57-.85-1.26-1.26-.85-1.57-.32h-24v-141.5l-.31-2.27-.85-2.02-1.33-1.72-1.72-1.33-2.02-.85-2.27-.31h-117l-2.27.31-2.02.85-1.72 1.33-1.33 1.72-.85 2.02-.31 2.27v148.99l-3 .35V322.15l.19-2.1.53-1.92.85-1.78 1.14-1.62 1.37-1.37 1.62-1.14 1.78-.85 1.92-.52 2.1-.2Z"/><path fill="#a0c8ff" fill-opacity=".151" d="m669.91 361.75-12.78-12.61 2.03-2 12.78 12.61zm-29.4 28.9h3v-18h-3zm-28.27-28.9-2.03-2 12.77-12.61 2.04 2zm87.78-48.1H582.94l-2.26.31-2 .84-1.7 1.32-1.32 1.7-.84 2-.31 2.26v90.57l.17 1.83.46 1.67.74 1.55.99 1.4 1.19 1.19 1.4 1 1.55.73 1.67.46 1.83.17h114l1.83-.17 1.67-.46 1.55-.73 1.4-1 1.19-1.19.99-1.4.74-1.55.46-1.67.17-1.83v-90.5l-.31-2.28-.85-2.01-1.33-1.72-1.72-1.33-2.01-.85z"/><path fill="#a3b1bf" fill-rule="evenodd" d="M645.51 366.65h-7l-1.57.32-1.26.85-.85 1.26-.32 1.57v22l.32 1.57.85 1.26 1.26.85 1.57.32h7l1.57-.32 1.26-.85.85-1.26.32-1.57v-22l-.32-1.57-.85-1.26-1.26-.85zm0 3 .71.29.29.71v22l-.29.71-.71.29h-7l-.71-.29-.29-.71v-22l.29-.71.71-.29z"/><path fill="#c4cedf" fill-rule="evenodd" d="M640.51 390.65h3v-18h-3zm5-21h-7l-.71.29-.29.71v22l.29.71.71.29h7l.71-.29.29-.71v-22l-.29-.71z"/><path fill="#a3b1bf" fill-rule="evenodd" d="m622.98 340.33-1.48.28-1.33.87-15.62 15.42-.04.04-.87 1.34-.28 1.5.3 1.49.89 1.33 4.88 4.81 1.33.87 1.48.28 1.48-.28 1.33-.87 15.62-15.42.04-.04.88-1.34.27-1.49-.29-1.5-.9-1.32-4.88-4.82-1.32-.87zm0 3 .71.29 4.88 4.81.29.71-.03.28-.26.43-15.63 15.42-.7.29-.7-.29-4.88-4.81-.3-.7.04-.29.26-.43 15.62-15.42z"/><path fill="#c4cedf" fill-rule="evenodd" d="m612.24 361.75-2.03-2 12.77-12.61 2.04 2zm16.33-13.32-4.88-4.81-.71-.29-.7.29-15.62 15.42-.26.43-.04.29.3.7 4.88 4.81.7.29.7-.29 15.63-15.41.26-.44.03-.28z"/><path fill="#a3b1bf" fill-rule="evenodd" d="m659.16 340.33-1.48.28-1.33.87-4.88 4.82-.89 1.32-.3 1.5.28 1.49.87 1.34.04.04 15.63 15.42 1.33.87 1.48.28 1.48-.28 1.33-.87 4.88-4.81.89-1.33.3-1.49-.28-1.5-.88-1.34-.03-.04-15.63-15.42-1.33-.87zm0 3 .7.29 15.63 15.42.26.43.04.29-.3.7-4.88 4.81-.7.29-.7-.29-15.63-15.42-.26-.43-.04-.28.3-.71 4.88-4.81z"/><path fill="#c4cedf" fill-rule="evenodd" d="m657.13 349.14 2.03-2 12.78 12.61-2.03 2zm-3.85 0 .04.28.26.43 15.63 15.42.7.29.7-.29 4.88-4.81.3-.7-.04-.29-.26-.43-15.63-15.42-.7-.29-.7.29-4.88 4.81z"/><path fill="#a3b1bf" fill-rule="evenodd" d="m589.01 424.65 1.37-.28 1.1-.74.75-1.11.28-1.37-.28-1.37-.75-1.1-1.1-.75-1.37-.28-1.37.28-1.11.75-.74 1.1-.28 1.37.28 1.37.74 1.11 1.11.74zm101-90 .98-.2.79-.53.53-.79.2-.98-.2-.98-.53-.79-.79-.53-.98-.2-.98.2-.79.53-.53.79-.2.98.2.98.53.79.79.53zm-97 0 .98-.2.79-.53.53-.79.2-.98-.2-.98-.53-.79-.79-.53-.98-.2-.98.2-.79.53-.53.79-.2.98.2.98.53.79.79.53zm20.18 132.62-4.81 3-5.08 2.67-5.36 2.35-5.51 1.99-5.62 1.64-5.74 1.29-5.8.93-5.75.56-5.7.18-5.29-.16-5.09-.5-4.92-.82-4.83-1.19-4.52-1.52-4.22-1.84-4.33-2.42-3.81-2.69-3.36-2.97-2.92-3.25-2.51-3.54-2.09-3.79-1.68-4.08-1.26-4.39-.84-4.74-.39-5.13-.35-5.32-.63-4.44-.85-3.65-1.19-3.58-1.3-2.91-1.39-2.34-1.65-2.18-1.63-1.74-1.61-1.34-2.57-1.64-2.27-1.04-.16-.54-.17-1.47-.13-3.61.06-3.41.16-1.26.13-.2 2.87.91 2.92 1.26 2.98 1.62 2.77 1.93 2.69 2.41 2.6 2.95 2.22 3.24 2.02 3.91 1.79 4.7 1.28 4.85.92 5.77.48 6.84.44 4.99.96 4.47 1.44 4.02 1.92 3.61 2.4 3.27 2.91 2.95 3.47 2.65 4.09 2.35 4.79 1.99 5.25 1.5 5.78 1 5.85.46 6.06-.02 6.29-.53 6.24-.99 6.13-1.46 6.06-1.93 5.87-2.39 5.48-2.8 5.11-3.2.95 1.24 1.81 2.93 1.65 3.03.5 1.23zm-6.88-11.04-4.89 3.04-5.24 2.66-5.61 2.27-5.77 1.82-5.85 1.39-5.93.95-5.98.5-5.76.02-5.56-.43-5.49-.95-4.98-1.42-4.55-1.89-3.69-2.12-3.14-2.4-2.63-2.68-2.18-2.96-1.73-3.29-1.31-3.65-.87-4.06-.4-4.54-.34-5.58-.62-4.92-.87-4.33-1.07-3.8-1.94-5.01-2.19-4.19-2.41-3.46-2.82-3.16-2.92-2.59-3.01-2.07-3.23-1.74-3.17-1.36-3.12-.99-.14.22-.3 1.39-.48 4-.32 4.88.05 4.22.28 1.55.34.51 1.91 1.04 1.89 1.44 1.91 1.88 1.6 2.13 1.51 2.77 1.38 3.54.97 3.67.72 4.64.4 5.77.43 5.41.9 5.02 1.37 4.69 1.82 4.39 2.27 4.11 2.73 3.84 3.14 3.51 3.58 3.18 4.05 2.88 4.57 2.57 4.52 1.98 4.79 1.62 5.09 1.27 5.17.88 5.35.54 5.53.17 5.98-.2 6.03-.6 6.09-1.02 6.01-1.4 5.89-1.79 5.78-2.17 5.62-2.56 5.34-2.92 5.07-3.28-.86-1.42-2.3-3.24-2.82-3.8-2.44-3.14z"/><path fill="#a0c8ff" fill-opacity=".151" d="m607.4 459.12-5.1 3.09-5.45 2.69-5.82 2.29-5.99 1.84-6.05 1.38-6.14.94-6.19.48-5.97-.01-5.75-.48-5.68-1-5.17-1.5-4.71-1.96-4.09-2.35-3.47-2.65-2.91-2.95-2.4-3.27-1.92-3.62-1.44-4.01-.96-4.47-.44-4.99-.47-6.73-.89-5.71-1.25-4.8-1.75-4.65-1.96-3.9-2.17-3.23-2.54-2.95-2.63-2.43-2.71-1.95-2.93-1.65-2.87-1.29-2.84-.95v10.52l2.25 1.08 2.53 1.7 2.36 2.19 2.38 3.11 1.35 2.34 1.25 2.89 1.14 3.54.82 3.6.6 4.35.34 5.2.39 5.13.84 4.74 1.26 4.39 1.68 4.08 2.09 3.79 2.51 3.54 2.92 3.25 3.36 2.97 3.81 2.69 4.33 2.42 4.22 1.84 4.52 1.52 4.83 1.19 4.92.82 5.09.5 5.29.17 5.69-.19 5.74-.56 5.8-.92 5.73-1.29 5.62-1.64 5.5-1.98 5.36-2.35 5.07-2.67 4.81-2.98v-.33l-.57-1.17-1.87-2.89-2.08-2.74-.92-.94z"/><path fill="#a3b1bf" fill-rule="evenodd" d="m563.88 478.43-5.02-.16-4.83-.47-4.66-.78-4.59-1.12-4.28-1.44-4-1.75-3.96-2.22-3.5-2.46-3.07-2.72-2.67-2.98-2.31-3.25-1.91-3.48-1.54-3.75-1.15-4.03-.77-4.35-.36-4.72-.36-5.67-.72-4.97-1.02-4.34-1.31-3.78-1.56-3.29-2.04-3.17-2.36-2.7-2.68-2.29-3.03-1.89-3.44-1.5-.45-.38-.27-.69-.08-.8.1-.71.27-.52.38-.08 3.81 1.51 3.39 1.91 3.01 2.32 2.67 2.73 2.33 3.19 2.01 3.7 1.67 4.27 1.31 4.92.91 5.66.46 6.49.33 4.36.71 4.02 1.06 3.72 1.42 3.46 1.76 3.21 2.12 3.01 2.47 2.74 2.83 2.51 3.22 2.28 3.65 2.04 5.02 2.11 5.45 1.6 5.92 1.1 6.01.55 6.2.05 6.43-.46 6.37-.94 6.3-1.42 6.24-1.9 6.07-2.38 5.72-2.81 5.42-3.24.39-.03.55.34.86 1.15.16.6-.16.34-4.6 2.82-4.84 2.51-5.1 2.21-5.24 1.88-5.33 1.54-5.45 1.21-5.5.88-5.44.52z"/><path fill="#a0c8ff" fill-opacity=".151" d="m470.51 350.65-1.82-.17-1.67-.46-1.55-.74-1.41-.99-1.19-1.19-.99-1.41-.74-1.55-.46-1.67-.17-1.82.17-1.82.46-1.67.74-1.55.99-1.41 1.19-1.19 1.41-.99 1.55-.74 1.67-.46 1.82-.17 1.82.17 1.67.46 1.55.74 1.41.99 1.19 1.19.99 1.41.74 1.55.46 1.67.17 1.82-.17 1.82-.46 1.67-.74 1.55-.99 1.41-1.19 1.19-1.41.99-1.55.74-1.67.46zm14-29.8h-112l-1.57.32-1.26.85-.85 1.26-.32 1.57v32l.32 1.57.85 1.26 1.26.85 1.57.32h112l1.57-.32 1.26-.85.85-1.26.32-1.57v-32l-.32-1.57-.85-1.26-1.26-.85z"/><path fill="#a3b1bf" fill-rule="evenodd" d="M487.01 310.85h-117l-2.1.2-1.92.52-1.78.85-1.62 1.14-1.37 1.37-1.14 1.62-.85 1.78-.53 1.92-.19 2.1v37l.19 2.1.53 1.92.85 1.79 1.14 1.61 1.37 1.37 1.62 1.14 1.78.85 1.92.53 2.1.19h117l2.1-.19 1.92-.53 1.78-.85 1.62-1.14 1.37-1.37 1.14-1.61.85-1.79.52-1.92.2-2.1v-37l-.2-2.1-.52-1.92-.85-1.78-1.14-1.62-1.37-1.37-1.62-1.14-1.78-.85-1.92-.52zm0 3 2.27.31 2.02.85 1.72 1.33 1.33 1.72.85 2.02.31 2.27v37l-.31 2.28-.85 2.01-1.33 1.72-1.72 1.33-2.02.85-2.27.31h-117l-2.27-.31-2.02-.85-1.72-1.33-1.33-1.72-.85-2.01-.31-2.28v-37l.31-2.27.85-2.02 1.33-1.72 1.72-1.33 2.02-.85 2.27-.31z"/><path fill="#a3b1bf" fill-rule="evenodd" d="m435.01 323.85.59.12.47.32.32.47.12.59v31l-.12.59-.32.47-.47.32-.59.12-.59-.12-.47-.32-.32-.47-.12-.59v-31l.12-.59.32-.47.47-.32zm12 0 .59.12.47.32.32.47.12.59v31l-.12.59-.32.47-.47.32-.59.12-.59-.12-.47-.32-.32-.47-.12-.59v-31l.12-.59.32-.47.47-.32zm-23.5 17-.19 1.36-.49 1.16-.78 1.02-1.02.78-1.16.49-1.36.19-1.36-.19-1.16-.49-1.02-.78-.78-1.02-.49-1.16-.19-1.36.19-1.36.49-1.16.78-1.01 1.02-.79 1.16-.49 1.36-.19 1.36.19 1.16.49 1.02.79.78 1.01.49 1.16zm-20 0-.19 1.36-.49 1.16-.78 1.02-1.02.78-1.16.49-1.36.19-1.36-.19-1.16-.49-1.02-.78-.78-1.02-.49-1.16-.19-1.36.19-1.36.49-1.16.78-1.01 1.02-.79 1.16-.49 1.36-.19 1.36.19 1.16.49 1.02.79.78 1.01.49 1.16zm-20 0-.19 1.36-.49 1.16-.78 1.02-1.02.78-1.16.49-1.36.19-1.36-.19-1.16-.49-1.02-.78-.78-1.02-.49-1.16-.19-1.36.19-1.36.49-1.16.78-1.01 1.02-.79 1.16-.49 1.36-.19 1.36.19 1.16.49 1.02.79.78 1.01.49 1.16zm87-13.2-2.37.22-2.18.59-2.01.97-1.83 1.29-1.54 1.54-1.3 1.83-.96 2.01-.59 2.18-.22 2.37.22 2.37.59 2.18.96 2.01 1.3 1.83 1.54 1.54 1.83 1.3 2.01.96 2.18.59 2.37.22 2.37-.22 2.18-.59 2.01-.96 1.83-1.3 1.54-1.54 1.29-1.83.97-2.01.59-2.18.22-2.37-.22-2.37-.59-2.18-.97-2.01-1.29-1.83-1.54-1.54-1.83-1.29-2.01-.97-2.18-.59zm0 3 1.82.17 1.67.46 1.55.74 1.41.99 1.19 1.19.99 1.41.74 1.55.46 1.67.17 1.82-.17 1.82-.46 1.67-.74 1.55-.99 1.41-1.19 1.19-1.41.99-1.55.74-1.67.46-1.82.17-1.82-.17-1.67-.46-1.55-.74-1.41-.99-1.19-1.19-.99-1.41-.74-1.55-.46-1.67-.17-1.82.17-1.82.46-1.67.74-1.55.99-1.41 1.19-1.19 1.41-.99 1.55-.74 1.67-.46z"/><path fill="#a0c8ff" fill-opacity=".151" d="m470.51 420.65-1.82-.17-1.67-.46-1.55-.74-1.41-.99-1.19-1.19-.99-1.41-.74-1.55-.46-1.67-.17-1.82.17-1.82.46-1.67.74-1.55.99-1.41 1.19-1.19 1.41-.99 1.55-.74 1.67-.46 1.82-.17 1.82.17 1.67.46 1.55.74 1.41.99 1.19 1.19.99 1.41.74 1.55.46 1.67.17 1.82-.17 1.82-.46 1.67-.74 1.55-.99 1.41-1.19 1.19-1.41.99-1.55.74-1.67.46zm14-29.8h-112l-1.57.32-1.26.85-.85 1.26-.32 1.57v32l.32 1.57.85 1.26 1.26.85 1.57.32h112l1.57-.32 1.26-.85.85-1.26.32-1.57v-32l-.32-1.57-.85-1.26-1.26-.85z"/><path fill="#a3b1bf" fill-rule="evenodd" d="M487.01 380.85h-117l-2.1.2-1.92.52-1.78.85-1.62 1.14-1.37 1.37-1.14 1.62-.85 1.78-.53 1.92-.19 2.1v37l.19 2.1.53 1.92.85 1.79 1.14 1.61 1.37 1.37 1.62 1.14 1.78.85 1.92.53 2.1.19h117l2.1-.19 1.92-.53 1.78-.85 1.62-1.14 1.37-1.37 1.14-1.61.85-1.79.52-1.92.2-2.1v-37l-.2-2.1-.52-1.92-.85-1.78-1.14-1.62-1.37-1.37-1.62-1.14-1.78-.85-1.92-.52zm0 3 2.27.31 2.02.85 1.72 1.33 1.33 1.72.85 2.02.31 2.27v37l-.31 2.28-.85 2.01-1.33 1.72-1.72 1.33-2.02.85-2.27.31h-117l-2.27-.31-2.02-.85-1.72-1.33-1.33-1.72-.85-2.01-.31-2.28v-37l.31-2.27.85-2.02 1.33-1.72 1.72-1.33 2.02-.85 2.27-.31z"/><path fill="#a3b1bf" fill-rule="evenodd" d="m435.01 393.85.59.12.47.32.32.47.12.59v31l-.12.59-.32.47-.47.32-.59.12-.59-.12-.47-.32-.32-.47-.12-.59v-31l.12-.59.32-.47.47-.32zm12 0 .59.12.47.32.32.47.12.59v31l-.12.59-.32.47-.47.32-.59.12-.59-.12-.47-.32-.32-.47-.12-.59v-31l.12-.59.32-.47.47-.32zm-23.5 17-.19 1.36-.49 1.16-.78 1.02-1.02.78-1.16.49-1.36.19-1.36-.19-1.16-.49-1.02-.78-.78-1.02-.49-1.16-.19-1.36.19-1.36.49-1.16.78-1.01 1.02-.79 1.16-.49 1.36-.19 1.36.19 1.16.49 1.02.79.78 1.01.49 1.16zm-20 0-.19 1.36-.49 1.16-.78 1.02-1.02.78-1.16.49-1.36.19-1.36-.19-1.16-.49-1.02-.78-.78-1.02-.49-1.16-.19-1.36.19-1.36.49-1.16.78-1.01 1.02-.79 1.16-.49 1.36-.19 1.36.19 1.16.49 1.02.79.78 1.01.49 1.16zm-20 0-.19 1.36-.49 1.16-.78 1.02-1.02.78-1.16.49-1.36.19-1.36-.19-1.16-.49-1.02-.78-.78-1.02-.49-1.16-.19-1.36.19-1.36.49-1.16.78-1.01 1.02-.79 1.16-.49 1.36-.19 1.36.19 1.16.49 1.02.79.78 1.01.49 1.16zm87-13.2-2.37.22-2.18.59-2.01.97-1.83 1.29-1.54 1.54-1.3 1.83-.96 2.01-.59 2.18-.22 2.37.22 2.37.59 2.18.96 2.01 1.3 1.83 1.54 1.54 1.83 1.3 2.01.96 2.18.59 2.37.22 2.37-.22 2.18-.59 2.01-.96 1.83-1.3 1.54-1.54 1.29-1.83.97-2.01.59-2.18.22-2.37-.22-2.37-.59-2.18-.97-2.01-1.29-1.83-1.54-1.54-1.83-1.29-2.01-.97-2.18-.59zm0 3 1.82.17 1.67.46 1.55.74 1.41.99 1.19 1.19.99 1.41.74 1.55.46 1.67.17 1.82-.17 1.82-.46 1.67-.74 1.55-.99 1.41-1.19 1.19-1.41.99-1.55.74-1.67.46-1.82.17-1.82-.17-1.67-.46-1.55-.74-1.41-.99-1.19-1.19-.99-1.41-.74-1.55-.46-1.67-.17-1.82.17-1.82.46-1.67.74-1.55.99-1.41 1.19-1.19 1.41-.99 1.55-.74 1.67-.46z"/><path fill="#a0c8ff" fill-opacity=".151" d="m470.51 490.65-1.82-.17-1.67-.46-1.55-.74-1.41-.99-1.19-1.19-.99-1.41-.74-1.55-.46-1.67-.17-1.82.17-1.82.46-1.67.74-1.55.99-1.41 1.19-1.19 1.41-.99 1.55-.74 1.67-.46 1.82-.17 1.82.17 1.67.46 1.55.74 1.41.99 1.19 1.19.99 1.41.74 1.55.46 1.67.17 1.82-.17 1.82-.46 1.67-.74 1.55-.99 1.41-1.19 1.19-1.41.99-1.55.74-1.67.46zm14-29.8h-112l-1.57.32-1.26.85-.85 1.26-.32 1.57v32l.32 1.57.85 1.26 1.26.85 1.57.32h112l1.57-.32 1.26-.85.85-1.26.32-1.57v-32l-.32-1.57-.85-1.26-1.26-.85z"/><path fill="#a3b1bf" fill-rule="evenodd" d="M487.01 450.85h-117l-2.1.2-1.92.52-1.78.85-1.62 1.14-1.37 1.37-1.14 1.62-.85 1.78-.53 1.92-.19 2.1v37l.19 2.1.53 1.92.85 1.79 1.14 1.61 1.37 1.37 1.62 1.14 1.78.85 1.92.53 2.1.19h117l2.1-.19 1.92-.53 1.78-.85 1.62-1.14 1.37-1.37 1.14-1.61.85-1.79.52-1.92.2-2.1v-37l-.2-2.1-.52-1.92-.85-1.78-1.14-1.62-1.37-1.37-1.62-1.14-1.78-.85-1.92-.52zm0 3 2.27.31 2.02.85 1.72 1.33 1.33 1.72.85 2.02.31 2.27v37l-.31 2.28-.85 2.01-1.33 1.72-1.72 1.33-2.02.85-2.27.31h-117l-2.27-.31-2.02-.85-1.72-1.33-1.33-1.72-.85-2.01-.31-2.28v-37l.31-2.27.85-2.02 1.33-1.72 1.72-1.33 2.02-.85 2.27-.31z"/><path fill="#a3b1bf" fill-rule="evenodd" d="m435.01 463.85.59.12.47.32.32.47.12.59v31l-.12.59-.32.47-.47.32-.59.12-.59-.12-.47-.32-.32-.47-.12-.59v-31l.12-.59.32-.47.47-.32zm12 0 .59.12.47.32.32.47.12.59v31l-.12.59-.32.47-.47.32-.59.12-.59-.12-.47-.32-.32-.47-.12-.59v-31l.12-.59.32-.47.47-.32zm-23.5 17-.19 1.36-.49 1.16-.78 1.02-1.02.78-1.16.49-1.36.19-1.36-.19-1.16-.49-1.02-.78-.78-1.02-.49-1.16-.19-1.36.19-1.36.49-1.16.78-1.01 1.02-.79 1.16-.49 1.36-.19 1.36.19 1.16.49 1.02.79.78 1.01.49 1.16zm-20 0-.19 1.36-.49 1.16-.78 1.02-1.02.78-1.16.49-1.36.19-1.36-.19-1.16-.49-1.02-.78-.78-1.02-.49-1.16-.19-1.36.19-1.36.49-1.16.78-1.01 1.02-.79 1.16-.49 1.36-.19 1.36.19 1.16.49 1.02.79.78 1.01.49 1.16zm-20 0-.19 1.36-.49 1.16-.78 1.02-1.02.78-1.16.49-1.36.19-1.36-.19-1.16-.49-1.02-.78-.78-1.02-.49-1.16-.19-1.36.19-1.36.49-1.16.78-1.01 1.02-.79 1.16-.49 1.36-.19 1.36.19 1.16.49 1.02.79.78 1.01.49 1.16zm87-13.2-2.37.22-2.18.59-2.01.97-1.83 1.29-1.54 1.54-1.3 1.83-.96 2.01-.59 2.18-.22 2.37.22 2.37.59 2.18.96 2.01 1.3 1.83 1.54 1.54 1.83 1.3 2.01.96 2.18.59 2.37.22 2.37-.22 2.18-.59 2.01-.96 1.83-1.3 1.54-1.54 1.29-1.83.97-2.01.59-2.18.22-2.37-.22-2.37-.59-2.18-.97-2.01-1.29-1.83-1.54-1.54-1.83-1.29-2.01-.97-2.18-.59zm0 3 1.82.17 1.67.46 1.55.74 1.41.99 1.19 1.19.99 1.41.74 1.55.46 1.67.17 1.82-.17 1.82-.46 1.67-.74 1.55-.99 1.41-1.19 1.19-1.41.99-1.55.74-1.67.46-1.82.17-1.82-.17-1.67-.46-1.55-.74-1.41-.99-1.19-1.19-.99-1.41-.74-1.55-.46-1.67-.17-1.82.17-1.82.46-1.67.74-1.55.99-1.41 1.19-1.19 1.41-.99 1.55-.74 1.67-.46zm-329 49 .98.2.79.53.53.79.2.98v10l-.2.98-.53.79-.79.53-.98.2-.98-.2-.79-.53-.53-.79-.2-.98v-10l.2-.98.53-.79.79-.53zm-8-8-.2.98-.53.79-.79.53-.98.2h-10l-.98-.2-.79-.53-.53-.79-.2-.98.2-.98.53-.79.79-.53.98-.2h10l.98.2.79.53.53.79zm255-271 .98.2.79.53.53.79.2.98v10l-.2.98-.53.79-.79.53-.98.2-.98-.2-.79-.53-.53-.79-.2-.98v-10l.2-.98.53-.79.79-.53zm0 31 .98.2.79.53.53.79.2.98v10l-.2.98-.53.79-.79.53-.98.2-.98-.2-.79-.53-.53-.79-.2-.98v-10l.2-.98.53-.79.79-.53zm23-8-.2.98-.53.79-.79.53-.98.2h-10l-.98-.2-.79-.53-.53-.79-.2-.98.2-.98.53-.79.79-.53.98-.2h10l.98.2.79.53.53.79zm-31 0-.2.98-.53.79-.79.53-.98.2h-10l-.98-.2-.79-.53-.53-.79-.2-.98.2-.98.53-.79.79-.53.98-.2h10l.98.2.79.53.53.79zm172-212 .98.2.79.53.53.79.2.98v10l-.2.98-.53.79-.79.53-.98.2-.98-.2-.79-.53-.53-.79-.2-.98v-10l.2-.98.53-.79.79-.53zm0 31 .98.2.79.53.53.79.2.98v10l-.2.98-.53.79-.79.53-.98.2-.98-.2-.79-.53-.53-.79-.2-.98v-10l.2-.98.53-.79.79-.53zm23-8-.2.98-.53.79-.79.53-.98.2h-10l-.98-.2-.79-.53-.53-.79-.2-.98.2-.98.53-.79.79-.53.98-.2h10l.98.2.79.53.53.79zm-31 0-.2.98-.53.79-.79.53-.98.2h-10l-.98-.2-.79-.53-.53-.79-.2-.98.2-.98.53-.79.79-.53.98-.2h10l.98.2.79.53.53.79zm-420.07 383.4 1.22 6.13 1.68 5.95 2.14 5.8 2.59 5.61 3 5.38 3.43 5.16 3.82 4.88 4.2 4.58 4.59 4.28 4.99 3.96 5.22 3.51 5.48 3.08 5.7 2.65 5.87 2.17 6.05 1.72 6.17 1.24 6.26.75 6.37.25 6.62-.28 6.39-.77 6.18-1.27 6.01-1.74 5.87-2.22 5.59-2.63 5.34-3.02 5.09-3.44 4.83-3.82 4.48-4.14 4.14-4.47 3.83-4.81 3.45-5.08 3.04-5.32 2.63-5.58 2.22-5.86 1.75-5.99 1.27-6.17.78-6.37.28-6.59-.28-6.6-.78-6.37-1.27-6.17-1.75-5.99-2.22-5.85-2.63-5.58-3.04-5.33-3.45-5.08-3.83-4.81-4.14-4.46-4.48-4.14-4.83-3.82-5.09-3.44-5.34-3.03-5.59-2.62-5.87-2.22-6.01-1.75-6.18-1.26-6.39-.78-6.62-.28-4.69.15-4.75.43-4.8.72-2.12.39 7.29-41.23h57.41l3.32-.31 3.05-.83 2.82-1.34 2.55-1.81 2.17-2.16 1.81-2.55 1.35-2.81.83-3.04.31-3.3-.31-3.31-.83-3.04-1.35-2.81-1.81-2.55-2.17-2.16-2.55-1.81-2.82-1.34-3.05-.83-3.32-.31h-71.89l-.18.01-.3.02-.25-.01-2.91.25-2.73.66-2.59 1.07-2.4 1.46-2.12 1.76-1.86 2.09-1.52 2.34-1.12 2.55-.75 2.8-2.12 12.03h-48.61l-1.49.21-1.28.53-1.11.87-.87 1.12-.53 1.27-.22 1.5v3.19l.22 1.49.53 1.28.87 1.12 1.11.87 1.28.53 1.49.21h4.4l2.4-.22h44l2.37.22 2.17.6 2.02.96 1.82 1.29 1.55 1.55 1.29 1.83.96 2.01.6 2.17.22 2.37v5l-.22 2.37-.6 2.17-.96 2.02-1.29 1.82-1.55 1.55-1.82 1.29-2.02.97-2.17.59-2.37.22h-70.5l-1.44.23-1.26.59-1.15.98-.88 1.22-.55 1.38-.22 1.58v3.19l.21 1.49.54 1.28.86 1.12 1.12.87 1.28.53 1.49.21h57.76l-2.42 13.7-.26 2.4.05 2.35.36 2.32.67 2.25.95 2.16 1.26 2.07 1.53 1.9 1.7 1.63 1.9 1.39 2.07 1.14 2.19.85 2.35.57 3.72.62 3.32.12 3.16-.25 2.61-.48 2.37-.64 1.65-.59 1.78-.79 3.67-2.19 3.81-1.79 3.97-1.41 4.09-1.01 4.17-.62 4.28-.21 4.5.24 4.29.66 4.12 1.05 3.96 1.46 3.82 1.84 3.56 2.16 3.32 2.47 3.09 2.81 2.81 3.08 2.48 3.31 2.17 3.55 1.84 3.81 1.47 3.95 1.05 4.11.66 4.28.24 4.49-.24 4.48-.66 4.28-1.05 4.11-1.47 3.95-1.84 3.81-2.17 3.55-2.48 3.31-2.81 3.09-3.09 2.8-3.32 2.48-3.56 2.15-3.82 1.85-3.96 1.46-4.12 1.05-4.29.65-4.5.24-4.67-.25-4.47-.7-4.3-1.14-4.14-1.58-3.97-2-3.69-2.35-3.43-2.72-3.18-3.09-2.83-3.39-2.47-3.67-2.11-3.98-1.75-4.3h-.15l-.26-1.21-1.25-4.78-1.59-3.85-1.87-3.08-2.14-2.42-2.41-1.86-2.72-1.33-3.09-.83-3.54-.3-3.41.31-3.13.83-2.89 1.33-2.63 1.8-2.23 2.15-1.86 2.52-1.4 2.8-.86 3.02zm78.78 70.1-6.61-.26-6.5-.78-6.4-1.28-6.28-1.79-6.08-2.26-5.92-2.74-5.69-3.19-5.41-3.65-5.18-4.11-4.77-4.45-4.37-4.76-3.97-5.08-3.56-5.37-3.12-5.59-2.68-5.85-2.22-6.03-1.74-6.19-1.26-6.37-.02-.23.22-2.92.57-2.73.91-2.58 1.27-2.44 2.16-2.96 2.59-2.52 3.06-2.11 2.5-1.23 2.64-.9 2.82-.55 3.01-.22 3.39.24 3.04.65 2.75 1.06 2.5 1.45 2.27 1.86 1.94 2.14 1.73 2.56 1.53 3.01 1.3 3.54 1.06 4.13.02.07 1.57 4.14 1.93 3.82 2.28 3.54 2.64 3.27 2.97 2.98 3.22 2.62 3.48 2.27 3.75 1.93 3.92 1.53 4.06 1.1 4.24.68 4.44.24 4.19-.22 4-.61 3.83-.98 3.68-1.36 3.56-1.71 3.31-2.01 3.09-2.3 2.88-2.61 2.62-2.87 2.31-3.09 2.01-3.3 1.72-3.54 1.36-3.68.99-3.82.6-3.99.23-4.17-.23-4.18-.6-3.98-.99-3.82-1.36-3.68-1.72-3.55-2.01-3.3-2.31-3.08-2.62-2.87-2.88-2.61-3.09-2.3-3.31-2.01-3.56-1.72-3.68-1.35-3.83-.99-4-.6-4.19-.23-3.99.2-3.9.57-3.81.95-3.71 1.32-3.55 1.68-3.42 2.04-.11.06-1.78.84-1.79.67-2.64.77-2.92.57-3.58.31-3.76-.11-4.25-.69-2.69-.66-2.53-.99-2.4-1.32-2.2-1.61-1.99-1.91-1.77-2.2-1.47-2.42-1.11-2.51-.78-2.63-.42-2.71-.06-2.74.31-2.79 1.8-10.18H90.51l-2.27-.3-2.02-.86-1.72-1.33-1.33-1.72-.85-2.01-.31-2.28v-3.19l.31-2.37.87-2.12 1.35-1.83 1.72-1.41 2.01-.92 2.24-.33h70.5l1.82-.17 1.67-.45 1.55-.75 1.41-.99 1.19-1.19.99-1.41.74-1.54.46-1.68.17-1.82v-5l-.17-1.82-.46-1.67-.74-1.55-.99-1.41-1.19-1.19-1.41-.99-1.55-.74-1.67-.46-1.82-.17h-44l-1.97.19-.29.03h-4.54l-2.27-.31-2.01-.85-1.72-1.33-1.33-1.72-.86-2.01-.31-2.28v-3.19l.31-2.28.86-2.01 1.33-1.72 1.72-1.33 2.01-.86 2.27-.3h46.09l1.69-9.55.87-3.29 1.33-3 1.8-2.75 2.19-2.44 2.5-2.05 2.82-1.69 3.05-1.24 3.21-.75 3.42-.24.1-.01.39-.02h71.89l2.94.21 2.74.56 2.58.89 2.44 1.23 2.98 2.11 2.52 2.52 2.11 2.97 1.24 2.43.89 2.58.56 2.73.21 2.93-.21 2.92-.56 2.73-.89 2.58-1.24 2.43-2.11 2.97-2.52 2.52-2.98 2.11-2.44 1.23-2.58.89-2.74.56-2.94.21h-54.9l-6.1 34.54 6.38-.75 6.28-.25 6.87.29 6.63.81 6.41 1.31 6.23 1.81 6.1 2.31 5.8 2.72 5.54 3.14 5.28 3.57 5.01 3.96 4.65 4.3 4.3 4.63 3.98 4.99 3.57 5.27 3.15 5.53 2.73 5.79 2.31 6.08 1.82 6.21 1.31 6.4.81 6.61.29 6.85-.29 6.84-.81 6.61-1.31 6.41-1.82 6.21-2.31 6.08-2.73 5.79-3.15 5.52-3.57 5.27-3.98 4.99-4.3 4.64-4.65 4.29-5.01 3.97-5.28 3.57-5.54 3.14-5.8 2.72-6.1 2.31-6.23 1.81-6.41 1.31-6.63.8z"/><path fill="#a0c8ff" fill-opacity=".151" d="m619.59 422.58.28 1.8.45 1.91.95 2.91 1.33 3.11 2.09 3.87 2.62 3.89 3.67 4.39 2.81 2.76 2.75 2.31 2.69 1.9 4.17 2.43 3.57 1.66 3.4 1.25 2.34.68 2.24.49-8.41 8.4-2.59 2.26-2.75 1.82-2.93 1.41-3.08 1.02-3.13.61-3.2.2-3.19-.2-3.13-.61-3.08-1.02-2.93-1.41-2.75-1.82-2.59-2.26-2.26-2.6-1.82-2.75-1.41-2.92-1.02-3.08-.61-3.13-.2-3.2.2-3.19.61-3.13 1.02-3.08 1.41-2.93 1.82-2.75 2.26-2.59z"/><path fill="#a3b1bf" fill-rule="evenodd" d="m619.59 422.58-8.4 8.41-2.26 2.59-1.82 2.75-1.41 2.93-1.02 3.08-.61 3.13-.2 3.19.2 3.2.61 3.13 1.02 3.08 1.41 2.92 1.82 2.75 2.26 2.6 2.59 2.26 2.75 1.82 2.93 1.41 3.08 1.02 3.13.61 3.19.2 3.2-.2 3.13-.61 3.08-1.02 2.93-1.41 2.75-1.82 2.59-2.26 8.41-8.4-2.37-.63-2.44-.8-3.49-1.4-3.65-1.77-4.1-2.48-2.64-1.91-2.61-2.26-2.56-2.62-3.36-4.18-2.52-3.81-2.09-3.77-1.41-3.1-1.68-4.81zm0 4.24 10.73 17.93 20.38 13.19-6.28 6.28-2.2 1.93-2.38 1.59-2.55 1.26-2.7.92-2.8.55-2.93.19-2.92-.19-2.8-.55-2.7-.92-2.55-1.26-2.38-1.59-2.2-1.93-1.93-2.21-1.59-2.37-1.26-2.55-.92-2.7-.55-2.8-.2-2.93.2-2.92.55-2.8.92-2.7 1.26-2.56 1.59-2.37 1.93-2.2z"/><path fill="#a0c8ff" fill-opacity=".151" d="m648.52 451.53-2.4-1.35-3.18-2.17-3.27-2.63-3.9-3.62-3.62-3.9-2.62-3.29-2.16-3.19-1.35-2.39 2.4 1.35 3.18 2.17 3.27 2.63 3.89 3.62 3.63 3.9 2.61 3.29 2.17 3.19z"/><path fill="#a3b1bf" fill-rule="evenodd" d="m622.23 421.67-1.55.24-1.09.67-.7 1.2-.21 1.69.43 2.42.86 2.36 1.39 2.78 2.03 3.26 3.54 4.68 4.6 5.03 4.02 3.74 3.84 3.08 3.88 2.63 3.36 1.81 2.28.93 1.87.5 1.53.16 1.55-.24 1.09-.67.7-1.2.21-1.69-.43-2.42-.87-2.37-1.39-2.77-2.02-3.26-3.54-4.68-4.6-5.03-4.03-3.74-3.83-3.08-3.88-2.63-3.36-1.82-2.28-.92-1.87-.5zm0 3 1.46.19 1.8.56 2.2 1.03 3.2 1.92 3.49 2.52 3.37 2.81 3.14 2.94 4.5 4.93 3.08 4.06 2.4 3.93 1.29 2.78.7 2.45-.04 1.01-.51.05-1.46-.19-1.8-.56-2.2-1.03-3.2-1.92-3.49-2.52-3.37-2.81-3.14-2.94-4.5-4.93-3.08-4.06-2.4-3.93-1.29-2.78-.7-2.45.04-1.01z"/><path fill="#a3b1bf" fill-rule="evenodd" d="m646.9 420.03.77 1.16.25 1.31-.25 1.31-.77 1.16-11.4 11.4-.71.29-.71-.29-3.53-3.53-.29-.71.29-.71 11.4-11.39 1.16-.78 1.31-.25 1.31.25zm10.6 10.6.78 1.17.25 1.31-.25 1.3-.78 1.17-11.39 11.4-.71.29-.71-.29-3.53-3.54-.29-.71.29-.7 11.39-11.4 1.17-.77 1.31-.25 1.31.25zm-6.49-17.66-.59-.12-.47-.32-.32-.47-.12-.59v-17.82l.12-.59.32-.47.47-.32.59-.12.59.12.47.32.32.47.12.59v17.82l-.12.59-.32.47-.47.32zm13.5 9.15-.48-.08-.45-.25-.39-.46-.17-.54.04-.57.27-.54 19-23.96.46-.39.55-.17.57.04.53.28.39.45.17.55-.04.57-.27.53-19 23.97-.54.42zm5 16.14-.5-.09-.43-.23-.33-.37-.2-.48-.02-.6.21-.53.39-.42.55-.24 40-9.11.6-.01.53.2.41.39.25.55.02.6-.21.53-.39.42-.55.24-40 9.11z"/><path fill="#a0c8ff" fill-opacity=".151" d="M203.01 329.35h35l1.76.25 1.52.63 1.32 1.03 1.02 1.31.63 1.52.25 1.76-.25 1.77-.63 1.51-1.02 1.32-1.32 1.02-1.52.63-1.76.25h-35l-1.77-.25-1.51-.63-1.32-1.02-1.02-1.32-.63-1.51-.25-1.77.25-1.76.63-1.52 1.02-1.31 1.32-1.03 1.51-.63z"/><path fill="#a3b1bf" fill-rule="evenodd" d="m620.01 488.65 1.37-.28 1.1-.74.75-1.11.28-1.37-.28-1.37-.75-1.1-1.1-.75-1.37-.28-1.37.28-1.11.75-.74 1.1-.28 1.37.28 1.37.74 1.11 1.11.74zm155 22 1.76-.25 1.52-.63 1.32-1.02 1.02-1.32.63-1.51.25-1.77-.25-1.76-.63-1.52-1.02-1.32-1.32-1.02-1.52-.63-1.76-.25-1.77.25-1.51.63-1.32 1.02-1.02 1.32-.63 1.52-.25 1.76.25 1.77.63 1.51 1.02 1.32 1.32 1.02 1.51.63zm-271 89 1.76-.25 1.52-.63 1.32-1.02 1.02-1.32.63-1.51.25-1.77-.25-1.76-.63-1.52-1.02-1.32-1.32-1.02-1.52-.63-1.76-.25-1.77.25-1.51.63-1.32 1.02-1.02 1.32-.63 1.52-.25 1.76.25 1.77.63 1.51 1.02 1.32 1.32 1.02 1.51.63zm-334.5-286 1.36-.19 1.16-.49 1.02-.78.78-1.02.49-1.16.19-1.36-.19-1.36-.49-1.16-.78-1.01-1.02-.79-1.16-.49-1.36-.19-1.36.19-1.16.49-1.02.79-.78 1.01-.49 1.16-.19 1.36.19 1.36.49 1.16.78 1.02 1.02.78 1.16.49zm341-74-2.41.33-2.13.9-1.82 1.41-1.41 1.82-.9 2.13-.33 2.41.33 2.41.9 2.13 1.41 1.82 1.82 1.41 2.13.9 2.41.33 2.41-.33 2.13-.9 1.82-1.41 1.41-1.82.9-2.13.33-2.41-.33-2.41-.9-2.13-1.41-1.82-1.82-1.41-2.13-.9zm0 3 1.63.23 1.39.59 1.22.94.94 1.22.59 1.39.23 1.63-.23 1.63-.59 1.39-.94 1.22-1.22.95-1.39.58-1.63.23-1.63-.23-1.39-.58-1.22-.95-.95-1.22-.58-1.39-.23-1.63.23-1.63.58-1.39.95-1.22 1.22-.94 1.39-.59z"/><path fill="#a0c8ff" fill-opacity=".151" d="m510.51 242.65 1.63.23 1.39.59 1.22.94.94 1.22.59 1.39.23 1.63-.23 1.63-.59 1.39-.94 1.22-1.22.95-1.39.58-1.63.23-1.63-.23-1.39-.58-1.22-.95-.95-1.22-.58-1.39-.23-1.63.23-1.63.58-1.39.95-1.22 1.22-.94 1.39-.59z"/><path fill="#a3b1bf" fill-rule="evenodd" d="m734.51 374.85-2.41.33-2.13.9-1.82 1.41-1.41 1.82-.9 2.13-.33 2.41.33 2.41.9 2.13 1.41 1.83 1.82 1.4 2.13.91 2.41.32 2.41-.32 2.13-.91 1.82-1.4 1.41-1.83.9-2.13.33-2.41-.33-2.41-.9-2.13-1.41-1.82-1.82-1.41-2.13-.9zm0 3 1.63.23 1.39.59 1.22.94.94 1.22.59 1.39.23 1.63-.23 1.63-.59 1.39-.94 1.22-1.22.95-1.39.58-1.63.23-1.63-.23-1.39-.58-1.22-.95-.95-1.22-.58-1.39-.23-1.63.23-1.63.58-1.39.95-1.22 1.22-.94 1.39-.59z"/><path fill="#a0c8ff" fill-opacity=".151" d="m734.51 377.85 1.63.23 1.39.59 1.22.94.94 1.22.59 1.39.23 1.63-.23 1.63-.59 1.39-.94 1.22-1.22.95-1.39.58-1.63.23-1.63-.23-1.39-.58-1.22-.95-.95-1.22-.58-1.39-.23-1.63.23-1.63.58-1.39.95-1.22 1.22-.94 1.39-.59z"/><path fill="#a3b1bf" fill-rule="evenodd" d="m289.51 548.85-2.41.33-2.13.9-1.82 1.41-1.41 1.82-.9 2.13-.33 2.41.33 2.41.9 2.13 1.41 1.83 1.82 1.4 2.13.91 2.41.32 2.41-.32 2.13-.91 1.82-1.4 1.41-1.83.9-2.13.33-2.41-.33-2.41-.9-2.13-1.41-1.82-1.82-1.41-2.13-.9zm0 3 1.63.23 1.39.59 1.22.94.94 1.22.59 1.39.23 1.63-.23 1.63-.59 1.39-.94 1.22-1.22.95-1.39.58-1.63.23-1.63-.23-1.39-.58-1.22-.95-.95-1.22-.58-1.39-.23-1.63.23-1.63.58-1.39.95-1.22 1.22-.94 1.39-.59z"/><path fill="#a0c8ff" fill-opacity=".151" d="m289.51 551.85 1.63.23 1.39.59 1.22.94.94 1.22.59 1.39.23 1.63-.23 1.63-.59 1.39-.94 1.22-1.22.95-1.39.58-1.63.23-1.63-.23-1.39-.58-1.22-.95-.95-1.22-.58-1.39-.23-1.63.23-1.63.58-1.39.95-1.22 1.22-.94 1.39-.59z"/><path fill="#a3b1bf" fill-rule="evenodd" d="m100.29 402.47-2.41.32-2.13.91-1.82 1.4-1.41 1.82-.9 2.14-.33 2.41.33 2.41.9 2.13 1.41 1.82 1.82 1.41 2.13.9 2.41.33 2.41-.33 2.14-.9 1.82-1.41 1.4-1.82.91-2.13.32-2.41-.32-2.41-.91-2.14-1.4-1.82-1.82-1.4-2.14-.91zm0 3 1.63.23 1.4.58 1.21.95.95 1.21.58 1.4.23 1.63-.23 1.62-.58 1.4-.95 1.22-1.21.94-1.4.59-1.63.23-1.62-.23-1.4-.59-1.22-.94-.94-1.22-.59-1.4-.23-1.62.23-1.63.59-1.4.94-1.21 1.22-.95 1.4-.58z"/><path fill="#a0c8ff" fill-opacity=".151" d="m100.29 405.47 1.63.23 1.4.58 1.21.95.95 1.21.58 1.4.23 1.63-.23 1.62-.58 1.4-.95 1.22-1.21.94-1.4.59-1.63.23-1.62-.23-1.4-.59-1.22-.94-.94-1.22-.59-1.4-.23-1.62.23-1.63.59-1.4.94-1.21 1.22-.95 1.4-.58z"/><path fill="#a3b1bf" fill-rule="evenodd" d="m299.51 142.65-2.74.26-2.51.68-2.32 1.11-2.11 1.49-1.78 1.78-1.49 2.11-1.11 2.32-.69 2.51-.25 2.74.25 2.74.69 2.51 1.11 2.32 1.49 2.11 1.78 1.78 2.11 1.49 2.32 1.11 2.51.69 2.74.25 2.74-.25 2.51-.69 2.32-1.11 2.11-1.49 1.78-1.78 1.49-2.11 1.11-2.32.68-2.51.26-2.74-.26-2.74-.68-2.51-1.11-2.32-1.49-2.11-1.78-1.78-2.11-1.49-2.32-1.11-2.51-.68zm0 3 2.19.2 2 .55 1.86.89 1.69 1.2 1.43 1.42 1.19 1.69.89 1.86.55 2 .2 2.19-.2 2.19-.55 2-.89 1.86-1.19 1.69-1.43 1.43-1.69 1.19-1.86.89-2 .55-2.19.2-2.19-.2-2-.55-1.86-.89-1.69-1.19-1.43-1.43-1.19-1.69-.89-1.86-.55-2-.2-2.19.2-2.19.55-2 .89-1.86 1.19-1.69 1.43-1.42 1.69-1.2 1.86-.89 2-.55z"/><path fill="#a0c8ff" fill-opacity=".151" d="m299.51 145.65 2.19.2 2 .55 1.86.89 1.69 1.2 1.43 1.42 1.19 1.69.89 1.86.55 2 .2 2.19-.2 2.19-.55 2-.89 1.86-1.19 1.69-1.43 1.43-1.69 1.19-1.86.89-2 .55-2.19.2-2.19-.2-2-.55-1.86-.89-1.69-1.19-1.43-1.43-1.19-1.69-.89-1.86-.55-2-.2-2.19.2-2.19.55-2 .89-1.86 1.19-1.69 1.43-1.42 1.69-1.2 1.86-.89 2-.55z"/><path fill="#a3b1bf" fill-rule="evenodd" d="m315.51 442.65 1.36-.19 1.16-.49 1.02-.78.78-1.02.49-1.16.19-1.36-.19-1.36-.49-1.16-.78-1.01-1.02-.79-1.16-.49-1.36-.19-1.36.19-1.16.49-1.02.79-.78 1.01-.49 1.16-.19 1.36.19 1.36.49 1.16.78 1.02 1.02.78 1.16.49z"/><path fill="#a3b1bf" fill-rule="evenodd" d="m315.51 442.65 1.36-.19 1.16-.49 1.02-.78.78-1.02.49-1.16.19-1.36-.19-1.36-.49-1.16-.78-1.01-1.02-.79-1.16-.49-1.36-.19-1.36.19-1.16.49-1.02.79-.78 1.01-.49 1.16-.19 1.36.19 1.36.49 1.16.78 1.02 1.02.78 1.16.49zm60-296 1.36-.19 1.16-.49 1.02-.78.78-1.02.49-1.16.19-1.36-.19-1.36-.49-1.16-.78-1.01-1.02-.79-1.16-.49-1.36-.19-1.36.19-1.16.49-1.02.79-.78 1.01-.49 1.16-.19 1.36.19 1.36.49 1.16.78 1.02 1.02.78 1.16.49zm-231.95-9.16-1.99-.25-1.9-.79-28.28-16.32-1.62-1.25-1.22-1.59-.77-1.86-.27-2.03V80.74l.27-2.03.77-1.85 1.22-1.6 1.62-1.25 28.28-16.32 1.89-.78 1.99-.26 1.99.26 1.89.78 22.72 13.05.82.57.4.51.08.61-.34.88-.69.63-.89.1-.99-.27-1.01-.49-22.71-13.05-.85-.3-.83-.01-.85.31-30.27 17.32-.69.59-.42.71-.16.89v34.66l.16.89.42.71.69.59 30.27 17.33.85.3h.83l.85-.3 30.29-17.32.68-.59.42-.72.16-.88V89.67l.06-1.06.21-.79.46-.55.89-.22.89.22.46.55.22.79.05 1.06v23.73l-.27 2.03-.77 1.85-1.22 1.6-1.62 1.25-28.28 16.32-1.91.79z"/><path fill="#a0c8ff" fill-opacity=".151" d="m144 112.62-2.82-.26-2.59-.71-2.4-1.15-2.17-1.54-1.85-1.84-1.54-2.17-1.15-2.4-.71-2.59-.26-2.83.26-2.82.71-2.59 1.15-2.4 1.54-2.17 1.84-1.84 2.18-1.54 2.4-1.15 2.59-.71 2.82-.26 2.82.26 2.59.71 2.4 1.15 2.17 1.54 1.85 1.84 1.54 2.18 1.14 2.39.71 2.59.26 2.82-.26 2.82-.71 2.59-1.15 2.4-1.54 2.18-1.84 1.84-2.17 1.54-2.4 1.15-2.59.71z"/><path fill="#a3b1bf" fill-rule="evenodd" d="m144 78.65-3.37.32-3.09.84-2.87 1.37-2.59 1.84-2.2 2.2-1.84 2.59-1.37 2.86-.85 3.09-.31 3.37.31 3.37.85 3.09 1.37 2.87 1.84 2.59 2.2 2.2 2.59 1.84 2.87 1.37 3.09.85 3.37.31 3.37-.31 3.09-.85 2.86-1.37 2.59-1.83 2.21-2.21 1.83-2.59 1.37-2.87.85-3.09.31-3.37-.31-3.37-.85-3.09-1.37-2.86-1.83-2.59-2.21-2.2-2.59-1.84-2.86-1.37-3.09-.84zm0 3 2.82.26 2.59.71 2.4 1.15 2.17 1.54 1.85 1.84 1.54 2.18 1.14 2.39.71 2.59.26 2.82-.26 2.82-.71 2.59-1.15 2.4-1.54 2.18-1.84 1.84-2.17 1.54-2.4 1.15-2.59.71-2.82.26-2.82-.26-2.59-.71-2.4-1.15-2.17-1.54-1.85-1.84-1.54-2.18-1.15-2.4-.71-2.58-.26-2.83.26-2.82.71-2.59 1.15-2.4 1.54-2.17 1.84-1.84 2.18-1.54 2.4-1.15 2.59-.71zm500.51 505-.99-.13-.95-.4-14.12-8.28-.81-.63-.61-.81-.38-.94-.14-1.03v-16.56l.14-1.03.38-.94.61-.81.81-.63 14.12-8.28.94-.4 1-.13.99.13.94.4 11.34 6.62.61.55.04.3-.17.45-.34.32-.45.05-.99-.38-11.34-6.63-.63-.17-.64.17-15.11 8.79-.46.47-.17.64v17.58l.17.64.46.47 15.12 8.79.63.17.63-.17 15.12-8.79.46-.47.17-.64V562.4l.14-.94.23-.28.44-.11.44.11.24.28.13.94v12.03l-.14 1.03-.38.94-.61.81-.81.63-14.12 8.28-.95.4zm0-13-2.14-.29-1.89-.8-1.62-1.26-1.26-1.62-.8-1.89-.29-2.14.29-2.14.8-1.9 1.26-1.62 1.62-1.25 1.89-.8 2.14-.29 2.14.29 1.9.8 1.62 1.26 1.25 1.62.8 1.89.29 2.14-.29 2.14-.8 1.89-1.26 1.62-1.62 1.26-1.89.8zm0-14-1.63.23-1.39.58-1.22.95-.95 1.22-.58 1.39-.23 1.63.23 1.63.58 1.39.95 1.22 1.22.95 1.39.58 1.63.23 1.63-.23 1.39-.58 1.22-.95.95-1.22.58-1.39.23-1.63-.23-1.63-.58-1.39-.95-1.22-1.22-.94-1.39-.59z"/></svg>