<svg xmlns="http://www.w3.org/2000/svg" width="64" height="64" class="icon" viewBox="0 0 1024 1024"><path fill="#FF7058" d="M1013.551 512v27.167c-4.18 68.964-20.898 131.657-48.065 190.172C883.984 896.522 712.62 1013.55 514.09 1013.55c-277.943 0-501.551-225.698-501.551-501.551 0-277.943 223.608-501.551 501.55-501.551 275.854 0 499.462 223.608 499.462 501.551"/><path fill="#FFF" d="M114.939 512a397.061 397.061 0 1 0 794.122 0 397.061 397.061 0 1 0-794.122 0"/><path fill="#FF7058" d="M217.339 512a294.661 294.661 0 1 0 589.322 0 294.661 294.661 0 1 0-589.322 0"/><path fill="#FFF" d="M321.829 512a190.171 190.171 0 1 0 380.342 0 190.171 190.171 0 1 0-380.342 0"/><path fill="#FF7058" d="M426.318 512a85.682 85.682 0 1 0 171.364 0 85.682 85.682 0 1 0-171.364 0"/><path fill="#334A5E" d="M1013.551 539.167c-4.18 68.964-20.898 131.657-48.065 190.172l-73.143-18.808-20.898-71.053-365.714-98.22c-18.809-4.18-29.258-22.989-22.988-41.797 4.18-18.808 22.988-29.257 41.796-22.988l363.624 98.22 54.335-52.244z"/><path fill="#40596B" d="M812.93 208.98c-12.538-12.54-35.526-12.54-48.065 0L491.102 482.743c-12.539 12.539-12.539 35.526 0 48.065 12.539 12.539 35.527 12.539 48.065 0l273.764-273.763c12.538-12.539 12.538-35.527 0-48.065"/><path fill="#84DBFF" d="M890.253 131.657 766.955 252.865l-27.167-110.759L863.086 18.808z"/><path fill="#54C0EB" d="m879.804 280.033 121.208-121.209-110.759-27.167-123.298 121.208z"/></svg>