<svg xmlns="http://www.w3.org/2000/svg" width="620" height="200"><defs><linearGradient id="a" x1="1" x2=".5" y1=".284" y2=".601" gradientUnits="objectBoundingBox" spreadMethod="pad"><stop offset="0" stop-color="#a3b1bf" stop-opacity="0"/><stop offset="1" stop-color="#a3b1bf"/></linearGradient><linearGradient id="b" x1="0" x2="1" y1=".5" y2=".5" gradientUnits="objectBoundingBox" spreadMethod="pad"><stop offset="0" stop-color="#a3b1bf" stop-opacity="0"/><stop offset="1" stop-color="#a3b1bf"/></linearGradient><linearGradient id="c" x1="1" x2=".028" y1=".5" y2=".5" gradientUnits="objectBoundingBox" spreadMethod="pad"><stop offset="0" stop-color="#a3b1bf" stop-opacity="0"/><stop offset="1" stop-color="#a3b1bf"/></linearGradient></defs><path fill="#a3b1bf" fill-rule="evenodd" d="m184.42 62.54-.68-.81-.8-.67-.92-.46-1.06-.17-1.01.1-.97.27-.69.35-.17-.72-.62-1.32-1.12-1.16-1.42-.79-1.62-.3-1.4.17-1.25.5-1.05.81-.75 1.12-.2.46-1.42-.12-.99.24-.75.62-.51.87-.26 1.01zm-11.16-7.92 1.89.27 1.7.74 1.46 1.16 1.12 1.54.83-.05 1.45.16 1.31.43 1.2.7 1.03.93.81 1.12.59 1.34.02.09v1.59h-37.74v-2.1h13.68l.24-1.28.5-1.11.77-.97.97-.76 1.1-.5 1.28-.24 1.13-1.29 1.38-.96 1.56-.6zm-18.24 3.66v2.06h-12.18v-2.06zm-56.43 73.63-.68-.8-.81-.68-.92-.45-1.06-.18-1.01.1-.97.28-.69.35-.17-.73-.62-1.32-1.12-1.16-1.42-.79-1.62-.3-1.4.18-1.25.49-1.05.82-.75 1.11-.2.46-1.41-.11-1 .23-.75.62-.51.88-.26 1zM87.42 124l1.89.26 1.71.74 1.45 1.17 1.12 1.53.83-.05 1.45.16 1.31.43 1.2.71 1.03.93.81 1.12.59 1.34.03.09v1.58H63.09v-2.1h13.68l.25-1.27.5-1.11.76-.97.97-.76 1.11-.5 1.28-.25 1.13-1.29 1.37-.95 1.56-.6zm-18.24 3.65v2.06H57v-2.06zm491.41 4.26-.68-.8-.81-.68-.92-.45-1.06-.18-1.01.1-.97.28-.69.35-.17-.73-.62-1.32-1.12-1.16-1.42-.79-1.62-.3-1.4.18-1.25.49-1.05.82-.75 1.11-.2.46-1.41-.11-1 .23-.75.62-.51.88-.26 1zM549.42 124l1.89.26 1.71.74 1.45 1.17 1.12 1.53.83-.05 1.45.16 1.31.43 1.2.71 1.03.93.81 1.12.59 1.34.03.09v1.58h-37.75v-2.1h13.68l.25-1.27.5-1.11.76-.97.97-.76 1.11-.5 1.28-.25 1.13-1.29 1.37-.95 1.56-.6zm-18.24 3.65v2.06H519v-2.06z"/><path fill="none" stroke="url(#a)" stroke-linecap="round" stroke-width="3" d="m468.62 29.18-3.76 6.21-3.86 5.36-3.93 4.59-4.03 3.88-4.12 3.24-4.23 2.65-4.35 2.09-4.49 1.56-4.67 1.05-4.88.53-5.13-.01-5.41-.56-5.73-1.17-6.09-1.83-6.49-2.53-5.7-2.95-4.3-2.79-3.17-2.63-2.77-3.05-1.82-2.81-1.04-2.64-.48-2.78.09-2.59.63-2.47 1.1-2.32 1.47-2.13 1.87-1.95 2.14-1.69 2.32-1.39 2.53-1.11 2.64-.78 2.61-.39 2.6-.01 2.54.4 2.34.86 2.17 1.34 1.83 1.75 1.53 2.34 1.23 3.07.67 3.25.2 4.11-.41 5.15-.94 5.07-1.72 6.15-2.67 7.43-2.29 4.96-2.74 4.56-3.2 4.2-3.68 3.86-4.19 3.53-4.45 3-4.94 2.62-5.49 2.21-6.07 1.81-6.74 1.36-6.48.76-7.07.28-7.7-.26-8.41-.84-9.16-1.48"/><path fill="#a3b1bf" fill-opacity=".403" stroke="#a3b1bf" stroke-opacity=".403" d="m419 76.95.48-.1.38-.26.26-.38.09-.47v-1.53l-.09-.47-.26-.38-.38-.26-.48-.1-.48.1-.38.26-.26.38-.09.47v1.53l.09.47.26.38.38.26zm0 12.1-.48.1-.38.26-.26.38-.09.47v1.53l.09.47.26.38.38.26.48.1.48-.1.38-.26.26-.38.09-.47v-1.53l-.09-.47-.26-.38-.38-.26zm8.79-7.26h-1.53l-.47.09-.38.26-.26.38-.1.48.1.48.26.38.38.26.47.09h1.53l.47-.09.38-.26.26-.38.1-.48-.1-.48-.26-.38-.38-.26zM412.95 83l-.1-.48-.26-.38-.38-.26-.47-.09h-1.53l-.47.09-.38.26-.26.38-.1.48.1.48.26.38.38.26.47.09h1.53l.47-.09.38-.26.26-.38zM425 87.28l-.41-.27-.45-.09-.46.09-.4.27-.27.4-.09.46.09.45.27.41 1.07 1.07.41.27.45.09.46-.09.4-.27.27-.4.09-.46-.09-.45-.27-.41zm-12-8.56.41.27.45.09.46-.09.4-.27.27-.4.09-.46-.09-.45-.27-.4-1.07-1.08-.41-.27-.45-.09-.46.09-.4.27-.27.4-.09.46.09.45.27.41zm0 8.56-1.07 1.07-.27.41-.09.45.09.46.27.4.4.27.46.09.45-.09.41-.27 1.07-1.07.27-.41.09-.45-.09-.46-.27-.4-.4-.27-.46-.09-.45.09zm11.14-8.2.45-.09.41-.27 1.07-1.07.27-.41.09-.45-.09-.46-.27-.4-.4-.27-.46-.09-.45.09-.41.27-1.07 1.08-.27.4-.09.45.09.46.27.4.4.27z"/><path fill="#a3b1bf" fill-opacity=".403" d="m460.23 27.49.03.6-.18.54-.38.43-.54.27-2.41.64.65 2.42.03.6-.18.54-.38.43-.53.27-.6.03-.54-.18-.43-.38-.27-.54-.65-2.41-2.41.65-.6.03-.54-.18-.43-.38-.27-.53-.04-.6.19-.54.37-.43.54-.27 2.42-.65-.65-2.41-.04-.6.19-.54.37-.43.54-.27.6-.04.54.19.43.37.27.54.64 2.42 2.42-.65.6-.04.54.19.43.37zm-219.61 89.87.13.58-.1.56-.3.49-.49.35-2.29 1.01 1.02 2.29.13.58-.1.56-.3.49-.49.35-.59.13-.56-.1-.48-.3-.35-.49-1.02-2.29-2.28 1.02-.59.13-.56-.1-.48-.3-.35-.49-.13-.59.1-.56.3-.48.49-.35 2.28-1.02-1.02-2.28-.13-.59.1-.56.31-.48.49-.35.58-.13.56.1.49.3.35.49 1.01 2.28 2.29-1.02.58-.13.56.1.49.31z"/><path fill="#a3b1bf" d="m313.9 79.06-2.31 1.77-.54.21-1.38-1.3-1.75-1.08-1.94-.78-2.09-.48-2.13-.13-2.06.23-1.89.66-1.69 1.03-3.19 2.67-1.67 1.36-1.86 1.21-2.08.9-2.55.5-.13.27 1.11 1.18 1.75 1.31 2.69 1.65 2.99 1.48 3.33 1.21 2.31.55 2.21.2 2.13-.11 1.98-.5 1.65-.69 1.36-.85 1.76-1.57 1.19-1.51.86-1.53.36-.92.25-1.99-.06-.9 2.28-1.74.65-.66.16-.37-.1-.49-.3-.46-.41-.35-.46-.15zm-2.97 4.71-2.78 1.74-2.97 1.14-3.07.68-2.83.29-2.68.05-1.92-.1-1.85-.21 2.56-.19 2.62-.42 3.69-.96 2.51-.88 2.68-1.25 2.86-1.66.73.84z"/><path fill="#a3b1bf" fill-rule="evenodd" d="m341.04 111.19-.41-.19-.37.24-1.14 1.57-1.14 1.02-2.42 1.35-1.46.74-1.24 1-.63.95-.4 1.25-.14 1.66.16 2.21-1.54.25-1.16.05-1.15-.08v1.87l1.68-.09 1.46-.25 2.46-.78 1.3-.61 1.12-.73.13-.1 1.54-1.45 1.14-1.49.89-1.54.53-1.16.41-1.19-.27 2.21-.72 2-1.16 1.83-1.51 1.58-1.75 1.23-2.02.91 1.9.45 1.65.09 1.73-.31 1.46-.72 1.27-1.2.97-1.65.58-1.93.21-2.31-.14-1.91-.38-1.78-.63-1.65z"/><path fill="#a3b1bf" fill-opacity=".15" d="m367.61 115.82 8.23 23h-8.23zM263.96 52.65l-1 78-24.93-67.46zm71.75-26 5.31 14h-43.23z"/><path fill="#a3b1bf" fill-rule="evenodd" d="M262 39h32.82l41.71-15.18L342.04 39H369v74.38L379.01 141H366V42H265v99h-3v-8.3l-26.16-72.23L262 50.95zm107 81.68V137h6.02zM262 54.3l-22.09 8.04 22.09 60.6zM338.88 39l-4.13-11.18L304.03 39z"/><path fill="#a3b1bf" fill-opacity=".477" fill-rule="evenodd" d="m263.21 106.51.83 2.29-2.38.87-.84-2.29zm.54-13.15.83 2.29-7.09 2.58-.83-2.29zm-1.35-12.47.83 2.29-9.9 3.61-.84-2.29zm-8.55-12.49 1.44-.22 1.35.34 1.13.81.76 1.25.22 1.45-.34 1.34-.82 1.13-1.24.76-1.45.22-1.35-.34-1.12-.82-.77-1.24-.21-1.45.34-1.34.81-1.13z"/><path fill="#a3b1bf" fill-opacity=".248" d="M268 141h-3V42h101v99h-3V45h-95z"/><path fill="#a3b1bf" fill-opacity=".248" d="M290 131h66v3h-80v-3h11v-21h-11v-3h11v-9h-11v-3h11v-9h-11v-3h11v-9h-11v-3h11V52h3v7h66v3h-66v9h66v3h-66v9h5v3h-5v9h66v3h-66v9h66v3h-66v9h43v3h-43zm66-12v3h-14v-3zm0-36v3h-44v-3z"/><path fill="none" stroke="#a3b1bf" stroke-opacity=".3" stroke-width="3" d="m282.5 60-.2.98-.53.79-.79.53-.98.2-.98-.2-.79-.53-.53-.79-.2-.98.2-.98.53-.79.79-.53.98-.2.98.2.79.53.53.79zm0 61-.2.98-.53.79-.79.53-.98.2-.98-.2-.79-.53-.53-.79-.2-.98.2-.98.53-.79.79-.53.98-.2.98.2.79.53.53.79z"/><path fill="url(#b)" fill-rule="evenodd" d="M211 137h51v4h-51Z"/><path fill="url(#c)" fill-rule="evenodd" d="M376 137h45v4h-45Z"/><text xml:space="preserve" x="281" y="162.708" fill="#a3b1bf" font-family="'Noto Sans CJK SC'" font-size="16" font-weight="400" letter-spacing="0">暂无数据</text><text xml:space="preserve" x="187.342" y="189" fill="#a3b1bf" font-family="'Noto Sans CJK SC'" font-size="12" font-weight="400" letter-spacing="0">十分遗憾，查询无果，请输入正确的ID进行查询</text></svg>