<svg xmlns="http://www.w3.org/2000/svg" width="149" height="142"><defs><clipPath id="a"><path d="m270.24 91.71-2.98 1.41-2.55 1.81-2.17 2.2-1.76 2.55-1.28 2.74-.82 2.99-.29 3.07.25 3.11.84 3.19 1.41 2.99 1.8 2.55 2.21 2.16 2.54 1.76 2.75 1.28 2.98.82 3.08.3 3.11-.26 3.19-.84 2.98-1.41 2.55-1.8 2.17-2.2 1.76-2.55 1.28-2.75.82-2.98.29-3.08-.25-3.11-.84-3.19-1.41-2.98-1.8-2.55-2.21-2.16-2.54-1.77-2.75-1.28-2.98-.81-3.08-.3-3.11.26z"/></clipPath></defs><path fill="#e2e5f1" fill-opacity=".8" d="M124.75 118.91H32.44l-1.56-.39-1.23-.92-.81-1.31-.25-1.59V50.08h100v64.62l-.25 1.59-.8 1.31-1.23.91zm3.84-72.16h-100V34.79l.25-1.59.81-1.31 1.23-.92 1.56-.39h92.31l1.56.39 1.23.92.8 1.31.25 1.59v11.95Zm-87.92-6.03 1.46 1.46.72.29.72-.3.3-.72-.29-.73-1.45-1.46 1.45-1.46.29-.46v-.54l-.27-.47-.47-.27-.54.01-.46.28-1.46 1.45-1.46-1.45-.46-.28-.54-.01-.47.27-.27.47.01.54.28.46 1.45 1.46-1.45 1.46-.31.73.31.73.72.3.73-.3zm20.68-4.64-1.21.24-.98.66-.66.98-.24 1.21.24 1.21.66.97.98.66 1.21.25 1.21-.25.97-.66.66-.97.25-1.21-.25-1.21-.66-.98-.97-.65zm-10 0-.91.13-.81.39-.66.6-.48.78-.22.9.05.89.29.84.55.74.74.55.84.3.89.04.9-.22.79-.47.6-.67.38-.8.14-.91-.25-1.21-.66-.98-.97-.65z"/><path fill="#a4bfff" fill-opacity=".8" d="m142.5 86.92-1.47-.21-1.27-.53-1.1-.86-.86-1.1-.52-1.26-.21-1.48.21-1.48.52-1.26.86-1.11 1.1-.85 1.27-.53 1.47-.21 1.48.21 1.27.53 1.1.85.85 1.11.53 1.26.21 1.48-.22 1.47-.53 1.26-.85 1.1-1.1.86-1.26.53zm0-9.01-1.4.28-1.12.77-.76 1.12-.28 1.4.28 1.4.76 1.12 1.12.76 1.4.29 1.4-.29 1.13-.76.76-1.12.28-1.4-.29-1.4-.76-1.12-1.12-.76z"/><path fill="#c2c8d8" fill-opacity=".8" d="m28.46 54.1-8.26-8.27 8.26-8.26 8.27 8.26Zm-5.37-8.27 5.45 5.46L34 45.83l-5.46-5.45Z"/><path fill="#417aff" fill-opacity=".8" d="m87.22 8.6-.71-.29-.29-.71V5.37h-2.23l-.71-.29-.29-.71v-.15l.29-.7.71-.3h2.23V1l.29-.71.71-.29h.15l.7.29.3.71v2.22h2.22l.71.3.29.7v.15l-.29.71-.71.29h-2.22V7.6l-.3.71-.7.29Z"/><path fill="#c2c8d8" fill-opacity=".8" d="m72.3 139.88-.71-.29-.29-.71v-3.62h-3.62l-.71-.29-.29-.71v-1.08l.29-.71.71-.29h3.62v-3.62l.29-.71.71-.29h1.08l.7.29.3.71v3.62H78l.7.29.3.71v1.08l-.3.71-.7.29h-3.62v3.62l-.3.71-.7.29Z"/><path fill="#f1f3f8" fill-opacity=".8" d="m12.46 30.58-.7-.29-.3-.71v-3.04H8.42l-.7-.3-.3-.7v-.7l.3-.7.7-.3h3.04V20.8l.3-.7.7-.3h.7l.7.3.3.7v3.04h3.04l.7.3.3.7v.7l-.3.7-.7.3h-3.04v3.04l-.3.71-.7.29Z"/><path fill="#fff" fill-opacity=".8" d="M87.92 73.03h3.12l.61.13.49.33.33.49.12.61v18.67l-.12.61-.33.49-.49.33-.62.12H66.15l-.61-.12-.49-.33-.33-.49-.13-.61V74.59l.13-.61.33-.49.49-.33.61-.13h3.11v-1.55l.16-1.71.42-1.56.69-1.44 1.46-1.89 1.89-1.46 1.45-.69 1.56-.43 1.7-.16 1.71.16 1.56.43 1.44.69 1.89 1.46 1.46 1.89.69 1.44.43 1.56.15 1.71zM77.04 85.06v3.53h3.11v-3.53l.79-.66.53-.84.22-.97-.09-1.03-.43-.94-.68-.72-.88-.47-1.02-.17-1.02.17-.87.47-.68.72-.43.94-.1 1.03.23.97.52.84zm7.77-12.03v-1.55l-.24-1.69-.6-1.45-.98-1.26-1.26-.98-1.45-.6-1.69-.24-1.69.24-1.45.6-1.26.98-.98 1.26-.6 1.45-.24 1.69v1.55z"/><path fill="#417aff" fill-opacity=".8" d="m41.38 83.68-3.36 1.63-3.46 1.24-3.58.85-3.66.46-3.67.06-3.72-.34-.7.13-.45.54-1.56 3.39-1.89 3.15-2.23 2.93-2.53 2.68-2.8 2.38-3.09 2.09-.48.62.1.78 10.48 18.15 1.4 1.87 1.84 1.67 2.35 1.49 2.55 1.18 2.74.95 2.96.71 4.48.57 4.22-.02 2.75-.37 2.28-.62 1.88-.84 1.62-1.18 1.65-1.64 1.68-2.2 2.12-3.64 1.76-4.17.88-2.93.57-2.86.26-2.8-.1-2.79-.52-2.44-.91-2.14-10.48-18.15-.61-.48zm-1.44 27.62.79-.1.63.48 1.24 2.15.1.79-.48.62-3.46 2 2.38 4.13.1.79-.48.63-2.15 1.24-.79.1-.62-.48-6.4-11.07-2.1.22-1.96-.25-1.86-.72-1.65-1.13-1.31-1.47-1.01-1.86-.5-2.06-.02-1.97.47-1.94.89-1.79 1.28-1.5 1.71-1.25 1.97-.78 1.95-.28 1.99.2 1.89.65 1.66 1.06 1.46 1.52 1.04 1.85.54 1.89.08 2-.39 1.96-.83 1.79-1.31 1.66 1.69 2.93 3.47-2Z"/><path fill="#417aff" fill-opacity=".8" d="m25.43 106.28.73.91.93.65 1.08.35 1.17.02 1.12-.33.95-.61.74-.86.47-1.08.13-1.16-.21-1.11-.51-1.01-.82-.84-1.02-.57-1.11-.23-1.13.09-1.08.42-1.18 1.04-.65 1.34-.11 1.49z"/><path fill="#697391" fill-opacity=".8" d="m125.06 52.1-2.33.67-2.32.36-2.34.04-2.32-.26-2.24-.55-2.18-.84-2.05-1.12-1.9-1.38-1.75-1.67-1.51-1.9-1.22-2.01-.93-2.14-.65-2.24-.35-2.28-.06-2.34.25-2.32.55-2.28.88-2.26 1.66-2.85 2.02-2.38 2.38-1.97 2.69-1.53 2.85-1.04 3.05-.55 3.09-.03 3.07.53 3.11 1.11 2.85 1.67 2.38 2.02 1.96 2.38 1.54 2.69 1.03 2.85.56 3.04.02 3.09-.53 3.08-1.11 3.1-1.14 2.1-1.38 1.88-1.62 1.69-1.83 1.47-2 1.21zM111.72 36l-.37.24-.23.35-.09.41.08.43.23.37.35.24.4.1.44-.07 5.8-2.11.37-.25.23-.35.09-.4-.08-.44-.24-.37-.34-.24-.41-.09-.43.07zm4.03-7.2-.67.41-.43.6-.18.72.12.77.41.66.6.44.71.18.77-.12.67-.41.43-.6.18-.72-.12-.77-.39-.64-.61-.45-.74-.18zm-5.88 2.14-.66.41-.44.6-.17.72.11.77.41.66.6.43.72.18.77-.11.66-.41.43-.6.18-.72-.11-.77-.4-.65-.61-.44-.74-.18z"/><g fill-opacity=".128" clip-path="url(#a)"><path fill="#fff" d="m112.63 29.26.6 2.28.19 2.22-.22 2.19-.58 2.14-.91 1.96-1.26 1.82-1.55 1.57-1.82 1.29-2.13 1-2.28.6-2.22.19-2.2-.22-2.13-.58-1.96-.91-1.82-1.26L90.77 42l-1.29-1.82-1.01-2.13-.6-2.28-.18-2.22.21-2.2.58-2.13.92-1.96 1.26-1.82 1.54-1.57 1.83-1.29 2.13-1.01 2.28-.6 2.22-.18 2.19.21 2.14.58 1.96.92 1.82 1.26 1.57 1.54 1.29 1.83z"/><path fill="#2a3a60" d="m141.75 37.82.44 2.03-.1 1.98-.6 1.88-1.06 1.67-1.45 1.35-1.84.97-2.04.45-1.98-.11-1.88-.6-1.67-1.05-1.35-1.45-.97-1.85-.45-2.04.11-1.98.6-1.88 1.05-1.66 1.45-1.36 1.85-.97 2.04-.44 1.98.1 1.88.6 1.66 1.06 1.36 1.45z"/></g><path fill="none" stroke="#c2c8d8" stroke-dasharray="2.0009458 2.0009458" stroke-opacity=".8" d="m132.62 17.63 3.95-.89 3.02-.19 1.85.28 1.29.6.87.86.41 1.08.05 1.32-.39 1.65-.98 2.09-1.64 2.5-2.36 2.86-3.23 3.28-3.44 3.03-3.99 3.1-4.6 3.19-4.79 2.91-4.46 2.39-4.16 1.9-4.31 1.62-3.57 1-2.96.48-2.3.04-1.67-.31-1.18-.58-.82-.82-.45-1.21.04-1.54.65-2.04 1.03-1.93 1.55-2.26 2.21-2.65"/></svg>