<svg xmlns="http://www.w3.org/2000/svg" width="64" height="64" class="icon" viewBox="0 0 1024 1024"><path fill="#49E8CE" d="M91.5 424.3h841.3v247.9H91.5z"/><path d="M857.6 844.1H166.4C110.5 844.1 65 798.6 65 742.7V372c0-55.9 45.5-101.4 101.4-101.4h51.9c33.4 0 57.9-16.4 74.8-50.1 6.3-15.4 24.8-39.5 57.8-39.5h506.7c55.9 0 101.4 45.5 101.4 101.4v460.2c0 56-45.5 101.5-101.4 101.5m-691.2-521c-26.9 0-48.8 21.9-48.8 48.8v370.7c0 26.9 21.9 48.8 48.8 48.8h691.2c26.9 0 48.8-21.9 48.8-48.8V282.5c0-26.9-21.9-48.8-48.8-48.8H350.9c-5.4 0-8.2 4.9-9.1 6.9l-.5 1.7-.5.6c-25.9 52.6-68.3 80.3-122.4 80.3h-52z"/><path d="M802.1 303.9a35.9 35.9 0 1 0 71.8 0 35.9 35.9 0 1 0-71.8 0m-224.1 15H464.6c-14.5 0-26.3-11.8-26.3-26.3s11.8-26.3 26.3-26.3H578c14.5 0 26.3 11.8 26.3 26.3s-11.8 26.3-26.3 26.3m-349.3-86.4H115.4c-14.5 0-26.3-11.8-26.3-26.3s11.8-26.3 26.3-26.3h113.3c14.5 0 26.3 11.8 26.3 26.3s-11.8 26.3-26.3 26.3"/><path fill="#FFF" d="M340.7 548.2a180.6 180.6 0 1 0 361.2 0 180.6 180.6 0 1 0-361.2 0"/><path d="M521.3 755.1c-114.1 0-206.8-92.8-206.8-206.8s92.8-206.8 206.8-206.8 206.8 92.8 206.8 206.8-92.7 206.8-206.8 206.8m0-361.1C436.2 394 367 463.2 367 548.2s69.2 154.3 154.3 154.3 154.3-69.2 154.3-154.3S606.4 394 521.3 394"/><path d="M518.2 646.4c-54.4 0-98.7-44.3-98.7-98.7 0-54.4 44.3-98.7 98.7-98.7 39.8 0 75.5 23.7 90.9 60.3 5.7 13.4-.6 28.8-14 34.5-13.4 5.6-28.8-.6-34.5-14-7.2-17.1-23.9-28.2-42.5-28.2-25.4 0-46.1 20.7-46.1 46.1 0 25.4 20.7 46.1 46.1 46.1 14.5 0 26.3 11.8 26.3 26.3s-11.7 26.3-26.2 26.3"/><path fill="#49E8CE" d="M549.6 584.4a26.3 26.3 0 1 0 52.6 0 26.3 26.3 0 1 0-52.6 0"/></svg>