<svg xmlns="http://www.w3.org/2000/svg" width="151" height="143"><path fill="#e2e5f1" fill-opacity=".8" d="M30.24 33.58h88.08l2.17.21 1.62.57 1.22.89.89 1.21.57 1.63.21 2.16v74.65l-.21 2.17-.57 1.62-.89 1.22-1.22.88-1.62.58-2.17.21H36.91l-2.16-.21-1.63-.58-1.21-.88-.89-1.22-.57-1.62-.21-2.17V40.25l.21-2.16.57-1.63.89-1.21 1.21-.89 1.63-.57 2.16-.21Z"/><path fill="#fff" fill-opacity=".8" d="m76.02 33.58-5.58 18.34 7.88 6.02-8.74 38.95 20.81-41.37-7.68-7.35 9.06-14.59Zm-19.9 27.05-1.62.23-1.39.58-1.21.94-.94 1.21-.58 1.39-.23 1.62v5.83l.23 1.62.58 1.39.94 1.21 1.21.94 1.39.58 1.62.23 1.62-.23 1.39-.58 1.21-.94.94-1.21.58-1.39.23-1.62v-5.84l-.23-1.62-.58-1.38-.94-1.21-1.21-.94-1.39-.58zM99.11 78.4l1.57-.21 1.4-.58 1.26-.96.96-1.26.57-1.39.21-1.57v-5.84l-.23-1.62-.58-1.39-.93-1.21-1.22-.94-1.39-.58-1.62-.23-1.62.23-1.39.58-1.21.94-.94 1.21-.58 1.39-.23 1.62v5.83l.21 1.57.58 1.4.96 1.26 1.26.96 1.39.58z"/><path fill="#fff" fill-opacity=".8" d="m92.72 100.4 1.23-1.01.87-1.22.57-1.48.15-1.58-.25-1.49-.65-1.44-2.03-2.65-2.36-2.22-2.69-1.81-2.95-1.37-3.12-.87-3.32-.37-3.32.38-3.12.86-2.95 1.36-2.71 1.8-2.38 2.19-2.07 2.63-.68 1.49-.26 1.48.14 1.53.51 1.44.86 1.24 1.24 1.07 1.49.68 1.48.26 1.53-.14 1.44-.51 1.24-.86 1.07-1.24 1.29-1.46 1.54-1.12 1.75-.77 1.91-.37 1.89.36 1.72.76 1.51 1.12 1.24 1.46 1.06 1.24 1.23.86 1.43.52 1.51.15 1.48-.25z"/><path fill="#a4bfff" fill-opacity=".8" d="m145.59 101.38-1.48-.21-1.27-.53-1.1-.85-.85-1.1-.53-1.27-.21-1.47.21-1.48.53-1.27.85-1.1 1.1-.85 1.27-.53 1.48-.21 1.47.21 1.27.53 1.1.85.86 1.1.53 1.27.2 1.48-.21 1.47-.53 1.26-.86 1.1-1.1.85-1.26.54zm0-9-1.4.28-1.13.76-.76 1.12-.28 1.4.28 1.4.76 1.13 1.13.76 1.4.28 1.4-.28 1.12-.76.76-1.13.28-1.4-.29-1.39-.76-1.12-1.12-.76z"/><path fill="#c2c8d8" fill-opacity=".8" d="m27.3 57.1-8.27-8.27 8.27-8.26 8.26 8.26Zm-5.38-8.27 5.46 5.46 5.46-5.46-5.46-5.45Z"/><path fill="#417aff" fill-opacity=".8" d="m57.05 8.6-.71-.29-.29-.71V5.37h-2.23l-.71-.29-.29-.71v-.15l.29-.7.71-.3h2.23V1l.29-.71.71-.29h.15l.7.29.3.71v2.22h2.22l.71.3.29.7v.15l-.29.71-.71.29H58.2V7.6l-.3.71-.7.29Z"/><path fill="#c2c8d8" fill-opacity=".8" d="m71.13 142.88-.71-.29-.29-.71v-3.62h-3.62l-.71-.29-.29-.71v-1.08l.29-.71.71-.29h3.62v-3.62l.29-.71.71-.29h1.08l.71.29.29.71v3.62h3.62l.71.29.29.71v1.08l-.29.71-.71.29h-3.62v3.62l-.29.71-.71.29Z"/><path fill="#f1f3f8" fill-opacity=".8" d="m13.3 29.66-.71-.29-.29-.71v-3.04H9.26l-.71-.29-.29-.71v-.69l.29-.71.71-.29h3.04v-3.04l.29-.71.71-.29h.69l.71.29.29.71v3.04h3.04l.71.29.29.71v.69l-.29.71-.71.29h-3.04v3.04l-.29.71-.71.29ZM139.87 56.1l-.71-.29-.29-.71V53h-2.1l-.71-.29-.29-.71v-.07l.29-.7.71-.3h2.1v-2.1l.29-.7.71-.3h.06l.71.3.29.7v2.1h2.1l.71.3.29.7V52l-.29.71-.71.29h-2.1v2.1l-.29.71-.71.29Z"/><path fill="#417aff" fill-opacity=".8" d="m38.4 84.12-36.38 21-.7.62-.38.8-.07.88.3.89 18.67 32.33.6.68.81.41.91.06.86-.3 36.38-21 .68-.6.4-.81.06-.91-.29-.86-18.67-32.34-.61-.7-.8-.38-.89-.07zm13.45 32.64L23.56 133.1 17.73 123l2.56-9.56 15.94 4.27 2.56-9.56 9.57 2.56Zm-13.37-13.83-1.29.51-1.35.11-1.32-.29-1.22-.67-.96-1-.61-1.2-.25-1.33.16-1.38.55-1.27.88-1.03 1.13-.73 1.34-.39 1.39.03 1.28.41 1.11.77.87 1.09.47 1.14.15 1.17-.16 1.23-.47 1.14-.72.94z"/><path fill="#697391" fill-opacity=".8" d="m109.19 34.5 7.59 7.59-2.51 2.51-7.59-7.59-2.35 1.55-2.44 1.08-2.56.64-2.64.22-2.59-.22-2.57-.65-2.42-1.06-2.23-1.47-2.05-1.92-1.68-2.26-1.22-2.37-.78-2.53-.36-2.62.07-2.6.51-2.6.92-2.48 1.35-2.3 1.8-2.16 2.16-1.8 2.3-1.35 2.48-.92 2.6-.5 2.6-.08 2.62.36 2.53.79 2.37 1.21 2.26 1.68 1.92 2.06 1.47 2.22 1.06 2.42.65 2.57.21 2.59-.21 2.64-.64 2.56-1.08 2.44zm-3.56-1.32 1.42-1.76 1.04-1.87.68-2.01.33-2.09-.02-2.08-.38-2.09-.73-1.99-1.08-1.85-1.46-1.72-1.75-1.44-1.86-1.05-2-.69-2.1-.35-2.07.01-2.09.36-2 .71-1.86 1.07-1.74 1.44-1.44 1.74-1.07 1.86-.71 1.99-.36 2.09-.01 2.08.35 2.1.7 2 1.05 1.86 1.43 1.75 1.73 1.46 1.84 1.08 1.99.72 2.09.38 2.08.03 2.1-.34 2-.68 1.87-1.03 1.77-1.42zm-6.82-15.41-.96.64-.68.88-.38 1.06-.03 1.15.35 1.1.66.91.9.65 1.1.35 1.16-.03 1.05-.37.88-.69.64-.96.3 1.6-.06 1.52-.39 1.5-.7 1.37-.98 1.18-1.28.99-1.48.67-1.5.32-1.54-.03-1.51-.35-1.37-.66-1.27-1.01-1.01-1.27-.67-1.38-.35-1.5-.02-1.55.32-1.49.67-1.48.99-1.28 1.17-.98 1.38-.7 1.49-.4 1.53-.05z"/><path fill="none" stroke="#c2c8d8" stroke-dasharray="2 2" stroke-opacity=".8" d="m105.76 49.6 4.77 3.88 5.3 4.68 8.96 8.46.58 4.67-.64 1.36-.71.9-.78.54-1.37.36-1.41-.2-1.32-.65-1.13-1-.81-1.26-.36-1.38.06-.92.35-.92.69-.94 1.19-.88 1.41-.54 1.69-.19 1.69.19 1.76.57 1.84 1 1.62 1.31 1.5 1.76 1.37 2.29.97 2.48.65 3.03.26 3.7-.18 3.72-.64 3.82-1.12 3.94-1.62 3.74-2.34 3.82-3.15 3.92-2.62 2.61-3.2 2.64-3.86 2.68-4.61 2.71-4.56 2.28-5.36 2.26-6.27 2.23-7.28 2.2"/></svg>