<svg xmlns="http://www.w3.org/2000/svg" width="242" height="171"><defs><clipPath id="a"><path fill-rule="evenodd" d="m212.5 151.11-.35.44-1.54.61-4.09.79-6.47.75-9.85.75-10.87.56-13.34.45-14.03.27-15.61.1-15.6-.1-14.04-.27-13.33-.45-10.87-.56-9.85-.75-6.47-.75-4.09-.79-1.54-.61-.35-.44.35-.44 1.54-.61 4.09-.79 6.47-.75 9.85-.75 10.87-.56 13.33-.45 14.04-.27 15.6-.1 15.61.1 14.03.27 13.34.45 10.87.56 9.85.75 6.47.75 4.09.79 1.54.61z"/></clipPath></defs><path fill="#a3b1bf" fill-opacity=".102" d="m37.51 8.85 1.3.19 1.11.47.98.77.75.98.46 1.13.19 1.32v35.96l.18 1.32.47 1.13.75.98.97.77 1.12.47 1.3.19 1.29-.19 1.12-.47.97-.77.75-.98.47-1.13.18-1.32V31.76l.19-1.32.46-1.13.75-.98.98-.76 1.11-.47 1.3-.19 1.3.19 1.11.47.97.76.76.98.46 1.13.19 1.32v8.47l.18 1.32.47 1.13.75.98.97.77 1.11.47 1.3.19 1.3-.19 1.12-.47.97-.77.75-.98.47-1.13.18-1.32V18.56l.18-1.32.47-1.13.75-.98.97-.77 1.12-.47 1.3-.18 1.3.18 1.11.47.97.77.75.98.47 1.13.18 1.32v27.96l-40.4 19.71-1.24.94-.75 1.26-.25 1.45.32 1.51.08.19 23.1 47.35v2.81l-.19 1.32-.46 1.13-.76.98-.97.77-1.11.47-1.3.19-1.3-.19-1.11-.47-.98-.77-.75-.98-.46-1.13-.19-1.32v-15.81l-.18-1.32-.47-1.13-.75-.98-.97-.76-1.12-.48-1.29-.18-1.3.18-1.12.48-.97.76-.75.98-.47 1.13-.18 1.32v6.15l-.19 1.32-.46 1.13-.75.98-.98.77-1.11.47-1.3.18-1.3-.18-1.11-.47-.97-.77-.76-.98-.46-1.13-.19-1.32V111l-.18-1.31-.47-1.13-.75-.99-.97-.76-1.11-.47-1.3-.19-1.3.19-1.12.47-.97.76-.75.99-.47 1.13-.18 1.31v18.14l-.18 1.32-.47 1.13-.75.98-.97.77-1.12.47-1.3.18-1.3-.18-1.11-.47-.97-.77-.75-.98-.47-1.13-.18-1.32V37.96l.18-1.32.47-1.13.75-.98.97-.76 1.11-.47 1.3-.19 1.3.19 1.12.47.97.76.75.98.47 1.13.18 1.32v1.62l.18 1.32.47 1.13.75.98.97.76 1.12.47 1.3.19 1.3-.19 1.11-.47.97-.76.75-.98.47-1.13.18-1.32V13.71l.19-1.32.46-1.13.76-.98.97-.77 1.11-.47zm172.9 0 1.26.18 1.09.45.96.72.75.94.49 1.08.23 1.27v26.09l.19 1.32.46 1.13.75.98.98.76 1.11.47 1.3.19 1.26-.18 1.1-.45.95-.72.76-.94.48-1.08.23-1.27.01-.21v-1.62l.18-1.32.47-1.13.75-.98.97-.76 1.11-.47 1.3-.19 1.27.18 1.09.44.96.73.75.94.49 1.08.23 1.26v70.4l-.18 1.32-.47 1.13-.75.98-.97.76-1.12.47-1.3.19-1.26-.18-1.09-.44-.96-.73-.75-.94-.49-1.08-.23-1.26v-4.31l-.19-1.31-.46-1.13-.76-.99-.97-.76-1.11-.47-1.3-.19-1.27.18-1.09.45-.95.72-.76.94-.49 1.08-.22 1.27-.01.21v1.08l-.18 1.32-.47 1.13-.75.98-.97.77-1.12.47-1.29.18-1.2-.15-1.06-.42-.93-.66-.75-.86-.33-2.72-.52-2.63v-3.56l-.22-1.45-.6-1.26-.92-1.03-1.19-.73-1.42-2.57-1.62-2.43 10.13-4.94 1.24-.94.76-1.26.25-1.46-.32-1.5-.09-.19-25.15-51.57v-.45l.18-1.32.47-1.13.75-.98.97-.77 1.12-.47 1.3-.18 1.26.17 1.09.45.96.73.76.93.48 1.09.23 1.26v4.41l.19 1.32.46 1.13.76.98.97.76 1.11.48 1.3.18 1.27-.17 1.09-.45.96-.73.75-.94.49-1.08.22-1.26.01-.22V13.71l.18-1.32.47-1.13.75-.98.97-.77 1.12-.47zM28.36 53.53l-1.34.19-1.15.46-.99.74-.78.96-.48 1.1-.19 1.28v26.86l.19 1.28.48 1.1.78.96.99.74 1.15.47 1.34.18 1.34-.18 1.15-.47.99-.74.78-.96.48-1.1.19-1.28V58.26l-.19-1.28-.48-1.1-.78-.96-.99-.74-1.15-.46zm193.17 4.97-1.34.18-1.15.46-1 .74-.77.97-.48 1.1-.19 1.28v21.51l.19 1.28.48 1.1.77.97 1 .74 1.15.46 1.34.18 1.34-.18 1.15-.46.99-.74.78-.97.48-1.1.19-1.28V63.23l-.19-1.28-.48-1.1-.78-.97-.99-.74-1.15-.46zM95.24 31.39l1.26.18 1.09.45.96.72.75.94.49 1.08.23 1.27v1.02l-9.57 4.67v-5.48l.17-1.28.45-1.11.71-.97.93-.76 1.07-.49 1.24-.23zm19.14-9.04 1.27.17 1.09.45.96.73.75.93.49 1.09.23 1.26v.73l-9.57 4.67V27.2l.17-1.29.44-1.1.72-.97.93-.77 1.07-.49 1.24-.23zm19.15-13.5 1.27.18 1.09.45.96.72.75.94.49 1.08.22 1.27.01.22v4.66l-9.58 4.67.01-9.33.17-1.29.44-1.1.72-.97.93-.77 1.06-.49 1.25-.23z"/><path fill="#a3b1bf" fill-opacity=".249" d="m212.5 151.11-.35.44-1.54.61-4.09.79-6.47.75-9.85.75-10.87.56-13.34.45-14.03.27-15.61.1-15.6-.1-14.04-.27-13.33-.45-10.87-.56-9.85-.75-6.47-.75-4.09-.79-1.54-.61-.35-.44.35-.44 1.54-.61 4.09-.79 6.47-.75 9.85-.75 10.87-.56 13.33-.45 14.04-.27 15.6-.1 15.61.1 14.03.27 13.34.45 10.87.56 9.85.75 6.47.75 4.09.79 1.54.61z"/><g clip-path="url(#a)"><path fill="#a3b1bf" fill-rule="evenodd" d="m108.66 153.73 1.4.16.46.19.12.18-.12.18-.46.19-1.4.15-1.39-.15-.47-.19-.11-.18.11-.18.47-.19zm59.34 0 1.4.16.46.19.12.18-.12.18-.46.19-1.4.15-1.4-.15-.46-.19-.12-.18.12-.18.46-.19zm42.52 0 1.4.16.46.19.12.18-.12.18-.46.19-1.4.15-1.4-.15-.46-.19-.12-.18.12-.18.46-.19zm-93.94 0 1.39.16.47.19.11.18-.11.18-.47.19-1.39.15-1.4-.15-.46-.19-.12-.18.12-.18.46-.19zm59.33 0 1.4.16.46.19.12.18-.12.18-.46.19-1.4.15-1.4-.15-.46-.19-.12-.18.12-.18.46-.19zm42.52 0 1.4.16.46.19.12.18-.12.18-.46.19-1.4.15-1.4-.15-.46-.19-.11-.18.11-.18.46-.19zm-118.67 0 1.4.16.46.19.12.18-.12.18-.46.19-1.4.15-1.39-.15-.47-.19-.11-.18.11-.18.47-.19zm59.34 0 1.4.16.46.19.12.18-.12.18-.46.19-1.4.15-1.4-.15-.46-.19-.12-.18.12-.18.46-.19zm42.52 0 1.4.16.46.19.12.18-.12.18-.46.19-1.4.15-1.4-.15-.46-.19-.12-.18.12-.18.46-.19zm-109.77 0 1.4.16.46.19.12.18-.12.18-.46.19-1.4.15-1.4-.15-.46-.19-.11-.18.11-.18.46-.19zm59.34 0 1.4.16.46.19.12.18-.12.18-.46.19-1.4.15-1.4-.15-.46-.19-.12-.18.12-.18.46-.19zm42.52 0 1.4.16.46.19.12.18-.12.18-.46.19-1.4.15-1.4-.15-.46-.19-.12-.18.12-.18.46-.19zm-110.76 0 1.4.16.46.19.12.18-.12.18-.46.19-1.4.15-1.4-.15-.46-.19-.11-.18.11-.18.46-.19zm59.34 0 1.4.16.46.19.12.18-.12.18-.46.19-1.4.15-1.4-.15-.46-.19-.12-.18.12-.18.46-.19zm42.52 0 1.4.16.46.19.12.18-.12.18-.46.19-1.4.15-1.4-.15-.46-.19-.12-.18.12-.18.46-.19zm-109.77 0 1.4.16.46.19.12.18-.12.18-.46.19-1.4.15-1.4-.15-.46-.19-.12-.18.12-.18.46-.19zm59.34 0 1.39.16.47.19.11.18-.11.18-.47.19-1.39.15-1.4-.15-.46-.19-.12-.18.12-.18.46-.19zm-68.24 0 1.4.16.46.19.12.18-.12.18-.46.19-1.4.15-1.4-.15-.46-.19-.12-.18.12-.18.46-.19zm59.34 0 1.39.16.47.19.11.18-.11.18-.47.19-1.39.15-1.4-.15-.46-.19-.12-.18.12-.18.46-.19zm-67.25 0 1.4.16.46.19.12.18-.12.18-.46.19-1.4.15-1.4-.15-.46-.19-.12-.18.12-.18.46-.19zm159.21-3.14 1.4.15.46.19.12.18-.12.18-.46.19-1.4.16-1.39-.16-.47-.19-.11-.18.11-.18.47-.19zm-16.81 0 1.4.15.46.19.12.18-.12.18-.46.19-1.4.16-1.4-.16-.46-.19-.11-.18.11-.18.46-.19zm-25.71 0 1.4.15.46.19.12.18-.12.18-.46.19-1.4.16-1.4-.16-.46-.19-.12-.18.12-.18.46-.19zm34.61 0 1.4.15.46.19.12.18-.12.18-.46.19-1.4.16-1.4-.16-.46-.19-.11-.18.11-.18.46-.19zm-17.8 0 1.4.15.46.19.12.18-.12.18-.46.19-1.4.16-1.4-.16-.46-.19-.11-.18.11-.18.46-.19zm34.61 0 1.4.15.46.19.12.18-.12.18-.46.19-1.4.16-1.39-.16-.47-.19-.11-.18.11-.18.47-.19zm-121.63 0 1.4.15.46.19.12.18-.12.18-.46.19-1.4.16-1.4-.16-.46-.19-.12-.18.12-.18.46-.19zm-16.81 0 1.4.15.46.19.12.18-.12.18-.46.19-1.4.16-1.4-.16-.46-.19-.12-.18.12-.18.46-.19zm78.12 0 1.4.15.46.19.12.18-.12.18-.46.19-1.4.16-1.4-.16-.46-.19-.12-.18.12-.18.46-.19zm16.81 0 1.4.15.46.19.12.18-.12.18-.46.19-1.4.16-1.4-.16-.46-.19-.12-.18.12-.18.46-.19zm-60.32 0 1.4.15.46.19.12.18-.12.18-.46.19-1.4.16-1.4-.16-.46-.19-.12-.18.12-.18.46-.19zm-42.52 0 1.39.15.47.19.11.18-.11.18-.47.19-1.39.16-1.4-.16-.46-.19-.12-.18.12-.18.46-.19zm78.12 0 1.4.15.46.19.12.18-.12.18-.46.19-1.4.16-1.4-.16-.46-.19-.12-.18.12-.18.46-.19zm77.13 0 1.4.15.46.19.12.18-.12.18-.46.19-1.4.16-1.39-.16-.46-.19-.12-.18.12-.18.46-.19zm-121.63 0 1.4.15.46.19.12.18-.12.18-.46.19-1.4.16-1.4-.16-.46-.19-.12-.18.12-.18.46-.19zm-42.52 0 1.39.15.47.19.11.18-.11.18-.47.19-1.39.16-1.4-.16-.46-.19-.12-.18.12-.18.46-.19zm78.12 0 1.4.15.46.19.12.18-.12.18-.46.19-1.4.16-1.4-.16-.46-.19-.12-.18.12-.18.46-.19zm-52.41 0 1.4.15.46.19.12.18-.12.18-.46.19-1.4.16-1.4-.16-.46-.19-.12-.18.12-.18.46-.19zm-34.61 0 1.39.15.47.19.11.18-.11.18-.47.19-1.39.16-1.4-.16-.46-.19-.12-.18.12-.18.46-.19zm79.11 0 1.4.15.46.19.12.18-.12.18-.46.19-1.4.16-1.4-.16-.46-.19-.12-.18.12-.18.46-.19zm-88.01 0 1.39.15.47.19.11.18-.11.18-.47.19-1.39.16-1.4-.16-.46-.19-.12-.18.12-.18.46-.19zm78.12 0 1.4.15.46.19.12.18-.12.18-.46.19-1.4.16-1.4-.16-.46-.19-.12-.18.12-.18.46-.19zm56.37-3.15 1.4.15.46.19.12.18-.12.18-.46.19-1.4.16-1.4-.16-.46-.19-.12-.18.12-.18.46-.19zm-70.22 0 1.4.15.46.19.12.18-.12.18-.46.19-1.4.16-1.39-.16-.46-.19-.12-.18.12-.18.46-.19zm52.42 0 1.4.15.46.19.11.18-.11.18-.46.19-1.4.16-1.4-.16-.46-.19-.12-.18.12-.18.46-.19zm-78.13 0 1.4.15.46.19.12.18-.12.18-.46.19-1.4.16-1.4-.16-.46-.19-.11-.18.11-.18.46-.19zm70.22 0 1.39.15.47.19.11.18-.11.18-.47.19-1.39.16-1.4-.16-.46-.19-.12-.18.12-.18.46-.19zm60.32 0 1.4.15.46.19.12.18-.12.18-.46.19-1.4.16-1.4-.16-.46-.19-.12-.18.12-.18.46-.19zm-139.44 0 1.4.15.46.19.12.18-.12.18-.46.19-1.4.16-1.4-.16-.46-.19-.11-.18.11-.18.46-.19zm70.21 0 1.4.15.47.19.11.18-.11.18-.47.19-1.4.16-1.39-.16-.46-.19-.12-.18.12-.18.46-.19zm60.33 0 1.4.15.46.19.12.18-.12.18-.46.19-1.4.16-1.4-.16-.46-.19-.12-.18.12-.18.46-.19zm-138.45 0 1.4.15.46.19.12.18-.12.18-.46.19-1.4.16-1.4-.16-.46-.19-.12-.18.12-.18.46-.19zm70.21 0 1.4.15.46.19.12.18-.12.18-.46.19-1.4.16-1.39-.16-.47-.19-.11-.18.11-.18.47-.19zm60.33 0 1.4.15.46.19.12.18-.12.18-.46.19-1.4.16-1.4-.16-.46-.19-.12-.18.12-.18.46-.19zm-95.93 0 1.4.15.46.19.12.18-.12.18-.46.19-1.4.16-1.39-.16-.47-.19-.11-.18.11-.18.47-.19zm69.23 0 1.4.15.46.19.11.18-.11.18-.46.19-1.4.16-1.4-.16-.46-.19-.12-.18.12-.18.46-.19zm-111.75 0 1.4.15.46.19.12.18-.12.18-.46.19-1.4.16-1.4-.16-.46-.19-.12-.18.12-.18.46-.19zm69.22 0 1.4.15.46.19.12.18-.12.18-.46.19-1.4.16-1.39-.16-.47-.19-.11-.18.11-.18.47-.19zm60.33 0 1.4.15.46.19.12.18-.12.18-.46.19-1.4.16-1.4-.16-.46-.19-.12-.18.12-.18.46-.19zm-139.44 0 1.4.15.46.19.12.18-.12.18-.46.19-1.4.16-1.4-.16-.46-.19-.12-.18.12-.18.46-.19zm69.22 0 1.4.15.46.19.12.18-.12.18-.46.19-1.4.16-1.39-.16-.46-.19-.12-.18.12-.18.46-.19zm-26.7 0 1.4.15.46.19.12.18-.12.18-.46.19-1.4.16-1.39-.16-.47-.19-.11-.18.11-.18.47-.19z"/></g><path fill="none" stroke="#a3b1bf" stroke-width="3" d="m171.06 4.21.97-.25.94.13.83.47.61.8 36.31 74.44.25.97-.14.94-.47.83-.79.6-9.39 4.58-.34-.44 8.1-3.95 1.07-.8.66-1.08.24-1.28-.27-1.34L174.6 6.98l-.86-1.11-1.15-.67-1.32-.18-1.35.35-127 61.94-1.07.8-.66 1.08-.24 1.29.27 1.33 35.04 71.85.8 1.07 1.08.66 1.29.24 1.33-.27 52.2-25.45.13.53-53.3 26-.97.25-.94-.13-.82-.48-.61-.79-36.31-74.45-.25-.97.13-.94.48-.82.79-.61Z"/><path fill="#a3b1bf" fill-opacity=".248" d="m170.57 6.72.78-.2.75.1.66.38.49.64 34.96 71.67.2.78-.11.75-.38.66-.64.48-9.82 4.8-2.61-2.67 7.7-3.76.61-.46.38-.62.13-.71-.14-.74-.06-.14-31.85-65.31-.49-.63-.66-.38-.75-.11-.78.2L48.31 70.29l-.61.46-.38.62-.13.71.14.75.06.13 31.85 65.31.46.61.62.38.72.13.74-.14.13-.06 51.62-25.17.49 3.7-53.74 26.21-.77.2-.75-.11-.66-.38-.49-.63-34.96-71.68-.2-.77.11-.75.38-.66.63-.49z"/><path fill="#bcd8ff" fill-opacity=".102" d="m168.94 11.45.78-.2.75.11.66.38.49.63 31.85 65.31.2.77-.11.76-.38.66-.63.48-7.7 3.76-3.44-2.82-3.75-2.38-4.08-1.93-4.29-1.42-4.52-.87-4.77-.31-3.8.2-3.63.55-3.47.89-3.35 1.23-4.24 2.14-3.87 2.61-3.52 3.09-3.1 3.52-2.6 3.87-2.14 4.25-1.23 3.34-.89 3.48-.55 3.62-.21 3.8.13 3.05-51.62 25.17-.77.2-.75-.11-.66-.37-.49-.64-31.85-65.31-.2-.77.1-.75.38-.66.64-.49z"/><path fill="#a3b1bf" stroke="#a3b1bf" stroke-width="3" d="m62.4 74.78 44.48-21.7.57-.14.55.08.48.27.36.47.14.56-.07.55-.28.49-.46.35-44.49 21.7-.56.14-.55-.08-.48-.27-.36-.47-.15-.56.08-.55.28-.49zm7.79 15.97 44.48-21.69.57-.15.55.08.48.27.36.47.14.57-.07.55-.28.48-.46.35-44.49 21.7-.56.14-.55-.07-.48-.28-.36-.47-.15-.56.08-.55.28-.48zm7.79 15.97 44.48-21.69.57-.15.55.08.48.28.36.46.14.57-.07.55-.28.48-.46.36-44.49 21.69-.56.15-.55-.08-.48-.28-.36-.46-.15-.57.08-.55.28-.48zm56.61-7.83-1.12 3.79-46.42 22.64-.56.15-.55-.08-.48-.28-.36-.46-.15-.57.08-.55.28-.48.46-.36Zm52.58-25.65.57-.15.55.08.48.28.36.46.14.57-.07.55-.28.48-.46.36-2.06 1-3.68-1.46Z"/><path fill="#a3b1bf" fill-rule="evenodd" d="m142.26 31.96 2.29-.86 2.27-.43 2.3-.02 2.26.37 2.13.73 2.01 1.09 1.8 1.43 1.52 1.73 1.27 2.09.86 2.28.43 2.27.02 2.29-.38 2.26-.73 2.13-1.11 2.01-1.42 1.79-1.74 1.53-2.09 1.27-2.11.82-2.14.44-.56.73-1.59 1.67-1.24 1.69-1.34 2.44-.69 1.79-.44 2.01-.17 2.29.21 2.26.73 2.49 1.35 2.79.21.36.33.87-.02.89-.35.82-.67.64h-.01l-.21.12-.83.22-.82-.08-.74-.37-.6-.64-1.73-3.38-1.03-3.1-.42-2.9.05-2.94.43-2.68.78-2.47 1.68-3.42 1.9-2.68-2.38-1.05-2.15-1.5-1.82-1.91-1.46-2.34-.86-2.29-.43-2.27-.02-2.29.38-2.26.73-2.12 1.11-2.02 1.42-1.79 1.74-1.53zm23.76 18.69 1.54.55 1.41.66 1.91 1.13 1.91 1.43 2.05 2.01 1.83 2.39 1.65 3.11.17.41.18.9-.14.85-.43.73-.69.53-.08.04-.08.03-.91.15-.87-.21-.73-.52-.53-.82-1.09-2.18-1.19-1.74-1.26-1.36-2.08-1.69-1.67-.99-1.9-.78-.01-.01-.84-.42-.61-.69-.32-.86.01-.95.38-.86.64-.59.82-.3zM144.13 35.8l-2.04 1.36-1.53 1.76-1.03 2.08-.48 2.27.12 2.33.77 2.32 1.36 2.04 1.76 1.53 2.08 1.02 2.28.47 2.33-.12 2.33-.77 2.04-1.36 1.53-1.76 1.03-2.09.48-2.27-.12-2.33-.77-2.32-1.36-2.04-1.76-1.52-2.08-1.03-2.28-.47-2.33.13z"/><path fill="#a3b1bf" d="m170 74.38 3.8.2 3.63.55 3.47.89 3.35 1.23 4.24 2.14 3.87 2.61 3.52 3.09 3.1 3.52 2.6 3.87 2.14 4.25 1.23 3.34.89 3.48.55 3.62.21 3.8-.21 3.8-.55 3.63-.89 3.47-1.23 3.35-2.14 4.25-2.6 3.86-3.1 3.52-3.52 3.1-3.87 2.61-4.24 2.13-3.35 1.23-3.47.9-3.63.55-3.8.2-3.8-.2-3.63-.55-3.47-.9-3.35-1.23-4.24-2.13-3.87-2.61-3.52-3.1-3.1-3.52-2.6-3.86-2.14-4.25-1.23-3.35-.89-3.47-.55-3.63-.21-3.8.21-3.8.55-3.62.89-3.48 1.23-3.34 2.14-4.25 2.6-3.87 3.1-3.52 3.52-3.09 3.87-2.61 4.24-2.14 3.35-1.23 3.47-.89 3.63-.55zm0 3.54-4.54.31-4.28.87-4.05 1.41-3.83 1.93-3.5 2.36-3.17 2.8-2.8 3.18-2.36 3.49-1.93 3.84-1.41 4.05-.87 4.27-.32 4.54.32 4.54.87 4.28 1.41 4.05 1.93 3.84 2.36 3.49 2.8 3.18 3.17 2.79 3.5 2.36 3.83 1.93 4.05 1.41 4.28.87 4.54.32 4.54-.32 4.28-.87 4.05-1.41 3.83-1.93 3.5-2.36 3.17-2.79 2.8-3.18 2.36-3.49 1.93-3.84 1.41-4.05.87-4.28.32-4.54-.32-4.54-.87-4.27-1.41-4.05-1.93-3.84-2.36-3.49-2.8-3.18-3.17-2.8-3.5-2.36-3.83-1.93-4.05-1.41-4.28-.87z"/><path fill="#a3b1bf" fill-opacity=".248" d="m170 77.92 4.54.31 4.28.87 4.05 1.41 3.83 1.93 3.5 2.36 3.17 2.8 2.8 3.18 2.36 3.49 1.93 3.84 1.41 4.05.87 4.27.32 4.54-.32 4.54-.87 4.28-1.41 4.05-1.93 3.84-2.36 3.49-2.8 3.18-3.17 2.79-3.5 2.36-3.83 1.93-4.05 1.41-4.28.87-4.54.32-4.54-.32-4.28-.87-4.05-1.41-3.83-1.93-3.5-2.36-3.17-2.79-2.8-3.18-2.36-3.49-1.93-3.84-1.41-4.05-.87-4.28-.32-4.54.32-4.54.87-4.27 1.41-4.05 1.93-3.84 2.36-3.49 2.8-3.18 3.17-2.8 3.5-2.36 3.83-1.93 4.05-1.41 4.28-.87zm0 3.54-4.05.28-3.82.78-3.62 1.26-3.42 1.72-3.12 2.1-2.84 2.5-2.5 2.84-2.1 3.12-1.72 3.42-1.27 3.62-.77 3.82-.28 4.05.28 4.06.77 3.81 1.27 3.62 1.72 3.43 2.1 3.11 2.5 2.84 2.84 2.5 3.12 2.1 3.42 1.73 3.62 1.26 3.82.78 4.05.28 4.05-.28 3.82-.78 3.62-1.26 3.42-1.73 3.12-2.1 2.84-2.5 2.5-2.84 2.1-3.11 1.72-3.43 1.27-3.62.77-3.81.28-4.06-.28-4.05-.77-3.82-1.27-3.62-1.72-3.42-2.1-3.12-2.5-2.84-2.84-2.5-3.12-2.1-3.42-1.72-3.62-1.26-3.82-.78z"/><path fill="#a3b1bf" d="m45.45 132.22.59.12.47.32.32.47.12.59v3.5h3.5l.58.12.48.32.31.47.12.59-.12.58-.31.47-.48.32-.58.12h-3.5v3.5l-.12.59-.32.47-.47.32-.59.12-.59-.12-.47-.32-.32-.47-.12-.59v-3.5h-3.49l-.59-.12-.47-.32-.32-.47-.12-.58.12-.59.32-.47.47-.32.59-.12h3.49v-3.5l.12-.59.32-.47.47-.32zM213.09 15.35l.59.12.47.32.32.47.12.59v3.49h3.49l.59.12.47.32.32.47.12.59-.12.59-.32.47-.47.32-.59.12h-3.49v3.49l-.12.59-.32.47-.47.32-.59.12-.59-.12-.47-.32-.32-.47-.12-.59v-3.49h-3.49l-.59-.12-.47-.32-.32-.47-.12-.59.12-.59.32-.47.47-.32.59-.12h3.49v-3.49l.12-.59.32-.47.47-.32z"/><path fill="none" stroke="#a3b1bf" stroke-width="3" d="m68.15 28.92-.26 1.97-.74 1.75L66 34.12l-1.49 1.15-1.74.74-1.97.27-1.97-.27-1.74-.74-1.49-1.15-1.15-1.48-.74-1.75-.27-1.97.27-1.97.74-1.74 1.15-1.49 1.49-1.15 1.74-.73 1.97-.27 1.97.27 1.74.73L66 23.72l1.15 1.49.74 1.74zm81.46 135.77-.3 1.49-.82 1.2-1.2.82-1.49.3-1.5-.3-1.2-.82-.81-1.2-.3-1.49.3-1.5.81-1.2 1.2-.81 1.5-.3 1.49.3 1.2.81.82 1.2zm86.18-5.91-.11.57-.31.46-.46.31-.57.12-.57-.12-.46-.31-.31-.46-.11-.57.11-.56.31-.46.46-.31.57-.12.57.12.46.31.31.46zM12.67 72.6l-.12.57-.31.46-.46.31-.56.12-.57-.12-.46-.31-.31-.46-.12-.57.12-.56.31-.46.46-.31.57-.12.56.12.46.31.31.46z"/><path fill="#a3b1bf" fill-opacity=".248" d="m170 132.22-1.96-.27-1.73-.75-1.48-1.16-1.15-1.51-.73-1.77-.27-1.99.26-1.96.71-1.74 1.1-1.49 1.44-1.17-.99-1.66-.82-2.07-1.18-4.52-.77-4.11-.51-3.74-.18-2.61.3-2.36.83-2.08 1.29-1.78 1.67-1.37 1.96-.89 2.21-.32 2.21.32 1.96.89 1.67 1.37 1.29 1.78.83 2.08.3 2.36-.18 2.61-.51 3.74-.77 4.11-1.18 4.52-.82 2.07-.99 1.66 1.44 1.17 1.1 1.49.71 1.74.26 1.96-.27 1.99-.73 1.77-1.15 1.51-1.48 1.16-1.73.75z"/><path fill="#a3b1bf" fill-rule="evenodd" d="m166.22 124.77.31-1.54.8-1.23 1.19-.83 1.48-.31 1.48.31 1.19.83.81 1.23.3 1.54-.3 1.54-.81 1.22-1.19.84-1.48.31-1.48-.31-1.19-.84-.8-1.22zM170 94.44l1.27.2 1.1.51.97.83.74 1.06.46 1.22.18 1.44-.37 3.92-1.01 5.79-.73 2.94-.77 2.31-.69 1.39-.6.67-.55.22-.55-.22-.6-.67-.69-1.39-.77-2.31-.73-2.94-1.01-5.79-.37-3.92.18-1.43.46-1.23.74-1.05.97-.84 1.1-.51z"/><path fill="#a3b1bf" fill-opacity=".254" d="m222.67 33.22-.75-.17-.64-.5-.98-1.11-1.26-1.17-.44-.56-.17-.65.07-.67.35-.62.56-.43.65-.18.67.08.61.34 1.51 1.4 1.2 1.36.32.63.06.67-.2.65-.46.54-.53.29zm.97 9.83-.87-.23-.54-.46-.3-.6-.05-.68.22-.67.63-1.38.31-1.29.24-.67.45-.5.6-.3.7-.04.67.23.5.45.3.6.05.71-.47 1.94-.9 1.99-.67.67zm-7.51 7.36-.81-.2-.65-.58-.28-.65v-.67l.25-.63.49-.51 2.71-2.02.62-.33.67-.06.65.19.55.44.33.63.07.67-.19.65-.45.55-2.96 2.21zm-9.23 5.22-.93-.25-.67-.74-.17-.69.09-.67.34-.58.56-.43 3.1-1.57.68-.2.67.07.6.32.45.54.2.68-.07.67-.32.6-.55.45-3.21 1.63zM43.84 102.6l-.95-.27-.67-.78-.15-.69.12-.66.35-.58.58-.41 3.3-1.41.7-.14.66.14.56.37.39.59.14.69-.14.66-.37.57-.59.39-3.21 1.38zm-9.42 4.88-.85-.21-.66-.63-.25-.67.03-.67.28-.61.52-.49 3.15-1.82.68-.2.67.06.59.31.46.55.2.67-.06.67-.31.6-.54.46-2.98 1.72zm-8.07 6.81-.54-.09-.52-.26-.47-.53-.22-.64.04-.67.3-.64 1.16-1.4 1.44-1.45.6-.36.67-.1.65.15.58.41.37.61.1.66-.16.66-.41.57-2.17 2.37-.64.53zm-1.12 9.91-.91-.25-.67-.71-.82-2.02-.39-2 .08-.7.32-.59.52-.43.68-.2.7.08.59.33.43.52.21.68.26 1.31.57 1.39.19.68-.08.67-.32.59-.55.45zm7.42 7.45-.99-.31-2.98-2.22-.44-.56-.19-.64.07-.67.33-.63.55-.44.65-.19.67.07.63.33 2.69 2.02.5.51.25.62v.67l-.28.66-.65.58z"/><path fill="#a3b1bf" fill-rule="evenodd" d="m223.89 30.82-.68-.13-3.24-1.29-.6-.38-.38-.55-.16-.66.12-.7.38-.6.55-.38.66-.16.7.12 3.33 1.33.59.39.37.57.14.66-.14.69-.67.81zm9.51 4.73-.94-.27-2.96-1.68-.55-.45-.32-.6-.08-.66.2-.69.45-.54.59-.32.67-.08.68.2 3.19 1.81.52.49.27.62.03.67-.25.66-.66.62zm6.8 7.72-.63-.12-.54-.32-.38-.49-.2-.63-.31-1.08-.76-1.25-.31-.64-.04-.67.22-.64.47-.53.64-.31.67-.04.64.22.53.47 1.22 2.06.55 1.99-.06.71-.31.6-.51.44-.68.22zm-6.11 7.88-.87-.23-.67-.66-.22-.67.05-.67.3-.61.53-.47 2.69-1.81.63-.33.67-.06.65.2.54.45.33.63.06.67-.2.64-.45.55-1.42 1.05-1.74 1.08zm-9.73 4.22-.54-.09-.48-.24-.38-.37-.27-.5-.1-.7.18-.65.4-.54.62-.36 3.25-1.19.7-.12.65.14.56.38.38.6.13.7-.15.66-.38.55-.6.38-3.39 1.25zm-10.18 3.03-.57-.1-.5-.27-.39-.41-.25-.55-.04-.7.22-.64.45-.5.64-.32 3.38-.91.71-.06.63.21.52.44.32.63.06.7-.21.64-.44.52-.63.32-3.45.94zm-10.34 2.44-.59-.1-.51-.29-.39-.43-.24-.58-.01-.71.26-.62.46-.49.65-.28 3.44-.76.71-.02.62.25.5.46.29.64.01.71-.24.63-.46.49-.65.29-3.47.77zM35.75 85.36l-.57-.1-.5-.26-.39-.42-.25-.54-.04-.71.22-.63.45-.51.63-.31 3.47-.88.71-.03.63.23.49.45.31.65.02.7-.23.63-.45.5-.64.31-3.41.86zm-10.18 3.02-.54-.09-.48-.24-.39-.38-.27-.5-.08-.7.18-.65.4-.54.62-.35 3.41-1.1.71-.07.64.2.53.42.33.62.07.71-.19.64-.42.53-.63.34-3.32 1.06zm-9.86 3.91-.93-.26-.68-.75-.17-.69.11-.66.34-.58.57-.43 3.31-1.47.69-.14.66.14.57.37.39.58.14.7-.13.66-.37.56-.59.4-3.16 1.4zm-8.98 5.6-.72-.15-.61-.45-.35-.62-.09-.67.17-.65.43-.56 2.99-2.28.65-.27h.67l.63.25.5.5.28.65v.67l-.26.63-.49.5-2.64 2.01-.55.33zm-4.96 8.99h-.05l-.69-.16-.54-.39-.37-.57-.12-.69.24-2.04.62-2.01.39-.59.55-.38.66-.14.7.14.59.39.38.56.14.66-.13.69-.43 1.4-.17 1.41-.15.68-.38.54-.56.37zm4.04 9.57-.74-.16-.63-.49-2.21-3.1-.23-.66.04-.68.28-.61.53-.47.67-.24.67.04.61.29.48.52 1.89 2.66.34.62.06.67-.19.65-.44.55-.55.31zm7.78 7.18-.54-.08-.52-.27-2.85-2.27-.44-.56-.18-.65.07-.67.34-.62.56-.44.65-.18.67.07.62.34 2.69 2.15.47.53.22.64-.04.67-.3.64-.64.53zm8.84 5.89-.91-.25-3.05-1.89-.51-.49-.27-.62-.02-.67.26-.67.49-.5.62-.27.67-.02.66.25 2.97 1.84.53.48.28.61.04.67-.24.67-.66.64zm9.29 5.15-.81-.2-3.16-1.67-.54-.45-.32-.6-.06-.67.2-.67.46-.55.59-.31.67-.07.68.21 3.11 1.64.55.44.32.59.08.67-.19.68-.67.71z"/></svg>